<?xml version="1.0" encoding="UTF-8"?>
<!DOCTYPE svg PUBLIC "-//W3C//DTD SVG 1.1//EN" "http://www.w3.org/Graphics/SVG/1.1/DTD/svg11.dtd">
<svg xmlns="http://www.w3.org/2000/svg" xmlns:xlink="http://www.w3.org/1999/xlink" version="1.1" width="20px" height="58px" viewBox="-0.5 -0.5 20 58"><defs/><g><ellipse cx="7.5" cy="7.5" rx="7.5" ry="7.5" fill="transparent" stroke="none" pointer-events="all"/><path d="M 10.2 1.06 C 11.85 1.75 14.07 3.45 14.84 4.81 C 15.62 6.18 15.33 7.8 14.84 9.26 C 14.36 10.72 13.2 12.79 11.95 13.56 C 10.69 14.32 9.02 14.12 7.33 13.82 C 5.64 13.52 2.94 12.79 1.81 11.76 C 0.68 10.74 0.71 9.01 0.55 7.67 C 0.39 6.33 0.03 5.05 0.87 3.71 C 1.71 2.38 3.82 -0.13 5.58 -0.34 C 7.33 -0.55 10.1 1.97 11.42 2.45 C 12.75 2.93 13.48 2.62 13.52 2.56 M 7.96 -1.1 C 9.67 -1.21 11.94 0.53 13.24 1.86 C 14.54 3.18 15.84 5.2 15.75 6.84 C 15.66 8.48 13.63 10.56 12.7 11.69 C 11.77 12.83 11.27 13.16 10.19 13.65 C 9.1 14.15 7.66 14.81 6.17 14.65 C 4.69 14.48 2.01 14.11 1.27 12.68 C 0.53 11.24 1.41 7.93 1.72 6.06 C 2.03 4.19 2.37 2.64 3.14 1.45 C 3.91 0.26 5.74 -1.07 6.33 -1.08 C 6.91 -1.08 6.66 0.88 6.65 1.4" fill="none" stroke="#000000" stroke-linejoin="round" stroke-linecap="round" stroke-miterlimit="10" pointer-events="all"/><path d="M 8 20 L 7.5 15" fill="none" stroke="none" pointer-events="stroke"/><path d="M 6.48 19.1 M 8.03 19.52 C 8.11 18.95 7.48 17.42 7.78 15.38 M 8.13 19.79 C 7.87 18.54 7.67 17.13 7.62 15.15" fill="none" stroke="#000000" stroke-linejoin="round" stroke-linecap="round" stroke-miterlimit="10" pointer-events="stroke"/><path d="M 8 36 L 8 20" fill="none" stroke="none" pointer-events="stroke"/><path d="M 6.48 35.44 M 9.44 37.02 C 6.78 30.93 8.16 25.8 9.24 19.25 M 7.96 36.77 C 7.23 33.25 8.07 30.04 8.51 19.3" fill="none" stroke="#000000" stroke-linejoin="round" stroke-linecap="round" stroke-miterlimit="10" pointer-events="stroke"/><path d="M 13 47 L 8 37" fill="none" stroke="none" pointer-events="stroke"/><path d="M 11.48 46.78 M 12.71 47.24 C 11.59 44.8 11.01 41.39 9.1 37.34 M 12.66 47.43 C 11.49 43.47 9.95 40.33 8.45 36.81" fill="none" stroke="#000000" stroke-linejoin="round" stroke-linecap="round" stroke-miterlimit="10" pointer-events="stroke"/><path d="M 8 45 L 7 37" fill="none" stroke="none" pointer-events="stroke"/><path d="M 6.48 45.12 M 8.47 44.84 C 8.28 43.97 6.97 41.17 6.35 36.26 M 8.34 45.24 C 7.49 42.32 7.08 40.43 7.4 37.08" fill="none" stroke="#000000" stroke-linejoin="round" stroke-linecap="round" stroke-miterlimit="10" pointer-events="stroke"/><path d="M 12 27 L 9 20" fill="none" stroke="none" pointer-events="stroke"/><path d="M 10.48 27.46 M 11.56 26.53 C 10.55 25.4 9.97 22.84 8.55 19.89 M 12.1 27.15 C 11.47 25.53 10.4 23.74 8.68 20.28" fill="none" stroke="#000000" stroke-linejoin="round" stroke-linecap="round" stroke-miterlimit="10" pointer-events="stroke"/><path d="M 6 29 L 8 21" fill="none" stroke="none" pointer-events="stroke"/><path d="M 4.48 29.8 M 6.21 29.79 C 6.61 26.23 7.42 24.83 7.69 21.51 M 5.88 29.09 C 6.56 25.83 7.47 22.86 7.73 20.7" fill="none" stroke="#000000" stroke-linejoin="round" stroke-linecap="round" stroke-miterlimit="10" pointer-events="stroke"/><path d="M 3 51 L 8 45" fill="none" stroke="none" pointer-events="stroke"/><path d="M 1.48 52.14 M 2.3 51.42 C 5.4 48.18 5.88 47.34 7.88 44.53 M 2.67 51.01 C 4.83 49.46 6.34 47.01 7.81 44.93" fill="none" stroke="#000000" stroke-linejoin="round" stroke-linecap="round" stroke-miterlimit="10" pointer-events="stroke"/><path d="M 16 56 L 13 47" fill="none" stroke="none" pointer-events="stroke"/><path d="M 14.48 57.48 M 15.94 56.12 C 14.68 52.77 13.97 50.96 13.05 47.16 M 16.28 55.92 C 14.99 53.7 14.68 50.91 12.85 47.17" fill="none" stroke="#000000" stroke-linejoin="round" stroke-linecap="round" stroke-miterlimit="10" pointer-events="stroke"/><path d="M 13 34 L 11 27" fill="none" stroke="none" pointer-events="stroke"/><path d="M 11.48 34.96 M 13.31 34.67 C 11.9 31.85 12.4 29.64 11.55 26.38 M 13.09 33.91 C 12.38 32.33 12.09 30.95 10.83 27.07" fill="none" stroke="#000000" stroke-linejoin="round" stroke-linecap="round" stroke-miterlimit="10" pointer-events="stroke"/><path d="M 6 36 L 6 29" fill="none" stroke="none" pointer-events="stroke"/><path d="M 4.48 37.3 M 5.48 36.35 C 6.12 34.51 5.76 32.19 6.68 28.94 M 5.89 35.84 C 6.32 33.76 6.22 30.85 5.9 29.26" fill="none" stroke="#000000" stroke-linejoin="round" stroke-linecap="round" stroke-miterlimit="10" pointer-events="stroke"/></g></svg>