<?xml version="1.0" encoding="UTF-8"?>
<!DOCTYPE svg PUBLIC "-//W3C//DTD SVG 1.1//EN" "http://www.w3.org/Graphics/SVG/1.1/DTD/svg11.dtd">
<svg xmlns="http://www.w3.org/2000/svg" xmlns:xlink="http://www.w3.org/1999/xlink" version="1.1" width="21px" height="57px" viewBox="-0.5 -0.5 21 57"><defs/><g><ellipse cx="7.5" cy="7.5" rx="7.5" ry="7.5" fill="transparent" stroke="none" pointer-events="all"/><path d="M 7.65 -0.73 C 9.24 -0.99 12.05 -0.3 13.16 0.93 C 14.26 2.16 14.26 4.78 14.28 6.67 C 14.3 8.56 14.06 11.04 13.27 12.29 C 12.47 13.54 10.85 13.72 9.51 14.17 C 8.17 14.63 6.55 15.36 5.22 15.01 C 3.88 14.65 2.17 13.59 1.5 12.04 C 0.83 10.49 0.95 7.3 1.19 5.7 C 1.44 4.11 1.88 3.35 2.95 2.46 C 4.02 1.56 6.61 0.77 7.63 0.32 C 8.66 -0.12 9.05 -0.24 9.11 -0.2 M 8.29 1.54 C 9.56 1.43 10.89 0.74 12.1 1.86 C 13.31 2.98 15.27 6.29 15.57 8.25 C 15.88 10.2 15.22 12.36 13.92 13.61 C 12.62 14.86 9.23 15.47 7.8 15.75 C 6.36 16.02 6.45 15.97 5.32 15.25 C 4.19 14.53 1.71 13.14 1.01 11.42 C 0.32 9.69 0.83 6.61 1.14 4.92 C 1.45 3.24 1.62 2 2.9 1.3 C 4.17 0.6 7.79 1.09 8.81 0.7 C 9.84 0.31 8.99 -1.22 9.07 -1.05" fill="none" stroke="#000000" stroke-linejoin="round" stroke-linecap="round" stroke-miterlimit="10" pointer-events="all"/><path d="M 8 20 L 7.5 15" fill="none" stroke="none" pointer-events="stroke"/><path d="M 6.49 20.16 M 7.56 19.89 C 8.34 18.66 7.62 18.1 7.43 14.57 M 7.77 20.02 C 7.73 17.89 7.46 16.15 7.44 15.14" fill="none" stroke="#000000" stroke-linejoin="round" stroke-linecap="round" stroke-miterlimit="10" pointer-events="stroke"/><path d="M 8 36 L 8 20" fill="none" stroke="none" pointer-events="stroke"/><path d="M 6.49 36.5 M 7.93 34.98 C 7.14 30.03 8.18 24.8 8.13 19.87 M 8.41 35.92 C 8.61 31.15 7.83 25.28 7.95 19.28" fill="none" stroke="#000000" stroke-linejoin="round" stroke-linecap="round" stroke-miterlimit="10" pointer-events="stroke"/><path d="M 15 46 L 8 37" fill="none" stroke="none" pointer-events="stroke"/><path d="M 13.49 46.84 M 15.91 47.08 C 13.56 43.43 12.46 42.41 8.34 37.79 M 14.97 45.83 C 12.87 43.4 11.08 40.84 8.06 36.79" fill="none" stroke="#000000" stroke-linejoin="round" stroke-linecap="round" stroke-miterlimit="10" pointer-events="stroke"/><path d="M 4 46 L 7 37" fill="none" stroke="none" pointer-events="stroke"/><path d="M 2.49 47.18 M 3.66 46.5 C 6.06 42.51 5.65 39.32 7.48 36.49 M 3.71 45.77 C 5.06 43.57 5.6 41.77 7.14 37.08" fill="none" stroke="#000000" stroke-linejoin="round" stroke-linecap="round" stroke-miterlimit="10" pointer-events="stroke"/><path d="M 14 26 L 9 20" fill="none" stroke="none" pointer-events="stroke"/><path d="M 12.49 27.52 M 14.37 26.08 C 12.27 24.19 11.08 21.83 9.56 20.18 M 14.32 25.74 C 12.08 23.97 10.62 21.36 9.18 20.28" fill="none" stroke="#000000" stroke-linejoin="round" stroke-linecap="round" stroke-miterlimit="10" pointer-events="stroke"/><path d="M 3 27 L 8 21" fill="none" stroke="none" pointer-events="stroke"/><path d="M 1.49 28.86 M 2.47 26.76 C 4.32 25.76 5.49 24.7 8.73 20.23 M 3.1 26.67 C 4.25 25.05 5.97 22.99 8.25 20.71" fill="none" stroke="#000000" stroke-linejoin="round" stroke-linecap="round" stroke-miterlimit="10" pointer-events="stroke"/><path d="M 1 55 L 4 46" fill="none" stroke="none" pointer-events="stroke"/><path d="M -0.51 53.2 M 1.15 54.31 C 1.17 52.23 2.21 48.62 3.19 45.79 M 0.86 55.46 C 1.88 52.19 2.52 49.89 4.39 45.9" fill="none" stroke="#000000" stroke-linejoin="round" stroke-linecap="round" stroke-miterlimit="10" pointer-events="stroke"/><path d="M 18 55 L 15 46" fill="none" stroke="none" pointer-events="stroke"/><path d="M 16.5 56.68 M 18.61 55.06 C 17.87 50.88 16.28 48.14 14.85 46.72 M 17.7 55.41 C 17.46 53.31 16.38 51.08 15.31 45.83" fill="none" stroke="#000000" stroke-linejoin="round" stroke-linecap="round" stroke-miterlimit="10" pointer-events="stroke"/><path d="M 19 32 L 14 26" fill="none" stroke="none" pointer-events="stroke"/><path d="M 17.5 30.02 M 18.59 31.72 C 17.25 29.72 15.31 29.29 14.05 25.63 M 19.32 32.27 C 16.93 29.72 15.31 27.52 14.33 26.07" fill="none" stroke="#000000" stroke-linejoin="round" stroke-linecap="round" stroke-miterlimit="10" pointer-events="stroke"/><path d="M 1 34 L 3 27" fill="none" stroke="none" pointer-events="stroke"/><path d="M -0.5 32.36 M 1.23 33.44 C 1.71 32.1 1.6 31.16 3.2 27.22 M 1.09 34.18 C 1.67 32.24 2.15 29.54 2.64 27.26" fill="none" stroke="#000000" stroke-linejoin="round" stroke-linecap="round" stroke-miterlimit="10" pointer-events="stroke"/></g></svg>