<?xml version="1.0" encoding="UTF-8"?>
<!DOCTYPE svg PUBLIC "-//W3C//DTD SVG 1.1//EN" "http://www.w3.org/Graphics/SVG/1.1/DTD/svg11.dtd">
<svg xmlns="http://www.w3.org/2000/svg" xmlns:xlink="http://www.w3.org/1999/xlink" version="1.1" width="25px" height="425px" viewBox="-0.5 -0.5 25 425"><defs/><g><rect x="0" y="0" width="24" height="424" fill="none" stroke="none" pointer-events="all"/><path d="M -0.09 0.1 C -0.09 0.1 -0.09 0.1 -0.09 0.1 M -0.09 0.1 C -0.09 0.1 -0.09 0.1 -0.09 0.1 M -0.21 5.4 C 0.55 4.78 2.42 3.74 6.21 -0.65 M 0.18 5.69 C 2.02 3.56 4.49 1.06 5.93 -0.47 M -0.15 11.47 C 0.89 9.48 3.87 6.87 11.93 0.32 M -0.23 12.78 C 2.35 8.42 4.71 6.6 10.77 0.25 M -1.49 20.44 C 6.05 15.63 9.38 7.21 14.56 -1.87 M -1.06 18.58 C 3.29 14.38 6.92 10.58 15.42 0.64 M -1.3 23.75 C 5.36 17.54 13.36 8.05 19.59 0.83 M 0.67 24.17 C 6.14 18.36 9.08 12.28 21.8 0.15 M 0.38 31.48 C 8.07 21.68 20.08 10.07 26.62 2.29 M -0.8 30.82 C 7.42 22.91 12.99 14.8 25.12 1.42 M -1.34 37.46 C 6.5 29.11 14.32 19.63 25.43 9.44 M -0.3 36.84 C 5.72 28.95 11.39 22.81 25.83 6.75 M 0.41 43.08 C 8.24 33.31 17.31 19.99 27.42 13.18 M 0.03 42.79 C 7.39 35.38 11.87 28.96 25.88 14.13 M -1.05 50.03 C 8.02 40.08 15.73 31.43 23.85 20.53 M 0.29 49.17 C 9.55 38.97 18.36 26.43 25.93 20.28 M 2.02 56.56 C 10.65 44.01 20.82 34.04 24.41 26.81 M -0.15 53.7 C 6.95 48.17 11.64 40.6 24.9 25.91 M -0.18 61.77 C 8.63 49.36 18.27 36.48 25.21 31.9 M 0.41 60.59 C 7.35 52.39 14 44.08 24.97 30.93 M -0.38 66.26 C 11.3 57.43 20.71 45.79 24.84 36.5 M -0.43 66.25 C 7.72 59.91 13.49 52.61 24.65 37.73 M -1.48 72.26 C 7.02 63.32 17.96 52.58 26.93 42.87 M 0.58 72.33 C 8.56 62.53 18.79 52.51 26.36 42.91 M -2 80.26 C 10.61 66.42 20.35 57.09 24.95 50.84 M -0.05 79.42 C 7.74 72.38 13.53 62.85 26.15 50.29 M -0.02 85.33 C 7.64 76.62 15.72 65.03 24.77 54.54 M 0.46 84.34 C 9.78 76.17 17.36 65.46 25.34 56.68 M -1.13 93.37 C 7.43 84.97 13.18 75.96 24.69 62.65 M 0.21 91.4 C 4.85 84.65 9.96 78.34 25.54 63.07 M 0.12 97.82 C 7.52 89.87 16.74 78.63 23.48 66.71 M 0.21 98.1 C 9.25 86.6 17.61 78.15 25.66 67.94 M 1 103.69 C 9.02 94.08 17.28 83.28 26.96 73.76 M 0.11 104.16 C 8.76 92.76 18.37 84.23 25.51 75 M 1.2 108.3 C 5.85 105.87 9.17 99.45 24.8 82.46 M -0.16 109.3 C 10.66 97.53 21.16 86.15 25.57 80.17 M -1.17 117.53 C 8.92 105.11 18.48 95.09 25.04 87.76 M 0.57 116.42 C 6.65 107.68 12.79 100.07 24.55 87.33 M -1.53 122.09 C 3.76 117.61 9.16 108.8 26.18 93.14 M -0.17 122.92 C 8.31 113.35 15.39 103.64 26.47 93.57 M 1.76 126.22 C 8.68 117.64 17.75 107.39 25.16 98.95 M 1.01 128.38 C 9.4 117.38 18.65 105.84 25.65 98.48 M 0.17 135.77 C 6.69 125.41 17.9 115.03 24.02 103.07 M -0.82 133.65 C 6.23 127.8 11.03 121.06 26.3 103.85 M 1.57 138.86 C 7.98 128.47 18.92 120.58 26.58 112.94 M 0.67 140.51 C 4.68 133.78 10.32 128.55 26.3 110.69 M -1.75 146.18 C 8.18 138.03 15.32 125.75 25.1 118.32 M 0.07 146.96 C 6.4 138.88 11.15 132.98 24.8 116.98 M -1.01 151.25 C 6.73 141.91 17.83 131.44 24.23 123.53 M -0.72 152.51 C 5.93 146.15 9.48 139.53 25.19 122.91 M -1.04 159.89 C 5.73 149.61 13.68 143.69 25.14 127.72 M 0.49 158.58 C 8.05 147.77 17.33 137.98 26.19 130.16 M -0.22 166.48 C 5.75 159.16 13.18 151.4 24.03 133.57 M -0.89 163.84 C 9.5 152.95 20.02 141.57 25.45 135.6 M 1.53 170.23 C 3.76 164.27 11.03 159.47 24.92 143.35 M -1.08 171.44 C 6.1 164.75 12.46 155.99 25.25 142.35 M 1.37 175.88 C 5.92 171.16 13.69 162.72 26.24 147.63 M -0.43 176.72 C 8.16 165.77 18.24 156.39 26.12 147.48 M -1.76 181.78 C 7.63 172.97 17.64 162.2 24.85 153.54 M 0.38 182.27 C 5.62 177.77 11.39 171.83 25.88 153.27 M -0.48 188.54 C 6.88 179.49 14.59 171.83 24.1 161.04 M -0.09 189.61 C 11.06 176.96 20.96 165.37 24.66 160.5 M 1 195.36 C 11.67 182.7 18.43 173.43 24.37 163.62 M 1.02 194.52 C 9.58 184.13 18.27 175.25 26.5 166.13 M -1.03 200.26 C 3.91 196.51 11.04 187.63 23.87 172.37 M -0.13 202.22 C 5.09 195.48 10.71 189.16 25.08 172.38 M 0.74 208.8 C 7.56 199.18 13.91 190.33 25.22 176.67 M -0.49 207.16 C 8.15 197.81 14.78 188.11 25.36 178.39 M 1.48 214.13 C 7.49 206.13 12.43 198.45 27.48 184.46 M -0.31 214.01 C 9.31 201.11 19.43 190.28 24.55 183.57 M -1.28 221.69 C 10.27 206.68 20.1 198.54 26.16 190.51 M 0.36 219.4 C 6.69 211.45 14.64 201.82 25.19 190.76 M 0.47 225.49 C 8.93 216.46 20.99 205.41 23.84 197.13 M 0.79 225.19 C 8.8 216.6 16.85 207.21 24.72 196.04 M 1.18 232.35 C 9.91 220.92 19.89 210.42 26.94 202.21 M 0.55 231.7 C 6.66 224.4 14.09 217.3 25.25 201.7 M 0.37 238.65 C 6.17 230.98 12.45 223.5 24.23 207.96 M 1.1 237.46 C 9.28 229.08 17.44 219.14 25.11 208 M -0.62 242.35 C 7.71 234.16 19.54 224.86 26.98 213.12 M -0.43 244.26 C 6.57 235.99 15.04 228.05 25.95 214.41 M -0.06 251.7 C 6.12 243.9 12.84 234.54 24.88 221.28 M 0.35 250.81 C 6.72 243.34 13.26 235.18 25.7 220.9 M 0.24 257.53 C 6.95 250.9 11.32 241.59 24.71 225.56 M 0.1 256.06 C 6.51 249.03 12.39 242.66 26.21 225.62 M -1.08 261.47 C 4.48 254.51 14.99 248.88 27.05 232.66 M 0.79 262.42 C 9.03 251.68 20.01 239.1 24.98 231.97 M 1.69 268.71 C 4.9 261.83 11.77 255.3 24.89 239.6 M -0.7 267.54 C 6.54 260.37 13.81 253.64 24.78 240.29 M -1.93 276.03 C 10.45 264.5 19.16 253.04 23.66 245.94 M -0.83 275.27 C 5.96 268.47 11.4 260.88 24.63 245.16 M -0.01 280.48 C 10.02 272.07 17.3 262.94 25.26 250.07 M 0.18 281.43 C 8.43 270.79 16.93 260.06 24.89 250.62 M 1.81 287.71 C 10.06 275.26 18.5 265.86 26.65 257.94 M -0.59 287.07 C 7.99 275.71 18.01 266.45 24.81 257.93 M 0.37 292.16 C 5.53 283.56 13.36 277.49 24.59 263.06 M 0.22 293.69 C 10.26 282.58 19.43 271.06 26.31 262.57 M 1.57 297.84 C 7.98 291.78 13.87 284.44 26.26 271.25 M -0.09 299.02 C 8.89 288.34 19.69 277.95 25.53 269.99 M 1.11 306.33 C 3.89 300.53 10.63 292.37 25.28 276.89 M -0.59 304.01 C 6.2 299.62 10.46 292.13 25.93 274.86 M -0.89 309.5 C 5.76 300.23 15.16 293.14 25.74 283.18 M -1.07 310.59 C 7.72 300.75 17.53 291.58 25.26 282.31 M 0.12 317.81 C 6.51 308.49 13.93 300.95 24.78 286.88 M 0.94 316.87 C 5.02 309.14 11.67 304.08 25.19 287.69 M 1.16 324.51 C 7.08 315.01 10.26 307.69 25.36 294.32 M -0.79 322.48 C 6.06 316.82 12.38 308.15 25.02 293.59 M -1.68 330.43 C 8.71 318.97 20.77 305.24 26.84 302.13 M 0.45 328.23 C 10.4 317.58 19.85 306.49 25.33 299.54 M -0.5 335.96 C 8.3 327.35 13.03 320.8 25.02 305.49 M 0 335.17 C 8.85 324.44 20.4 313.06 24.96 305.29 M -1.01 341.79 C 10.07 328.93 19.22 317.97 24.19 310.44 M -0.54 342.3 C 9.17 331.41 19.58 319.14 26.07 312.1 M 1.54 349.17 C 5.68 338.05 16.06 333.22 27.67 318.53 M -0.29 347.85 C 6.41 340.16 11.12 333.68 25.75 318.39 M -1.65 352.19 C 6.97 346.76 13.89 339.68 26.61 322.91 M -0.05 354.53 C 7.08 346.92 11.77 339.08 25.69 324.84 M 1.7 358.47 C 7.09 352.02 12.69 344.58 26.56 329.02 M -0.74 359.24 C 5.57 353.31 10.75 346.38 25.89 330.08 M 1.67 365.22 C 9.54 357.55 15.67 349.14 27.51 334.86 M 0.41 366.14 C 11.08 354.81 20.5 342.34 25.6 335.97 M 0.75 371.94 C 8.35 366.02 14.21 356.01 23.92 343.27 M -0.59 372.32 C 8.17 364.26 15.58 355.1 24.37 342.83 M 1.87 376.7 C 8.25 369.92 12.38 363.02 27.31 346.61 M 0.53 377.09 C 9.68 368 17.45 356.43 25.7 349.2 M 0.43 384.4 C 7.73 374.67 18.54 362.31 27.02 354.86 M -0.62 385.26 C 6.03 377.52 10.61 370.34 24.7 354.85 M -1.12 391.48 C 7.95 380.96 18.55 367.6 24.79 360.26 M 0.45 390.84 C 5.47 382.49 12.22 375.94 25.75 360.5 M -0.5 397.94 C 11.23 384.87 20.22 374.12 26.79 365.64 M 0.92 396.06 C 5.66 390.19 12.18 382.29 25.52 367.09 M -1.04 404.12 C 8.62 390 18.81 378.48 23.67 372.62 M 0.2 403.11 C 6.22 394.53 14.11 386.61 25.99 373.06 M 0.38 406.88 C 8.09 396.28 18.15 385.61 25.15 378.41 M 0.97 407.4 C 10.41 397.23 18.91 386.53 26.02 378.03 M 1.34 415.94 C 5.97 404.77 14.38 398 24.73 383.78 M 0.24 414.84 C 7.12 406.06 13.38 398.16 25.16 385.87 M 0.49 418.55 C 10.02 409.8 18.71 402.94 26.35 389.78 M 0.92 419.52 C 8.95 409.39 18.15 400.1 25.2 392.38 M -0.39 426.03 C 10.83 415.22 20.57 406.78 24.38 398.05 M 0.89 425.25 C 11.75 414.97 19.75 403.83 25.19 396.61 M 6.83 425.73 C 14.8 419.79 18.24 409.92 23.64 403.05 M 7.25 424.56 C 14.36 416.87 20.68 407.32 24.53 404.08 M 13.55 426.15 C 15.89 421.17 19.09 417 26.04 408.77 M 12.2 424.74 C 16.84 420.52 20.96 415.34 26.49 408.52 M 16.73 424.82 C 20.32 423.7 21.44 419.26 26.55 416.41 M 17.68 424.81 C 20.2 422.31 22.25 419.21 25.79 415.25 M 22.22 425.13 C 23.15 423.97 23.89 423.43 24.84 422.38 M 22.37 425.16 C 23.16 424.42 23.86 423.88 25.2 422.38" fill="none" stroke="#647687" stroke-linejoin="round" stroke-linecap="round" stroke-miterlimit="10" pointer-events="all"/><path d="M -0.31 0.29 C 8.09 0.62 16.41 0.43 25.04 0.33 M -0.68 -0.31 C 9.48 0.93 18.76 -0.35 24.21 0.12 M 24.65 1.04 C 24.22 160.64 25.38 322.55 24.8 424.04 M 23.77 0.1 C 24.96 167.99 24.97 334.73 24.23 424.06 M 24.77 423.85 C 17.24 423.59 9.34 423.61 0.97 424.91 M 23.98 424.35 C 16.17 424.6 6.92 423.02 -0.77 424.69 M -0.51 424.67 C -1.37 270.09 -0.73 114.2 -1.05 -0.39 M -0.28 423.72 C 0.83 266.64 0.58 109.28 -0.5 0.05" fill="none" stroke="#314354" stroke-linejoin="round" stroke-linecap="round" stroke-miterlimit="10" pointer-events="all"/></g></svg>