<?xml version="1.0" encoding="UTF-8"?>
<!DOCTYPE svg PUBLIC "-//W3C//DTD SVG 1.1//EN" "http://www.w3.org/Graphics/SVG/1.1/DTD/svg11.dtd">
<svg xmlns="http://www.w3.org/2000/svg" xmlns:xlink="http://www.w3.org/1999/xlink" version="1.1" width="84px" height="226px" viewBox="-0.5 -0.5 84 226"><defs/><g><rect x="0" y="0" width="83" height="224" fill="none" stroke="none" pointer-events="all"/><path d="M 0.32 -0.36 C 0.32 -0.36 0.32 -0.36 0.32 -0.36 M 0.32 -0.36 C 0.32 -0.36 0.32 -0.36 0.32 -0.36 M -0.19 5.27 C 0.72 4.06 2.19 3.97 5.15 0.63 M -0.27 6.32 C 1.82 4.19 3.55 2.63 5.45 0.33 M 0.28 12.56 C 4.27 6.59 8.06 2.25 11.13 -0.31 M -0.92 12.52 C 3.31 8.92 4.77 6.77 10.44 0.44 M 1.92 16.38 C 3.99 13 10.55 6.51 16.89 -1.96 M 0.51 17.31 C 4.84 13.79 8.91 8.51 15.21 -0.57 M -1.67 25.34 C 7.4 14.67 15.84 5.99 21.19 2.14 M 0.1 24.84 C 8.32 13.99 16.38 5.08 21.17 0.57 M -1.48 29.29 C 7.9 24.44 12.97 15.76 25.82 -0.61 M 0.01 29.31 C 8.38 20.16 16.98 9.88 27.24 0.76 M 1.1 37.67 C 9.33 26.42 18.21 17.05 33.45 -0.4 M 0.44 37.43 C 8 28.16 15.15 19.2 31.49 1.11 M -0.62 43.86 C 9.62 31.88 17.86 22.3 37.47 -1.58 M -1.16 43.39 C 11.55 28.93 22.46 16.81 37.24 -0.84 M -0.27 49.11 C 13.43 33.31 25.92 17 41.1 0.98 M 0.78 49.29 C 17.23 30.26 32.68 9.55 42.59 1.06 M 0.04 54.39 C 14.35 39.02 27.72 23.08 47.04 1.48 M 0.8 55.62 C 14.7 39.25 29.49 22.97 48.5 -0.28 M -1.35 60.75 C 19.67 36.96 41.62 15.26 52.56 -1.12 M -0.21 60.12 C 16.69 42.84 32.93 25.07 52.38 1.08 M 1.51 65.01 C 17.66 45.95 34.81 28.47 59.16 0.47 M 0.56 66.05 C 13.64 52.08 28.06 34.47 58.09 0.21 M -0.9 72.03 C 20.27 48.63 43.41 25.36 63.68 1.52 M -0.75 73.07 C 17.78 50.68 37.7 30.9 63.57 -0.43 M 0.89 78.67 C 25.41 53.03 49 24.36 67.92 0.88 M 0.19 79.7 C 15.78 61.38 30.78 44.16 68.86 -0.86 M 1.71 85.64 C 16.53 69.63 27.73 51.9 73.76 0.64 M 0.7 85.77 C 25.84 54.38 52.79 23.65 73.66 0.66 M -1.92 90.63 C 32.43 56.08 62.52 24.59 80.81 1.74 M -0.11 92.08 C 22.18 65.29 44.51 38.25 79.43 -0.26 M -1.4 96.14 C 29.24 62.46 59.83 27.2 84.87 0.32 M -0.53 96.83 C 31.21 62.05 63.33 24.7 84.25 0.92 M -1.64 105.44 C 17.48 81.14 36.64 61.51 84.23 7.19 M 0.62 104.12 C 22.96 76.92 45.74 50.42 83.64 7.49 M -0.05 110.87 C 18.66 89.81 35.88 67.61 85.98 14.01 M -0.64 108.81 C 23.91 82.57 48.09 54.32 83.2 12.47 M 0.5 117.5 C 27.41 79.93 60.31 49.4 83.19 20.37 M 0.15 116.77 C 33.12 77.04 64.26 40.87 84.32 20.04 M 0.74 123.49 C 26.05 92.23 54.88 59.63 84.55 24.81 M -0.72 121.75 C 26.03 93.84 50.26 64.88 84.19 25.27 M -0.65 127.99 C 32.1 92.66 63.1 55.85 85.45 32.49 M -0.31 127.91 C 18.16 109.88 33.83 89.49 83.37 32.24 M -0.63 134.98 C 20.2 113.65 37.17 87.42 84.96 39.51 M -0.13 134.16 C 24.13 106.39 48.55 79.01 83.18 37.05 M 1.19 141.67 C 28.55 109.66 53.93 81.68 84.26 44.82 M -0.78 139.16 C 20.41 114.78 42.58 89.76 84.54 44.19 M 1.68 146.12 C 19.63 125.08 41.04 101.29 85.01 50.14 M -0.38 145.5 C 19.74 126.41 36.86 103.72 84.86 49.03 M -0.88 151.6 C 26.93 119.76 56.1 90.79 82.33 56.23 M -1.15 152.61 C 23.89 125.86 45.88 100.65 83.37 54.71 M -0.37 158.5 C 23.66 134.23 43.64 106.3 83.94 62.6 M -0.58 159.22 C 29.25 126.82 57.03 94.43 84.76 62.38 M -0.41 164.17 C 32.53 127.59 66.51 91.29 83.13 67.86 M -0.56 165.81 C 29.3 133.21 59.36 99.07 84.52 68.08 M -1.4 171.3 C 27.86 137.43 59.2 102.32 85.13 73.58 M -0.02 169.49 C 26.87 140.06 53.54 109.8 83.83 73.24 M -1.43 175.57 C 18.11 155.83 38.19 131.32 85.55 80.19 M 0.68 176.27 C 27.27 145.53 55.47 114.29 84.39 81.06 M 0.75 181.99 C 33.02 144.66 67.19 108.38 83.36 87.33 M -0.89 183.93 C 27.97 150.35 56.86 115.49 83.81 85.48 M 0.09 188.79 C 30.32 154.86 64.57 118.5 83.95 93.51 M -0.34 188.49 C 20.76 163.04 41.73 138.36 83.2 91.37 M -0.33 195.34 C 31.13 161.04 61.78 126.24 84.2 100.43 M 0.36 194.64 C 21.44 170.07 43.58 145 84.56 99.44 M -0.36 202.42 C 24.88 172.07 52.52 141.95 82.78 104.91 M 0.29 200.68 C 27.28 170.35 55.79 137.88 83.62 104.71 M 0.38 207.96 C 29.96 172.98 59.07 139.69 82.63 110.75 M -0.87 206.7 C 33.21 169.26 65.27 131.41 84.7 110.92 M -0.53 215.33 C 25.09 184.5 52.06 155.03 83.91 117.06 M 0.58 213.51 C 28.08 179.61 56.33 147.11 84.09 115.48 M 2.04 221.26 C 18.54 195.89 39.11 172.44 83.1 121.98 M -0.78 219.12 C 25.78 189.63 53.04 159.79 83.64 123.68 M -0.09 226.96 C 21.24 202.19 37.8 179.95 82.02 130.94 M -0.04 224.38 C 18.37 203.08 36.38 182.02 84.16 129.58 M 7.11 223.43 C 29.34 197.57 49.34 173.34 86.16 136.62 M 6.13 224.89 C 26.7 199.41 49.01 173.49 84.25 134.47 M 11.27 224.74 C 29.56 199.61 50.73 178.37 83.17 142.82 M 11.19 224.83 C 33.71 199.75 56.06 174.07 83.16 141.34 M 16.3 224.5 C 42.94 194.59 65 168.35 83.78 148.76 M 15.93 223.98 C 33.15 205.53 49.16 188.13 84.18 147.74 M 20.95 224.82 C 39.04 205.91 59.73 184.1 84.92 152.8 M 21.45 225.27 C 39.84 205.52 57.73 184.63 84.21 154.08 M 28.46 223.86 C 43.29 207.25 55.37 192.92 82.72 160.76 M 27.19 224.87 C 49.27 198.84 71.26 175.66 83.18 160.44 M 33.62 223.57 C 44.77 209.55 56.34 195.56 82.9 165.8 M 32.53 224.5 C 44.5 212.01 53.86 200.35 84.87 165.09 M 36.47 225.18 C 47.61 212.83 56.33 201.46 83.16 172.32 M 38.84 225.48 C 57.26 204.3 74.35 182.07 83.78 170.94 M 41.37 224.93 C 55.54 210.26 67.76 199.2 86.18 176.29 M 43.03 225.03 C 57.03 208.66 69.88 193.62 84.5 176.38 M 46.66 225.66 C 59.92 209.93 73.04 197.55 82.72 184.94 M 49.61 224.42 C 56.26 216.02 64.24 207.2 83.31 183.61 M 51.76 224.42 C 65.09 214.38 74.32 202.1 84.61 189.06 M 54.29 225.12 C 61.79 215.8 69.78 206.67 83.56 189.43 M 58.8 224.11 C 66.61 216.08 72.95 210.54 83.14 194.94 M 60 225.05 C 65.99 216.69 72.44 208.24 84.54 195.79 M 63.75 225.1 C 70.46 215.15 80.25 209.12 83.46 200.21 M 64.47 224.72 C 72.23 216.59 78.22 208.02 84.28 202.17 M 70.07 224.86 C 74.92 221.3 76.71 217.88 85.57 206.2 M 70.3 223.44 C 73.79 220.1 76.96 216.83 85.01 208.53 M 75.51 225.36 C 77.76 221.72 79.79 219.63 83.64 213.81 M 74.61 225.29 C 78.06 221.14 82.35 216.34 84.5 213.72 M 80.18 224.76 C 81.61 223.57 82.63 222.54 83.36 220.2 M 80.54 224.39 C 81.7 222.99 82.58 221.78 83.96 220.81" fill="none" stroke="#647687" stroke-linejoin="round" stroke-linecap="round" stroke-miterlimit="10" pointer-events="all"/><path d="M -0.31 -0.43 C 17.17 -1.26 35.33 1.06 82.62 -1 M 0.61 0.17 C 21.06 0.07 42.25 0.93 83.06 0.54 M 82.22 0.31 C 82.92 72.43 82.89 144.18 82.97 223.95 M 83.49 -0.69 C 82.38 74.56 83.04 148.6 83.73 223.98 M 81.67 223.15 C 64.07 222.72 43.74 224.6 -0.89 223.91 M 82.75 224.2 C 51.15 222.5 18.19 222.73 0.28 223.92 M -0.16 225.56 C -0.51 169.48 -2.83 114.67 -0.93 -1.06 M -0.58 223.58 C -1.02 163.34 -1.15 101.96 0.17 -0.59" fill="none" stroke="#314354" stroke-linejoin="round" stroke-linecap="round" stroke-miterlimit="10" pointer-events="all"/></g></svg>