<?xml version="1.0" encoding="UTF-8"?>
<!DOCTYPE svg PUBLIC "-//W3C//DTD SVG 1.1//EN" "http://www.w3.org/Graphics/SVG/1.1/DTD/svg11.dtd">
<svg xmlns="http://www.w3.org/2000/svg" xmlns:xlink="http://www.w3.org/1999/xlink" version="1.1" width="67px" height="41px" viewBox="-0.5 -0.5 67 41"><defs/><g><rect x="0" y="0.5" width="66" height="40" fill="none" stroke="none" pointer-events="all"/><path d="M -0.15 0.67 C -0.15 0.67 -0.15 0.67 -0.15 0.67 M -0.15 0.67 C -0.15 0.67 -0.15 0.67 -0.15 0.67 M -0.26 7.1 C 1.07 4.82 3.36 2.44 6.22 0.62 M 0.37 6.7 C 2.13 4.24 3.28 2.33 5.84 0.36 M 1.51 14.13 C 3.55 8.81 4.2 7.73 10.31 -0.11 M 0.66 12.64 C 3.33 9.55 6.07 5.69 10.7 0.06 M -0.37 17.89 C 1.54 14.92 8.55 9.92 17.59 -0.26 M 0.38 19.82 C 5.73 11.36 12.15 6.26 16.02 0.75 M 1.88 26.48 C 7.27 17.61 15.97 9 20.38 -0.82 M 0.73 24 C 8.15 16.44 16.53 6.91 21.78 1.01 M 1.36 32.81 C 10.54 19.41 18.81 7.48 27.83 -0.18 M 0.06 30.5 C 6.16 24.35 11.39 18.7 26.16 0.85 M -0.58 38.79 C 8.64 26.96 18.97 14.57 32.93 1.42 M -0.19 36.06 C 11.81 23.35 24.09 7.83 31.62 0.12 M 0.98 40.26 C 15.2 27.21 29.6 8.94 38.62 1.69 M 1.8 40.82 C 10.92 31.82 19.08 21.58 38.2 0.73 M 8.76 43.04 C 17.04 26.76 28.49 16.74 43.52 2.43 M 7.49 40.75 C 21.17 25.66 33.14 10.33 43.31 0.21 M 13.08 42.06 C 22.31 31.46 33.85 18.57 48.09 1.55 M 11.93 42.24 C 24.93 24.96 39.06 9.32 47.02 0.12 M 15.89 42.1 C 27.58 25.38 41.2 10.25 52.34 -0.86 M 16.81 41.16 C 27.86 29.31 39.87 15.85 53.83 -0.44 M 23.81 40.58 C 32.94 26.8 48.75 13.08 57.35 2.29 M 21.68 41.18 C 36.52 25.99 48.44 10.35 57.3 0.34 M 27.06 39.98 C 35.59 32.96 43.19 23.63 62.2 -0.62 M 27.92 42.42 C 37.31 29.92 48.17 18.59 63.12 0.73 M 35.07 42.52 C 44.34 30.94 53.88 17.37 66.37 1.18 M 32.43 41.75 C 43.6 30.73 51.99 19.07 68.5 0.96 M 40.08 42.34 C 45.66 33.78 54.15 20.88 65.92 7.4 M 38.38 41.19 C 45.75 31.02 55.29 23.19 68.51 7.14 M 45.39 43.48 C 48.63 35.22 58.01 26.34 67.61 14.22 M 43.5 41.4 C 53.87 31.32 63.07 20.86 67.34 15.2 M 49.01 39.99 C 57.49 33.33 63.94 26.25 68.09 19.85 M 48.87 42.16 C 54.13 35.66 61.56 27.26 67.46 19.93 M 55.87 41.97 C 61.46 34.32 63.31 31.59 68.75 24.42 M 55.18 41.83 C 59.22 36.44 64.58 30.47 67.68 27.17 M 58.17 43.03 C 61.89 37.82 64.52 33.91 67.5 32.49 M 59.49 41.85 C 61.87 39.27 63.35 37.37 68.45 32.04 M 64.9 41.47 C 65.94 40.25 66.55 39.71 68.01 38.43 M 65.2 41.6 C 65.9 40.86 66.4 39.84 67.76 38.64" fill="none" stroke="#647687" stroke-linejoin="round" stroke-linecap="round" stroke-miterlimit="10" pointer-events="all"/><path d="M 0.72 0.99 C 15.35 0.41 27.14 -0.42 64.81 1.09 M 0.71 1.22 C 13.89 1.69 27.09 1.47 66.03 1.15 M 64.13 1.57 C 67.52 10.87 66.13 25.58 66.24 38.77 M 66.05 1.21 C 66.66 12 66.32 24.96 65.8 40.71 M 66.08 42.07 C 43.98 38.61 22.58 38.87 0.68 41.32 M 66.62 40.66 C 52.34 41.44 38.17 40.57 -0.39 40.13 M -1.53 40.61 C -0.56 27.83 -0.5 13.51 1.21 1.77 M -0.34 39.68 C -0.68 28.36 -0.01 15.84 -0.65 1.05" fill="none" stroke="#314354" stroke-linejoin="round" stroke-linecap="round" stroke-miterlimit="10" pointer-events="all"/></g></svg>