<?xml version="1.0" encoding="UTF-8"?>
<!DOCTYPE svg PUBLIC "-//W3C//DTD SVG 1.1//EN" "http://www.w3.org/Graphics/SVG/1.1/DTD/svg11.dtd">
<svg xmlns="http://www.w3.org/2000/svg" xmlns:xlink="http://www.w3.org/1999/xlink" version="1.1" width="632px" height="21px" viewBox="-0.5 -0.5 632 21"><defs/><g><rect x="0" y="0" width="630.75" height="20" fill="none" stroke="none" pointer-events="all"/><path d="M -0.01 0.01 C -0.01 0.01 -0.01 0.01 -0.01 0.01 M -0.01 0.01 C -0.01 0.01 -0.01 0.01 -0.01 0.01 M -0.09 6.72 C 0.54 4.41 2.35 3.47 4.76 0.28 M -0.55 6.22 C 1.41 4.56 2.74 2.76 5.03 0.65 M -0.58 11.07 C 3.42 8.25 9.23 2.55 9.56 1.3 M -0.05 12.65 C 4.03 7.04 7.24 3.31 9.82 0.04 M -0.97 17.46 C 4.29 14.43 10.77 6.88 17.1 -1.31 M 0.58 17.89 C 4.07 12.14 9.58 6.9 15.17 0.58 M 2.14 22.2 C 6.73 15.61 12.85 11.44 20.16 -0.03 M 2.71 22.12 C 6.89 16.76 8.9 12.33 21.65 -0.62 M 7 21 C 12.99 18.01 17 11.99 26.5 2 M 8 21.95 C 13.98 14.62 20.52 8.2 26.62 -0.46 M 12.94 20.42 C 17.89 14.31 23.08 9.38 30.8 0.46 M 12.28 21.7 C 18.53 16.42 22.09 10.71 32.19 -0.65 M 16.47 23.98 C 24.39 14.42 31.18 3.37 36.82 -0.42 M 17.67 21.41 C 21.3 17.99 27.01 12.81 36.46 0.15 M 24.93 21.17 C 29.98 14.46 38.13 6.77 44.37 -0.63 M 23.28 22.37 C 28.68 16.32 32.92 10.02 42.38 -0.85 M 28.95 22.83 C 34.18 17.11 36.09 10.1 47.72 0.99 M 27.61 22.06 C 34.4 15.11 40.02 9.14 47.21 -0.66 M 35.38 22.4 C 38.39 15.9 45.72 8.5 54.53 -1.98 M 34.43 21.89 C 38.7 15.14 44.92 9.9 53.38 0.22 M 39.72 23.26 C 44.64 15.93 51 8.64 56.31 1.81 M 39.18 22.14 C 45.2 15.36 51.75 6.53 57.92 -0.22 M 43.05 20.05 C 54.04 12.66 57.98 4.28 63.37 0.77 M 44.93 21.73 C 50.21 13.96 56.93 7.62 63.35 -0.78 M 48.51 21.98 C 53.97 15.89 62.05 6.37 67.21 1.67 M 48.73 21.13 C 54.5 17.23 57 13.03 69.12 0.89 M 54.17 22.12 C 61.55 14.38 71.99 4.93 75.49 0.99 M 55.54 22.12 C 60.92 14.88 66.89 8.56 74.48 -0.95 M 61.52 20.76 C 66.62 12.64 77.13 4.23 78.46 -1.8 M 60.63 22.74 C 67.79 14.14 74.75 4.69 79.89 -0.2 M 64.41 22.64 C 73.49 13.29 81.69 6.45 83.92 -0.9 M 65.5 21.01 C 71.71 15.51 78.81 8.52 85.95 -0.16 M 69.44 20.37 C 77.49 13.39 84.94 5.33 91.61 1.1 M 70.26 21.91 C 76.84 14.89 85.14 6.76 90.8 0.39 M 76.94 19.65 C 83.04 13.18 88.7 9.58 96.19 0.54 M 77.57 21.09 C 82.42 14.87 88.63 7.78 95 -0.04 M 81.39 22.64 C 87.67 16.34 92.28 11.47 101.65 2.05 M 81.03 21.83 C 87.45 16.82 91.66 9.74 100.96 0.27 M 88.38 21.24 C 90.93 15.7 99.06 7.51 108.28 -2.21 M 87.06 20.78 C 94.06 13.52 100.4 7.03 105.84 -0.98 M 91 20.42 C 96.57 16.97 102.02 11.23 111.06 0.82 M 91.35 22.91 C 98.5 12.73 106.8 5.59 110.97 -0.21 M 98.82 19.52 C 104.23 11.22 112.26 3.26 118.65 0.35 M 98.75 21.24 C 103.92 14.62 109.61 7.06 116.72 -1.16 M 102.33 23.59 C 111.06 12.79 116.78 3.65 123.77 -0.84 M 103.66 21.8 C 107.85 17.43 112.62 11.53 121.96 -0.98 M 109.19 21.4 C 112.16 15.93 119.37 9.43 125.56 1.52 M 107.3 22.11 C 113.37 16.02 118.55 9.84 126.25 1.26 M 111.95 21.06 C 120.45 17.85 124.02 10.93 131.2 -1.12 M 113.4 22.38 C 116.75 16.5 121.79 12.08 132.58 0.77 M 117.81 23.55 C 123.93 16.1 129.79 8.33 135.72 1.36 M 118.86 21.52 C 126.09 13.55 132.78 4.41 137.02 0.08 M 122.86 22.78 C 130.81 14.34 135.19 5.96 142.21 -0.18 M 124.04 22.77 C 131.03 13.13 137.8 5.92 143.98 -0.4 M 130.54 22.93 C 133.36 14.88 139.15 11.26 146.33 1.21 M 130.12 21.57 C 135.53 13.6 142.96 6.02 148.65 0.57 M 134.56 21.72 C 140.59 14.45 148.76 6.66 153.16 1.84 M 134.06 22.33 C 140.2 16.37 144.29 10.65 152.85 0.79 M 141.35 23.78 C 145.52 13.83 152.87 7.94 157.72 -1.28 M 139.95 22.36 C 146.62 12.81 153.8 4.48 159.47 -0.47 M 144.99 19.89 C 150.65 15.31 153.63 11.92 165.85 -1.16 M 145.95 22.64 C 150.72 15.43 154.98 10.39 164.37 -0.65 M 149.67 20.37 C 156.36 12.76 164.66 6.07 170.69 -1.46 M 149.71 21.71 C 154.3 17.36 159.33 12.81 168.79 0.96 M 156.59 22.32 C 162.87 14.57 169.16 9.88 173.58 0.75 M 155.23 22.51 C 162.25 15.27 167.3 8.11 175.25 -0.97 M 162.42 23 C 163.25 16.57 168.79 11.57 180.51 -1.63 M 160.31 22.2 C 166.74 15.29 171.22 9.82 179.95 1.1 M 166.23 23.09 C 171.64 15.5 176.04 11.92 187.08 -0.48 M 167.42 21.02 C 173.54 13.41 179.62 7.1 184.7 -0.68 M 171.96 24.02 C 179.43 13.33 187.64 3.03 190.92 -1.07 M 171.15 22.12 C 176.34 17.71 181.04 11.8 191.31 -0.58 M 175.29 23.29 C 183.49 17.16 188.54 9.91 196.59 -0.84 M 177.06 22.44 C 184.66 13.21 191.56 4.54 195.48 0.44 M 182.15 23.78 C 187.24 14.11 196.82 5.05 200.11 1.98 M 183.15 22.51 C 186.74 15.97 193.99 9.22 201.23 -0.35 M 187.6 21.05 C 193.31 13.04 201.52 6.58 205.79 1.67 M 188.72 21.3 C 194.48 12.88 201.6 6.58 206.82 0.34 M 194.3 20.68 C 200.89 14.7 208.01 4.41 210.76 0.31 M 193.77 22.12 C 198.71 14.94 205.71 5.75 211.11 0.72 M 199.44 21.55 C 202.44 17.49 206.69 12.17 217.84 1.11 M 197.96 21.36 C 203.81 16.94 208.12 11.69 217.51 -0.29 M 205.19 21.16 C 208.85 15.58 210.71 10.49 224.02 -0.27 M 203.95 22.45 C 210.39 14.9 216.23 7.52 222.35 -0.18 M 209.59 22.96 C 213.39 16.66 216.21 11.26 229.36 1.57 M 208.37 20.62 C 214.86 15.99 220.51 9.86 228.82 -1.02 M 213.07 21.67 C 220.59 16.81 223.85 10.1 233.49 1.1 M 213.17 22.76 C 222.08 12.9 228.38 5.94 233.35 -0.63 M 220.63 23.28 C 223.97 15.07 228.12 9.83 239.8 -0.08 M 219.91 23.04 C 223.44 17.62 228.33 13.15 238.89 0.04 M 223.66 22.69 C 233.17 14.2 237.47 7.68 243.25 -1.7 M 224.42 20.99 C 231.19 14.13 239.34 6.04 244.56 0 M 231.58 23.25 C 235.3 16.31 239.64 8.55 248.03 0.79 M 230.5 22.6 C 234.49 17.24 239.72 10.51 248.37 0.3 M 236.16 22.77 C 243.42 14.37 250.4 5.46 253.86 0.23 M 235.19 20.87 C 243.19 14.17 249.22 6.15 255.43 -0.39 M 239.95 20.91 C 246.08 15.84 247.76 14.27 258.42 -0.88 M 241.13 22.73 C 245.35 17.2 249.54 12.57 259.41 0.12 M 245.21 20.43 C 252.52 14.16 260.76 8.67 264.32 0.85 M 246.51 20.81 C 252.77 14.4 258.36 7.41 265.41 0.31 M 250.38 22.57 C 253.24 19.39 259.39 11.4 269.49 -0.89 M 251.45 22.36 C 257.97 15.58 262.93 7.11 269.37 0.86 M 254.95 20.28 C 264.81 14.36 270.66 5.09 274.13 1.13 M 255.91 21.01 C 261.53 16.94 266.91 10.66 274.99 -0.55 M 259.98 21.6 C 268.42 15.12 274.31 5.01 279.19 1.02 M 262.11 21.67 C 268.91 14.3 275.97 6.46 281.11 0.63 M 268.98 22.93 C 272.01 14.37 280.92 6.62 285.24 -0.93 M 266.44 22.36 C 272.3 15.69 277.21 11.6 286.66 0.63 M 272.35 20.37 C 278.47 16.44 283.98 10.24 290.97 -0.9 M 271.82 23.06 C 275.34 16.97 281.21 12.49 292.01 -0.75 M 276.35 23.02 C 283.65 12.42 291 6.58 296.08 -0.28 M 277.67 21.51 C 283.51 15.71 290.15 7.94 297.94 0.66 M 283.51 20.29 C 287.71 16.92 290.74 11.16 303.73 -0.33 M 282.26 22.14 C 288.68 16.28 292.98 11.36 300.97 -0.72 M 289.59 23.23 C 295.16 13.7 301.4 6.42 307.52 1.14 M 288.67 21.83 C 295.18 13.44 303.36 6.26 308.34 0.6 M 292 23.81 C 299.93 15.41 300.68 13.5 313.86 -0.94 M 293.15 22.8 C 300.25 13.4 307.96 6.64 313.38 1.02 M 298.72 20.27 C 301.92 15.73 305.77 11.27 316.95 0.43 M 299.05 22.43 C 306.5 13.72 312.57 6.42 318.42 -1.27 M 304.79 20.4 C 312.56 15.64 319.47 5.81 325.2 1.63 M 303.22 22.14 C 311.31 13.71 318.72 4.08 324.19 -0.49 M 309.19 22.88 C 316.43 16.02 321.22 9.84 328.18 -0.28 M 309.92 21.16 C 317.7 12.31 325.29 3.9 328.73 -0.41 M 315.34 20.58 C 318.23 19.02 320.49 11.08 335.05 1.78 M 315.22 21.48 C 322.42 13.16 328.97 5.81 334.82 -0.5 M 319.96 21.84 C 326.39 14.25 333.93 5.56 337.51 0.18 M 320.91 21.6 C 324.3 16.95 329.69 11.84 338.84 -1.08 M 325.57 21.87 C 331.31 15.09 336.05 8.81 344.21 1.94 M 324.9 21.41 C 332.8 14.27 339.02 6.56 344.23 0.51 M 329.42 19.95 C 337.89 11.22 347.15 3.34 351.71 0 M 331.15 22.05 C 335.33 16.43 341.78 10.34 350.35 -1.27 M 335.88 22.84 C 341.56 14.28 350.5 4.61 354.93 -1.44 M 336.04 22.73 C 342.45 15.3 348.03 8.9 355.9 -0.24 M 340.8 22.79 C 346.83 13.2 354.96 8.52 361.37 1.15 M 341.66 21.33 C 346.49 16.18 353.79 8.18 359.2 1 M 347.13 21.1 C 352.83 13.46 360.28 4.34 364.91 0.15 M 347.44 21.48 C 353.85 13.21 359.35 5.75 364.82 -0.78 M 350.75 21.72 C 357.6 16.52 362.93 9.28 369.49 0.39 M 350.91 22.69 C 359.07 13.15 366.29 4.36 371.32 -0.33 M 358.65 23.28 C 363.15 12.87 367.88 8.97 377.37 1.21 M 357.9 21.92 C 361.78 16.9 367.11 10.92 376.48 0.61 M 363.43 20.4 C 371.11 13.62 378.13 4.9 381.6 -0.23 M 361.96 21.43 C 368.92 14.56 377.52 5.43 381.69 0.2 M 366.23 23.04 C 373.5 14.78 376.73 11.34 386.95 0.32 M 367.25 21.58 C 373.52 14.89 379.27 8.64 387.9 0.35 M 371.13 21.76 C 379.44 12.88 386.1 8.12 390.33 1.59 M 371.99 22.78 C 378.83 15.78 385.47 8.8 391.97 -0.48 M 380.14 23.07 C 383.26 17.6 388.72 8.51 397.77 -1.97 M 379.32 22.2 C 382.89 16.86 386.95 11.68 398.63 0.62 M 383.59 22.74 C 389.34 15.41 391.95 10.98 400.8 -0.8 M 382.73 21.72 C 389.69 13.07 397.11 5.63 402.83 -0.2 M 391.12 21.09 C 394.04 17.8 398.18 13.83 409.44 -1.01 M 388.97 20.74 C 392.6 16.88 397.55 11.97 407.7 0.32 M 394.04 20.35 C 401.52 15.78 405.44 7.4 412.59 -1 M 393.43 21.99 C 398.81 16.73 401.23 12.99 412.94 -0.58 M 400.37 19.88 C 406.35 15.58 410 7.71 419.02 -2.18 M 399.07 22.43 C 406.66 14.17 411.99 7.22 418.69 0.11 M 405.17 21.6 C 412.14 13.66 417.4 8.48 425.75 -1.62 M 405.83 21.04 C 409.01 17.55 412.43 12.18 424 0.04 M 409.56 21.21 C 414.92 17.58 417.86 11.97 431.03 1.21 M 409.51 21.7 C 416.75 13.47 423.01 6.98 428.68 -0.66 M 415.13 21.55 C 422.67 13.04 430.54 5.68 434.78 -0.2 M 415.2 21.04 C 420.7 14.01 428.28 8.02 433.73 -0.5 M 422.85 19.89 C 425.15 17.82 429.6 10.76 439.49 -2.12 M 420.18 21.25 C 426.76 16.43 431.4 9.52 439.26 -0.86 M 427.55 21.28 C 429.87 15.74 436.23 8.03 446.69 0.74 M 425.33 21.93 C 433.39 14.18 440.56 4.24 444.87 0.93 M 432.83 21.79 C 436.44 17.09 441.46 13.63 449.86 0.55 M 432.01 20.97 C 438.81 13.31 447.75 4.96 451.55 -0.65 M 437.52 21.91 C 440.85 15.95 442.98 13.26 454.91 -0.32 M 437.52 22.37 C 443.62 12.7 450.88 5.79 456.14 -0.36 M 442.59 21.79 C 447.73 15.6 449.07 13.22 461.08 0 M 441.93 21.04 C 447.32 16.07 453.75 8.79 461.17 -0.45 M 445.61 22.59 C 453.18 16.54 454.75 10.82 465.39 -1.81 M 447.57 22.73 C 453.99 14.22 461.77 4.52 467.32 0.22 M 451.02 22.54 C 458.91 16.33 463.02 10.81 470.91 -0.21 M 453.23 21.57 C 457.64 16.12 461.2 12.45 470.62 0.8 M 459.85 22.49 C 462.75 14.61 472.99 5.51 478.5 -1.19 M 458.84 22.16 C 462.22 15.89 466.14 12.3 476.18 -0.53 M 461.45 21.49 C 470.44 16.51 474.7 6.39 480.53 -0.75 M 463.18 22.68 C 467.93 16.23 474.94 9.26 482.86 -0.36 M 469.75 22.82 C 476.11 15.22 482.97 5.43 487.11 -0.84 M 469.15 21.5 C 473.99 16.53 477.28 10.72 487.51 -0.57 M 471.71 21.36 C 480 12.93 490.54 4.97 492.62 -0.01 M 474.12 21.98 C 480.06 15.35 485.7 9.11 492.41 -0.39 M 480.27 20.82 C 487.02 12.9 491.98 4.56 498.56 1.87 M 479.88 22.35 C 484.73 15.85 489.68 8.18 498.12 0.37 M 482.76 21.16 C 491.16 14.9 495.14 8.54 504.01 0.92 M 485.03 22.56 C 488.76 16.91 494.86 10.17 502.96 1.23 M 489.85 19.78 C 494.18 14.88 501.41 8.92 508.62 0.59 M 490.89 22.05 C 497.05 13.95 503.89 6.31 509.84 -0.19 M 496.01 22.93 C 499.6 15.47 502.97 12.34 514.98 0.95 M 493.92 22.72 C 498.97 17.05 501.99 13.27 513.73 -0.25 M 500.4 22.98 C 507.93 13.48 515.09 6.02 519.59 -1.98 M 499.6 22.66 C 507.66 12.72 515.55 5.62 520.51 -0.52 M 507.36 21.74 C 510.04 18.14 513.63 14.07 523.28 1.06 M 504.83 23.04 C 510.66 16.34 515.52 11.54 524.42 0.14 M 511.3 19.76 C 517.49 14.87 525.09 4.95 530.18 -0.11 M 511.9 21.97 C 517.75 14.79 525.66 6.28 530.97 0.36 M 517.17 23.68 C 522.17 14.15 527.68 9.09 534.13 -1.78 M 516.8 21.3 C 523.33 14.46 529.59 7.51 534.29 0.14 M 521.39 23.49 C 524.87 16.41 531.24 10.75 541.61 0.95 M 521.21 22.51 C 527.26 16.59 533.02 9.31 540.1 -0.33 M 528.27 23.9 C 534.67 12.78 540.93 7.21 546.21 -0.53 M 526.88 21.52 C 534.17 13.55 542.02 4.39 545.08 -0.81 M 530.98 21.57 C 536.32 18.08 542.25 9.3 551.54 -1.01 M 531.49 22.55 C 539.79 12.17 546.71 3.88 551.78 -0.16 M 535.96 20.54 C 544.76 16.59 549.72 9.41 557.69 -0.15 M 537.14 22.97 C 542.14 15.96 546.38 11.56 556.05 -0.51 M 543.87 21.43 C 547.97 16.17 552.19 8.7 560.13 0.83 M 542.19 21.1 C 549.35 13.64 555.88 7.41 561.92 -0.43 M 550.01 20.81 C 554.76 15.15 563.17 6.96 568.19 0.45 M 547.68 21.13 C 552.61 18.23 556.3 12.04 567.01 0.95 M 553.29 20.51 C 557.71 15.7 565.78 8.35 571.98 0.32 M 553.27 20.88 C 556.99 16.73 561.18 13.12 573.44 -1.24 M 560.64 22.93 C 563.41 17.19 569.39 9.33 576.81 -1.61 M 559.6 22.73 C 563.8 15.11 570.38 7.41 577.24 0.24 M 563.31 21.08 C 567.04 16.1 570.56 11.11 582.16 0.33 M 563.57 22.13 C 568.71 16.35 575.2 9.88 583.26 -0.43 M 568.57 22.16 C 574.35 15.59 580.89 9.03 588.11 0.81 M 570.02 22.74 C 574.48 14.59 580.04 9.03 588.56 -0.26 M 573.44 21.14 C 583.14 15.16 587.89 4.96 593.58 -0.45 M 574.41 22.53 C 579.48 14.28 586.25 8.3 592.68 0.13 M 578.97 20.78 C 586.59 16.14 591.91 6.12 598.12 -1.1 M 579.08 21.34 C 586.8 12.21 595.62 5.06 598.31 0.58 M 584.68 20.99 C 589.38 18.95 592.01 11.96 605.57 -0.6 M 584.65 22.78 C 589.09 17.07 593.37 11.19 602.98 0.55 M 591.49 22.11 C 593.95 17.5 599.58 9.62 608.35 1.85 M 590.93 20.98 C 597.44 13.86 602.4 6.95 610.32 -0.38 M 596.15 22.23 C 601.17 15.1 608.53 5.01 615.94 -1.39 M 596.32 22.55 C 598.89 17 605.13 12.46 614.47 0.44 M 602.22 20.51 C 607.47 15.64 611.86 6.92 619.77 -1.09 M 600.73 21.32 C 605.55 17.02 609.75 12.93 619.97 0.46 M 606.45 22.48 C 613.81 15.57 619.19 8.24 625.66 0.19 M 606.98 22.25 C 612.01 16.66 617.23 9.57 626.16 0.88 M 613.76 23.35 C 618.08 15.79 621.22 7.9 630.81 1.36 M 611.67 22.25 C 617.81 14.85 624.34 6.76 631.12 0.42 M 615.64 21.36 C 620.49 19.28 623.62 15.06 634.19 4.44 M 616.68 22.02 C 620.53 18.28 625.02 13.38 634.08 2.46 M 621.34 21.15 C 627.14 18.45 629.39 10.45 635.22 9.45 M 622.03 21.02 C 625.51 18.69 626.71 15.84 633.35 8.66 M 627.34 22.32 C 630.15 20.86 631.16 18.14 634.42 14.24 M 627.22 22.4 C 628.93 20.28 630.95 17.7 633.85 14.9" fill="none" stroke="#647687" stroke-linejoin="round" stroke-linecap="round" stroke-miterlimit="10" pointer-events="all"/><path d="M 0.33 0.53 C 224.35 -1.75 447.97 -2.28 630.68 0.77 M 0.39 0.17 C 233.73 -2.45 467.31 -1.93 630.66 0.15 M 632.44 1.73 C 631.2 7.04 628.7 14.58 628.89 18.95 M 631.02 -0.01 C 630.39 7.37 631.38 13.6 629.77 20.77 M 631.44 19.23 C 462.42 22.22 292.72 20.84 0.45 19.73 M 630.72 19.8 C 391.24 21.66 151.97 21.94 -0.28 19.86 M 1.75 19.55 C -0.52 15.01 -1.58 9.01 -0.58 -1.54 M 0.25 19.48 C 0.65 15.4 -0.33 11.39 -0.39 0.11" fill="none" stroke="#314354" stroke-linejoin="round" stroke-linecap="round" stroke-miterlimit="10" pointer-events="all"/></g></svg>