<?xml version="1.0" encoding="UTF-8"?>
<!DOCTYPE svg PUBLIC "-//W3C//DTD SVG 1.1//EN" "http://www.w3.org/Graphics/SVG/1.1/DTD/svg11.dtd">
<svg xmlns="http://www.w3.org/2000/svg" xmlns:xlink="http://www.w3.org/1999/xlink" version="1.1" width="267px" height="71px" viewBox="-0.5 -0.5 267 71"><defs/><g><rect x="0" y="0" width="266" height="70" fill="none" stroke="none" pointer-events="all"/><path d="M -0.05 0.06 C -0.05 0.06 -0.05 0.06 -0.05 0.06 M -0.05 0.06 C -0.05 0.06 -0.05 0.06 -0.05 0.06 M -0.01 5.7 C 1.75 4.19 3.77 2.71 6.23 -0.5 M -0.37 6.33 C 1.79 4 3.94 1.63 5.28 -0.73 M -0.17 13.05 C 2.04 8.06 3.67 6.31 10.88 0.42 M -0.28 12.87 C 4.44 7.6 7.92 3.28 10.67 -0.07 M 1.52 17.56 C 5.66 12.07 13.29 4.23 18.2 0.91 M -1.08 17.98 C 5.35 11.01 11.9 3.64 15.35 0.37 M 0.7 23.69 C 4.33 18.35 12.29 12.05 19.42 1.81 M 0.47 24.02 C 4.75 18.64 10.15 13.46 20.68 -0.55 M -1.46 30.15 C 9.12 23.25 13.51 13.81 24.57 0.06 M -0.6 31.26 C 6.52 21.25 14.37 14.42 26.39 0.41 M 1.15 37.41 C 9.03 25.75 15.83 16.57 33.08 -0.77 M -0.01 36.51 C 9.57 24.88 20.29 14.93 31.57 0.77 M 1.53 43.18 C 13.25 29.75 24.94 15.73 37.88 -1.19 M -0.85 41.63 C 9.73 31.55 17.89 22.4 37.22 -0.34 M -0.26 47.61 C 9.66 40.31 15.27 30.6 42.08 1.89 M -1.04 48.77 C 12.63 34.16 26.44 20.34 42.28 0.5 M -0.5 52.91 C 13.92 38.65 30.46 18.45 47.8 0.1 M 0.67 55.17 C 18.84 32.25 36.95 10.29 46.87 0.13 M 1.03 60.35 C 18.15 40.36 33.75 23.4 53.45 0.52 M -0.03 60.22 C 11.65 46.75 23.41 33.16 53.01 0.76 M -2.29 65.93 C 17.29 45.96 33.62 24.42 58.58 -1.33 M -0.94 68.19 C 17.05 48.05 35.47 27.03 57.83 1.03 M 1.46 72.01 C 26.22 44.78 48.08 18.11 65.15 1.41 M 2.39 72.01 C 15.67 55.28 28.81 38.72 64.28 0.08 M 5.51 69.85 C 25.54 45.85 47.61 24.29 70.38 -0.11 M 6.91 70.85 C 24.06 50.67 42.37 31.55 68.36 0.51 M 11.92 70.01 C 35.21 48.14 56.3 21.22 76.03 0.48 M 11.92 70.67 C 24.92 56.32 37 42.39 73.87 0.47 M 16.05 73 C 35.91 49.89 51.01 33.03 81.25 1.71 M 17.01 71.89 C 36.08 50.85 54.58 29.96 79.56 0.67 M 24.16 69.99 C 45.13 47.29 66.18 20.03 83.86 1.21 M 22.02 72.3 C 46.97 44.01 71.09 16.48 85.9 0.4 M 26.68 69.76 C 42.39 50.07 62.69 32.06 89.16 0.66 M 27.74 70.98 C 41.79 55.14 54.94 39.57 90.28 0.58 M 35.03 71.62 C 51.88 46.9 74.76 26.39 95.3 0.7 M 33.13 71.41 C 57.01 43.34 80.55 17.49 95.75 -0.22 M 38.95 72.34 C 54.01 55.04 68.94 37.24 101.99 1.88 M 38.05 71.46 C 53.96 55.07 66.96 37.85 100.21 -0.74 M 43.27 71.15 C 64.45 45.62 87.24 21.75 107.92 -0.38 M 44.47 70.45 C 63.67 49.45 81.62 28.02 107.13 -1.03 M 49.3 72.57 C 72.11 44.19 96.63 16.3 111.51 1.11 M 49.2 71.14 C 64.57 55.11 78.2 38.86 110.8 0.66 M 55.54 71.44 C 74.65 50.61 96.06 25.33 116.22 0.26 M 55.08 70.82 C 71.18 52.88 86.38 33.92 117.01 -0.2 M 59.09 71.83 C 79.01 51.02 98.37 28.1 123.4 -1.33 M 59.73 71.28 C 79.15 47.5 99.36 26.45 122.32 0.7 M 64.39 71.95 C 80.83 49.47 99.22 32.48 125.57 0.49 M 64.77 71.88 C 79.78 52.57 96.88 36.46 126.7 0.52 M 71.92 71.88 C 84.43 53.47 99.19 36.56 131.25 1.47 M 69.86 72.33 C 83.86 56.5 98.38 40.13 132.83 0.27 M 74.28 70.71 C 93.84 48.26 111.96 28.08 137.61 0.52 M 75.19 71.94 C 92.63 52.32 108.1 33.78 138.11 -0.37 M 82.28 69.79 C 94.57 56.27 109.6 37.54 142.57 1.02 M 81.02 71.96 C 96.02 52.75 112.26 35.97 143.19 0.19 M 87.6 70.36 C 108.31 45.89 128.38 19.33 146.86 1.91 M 86.73 71.27 C 111.74 42.98 134.79 15.26 147.44 -0.21 M 89.59 72.52 C 103.57 56.69 116.07 44.45 152.75 -0.57 M 91.02 72.52 C 108.86 51.04 126.76 31.51 154.05 0.24 M 98.61 72.13 C 114.66 51.55 130.4 33.35 158.77 2.06 M 97.63 71.08 C 117.09 48.26 138.7 23.88 158.21 -0.61 M 102.83 71.82 C 118.7 54.52 132.19 33.57 163.1 -0.59 M 101.58 71.1 C 116.96 54.18 132.09 36.76 164.86 0.14 M 107.51 69.85 C 119.71 56.87 131.83 41.12 170.34 1.21 M 106.89 70.54 C 124.42 54.15 138.56 37.1 168.89 0.51 M 113.87 71.08 C 135.42 44.45 159.24 17.7 174.84 -1.77 M 112.75 71.21 C 135.94 43.3 161.55 16.82 174.88 0.59 M 118.38 71.92 C 140.15 44.91 161.16 23.95 179.5 1.21 M 119.32 71.78 C 138.01 46.84 157.85 24.41 179.26 0.68 M 123.53 71.26 C 141.22 48.89 159.83 26.16 187.09 1.8 M 123.87 71.83 C 139.04 56.1 153.49 38.99 186.13 0.23 M 129.21 71.37 C 152.64 44.3 176.89 19.07 191.07 -0.51 M 128.53 70.87 C 143.5 53.68 158.78 37.73 191.39 -0.09 M 135.49 72.91 C 152.58 49.86 170.42 30.49 194.88 -1.42 M 134.55 72.38 C 149.93 52.67 164.13 36.63 196.48 0.64 M 137.92 71.8 C 157.49 49.55 174.3 30.3 202.78 -0.92 M 139.93 70.84 C 155.22 53.62 169.47 35.9 200.63 -0.37 M 146.37 70.19 C 166.64 44.11 189.42 17.74 207.14 1.65 M 143.73 71.75 C 164.35 48.05 183.69 27.35 206.55 -0.62 M 148.31 69.4 C 167.42 50.4 188.44 30.32 211.27 -1.41 M 149.72 70.67 C 169.18 48.89 189.43 26.1 212.65 -0.26 M 155.67 72.85 C 167.33 55.88 181.07 42.44 216.71 -1.32 M 154.64 71.27 C 173.02 50.33 192.46 29.25 216.78 -1.07 M 160.1 70.97 C 181.27 46.31 200.6 24.77 222.08 -1.76 M 159.89 70.3 C 173.61 55.77 186.26 41.62 222.41 -0.41 M 167.81 72.22 C 185.59 49.67 204.18 28.46 226.34 -2.07 M 165.79 71.72 C 182.89 51.99 200.73 30.69 228.4 -0.24 M 170.9 71.9 C 183.05 56.34 199.95 40.9 231.66 1.83 M 171.24 71.62 C 193.24 44.87 215.44 20.26 233.17 0.98 M 178.13 71.23 C 191.19 57.99 202.08 42.66 238.68 -1.74 M 176 72.35 C 194.16 50.28 213.14 28.27 238.45 -0.74 M 181.59 70.92 C 195.97 54.61 212.49 39.35 245.37 -1.22 M 181.7 72.23 C 196.03 54.51 212.39 36.07 243.48 -0.83 M 186.84 70.41 C 202.03 54.86 221.78 34.55 250.3 -0.89 M 187.39 71.86 C 201.74 52.56 217.92 35.23 248.74 -1.2 M 192.92 73.09 C 214.57 48.47 233.5 22.62 255.47 -1.92 M 191.98 71.41 C 215.84 43.58 240.09 15.96 254.18 -0.14 M 197.09 69.89 C 215.88 51.35 232.6 33.14 260.99 -0.71 M 198.36 71.38 C 220.22 46.75 240.76 22.42 260.24 -0.56 M 203.57 72.34 C 225.5 43.95 247.11 16.66 263.13 -1.69 M 202.6 71.66 C 223.02 48.65 244.71 25.08 265.42 0.23 M 208.91 71.38 C 222.63 51.81 238.34 36.63 269.13 1.42 M 208.64 71.53 C 224.38 52.59 239.84 33.35 269.38 1.44 M 214.78 70.42 C 225.67 53.09 240.74 39.54 269.2 9.96 M 213.55 70.69 C 229.93 51.71 247.75 32.55 268.43 8.19 M 217.27 72.18 C 232.33 54.97 244.32 39.9 267.82 13.3 M 218.22 71.34 C 231.06 57.79 243.48 42.61 269.19 14.58 M 223.72 71.7 C 233.05 61.19 244.06 50.64 266.61 20.28 M 224.6 71.15 C 240.22 53.41 256.4 33.28 268.89 20.27 M 230.01 71.2 C 243.03 54.71 260.57 36.06 267.73 24.68 M 230.4 71.33 C 242.25 57.42 254.8 41.63 269.17 25.97 M 233.43 73.12 C 247.24 58.56 257.63 46.54 270.52 32.87 M 234.33 71.65 C 242.78 63.76 248.99 55.52 268.12 32.23 M 241.9 70.94 C 247.36 59.33 260.24 50.2 268.31 36.74 M 240.79 70.46 C 249.22 60.28 259.11 50.65 267.48 38.48 M 246.88 70.22 C 254.42 63.81 260.89 54.07 269.07 45.44 M 245.12 71.74 C 253.51 62.7 262.37 53.6 268.78 45.79 M 252.61 71.47 C 252.61 65.62 256.16 64.22 267.54 50.49 M 250.29 71.13 C 256.42 65.14 261.9 58.95 267.73 50.18 M 256.9 71.16 C 260.67 69.03 264.13 64.17 267.32 57.05 M 256.12 70.98 C 258.39 67.37 262.35 65.34 267.85 56.89 M 261.07 71.86 C 262.43 69.16 264.16 68.05 267.96 62.09 M 261.82 70.61 C 263.39 68.45 265.43 67.34 269.06 62.41" fill="none" stroke="#647687" stroke-linejoin="round" stroke-linecap="round" stroke-miterlimit="10" pointer-events="all"/><path d="M 1.47 -0.57 C 58.17 -0.14 115.31 2.09 266.21 -0.03 M 0.78 0.71 C 88.9 1.22 176.8 -0.11 266.63 0.07 M 266.32 -0.44 C 266.34 21.01 265.74 40.58 267.65 71.4 M 265.5 0.3 C 265.93 14.31 267.08 27.62 266.85 70.47 M 266.73 68.63 C 166.91 68.52 67.04 68.69 0.22 71.34 M 265.51 69.46 C 175.57 70.72 85.22 70.02 0.75 70.56 M -1.68 68.3 C -0.46 52.85 -2.29 38.83 0.19 -0.19 M 0.86 69.22 C 0.14 49.54 -0.33 29.74 -0.35 0.81" fill="none" stroke="#314354" stroke-linejoin="round" stroke-linecap="round" stroke-miterlimit="10" pointer-events="all"/></g></svg>