<?xml version="1.0" encoding="UTF-8"?>
<!DOCTYPE svg PUBLIC "-//W3C//DTD SVG 1.1//EN" "http://www.w3.org/Graphics/SVG/1.1/DTD/svg11.dtd">
<svg xmlns="http://www.w3.org/2000/svg" xmlns:xlink="http://www.w3.org/1999/xlink" version="1.1" width="121px" height="81px" viewBox="-0.5 -0.5 121 81"><defs/><g><path d="M 30 19.5 C 6 19.5 0 39.5 19.2 43.5 C 0 52.3 21.6 71.5 37.2 63.5 C 48 79.5 84 79.5 96 63.5 C 120 63.5 120 47.5 105 39.5 C 120 23.5 96 7.5 75 15.5 C 60 3.5 36 3.5 30 19.5 Z" fill="none" stroke="none" pointer-events="all"/><path d="M 10.86 26.17 C 10.86 26.17 10.86 26.17 10.86 26.17 M 10.86 26.17 C 10.86 26.17 10.86 26.17 10.86 26.17 M 10.89 33.8 C 12.36 31.09 13.62 29.44 17.87 23.51 M 10.2 33.13 C 11.87 31.32 12.97 29.54 18.09 24.16 M 12.25 37.58 C 14.33 35.06 19.27 29.92 24.07 24.4 M 10.78 37.57 C 13.87 34.47 16.88 32.38 23.66 22.51 M 11.72 39.73 C 20.81 34.71 27.79 27.55 37.7 10.61 M 12.75 42.49 C 23.59 30.87 31.29 19.92 38.97 12.42 M 17.93 42.78 C 27.23 29.85 36.69 17.69 48.15 9.68 M 16.98 43.27 C 24.04 36.49 29.21 28.44 46.41 8.73 M 12.14 54.92 C 25.08 38.08 40.65 20.65 51 10.24 M 13.06 53.93 C 26.56 38.34 41.29 20.55 51.88 9.55 M 13.73 56.65 C 26.71 43.24 42.01 24.19 55.12 10.11 M 15.29 58.42 C 29.48 42.69 42.76 26.98 57.04 9.99 M 15.66 59.51 C 34.38 41.81 49.63 23.07 62.71 7.32 M 16.92 60.54 C 34.63 39.77 54.45 19.06 62.18 8.22 M 18.84 64.49 C 38.17 43.03 53.36 25.02 67.52 11.36 M 21.46 63.41 C 37.52 44.38 53.63 25.56 67.26 9.94 M 24.25 66.01 C 41.08 48.45 53.74 31.81 70.7 13.16 M 25.66 64.58 C 38.77 47.26 55.32 30.14 70.73 13.38 M 29.05 64.43 C 46.94 46.02 63.69 26.61 75.69 15.59 M 30.5 65.71 C 48.36 44.78 64.74 25.58 73.22 15.02 M 32.04 68.57 C 47.32 48.69 63.17 29.19 74.97 18.46 M 33.51 66.21 C 42.61 56.4 52.75 45.1 77.21 17.65 M 41.61 66.67 C 55.21 50.23 66.75 32.67 85.36 14.26 M 39.6 65.25 C 52.22 51.1 65.84 36.71 85.18 15.28 M 44.73 67.71 C 56.01 56.44 65.75 42.76 89.72 17.24 M 42.92 68.3 C 53.27 57.35 63.21 44.86 88.18 15.31 M 46.72 70.83 C 64.08 49.52 79.94 32.1 94.66 18.04 M 45.55 71.62 C 57.98 58.01 71.25 42.42 94.44 16.3 M 48.89 73.34 C 68.69 50.64 90.53 29.93 98.86 17.75 M 49.92 71.42 C 62.98 57.42 76.48 43.3 98.59 17.17 M 51.92 75.55 C 70.74 55.25 91.05 32.28 101.81 18.68 M 53.19 73.79 C 64.63 60.88 76.98 47.12 103.16 19.06 M 59.23 76.44 C 71.57 57.76 87.34 42.69 107.77 19.81 M 57.36 75.51 C 68.97 62.8 80.44 50.56 105.55 19.93 M 65.08 74.17 C 73.91 61.03 85.66 49.35 108.66 22.84 M 62.37 75.71 C 77.56 59.8 90.94 43.34 107.72 23.73 M 68.68 75.88 C 80.02 59.67 93 47.76 109.34 25.63 M 68.99 74.73 C 82.08 59.48 94.92 43.77 110.37 26.98 M 73.6 74.38 C 86.14 63.8 97.93 49.75 105.96 38.57 M 73.17 76.02 C 84.13 62.84 95.38 51.23 106.15 40.22 M 78.48 77.21 C 89.26 66.91 98.3 53.65 106.75 41.8 M 77.58 78.23 C 85.9 67.89 96.16 57.87 109.35 42.42 M 89.7 72.75 C 96.74 62.35 105.31 50.55 112.3 44.87 M 87.17 72.53 C 94.3 65.16 100.88 57.95 111.01 43.69 M 99.78 67.2 C 103.73 60.51 111.19 51.48 114.39 46.67 M 98.45 64.68 C 103.22 61.44 105.09 56.71 114.67 46.41 M 106.23 63.41 C 107.27 61.42 110.74 56.34 114.51 51.1 M 105.45 64.65 C 107.01 62.35 110.2 58.68 115.5 51.79" fill="none" stroke="#dbdbdb" stroke-linejoin="round" stroke-linecap="round" stroke-miterlimit="10" pointer-events="all"/><path d="M 31.83 17.71 M 30 19.5 C 7.43 18.68 1.53 41 21.07 43.39 M 30.78 20.3 C 7.67 17.73 -0.37 39.22 20.45 45.63 M 19.2 43.5 C 1.58 51.24 20.31 71.34 35.36 63.93 M 19.36 43.47 C 2.24 52.66 21.97 71.47 37.29 62.04 M 37.2 63.5 C 46.65 78.85 82.81 80.59 94.58 61.78 M 36.59 64.99 C 47.99 79.41 82.6 77.69 96.63 64.45 M 96 63.5 C 121.67 63.24 120.2 47.6 104.03 40.53 M 94.46 62.96 C 119.49 64.85 121.6 49.24 105.39 40.94 M 105 39.5 C 118.44 22.27 97.82 8.77 75.46 16.83 M 104.68 39.3 C 118.2 23.78 93.79 5.38 76.61 14.56 M 75 15.5 C 59.87 1.65 35.43 1.81 31.16 20.12 M 74.92 15.48 C 60.56 5.08 34.33 3.05 32.25 19.03 M 30 19.5 C 30 19.5 30 19.5 30 19.5 M 30 19.5 C 30 19.5 30 19.5 30 19.5" fill="none" stroke="#000000" stroke-linejoin="round" stroke-linecap="round" stroke-miterlimit="10" pointer-events="all"/></g></svg>