<?xml version="1.0" encoding="UTF-8"?>
<!DOCTYPE svg PUBLIC "-//W3C//DTD SVG 1.1//EN" "http://www.w3.org/Graphics/SVG/1.1/DTD/svg11.dtd">
<svg xmlns="http://www.w3.org/2000/svg" xmlns:xlink="http://www.w3.org/1999/xlink" version="1.1" width="121px" height="81px" viewBox="-0.5 -0.5 121 81"><defs/><g><path d="M 30 20 C 6 20 0 40 19.2 44 C 0 52.8 21.6 72 37.2 64 C 48 80 84 80 96 64 C 120 64 120 48 105 40 C 120 24 96 8 75 16 C 60 4 36 4 30 20 Z" fill="none" stroke="none" pointer-events="all"/><path d="M 10.86 26.67 C 10.86 26.67 10.86 26.67 10.86 26.67 M 10.86 26.67 C 10.86 26.67 10.86 26.67 10.86 26.67 M 10.05 34.75 C 13.41 31.99 13.92 27.1 16.77 23.65 M 10.14 33.99 C 11.75 32.09 13.54 29.46 18.23 24.7 M 9.41 39.44 C 15.76 32.28 21.19 28.8 23.58 21.69 M 10.95 38.63 C 16.23 32.92 19.58 28.08 23.48 24.14 M 11.56 41.39 C 19.79 30.64 31.12 22.83 37.47 13.49 M 12.4 42.98 C 19.24 33.36 25.67 26.86 39.29 12.88 M 17.37 42.04 C 24.44 35.71 31.65 29.01 46.87 10.11 M 16.65 42.97 C 27.22 30.05 40.18 18.71 47.26 10.54 M 10.96 54.47 C 27.13 39.49 41.89 22.1 53.6 8.72 M 12.22 55.42 C 23.74 41.81 36.61 27.9 52.27 8.65 M 15.67 58.32 C 31.74 41.5 49.95 19.14 56.32 10.6 M 14.92 59.05 C 24.69 47.18 34.96 34.49 56.88 10.95 M 18.32 60.69 C 27.76 49.95 37.15 37.68 61.37 8.12 M 18.22 60.84 C 33.12 42.91 48.65 24.93 63.19 8.87 M 18.65 62.56 C 38.76 44.21 53.87 24.83 66.03 10.15 M 21.51 65 C 32.16 51.06 42.56 39.04 65.97 10.48 M 26.28 64.79 C 41.96 46.87 56.45 29.78 69.25 12.02 M 25.13 64.53 C 38.14 50.59 51.78 34.68 70.44 12.96 M 31.83 64.77 C 42.37 51.66 55.84 34.82 75.5 16.12 M 30.4 66.35 C 43.6 48.75 58.31 33.18 74.06 14.8 M 33.26 68.98 C 47.43 53.82 57.28 37.71 76.45 17.01 M 33.98 67.45 C 46.18 51.71 59.8 37.97 77.18 17.32 M 38.78 67.96 C 49.75 56.54 59.56 41.77 83.21 15.11 M 39.7 66.34 C 52.1 52.27 63.57 39.37 85.24 16.02 M 44.8 67.78 C 57.12 53.79 70.81 37.97 86.96 17.96 M 42.5 70.08 C 59.92 49.88 76.55 29.95 88.39 16.28 M 46.62 71.43 C 63.55 47.92 83.36 26.64 93.61 16.81 M 46.08 72.2 C 59.13 57.93 72.46 43.14 94.11 17.55 M 48.97 72.99 C 65.81 53.74 85.19 33.32 99.07 16.84 M 49.43 72.39 C 59.96 61.88 68.48 49.41 99.44 16.03 M 52.4 74.44 C 73.33 56.36 87.8 33.6 102.88 17.91 M 54.19 73.83 C 72.66 56.03 89.98 35.33 102.56 19.02 M 57.51 75.43 C 70.88 59.3 88.44 41.71 107.15 22.12 M 58.82 76.53 C 77.47 54.32 96.09 32.91 106.76 20.94 M 64.09 77.84 C 75.83 63.21 86.42 47.51 108.38 25.9 M 62.69 76.4 C 80.23 56.96 98.03 36.39 108.17 25.03 M 70.03 77.66 C 83.59 60.65 97.48 43.27 109.65 25.54 M 69.04 76.65 C 85.37 57.74 98.95 40 110.97 27.34 M 73.78 77.74 C 83.79 61.99 96.79 48.89 103.96 39.58 M 74.35 77.08 C 80.36 67.54 87.95 60.69 104.62 40.71 M 77.99 78.86 C 84.57 69.52 92.17 61.1 109.93 42.14 M 77.93 78.7 C 85.2 69.61 92.38 60.44 108.6 42.6 M 89.02 74.01 C 94.51 63.57 103.55 55.89 112.97 44.6 M 88.48 72.49 C 95.74 62.1 103.89 53.03 111.54 44.27 M 100.38 67.34 C 102.9 62.22 107.4 53.61 115.13 47.64 M 99.38 65.94 C 102.9 60.98 105.73 58.17 114.04 47.42 M 106.46 64.83 C 108.26 61.42 111.65 57.98 114.52 54.24 M 105.7 64.35 C 107.47 60.53 110.29 57.98 115.69 53" fill="none" stroke="#dbdbdb" stroke-linejoin="round" stroke-linecap="round" stroke-miterlimit="10" pointer-events="all"/><path d="M 29.43 18.94 M 30 20 C 7.59 19.44 -0.7 41.14 18.32 43.97 M 28.19 21.17 C 4.05 20.57 1.38 37.81 17.62 46.28 M 19.2 44 C -0.39 53.85 20.55 70.26 37.71 64.76 M 20.21 44.39 C 1.22 54.66 20.03 70.91 38.65 64.32 M 37.2 64 C 47.8 81.79 82.49 79.61 97.98 64.21 M 38.2 64.68 C 48.02 78.7 83.85 78.26 95.83 65.43 M 96 64 C 118.87 62.69 118.27 48.57 103.15 40.47 M 97.72 65.18 C 119.76 63.12 119.34 47.4 103.53 39.12 M 105 40 C 119.82 25.29 95.86 9.07 76.02 14.12 M 105.87 39.64 C 118.94 22.22 96.93 10.18 74.17 15.16 M 75 16 C 58.48 2.06 34.61 2.04 30.47 20.63 M 75.89 14.89 C 61.3 3.35 37.19 2.69 30.68 21.74 M 30 20 C 30 20 30 20 30 20 M 30 20 C 30 20 30 20 30 20" fill="none" stroke="#000000" stroke-linejoin="round" stroke-linecap="round" stroke-miterlimit="10" pointer-events="all"/></g></svg>