<?xml version="1.0" encoding="UTF-8"?>
<!DOCTYPE svg PUBLIC "-//W3C//DTD SVG 1.1//EN" "http://www.w3.org/Graphics/SVG/1.1/DTD/svg11.dtd">
<svg xmlns="http://www.w3.org/2000/svg" xmlns:xlink="http://www.w3.org/1999/xlink" version="1.1" width="121px" height="81px" viewBox="-0.5 -0.5 121 81"><defs/><g><path d="M 30 19.5 C 6 19.5 0 39.5 19.2 43.5 C 0 52.3 21.6 71.5 37.2 63.5 C 48 79.5 84 79.5 96 63.5 C 120 63.5 120 47.5 105 39.5 C 120 23.5 96 7.5 75 15.5 C 60 3.5 36 3.5 30 19.5 Z" fill="none" stroke="none" pointer-events="all"/><path d="M 10.86 26.17 C 10.86 26.17 10.86 26.17 10.86 26.17 M 10.86 26.17 C 10.86 26.17 10.86 26.17 10.86 26.17 M 10.61 33.95 C 11.91 30.37 13.72 29.24 17.5 24.19 M 9.78 33.25 C 12.01 30.75 14.27 27.69 17.74 23.77 M 11.3 39.36 C 13.37 32.63 19.81 30.71 23.91 22 M 10.83 38.42 C 14.97 32.93 21.18 25.91 23.6 23.55 M 13 41.45 C 21.78 32.39 29.25 20.38 40.29 11.4 M 13.97 42.49 C 23 32.2 30.28 22.07 38.41 12.4 M 17.74 45.04 C 28.5 32.23 41.84 16.96 46.39 9.66 M 17.54 44.33 C 27.73 31.91 36.81 19.84 46.02 9.16 M 14.41 53.27 C 25.2 43.26 35.21 27.53 53.2 9.57 M 13.45 54.26 C 22.31 45.11 31.17 35.32 52.67 8.42 M 14.38 57.04 C 30.73 40.88 45.67 22.06 58.19 8.78 M 15.17 58.46 C 24.09 47.8 33.57 35.65 56.32 10.15 M 19.22 62.4 C 31.53 44.05 46.16 26.14 63.6 7.42 M 17.35 61.14 C 30.76 45.09 46.14 28.76 61.85 8.94 M 21.45 63.68 C 30.56 51.33 43.6 37.24 67.03 12.13 M 21.48 63.1 C 38.45 44.2 55.71 23.45 67.5 10.62 M 24.92 64.1 C 35.69 52.87 48.61 39.55 71.55 12.61 M 24.15 65.06 C 36.56 51.07 48.45 38.49 69.96 12.41 M 31.31 67.04 C 45.75 44.48 62.74 27.26 72.96 12.93 M 30.47 64.43 C 46.11 47.86 62.6 28.53 73.5 14.78 M 33.78 67.21 C 50.02 50.52 61.21 32.15 76.8 19.15 M 33.67 67.12 C 42.8 54.96 54.77 43.51 77.87 16.71 M 39.34 64.27 C 50.73 52.47 67.02 37.17 85.98 15.71 M 40.3 66.78 C 50.54 55.41 58.47 44.27 83.86 14.69 M 42.09 68.9 C 62.5 48.04 78.35 29.27 88.8 17.31 M 43.45 69.4 C 57.53 52.15 72.09 33.65 88.25 16.13 M 45.35 70.86 C 59.22 58.51 71.34 43.15 92.97 16.13 M 45.72 70.98 C 59.39 57.17 71.35 42.52 93.67 15.22 M 51.58 71.72 C 63.55 58.96 74.1 45.79 100.27 14.61 M 51.09 72.91 C 67.78 51.62 86.09 30.6 98.2 17.29 M 52.08 72.35 C 67.99 59.17 83.12 42.67 103.5 16.92 M 53.52 74.97 C 66.64 57.12 81.31 43.05 102.29 18.88 M 58.66 77.27 C 76.83 56.08 93.72 37.84 104.9 19.08 M 58.51 74.35 C 72.17 60.79 84.69 45.5 105.95 19.43 M 62.08 73.9 C 80.5 54.01 99.14 34.15 107.24 23.7 M 62.48 76.44 C 78.47 57.06 93.99 39.89 107.87 24.67 M 70.46 74.97 C 85.02 58.22 101.1 41.27 109.44 28.1 M 69.01 75.87 C 82.19 59.96 95.94 44.24 109.9 26.26 M 74.99 74 C 83.01 63.9 93.11 52.58 105.29 41.4 M 73.56 75.54 C 85.64 62.91 96.43 49.8 105.64 39.55 M 76.98 78.92 C 89.03 64.95 96.26 55.97 106.47 40.42 M 78.36 76.88 C 86.33 66.76 93.57 57.02 108.43 42.98 M 86.81 73 C 94.6 64.72 103.09 56.1 111.19 45.95 M 88.27 72.35 C 97.2 61.49 103.88 52.52 111.85 45.05 M 98.64 64.41 C 101.19 62.12 107.95 54.44 113.3 45.49 M 99.43 65.6 C 102.33 60.45 106.51 57.03 113.79 46.58 M 104.17 63.72 C 106.82 63.05 110.63 58.26 116.65 53.05 M 105.53 64.38 C 109.01 59.43 113.48 55.59 115.03 51.49" fill="none" stroke="#dbdbdb" stroke-linejoin="round" stroke-linecap="round" stroke-miterlimit="10" pointer-events="all"/><path d="M 29.7 20.62 M 30 19.5 C 7.48 18.77 0.79 40.88 20.16 42.08 M 29.92 20.42 C 6.46 20.04 -1.32 38.59 19.51 45.68 M 19.2 43.5 C -0.41 50.61 21.72 70.82 36.14 62.7 M 18.31 43.61 C 1.9 51.62 21.33 72.65 36.21 65.7 M 37.2 63.5 C 48.37 80.99 82.7 78.76 97.04 62.42 M 37.13 64.72 C 48 80.54 84.55 77.71 97.89 64.61 M 96 63.5 C 119.4 61.56 120.89 49.09 103.74 37.68 M 94.21 63.53 C 118.05 64.11 119.32 46.92 104.77 40.16 M 105 39.5 C 120.23 23.11 95.83 8.7 75.65 17.1 M 106.41 40.58 C 118.45 24.63 94.83 6.81 72.73 14.59 M 75 15.5 C 58.07 2.95 35.16 4.39 28.26 18.79 M 75.24 16.45 C 57.74 2.8 35.29 1.23 28.66 21.3 M 30 19.5 C 30 19.5 30 19.5 30 19.5 M 30 19.5 C 30 19.5 30 19.5 30 19.5" fill="none" stroke="#000000" stroke-linejoin="round" stroke-linecap="round" stroke-miterlimit="10" pointer-events="all"/></g></svg>