<?xml version="1.0" encoding="UTF-8"?>
<!DOCTYPE svg PUBLIC "-//W3C//DTD SVG 1.1//EN" "http://www.w3.org/Graphics/SVG/1.1/DTD/svg11.dtd">
<svg xmlns="http://www.w3.org/2000/svg" xmlns:xlink="http://www.w3.org/1999/xlink" version="1.1" width="101px" height="91px" viewBox="-0.5 -0.5 101 91"><defs/><g><path d="M 23.96 30.78 L 23.96 0 L 50 15.34 L 76.04 0 L 76.04 30.78 L 100 44.95 L 76.04 59.22 L 76.04 90 L 50 74.56 L 23.96 90 L 23.96 59.22 L 0 44.95 Z" fill="none" stroke="none" pointer-events="all"/><path d="M 24.19 -0.26 C 24.19 -0.26 24.19 -0.26 24.19 -0.26 M 24.19 -0.26 C 24.19 -0.26 24.19 -0.26 24.19 -0.26 M 24.08 6.47 C 24.76 5.06 25.5 4.42 26.77 2.7 M 23.76 5.96 C 24.95 4.57 26.37 3.58 27.32 2.29 M 23.97 13.1 C 25.82 11.13 28.56 7.89 31.43 3.78 M 23.81 12.67 C 26.26 9.77 29.53 6.42 31.14 4.11 M 0.44 45.35 C 0.44 45.35 0.44 45.35 0.44 45.35 M 0.44 45.35 C 0.44 45.35 0.44 45.35 0.44 45.35 M 22.63 18.4 C 26.44 13.1 29.99 10.29 34.75 4.75 M 23.68 18.83 C 27.89 14.26 31.59 9.8 34.78 6.77 M 4.94 46.73 C 7.32 44.88 8.97 41.69 12.09 38.83 M 4.49 47.73 C 6.33 43.78 9.41 41.16 11.62 38.49 M 24.52 22.86 C 27.93 17.62 35.05 12.84 39.7 6.14 M 24.07 24.44 C 27.16 19.8 31.79 15.73 37.75 7.16 M 5.66 51.7 C 13.29 44.16 18.19 36.83 22.39 32.31 M 7.93 49.62 C 12.01 44.93 16.28 39.87 22.32 32.56 M 22.97 31.65 C 29.05 27.22 30.49 22.82 39.73 12.35 M 24.02 30.82 C 31.28 21.93 37.58 14.87 41.82 9.69 M 10.01 50.19 C 23.61 38.3 32.89 23.54 46.44 11.96 M 11.03 52.13 C 20.78 40.29 30.01 30 44.88 13.14 M 12.57 54.2 C 20.6 42.36 28.62 35.46 47.68 15.93 M 13.73 54.32 C 21.79 46.21 29.4 37.76 48.67 15.14 M 17.11 55.38 C 29.53 40.51 42.25 27.06 52.07 18.85 M 18.93 56.37 C 30.94 40.95 41.83 26.97 52.36 17.35 M 22.45 59.35 C 36.19 42.11 48.47 26.26 61.53 12.32 M 21.55 57.54 C 30.49 47.67 39.55 37.93 62.43 10.1 M 26 60.58 C 36.79 49.41 47.41 35.04 75.66 -1.04 M 24.39 60.29 C 36.33 45.73 49.5 30.71 77.55 -0.6 M 26.57 67.72 C 45.46 45.45 65.26 22.05 76.45 6.67 M 25.39 66.77 C 42.41 46.37 61.63 25.18 76.72 7.32 M 24.14 72.58 C 42.53 53.79 61.02 32.78 76.87 12.19 M 24.87 71.71 C 35.78 59.22 45.84 47.41 76.34 12.45 M 23.5 79.8 C 36.83 63.51 51.41 45 76.36 19.96 M 25.62 79.18 C 37.09 63 49.62 48.55 77.19 18.88 M 23.41 83.35 C 37.55 72.13 46.3 58.55 77.9 25.3 M 25.55 83.1 C 38.96 67.52 54.63 49.01 75.94 24.39 M 26.08 88.86 C 38.57 74.94 46.89 65.01 74.7 31.01 M 25.65 90.63 C 38.49 72.93 53.27 57.78 77.33 31.1 M 37.59 85.85 C 49.47 67.69 62.45 49.91 78.24 34.18 M 35.82 84.4 C 47.78 70.06 59.82 56.43 80.65 33.26 M 46.49 77.53 C 55.83 63.36 68.65 51.48 81.67 34.49 M 46.03 77.34 C 55.24 66.69 63.99 55.98 82.65 35.63 M 53.36 77.94 C 58.84 66.93 68.41 59.19 87.77 36.54 M 53.25 77.86 C 62.5 66.4 72.31 54.62 87.95 36.84 M 56.11 77.18 C 62.56 68.88 74.61 58.17 88.96 40.9 M 55.31 78.15 C 68.16 65.87 78.31 52.29 90.5 38.42 M 60.84 79.09 C 61.58 76.8 68.46 72.24 76.32 60.79 M 59.16 81.84 C 67.56 73.25 73.5 65.07 77.09 60.56 M 77.92 60.09 C 80.62 53.36 85.68 49.28 93.17 41.17 M 77.45 59.84 C 82.9 53.89 89.01 46.76 94.39 41.24 M 62.76 82.51 C 69.06 76.1 71.6 71.25 76.87 66.37 M 62.75 81.84 C 67.16 78.62 71.01 75.63 77.23 66.85 M 87.24 53.66 C 91.58 48.66 95.87 47.34 98.39 44.17 M 88.83 54.06 C 90.26 51.5 92.32 48.64 97.87 42.87 M 65.44 85.9 C 68.78 82.73 72.09 77.78 77.43 71.29 M 66.89 84.58 C 71.38 80.39 75.84 75.84 78.25 73.3 M 70.29 86.87 C 71.93 86.38 73.72 83.07 77.02 78.08 M 69.74 87.3 C 71.98 85.95 72.85 83.85 77.1 79.48 M 73.34 88.97 C 74.33 88.2 76.19 86.52 77.36 84.3 M 73.8 89.07 C 75.24 87.51 76.78 85.75 77.78 84.7 M 23.69 89.76 C 23.69 89.76 23.69 89.76 23.69 89.76 M 23.69 89.76 C 23.69 89.76 23.69 89.76 23.69 89.76 M 27.89 88.19 C 26.51 86.84 24.81 85.72 23.92 84.79 M 27.86 88.1 C 27.06 87.47 26.16 86.4 23.97 84.83 M 30.59 85.07 C 28.92 82.98 26.26 80.36 23.11 79.43 M 31.4 85.92 C 27.98 83.48 25.39 80.72 23.67 78.77 M 34.77 83.08 C 29.91 80.78 28.18 76.35 23.08 74.55 M 35.07 83.46 C 32.02 81.11 29.56 79.3 23.61 74.36 M 37.43 81.99 C 33.16 79.81 31.38 75.44 24.41 70.11 M 38.06 80.88 C 34.54 78.66 30.79 73.1 24.12 68.39 M 43.97 77.3 C 37.28 73.64 32.55 68.98 23.25 61.55 M 43.08 78.88 C 36.31 74.05 31.51 71.02 23.57 63.28 M 1.33 43.83 C 1.33 43.83 1.33 43.83 1.33 43.83 M 1.33 43.83 C 1.33 43.83 1.33 43.83 1.33 43.83 M 45.59 77.46 C 35.87 69.74 30.69 63.8 3.66 39.84 M 44.81 76.28 C 29.43 64.81 15.8 51.65 4.48 41.72 M 51.2 75.53 C 34.85 62.78 21.08 49.09 8.04 40.85 M 49.96 75.25 C 34.69 62.61 20.09 48.65 8.72 39.33 M 52.19 73.74 C 36 61.28 22.01 47.95 12.5 35.48 M 52.52 72.47 C 39.27 62.95 27.36 52.2 12.57 38.32 M 77.48 90.77 C 54.22 68.29 35.16 51.85 15.5 35.39 M 78.26 89.34 C 62.58 75.19 44.78 60.22 15.87 34.05 M 75.45 82.14 C 65.53 72.24 55.04 61.3 19.81 30.87 M 76.76 83.41 C 59.28 67.45 39.88 50.63 18.42 32.08 M 75.73 76.5 C 54.94 59.74 34.24 41.21 22.95 31.17 M 77.74 77.63 C 61.74 65.66 45.98 50.48 23.83 30.53 M 75.28 72.68 C 59.14 57.19 45.86 44.72 25.61 26.88 M 76.58 73.51 C 57.9 55.25 40.33 41.13 26.44 29.44 M 76.02 66.93 C 59.89 48.95 37.4 32.31 25.1 24.85 M 78.41 67.33 C 64.11 56.5 52.86 46.33 26.22 23.82 M 75.46 61.96 C 57.89 44.9 38.07 29.3 27.1 16.4 M 76.23 61.23 C 58.67 44.79 40.96 29.6 26.99 18.8 M 75.46 56.53 C 64.73 46.64 52.78 35.41 24.71 11.83 M 78.12 57.85 C 63.83 44.39 49.7 33.87 26.99 12.21 M 81.37 54.41 C 69.9 46.47 55.4 35.47 26.28 8.6 M 81.86 55.29 C 62.47 36.4 40.97 19.67 27.06 7.79 M 83.69 52.85 C 70.23 39.9 50.97 23.62 23.72 -1.58 M 85.04 52.65 C 62.58 34.43 40.85 16.5 24.56 0.31 M 87.57 52.06 C 71.31 35.92 52.91 19.79 41.19 13.08 M 88.06 51.49 C 71.4 34 52.71 18.57 42.44 10.43 M 94.23 46.88 C 77.36 35.24 64.8 24.64 49.74 11.99 M 91.99 48.57 C 82.54 39.14 71.36 30.48 51.36 14.27 M 95.35 47.16 C 89.09 41.54 81.77 34.1 74.99 28.17 M 96.47 46.27 C 89.73 40.89 80.92 34.37 77.84 30.43 M 78.09 31.96 C 70.27 23.52 64.99 18.16 55.22 13 M 77.14 29.79 C 68.92 23.94 60.32 16.15 55.88 10.77 M 75.93 26.14 C 71.19 18.56 67.46 15.19 60 9.38 M 75.97 23.74 C 73.38 20.3 69.15 17.88 59.95 8.63 M 78.63 19.53 C 71.41 15.95 66.85 9.51 61.94 7.92 M 77.79 18.52 C 73.31 16.15 71.8 14.23 62.28 7.02 M 76.17 13.24 C 73.95 9.44 70.27 6.91 66.51 4.94 M 77.01 13.94 C 73.81 11.48 72.53 10.12 65.6 3.95 M 77.66 8.69 C 73.65 5.87 72.58 5.46 70.36 2.66 M 76.61 9.03 C 74.44 6.66 71.41 4.24 69.65 2.77 M 76.6 3.01 C 75.69 2.54 74.56 1.47 73.32 0.65 M 76.56 3.19 C 75.37 2.42 74.28 1.41 73.32 0.36" fill="none" stroke="#dbcb63" stroke-linejoin="round" stroke-linecap="round" stroke-miterlimit="10" pointer-events="all"/><path d="M 22.49 30.84 M 23.52 30.54 C 24.09 22.32 22.82 8.88 22.45 -1.72 M 23.42 30.93 C 23.99 21.87 24.13 11.76 24.49 0.34 M 25.96 1.98 C 29.65 1.49 33.61 6.64 50.24 15.69 M 23.03 -0.83 C 31.89 5.79 39.76 10.5 50.61 15.29 M 51.92 16.88 C 59.4 9.07 66.68 6.01 76.48 -1.01 M 49.74 15.17 C 58.71 8.8 69.64 3.5 76.84 0.1 M 74.05 -1.54 C 75.08 11.3 76.26 19.46 75.48 29.81 M 75.54 -0.04 C 75.65 10.14 76.36 20.87 75.67 30.96 M 75.35 28.9 C 82.08 35.34 92.61 39.87 98.15 44.42 M 75.47 30.58 C 81.93 34.03 88.46 38.03 100.06 43.97 M 99.94 44.52 C 90.17 51.39 83.5 54.48 74.77 58.98 M 100.75 44.25 C 91.82 49.81 82.47 54.45 75.68 58.5 M 75.81 61.02 C 77.82 67.86 75.62 72.7 75.31 90.16 M 75.08 59.68 C 75.76 65.64 76.5 72.52 75.68 90.77 M 75.12 90.11 C 71.2 87.16 65.49 82.66 48.49 74.56 M 75.38 90.69 C 65.25 84.24 54.81 78.25 49.24 75.36 M 49.31 74.96 C 40.4 78.64 28.24 84.94 22.37 88.03 M 50.35 73.71 C 40.62 79.71 29.5 86.27 24.6 89.53 M 25.63 89.44 C 23.02 78.07 23.68 67.44 25.03 57.94 M 23.52 90.11 C 24.59 82.6 24.27 74.63 23.24 59.5 M 23.87 58.49 C 16.65 55.27 13.66 50.33 -0.83 45.52 M 23.38 58.46 C 17.52 54.62 10.66 51.25 0.93 45.89 M -1.08 44.38 C 8.6 38.25 18.14 33.51 24.75 29.22 M 0.47 43.98 C 8.73 39.9 17.67 33.18 23.85 31.03" fill="none" stroke="#dbcb63" stroke-linejoin="round" stroke-linecap="round" stroke-miterlimit="10" pointer-events="all"/></g></svg>