<?xml version="1.0" encoding="UTF-8"?>
<!DOCTYPE svg PUBLIC "-//W3C//DTD SVG 1.1//EN" "http://www.w3.org/Graphics/SVG/1.1/DTD/svg11.dtd">
<svg xmlns="http://www.w3.org/2000/svg" xmlns:xlink="http://www.w3.org/1999/xlink" version="1.1" width="61px" height="191px" viewBox="-0.5 -0.5 61 191"><defs/><g><path d="M 0 0 L 60 35 L 0 70 Z" fill="none" stroke="none" pointer-events="all"/><path d="M 0 0 C 0 0 0 0 0 0 M 0 0 C 0 0 0 0 0 0 M -0.63 6.89 C 1.3 4.63 2.06 2.95 3.61 1.3 M -0.5 6.61 C 1 5.03 2.34 3.64 3.72 2.1 M 0.39 11.57 C 1.34 11.07 2.11 8.93 6.75 3.63 M -0.22 11.56 C 1.37 9.63 3.8 7.36 7.58 4.21 M 0.52 19.14 C 1.18 14.24 3.21 13.1 9.02 7.89 M -0.92 19.12 C 3.74 14.77 5.98 10.33 9.88 5.68 M 1.1 24.46 C 2.98 19.31 9.57 16.14 12.61 9.62 M 0.47 24.36 C 4.27 20.17 7.23 17.55 14.24 8.76 M -0.57 31.79 C 4.23 25.09 12.55 16.95 18.48 8.6 M 0.41 29.96 C 5.43 24.66 10.48 17.65 17.71 11.02 M 1.74 37.5 C 8.53 29.91 11.92 21.82 20.72 12.07 M -0.12 37.4 C 4.56 31.95 9.69 25.23 21 11.63 M 1.43 42.38 C 4.89 37.85 11.84 31.42 23.16 13.43 M 0.69 42.4 C 6.73 34.45 14.18 26.87 23.55 14.43 M -2.04 49.29 C 7.86 39.97 15.68 30.63 26.36 16.93 M -1.01 49.75 C 5.09 42.59 11.92 34.12 27.72 17.17 M 2.24 53.13 C 13.11 43.67 22.87 27.39 32.52 17.36 M -0.54 54.33 C 9.72 45.51 17.47 35.95 32.38 18.39 M 0.1 62.17 C 12.63 45.33 26.7 32.64 36.76 20.37 M -0.32 61.6 C 8.28 52.07 15.41 42.51 35.26 20.78 M 1.63 67.96 C 12.17 52.57 26.91 35.44 38.62 23.14 M 0.36 66.65 C 15.01 51.18 29.73 34.44 39.21 23.04 M 1.32 73.37 C 10.56 60.24 22.13 47.02 41.41 26.68 M 2.33 71.33 C 13.47 58.43 23.65 45.53 42.44 25.3 M 10.69 63.3 C 22.89 53.25 28.97 45.72 45.02 27.59 M 12.04 64.1 C 21.52 54.62 33.23 41.76 46.24 25.93 M 21.4 56.85 C 29.44 53.16 35.64 44.81 49.3 30.28 M 23.62 59.34 C 31.01 49.57 38.29 40.64 49.23 29 M 35.64 53.11 C 40.81 45.49 47.95 37.98 53.5 31.72 M 33.99 52.24 C 38 47.52 42.73 41.79 51.63 30.07 M 44.9 45.82 C 47.06 42.9 52.18 37.81 55.72 33.63 M 44.71 46.53 C 47.65 42.83 49.78 40.2 55.63 33.54 M 54.71 39.79 C 56.06 38.42 57.86 37.53 60.39 34.73 M 54.94 40 C 56.76 38.37 58.54 36.14 60.15 34.47" fill="none" stroke="#d5e8d4" stroke-linejoin="round" stroke-linecap="round" stroke-miterlimit="10" pointer-events="all"/><path d="M 2 -1.57 M 0.65 -0.53 C 19.21 12.44 40.5 24.86 58.66 34.62 M 0.79 -0.59 C 16.49 8.88 32.18 18.42 59.6 35.79 M 61.04 36.72 C 41.86 44.75 25.36 56.7 1.92 69.83 M 60.16 35.05 C 47.58 41.75 35.07 49.63 0.01 70.18 M -1.13 69.22 C 0.62 50.92 -1.41 34.72 1.38 -0.1 M 0.7 70 C -0.03 48.87 -0.65 30.09 0.51 -0.68" fill="none" stroke="#82b366" stroke-linejoin="round" stroke-linecap="round" stroke-miterlimit="10" pointer-events="all"/><rect x="0" y="0" width="10" height="190" fill="none" stroke="none" pointer-events="all"/><path d="M -0.26 0.3 C -0.26 0.3 -0.26 0.3 -0.26 0.3 M -0.26 0.3 C -0.26 0.3 -0.26 0.3 -0.26 0.3 M 0.81 5.81 C 2.21 3.95 3.35 2.94 4.96 0.64 M 0.45 5.87 C 1.65 4.05 3.46 1.98 5.69 -0.17 M -1.22 13.16 C 4.34 7.92 7.37 4.62 9.08 -0.73 M -0.12 12.79 C 4.02 9.09 6.25 4.98 11.07 0.12 M 0.9 17.06 C 2.61 14.94 8.54 9.38 9.83 5.87 M 1 18.35 C 4.42 13.9 8.28 9.64 10.71 7.08 M 0.55 24.03 C 2.9 18.77 6.24 15.33 11.92 13.29 M -0.69 24.81 C 1.79 22.24 4.88 19.32 10.39 11.82 M -1.34 31.32 C 1.9 26.1 6.2 23.22 11.52 17.49 M -0.52 30.99 C 3.34 25.19 7.42 21.17 10.12 17.97 M -1.19 36.29 C 3.63 32.42 6.31 27.23 9.51 25.56 M -0.16 35.91 C 3.73 31.35 8.35 26.55 10.72 24.62 M -0.43 42.21 C 1.92 40.18 6.53 35.04 11.96 31.54 M 0.49 42.99 C 4.07 38.1 7.43 32.52 9.9 30.16 M 1.46 48.07 C 1.77 47.14 6.22 44.44 10.03 36.72 M -0.05 47.99 C 4.47 44.17 7.46 39.09 10.85 37.16 M -0.24 54.41 C 3.41 50.91 2.97 49.34 9.13 43.67 M 0.18 54.97 C 2.43 51.69 3.84 49.78 10.91 42.94 M 0.38 59.87 C 3.26 57.69 5.03 52.4 8.75 49.13 M 0.19 61.32 C 3.62 57.6 6.8 54.87 11.02 48.77 M 0.3 66.35 C 1.31 65.26 3.78 62.29 9.36 56.05 M -0.63 66.54 C 3.31 62.8 6.81 59.05 11.24 54.13 M 0.48 73.33 C 2.49 71.05 8.08 66.22 11.32 60.44 M 0.46 72.66 C 3.21 70.38 5.86 67.44 10.8 61.62 M 1.68 78.94 C 4.31 76.11 7.15 70.96 9.11 66.94 M 0.46 79.4 C 2.04 76.13 4.77 74.43 9.56 68.05 M -1.07 84.32 C 4.62 80.41 7.3 76.01 9.15 74.71 M -0.17 85.08 C 2.66 82.36 5.62 79.89 9.86 73.68 M -1.16 91.53 C 2.54 87.59 8.17 83.54 11.68 78.61 M -0.27 91.13 C 1.83 89.82 4.3 87.26 10.03 79.03 M -1.38 97.69 C 1.33 95.36 5.76 92.86 9.18 85.71 M 0.12 97.87 C 3.89 92.99 7.81 88.57 11.07 85.09 M 0.46 103.67 C 4.42 98.95 6.11 96.04 9.5 91.17 M 0.15 103.82 C 4.77 99.27 7.73 94.05 9.89 92.45 M -0.42 110.26 C 3.54 107.99 3.61 103.32 9.28 98.41 M -0.41 109.68 C 4.44 105.13 7.61 100.94 9.52 98.08 M -1.26 114.86 C 3.82 111.23 6.42 106.95 10.15 103.84 M 0.45 115.29 C 3.61 111.53 6.84 108.48 10.51 103.61 M -0.23 123.16 C 4.69 117.37 5.22 113.7 11.78 111.68 M -0.69 121.75 C 3.32 119.12 6.27 114.91 10.13 110.01 M -1.23 126.32 C 5.18 123.16 6.65 118.59 11.97 114.39 M 0 127.95 C 3.9 123.07 8.1 119.24 11.35 115.16 M -0.33 133.34 C 2.42 133.12 3.52 129.86 8.91 121 M 0.66 133.91 C 3.65 130.43 7.38 125.37 10.55 121.86 M 0.36 140.12 C 2.44 135.78 5.14 133.84 11.31 127.83 M 0.61 139.22 C 2.94 135.73 5.98 132.99 10.06 129.02 M -0.43 146.75 C 5.27 142.52 8.92 135.97 12.05 133.26 M 0.06 146.87 C 1.88 144.62 3.58 140.79 10.56 134.41 M -0.99 152.02 C 1.12 150.52 4.87 146.78 10.32 142.02 M 0.36 152.44 C 3.19 148.57 6.79 143.2 10.68 141.13 M 0.76 157.39 C 1.39 156.23 6.61 152.72 11.38 146.59 M 0.71 158.35 C 3.38 154 7.34 148.71 10.79 146.6 M -0.31 165.92 C 1.81 162.56 5.78 159.4 10.64 154.23 M -0.01 163.95 C 3.65 160.2 7.52 155.58 10.91 152.9 M 0.1 169.03 C 2.47 168.62 4.27 165 8.81 159.17 M -0.15 170.99 C 3.06 167.06 4.32 164.9 9.71 158.72 M -1.47 177.69 C 3.45 175.03 6.67 171.63 11.99 165.67 M 0.01 177.5 C 3.83 173.14 7.08 168.54 10.38 164.43 M 0.44 184.31 C 2.85 178.99 6.99 176.85 9.01 170.98 M -0.01 182.9 C 3.09 179.22 5.84 174.72 10.09 171.67 M -0.15 189.73 C 3.83 182.92 9.07 180.75 9.57 177.67 M 0.79 189.52 C 3.68 184.72 7.3 180.68 10.72 175.97 M 1.86 191.75 C 5.64 190.13 6.58 187.36 11.24 183.45 M 2.48 191.78 C 4.13 189.84 6.68 187.37 9.88 182.95 M 7.71 192.47 C 8.92 191.24 9.64 189.99 10.35 189.85 M 7.32 192.4 C 8.29 191.68 9.12 191.04 9.94 189.54" fill="none" stroke="#d5e8d4" stroke-linejoin="round" stroke-linecap="round" stroke-miterlimit="10" pointer-events="all"/><path d="M -0.73 0.27 C 2.63 -0.02 4.29 -0.57 10.71 -0.84 M 0.29 -0.12 C 4.39 -0.23 8.05 0.38 10.13 0.18 M 8.31 1.88 C 9.05 65.09 7.88 132.51 9.19 189.23 M 10.49 0.91 C 7.97 68.37 7.63 137.41 9.54 190.11 M 9.76 190.47 C 7.03 189.58 4.81 190.92 -0.62 190.7 M 9.71 189.99 C 7.73 190.3 5.5 189.98 0.18 189.95 M -1.91 188.59 C -1.11 131.38 0.9 73.74 0.91 -1.29 M 0.23 190.85 C -0.32 139.02 -1.04 86.49 0.83 -0.87" fill="none" stroke="#82b366" stroke-linejoin="round" stroke-linecap="round" stroke-miterlimit="10" pointer-events="all"/></g></svg>