<?xml version="1.0" encoding="UTF-8"?>
<!DOCTYPE svg PUBLIC "-//W3C//DTD SVG 1.1//EN" "http://www.w3.org/Graphics/SVG/1.1/DTD/svg11.dtd">
<svg xmlns="http://www.w3.org/2000/svg" xmlns:xlink="http://www.w3.org/1999/xlink" version="1.1" width="36px" height="36px" viewBox="-0.5 -0.5 36 36"><defs/><g><rect x="1" y="1.25" width="31.5" height="31.5" fill="none" stroke="none" transform="rotate(-5,16.75,17)" pointer-events="all"/><path d="M 23.99 22.3 C 25.16 20.69 25.73 18.84 25.73 17 C 25.73 14.23 24.46 11.51 22.06 9.75 C 20.46 8.57 18.61 8.01 16.76 8.01 C 14 8.01 11.28 9.28 9.52 11.68 C 8.34 13.27 7.78 15.14 7.78 16.98 C 7.78 19.74 9.05 22.47 11.45 24.23 C 13.05 25.4 14.91 25.97 16.75 25.97 C 19.51 25.97 22.24 24.7 23.99 22.3 Z" fill="none" stroke="none" transform="rotate(-5,16.75,17)" pointer-events="all"/><path d="M 8.23 11.38 L 8.48 11.03 C 8.54 10.96 8.6 10.89 8.66 10.81 L 8.67 10.83 L 8.96 10.48 C 9.35 10.02 9.79 9.58 10.25 9.19 L 10.61 8.89 L 10.59 8.88 C 10.65 8.84 10.71 8.78 10.78 8.73 L 11.13 8.48 L 5.63 5.85 L 5.93 6.5 L 8.23 11.38 Z" fill="none" stroke="none" transform="rotate(-5,16.75,17)" pointer-events="all"/><path d="M 6.68 18.59 C 6.67 18.51 6.66 18.42 6.65 18.34 L 6.68 18.34 L 6.64 17.89 C 6.61 17.59 6.59 17.29 6.59 17 C 6.59 16.68 6.61 16.37 6.64 16.07 L 6.68 15.61 L 6.65 15.62 C 6.66 15.53 6.67 15.45 6.68 15.36 L 6.75 14.94 L 6.34 15.08 L 1 16.98 L 6.75 19.02 L 6.68 18.59 Z" fill="none" stroke="none" transform="rotate(-5,16.75,17)" pointer-events="all"/><path d="M 15.39 6.9 L 15.38 6.92 L 15.84 6.88 C 16.14 6.86 16.44 6.84 16.75 6.84 C 17.05 6.84 17.35 6.86 17.66 6.88 L 18.11 6.92 L 18.1 6.9 C 18.19 6.91 18.28 6.91 18.36 6.93 L 18.79 7 L 16.75 1.25 L 16.51 1.93 L 14.71 7 L 15.13 6.93 C 15.22 6.91 15.3 6.91 15.39 6.9 Z" fill="none" stroke="none" transform="rotate(-5,16.75,17)" pointer-events="all"/><path d="M 22.91 8.89 L 22.91 8.89 L 22.99 8.96 C 23.17 9.1 23.32 9.25 23.48 9.39 C 23.78 9.66 24.06 9.94 24.33 10.24 C 24.47 10.39 24.61 10.54 24.74 10.71 L 24.85 10.84 L 24.85 10.83 C 24.9 10.9 24.96 10.96 25.01 11.03 L 25.26 11.38 L 27.89 5.85 L 27.24 6.16 L 22.36 8.49 L 22.71 8.74 C 22.78 8.78 22.85 8.84 22.91 8.89 Z" fill="none" stroke="none" transform="rotate(-5,16.75,17)" pointer-events="all"/><path d="M 26.75 19.04 L 32.5 17 L 26.75 14.96 L 26.82 15.39 C 26.83 15.47 26.84 15.56 26.85 15.64 L 26.82 15.63 L 26.86 16.09 C 26.89 16.39 26.91 16.7 26.91 17 C 26.91 17.31 26.89 17.61 26.86 17.91 L 26.82 18.37 L 26.85 18.36 C 26.84 18.44 26.83 18.53 26.82 18.61 L 26.75 19.04 Z" fill="none" stroke="none" transform="rotate(-5,16.75,17)" pointer-events="all"/><path d="M 18.11 27.1 L 18.12 27.07 L 17.66 27.11 C 17.35 27.14 17.05 27.16 16.75 27.16 C 16.44 27.16 16.14 27.14 15.84 27.11 L 15.38 27.07 L 15.39 27.1 C 15.3 27.09 15.22 27.08 15.13 27.07 L 14.71 27 L 14.85 27.41 L 16.75 32.75 L 18.79 27 L 18.36 27.07 C 18.28 27.08 18.19 27.09 18.11 27.1 Z" fill="none" stroke="none" transform="rotate(-5,16.75,17)" pointer-events="all"/><path d="M 25.01 22.97 C 24.96 23.03 24.91 23.09 24.86 23.16 L 24.85 23.14 L 24.56 23.49 C 24.24 23.88 23.88 24.24 23.51 24.58 C 23.32 24.75 23.14 24.93 22.94 25.08 C 22.87 25.13 22.81 25.19 22.74 25.24 L 22.39 25.49 L 27.9 28.12 L 25.26 22.61 L 25.01 22.97 Z" fill="none" stroke="none" transform="rotate(-5,16.75,17)" pointer-events="all"/><path d="M 10.56 25.09 L 10.58 25.08 L 10.23 24.79 C 9.78 24.41 9.34 23.97 8.96 23.52 L 8.67 23.17 L 8.66 23.19 C 8.6 23.11 8.54 23.04 8.48 22.97 L 8.23 22.62 L 8.05 23.01 L 5.63 28.12 L 11.13 25.52 L 10.78 25.26 C 10.71 25.21 10.64 25.15 10.56 25.09 Z" fill="none" stroke="none" transform="rotate(-5,16.75,17)" pointer-events="all"/><path d="M 1.07 1.17 C 1.07 1.17 1.07 1.17 1.07 1.17 M 1.07 1.17 C 1.07 1.17 1.07 1.17 1.07 1.17 M 0.49 7.26 C 1.16 6.37 2.5 5.29 5.35 0.91 M 1.2 7.77 C 2.46 5.78 4.46 3.73 6.39 1.82 M 1.76 14.59 C 4.79 10.57 6.57 5.69 11.44 1.65 M 0.94 13.63 C 5.64 7.9 8.98 4.63 12.36 1.45 M -0.84 18.75 C 5.29 14.17 9.61 9.56 16.88 -0.16 M 1.2 20.59 C 6.03 14.54 11.64 8.97 16.13 2.44 M -1.24 24.85 C 8.97 19.08 13.32 11.32 21 2.73 M 0.25 25.52 C 5.25 19.84 11.12 15.17 21.85 0.21 M 2.19 33.38 C 7.85 22.43 15.19 14.1 27.12 1.26 M 0.66 30.96 C 9.11 22.35 19.21 11.56 28.23 2.29 M 4.88 35.44 C 12.75 25.54 22.8 13.17 31.86 2.63 M 3.05 35.56 C 13.18 25.08 21.62 14.72 32.58 0.74 M 8.36 34.08 C 18.1 23.66 26.75 14.45 33.4 8.73 M 8.35 35.33 C 16.4 27.9 21.34 19.63 32.5 7.69 M 13.86 36.48 C 18.15 28.53 23.11 24.83 32.59 12.88 M 14.73 35.09 C 18.31 29.58 24.16 23.87 33.41 14.37 M 21.58 34.09 C 21.89 31.92 25.52 26.79 34.13 18.43 M 19.17 34.83 C 23.58 30.03 27.65 24.76 32.85 18.87 M 25.27 34.29 C 27.65 31.72 27.52 30.9 33.77 26.66 M 25.27 34.44 C 27.37 31.06 30.91 28.27 32.76 26.44 M 30.71 34.92 C 30.78 33.55 31.26 32.95 33.13 31.68 M 30.18 34.54 C 31.14 33.65 31.82 32.8 32.93 31.51" fill="none" stroke="" stroke-linejoin="round" stroke-linecap="round" stroke-miterlimit="10" transform="rotate(-5,16.75,17)" pointer-events="all"/><path d="M 9.78 11.38 C 9.78 11.38 9.78 11.38 9.78 11.38 M 9.78 11.38 C 9.78 11.38 9.78 11.38 9.78 11.38 M 9.02 17.94 C 11.39 16.13 12.68 11.79 16.42 7.5 M 9.22 18.38 C 10.09 16.26 12.38 15.04 17.91 8.68 M 12.59 22.75 C 14.33 19.08 16.65 14.4 22.65 10.51 M 10.95 22.33 C 15.08 18.92 17.19 15.71 22.15 9.34 M 13.36 24.45 C 16.51 24.5 16.87 21.13 23.85 13.71 M 13.16 25.67 C 14.9 23.07 18.44 21.04 25.54 12.24 M 18.55 27.41 C 19.76 23.12 23.43 21.19 25.74 16.61 M 17.56 26.68 C 20.79 23.71 22.82 20.4 25.52 16.77" fill="none" stroke="#f8cecc" stroke-linejoin="round" stroke-linecap="round" stroke-miterlimit="10" transform="rotate(-5,16.75,17)" pointer-events="all"/><path d="M 22.21 23.72 M 23.99 22.3 C 24.39 18.9 25.85 17.63 24.4 16.2 M 24.58 20.52 C 24.8 18.61 27.94 20.02 23.96 17.21 M 25.73 17 C 27.7 13.48 26.12 12.99 22.16 9.92 M 25 16.06 C 27.72 15.32 25.12 11.18 20.22 10.55 M 22.06 9.75 C 21.11 10.26 20.39 6.3 15.21 7.68 M 21.39 10.81 C 19.9 10.36 20.51 8.94 18.2 5.86 M 16.76 8.01 C 14.96 6.22 10.43 8.47 9.86 9.85 M 17.14 6.53 C 12.1 8.24 10.38 6.99 11.26 11.9 M 9.52 11.68 C 8.61 14.04 9.5 16.01 8.29 18.95 M 8.4 13.58 C 10.07 11.06 6.46 16.85 7.86 14.88 M 7.78 16.98 C 8.37 18.41 10.69 21.22 12.25 23.5 M 8.81 16.83 C 6.76 19.13 9.71 24.7 10.44 23.11 M 11.45 24.23 C 12.58 23.97 15.08 27.08 15.78 24.2 M 13.18 23.54 C 12.09 25.17 14.68 26.68 15.78 25.27 M 16.75 25.97 C 18.68 24.59 20.93 25.82 24 21.3 M 18.29 25.49 C 19.95 25.63 20.25 26.35 26.09 24.22 M 23.99 22.3 C 23.99 22.3 23.99 22.3 23.99 22.3 M 23.99 22.3 C 23.99 22.3 23.99 22.3 23.99 22.3" fill="none" stroke="#b85450" stroke-linejoin="round" stroke-linecap="round" stroke-miterlimit="10" transform="rotate(-5,16.75,17)" pointer-events="all"/><path d="M 5.33 6.19 C 5.33 6.19 5.33 6.19 5.33 6.19 M 5.33 6.19 C 5.33 6.19 5.33 6.19 5.33 6.19 M 7.73 9.43 C 8.28 9.02 8.58 8.02 9.44 7.02 M 7.78 9.54 C 7.98 9.05 8.51 8.76 9.78 7.3" fill="none" stroke="#f8cecc" stroke-linejoin="round" stroke-linecap="round" stroke-miterlimit="10" transform="rotate(-5,16.75,17)" pointer-events="all"/><path d="M 7.33 9.97 M 8.24 11.39 C 8.3 11.24 8.4 11.2 8.47 10.99 M 8.25 11.39 C 8.3 11.3 8.38 11.17 8.46 11.01 M 8.48 11.03 C 6.76 11.8 10.39 9.13 9.56 11.29 M 9.97 10.05 C 10.08 10.21 9.19 9.93 10.26 8.83 M 8.66 10.81 C 8.66 10.82 8.66 10.82 8.67 10.83 M 8.66 10.81 C 8.66 10.81 8.66 10.82 8.67 10.83 M 8.63 10.81 C 8.74 10.66 8.92 10.53 8.94 10.46 M 8.68 10.81 C 8.71 10.76 8.79 10.66 8.98 10.49 M 8.96 10.48 C 11.32 9.27 11.45 11.06 10.35 9.36 M 8.23 9.54 C 11.34 11.11 10.45 9.25 8.41 9.99 M 10.29 9.23 C 10.29 9.11 10.44 9.08 10.57 8.88 M 10.25 9.17 C 10.39 9.05 10.51 8.95 10.61 8.87 M 10.61 8.89 C 10.6 8.89 10.6 8.88 10.59 8.88 M 10.61 8.89 C 10.6 8.89 10.6 8.88 10.59 8.88 M 10.59 8.88 C 12.29 7.59 11.74 8.63 11.37 7.4 M 9.71 7.91 C 11.31 11.07 9.6 6.74 9.76 8.12 M 10.8 8.77 C 10.86 8.64 10.96 8.57 11.13 8.48 M 10.77 8.72 C 10.88 8.66 11.03 8.56 11.15 8.5 M 11.57 8.61 C 9.33 7.93 7.77 6.62 5.29 6.33 M 11.01 8.64 C 9.61 7.83 7.73 7.04 5.51 5.75 M 5.6 5.83 C 5.77 6.03 5.89 6.28 5.95 6.55 M 5.6 5.87 C 5.73 6.06 5.76 6.21 5.92 6.51 M 5.87 6.9 C 6.39 7.46 7.04 9.18 8.27 11.12 M 6.11 6.53 C 6.39 8.01 7.22 9.42 8.49 11.52 M 8.23 11.38 C 8.23 11.38 8.23 11.38 8.23 11.38 M 8.23 11.38 C 8.23 11.38 8.23 11.38 8.23 11.38" fill="none" stroke="#b85450" stroke-linejoin="round" stroke-linecap="round" stroke-miterlimit="10" transform="rotate(-5,16.75,17)" pointer-events="all"/><path d="M 0.99 16.99 C 0.99 16.99 0.99 16.99 0.99 16.99 M 0.99 16.99 C 0.99 16.99 0.99 16.99 0.99 16.99 M 5.36 17.97 C 5.9 17.55 6.2 16.55 7.06 15.56 M 5.4 18.07 C 5.6 17.58 6.13 17.3 7.41 15.83" fill="none" stroke="#f8cecc" stroke-linejoin="round" stroke-linecap="round" stroke-miterlimit="10" transform="rotate(-5,16.75,17)" pointer-events="all"/><path d="M 5.78 17.18 M 6.68 18.59 C 7.71 18.94 6.95 18.41 6.41 20.05 M 4.96 19.75 C 4.76 18.1 5.86 19.6 7.62 17.97 M 6.65 18.34 C 6.66 18.34 6.67 18.34 6.68 18.34 M 6.65 18.34 C 6.66 18.34 6.67 18.34 6.68 18.34 M 6.72 18.38 C 6.66 18.25 6.64 18.15 6.66 17.93 M 6.7 18.34 C 6.66 18.24 6.66 18.15 6.63 17.9 M 6.64 17.89 C 7 15.97 5.68 15.35 8.16 17.29 M 4.86 19.31 C 5.73 15.53 6.73 15.89 5.06 16.08 M 6.59 17 C 5.05 16.86 6.29 14.56 7.23 14.29 M 8.51 18.03 C 8.85 15.82 8.52 18.07 6.75 16.27 M 6.66 16.11 C 6.67 15.96 6.66 15.79 6.67 15.62 M 6.63 16.08 C 6.67 15.87 6.66 15.73 6.7 15.62 M 6.68 15.61 C 6.67 15.61 6.66 15.62 6.65 15.62 M 6.68 15.61 C 6.67 15.61 6.66 15.62 6.65 15.62 M 6.65 15.62 C 8.16 13.61 5.52 16.94 6.75 13.54 M 7.45 14.89 C 8.54 14.09 7.85 15.28 7.36 13.83 M 6.67 15.37 C 6.74 15.23 6.68 15.14 6.72 14.94 M 6.67 15.35 C 6.69 15.21 6.72 15.07 6.75 14.93 M 6.77 14.97 C 6.63 15.01 6.57 15.02 6.33 15.04 M 6.76 14.95 C 6.59 14.98 6.46 15.05 6.33 15.08 M 6.62 15.01 C 5.28 15.38 3.39 16.41 1.45 17.11 M 6.16 15.24 C 4.81 15.7 3.7 16.04 0.84 17 M 1.47 16.43 C 2.31 17.28 3.76 17.6 6.97 18.7 M 0.83 16.93 C 2.77 17.61 4.2 18.11 6.9 19.2 M 6.78 19.02 C 6.76 18.9 6.72 18.69 6.7 18.58 M 6.76 19.01 C 6.72 18.86 6.68 18.69 6.67 18.6 M 6.68 18.59 C 6.68 18.59 6.68 18.59 6.68 18.59 M 6.68 18.59 C 6.68 18.59 6.68 18.59 6.68 18.59" fill="none" stroke="#b85450" stroke-linejoin="round" stroke-linecap="round" stroke-miterlimit="10" transform="rotate(-5,16.75,17)" pointer-events="all"/><path d="M 16.6 1.42 C 16.6 1.42 16.6 1.42 16.6 1.42 M 16.6 1.42 C 16.6 1.42 16.6 1.42 16.6 1.42 M 16.38 7.68 C 16.93 7.26 17.23 6.26 18.09 5.27 M 16.43 7.78 C 16.63 7.29 17.15 7.01 18.43 5.54" fill="none" stroke="#f8cecc" stroke-linejoin="round" stroke-linecap="round" stroke-miterlimit="10" transform="rotate(-5,16.75,17)" pointer-events="all"/><path d="M 14.49 5.49 M 15.39 6.9 C 15.39 6.9 15.39 6.91 15.38 6.92 M 15.39 6.9 C 15.39 6.91 15.38 6.91 15.38 6.92 M 15.4 6.96 C 15.5 6.94 15.67 6.93 15.8 6.91 M 15.37 6.92 C 15.52 6.93 15.65 6.89 15.85 6.87 M 15.84 6.88 C 17.81 5.41 16.17 7.06 18.17 7.9 M 17.46 6.79 C 15.6 8.1 15.08 7.86 15.33 6.89 M 16.75 6.84 C 17.44 5.22 16.44 4.92 19.23 7.17 M 14.97 8.26 C 16.17 4.78 17.49 5.46 16.13 5.96 M 17.66 6.87 C 17.77 6.94 17.98 6.91 18.11 6.96 M 17.65 6.87 C 17.76 6.9 17.92 6.91 18.12 6.92 M 18.11 6.92 C 18.11 6.91 18.11 6.91 18.1 6.9 M 18.11 6.92 C 18.11 6.91 18.1 6.9 18.1 6.9 M 18.1 6.9 C 16.54 7.11 17.5 4.92 19.87 7.12 M 18.61 8.87 C 20.17 7.91 16.99 9.1 18.67 7.82 M 18.32 6.9 C 18.52 6.97 18.6 6.98 18.76 7.04 M 18.35 6.92 C 18.45 6.94 18.57 6.98 18.78 6.98 M 19.13 7.53 C 18.06 5.15 17.52 3.57 16.69 1.19 M 18.66 6.79 C 17.91 5.26 17.67 3.11 17.03 1.51 M 16.8 1.26 C 16.67 1.5 16.61 1.67 16.47 1.99 M 16.74 1.27 C 16.69 1.48 16.59 1.69 16.5 1.92 M 16.32 1.78 C 16.14 3.39 15.57 5.31 14.9 7.34 M 16.31 2.12 C 16.16 3.54 15.25 4.72 14.66 7.06 M 14.71 7.03 C 14.81 6.96 14.92 6.98 15.13 6.91 M 14.72 7 C 14.81 6.99 14.94 6.98 15.15 6.94 M 15.13 6.93 C 14.93 8.78 14.8 5.81 14.49 7.84 M 16.28 6.11 C 13.99 7.73 14.42 8.34 15.25 8.39 M 15.39 6.9 C 15.39 6.9 15.39 6.9 15.39 6.9 M 15.39 6.9 C 15.39 6.9 15.39 6.9 15.39 6.9" fill="none" stroke="#b85450" stroke-linejoin="round" stroke-linecap="round" stroke-miterlimit="10" transform="rotate(-5,16.75,17)" pointer-events="all"/><path d="M 22.58 9.27 C 22.58 9.27 22.58 9.27 22.58 9.27 M 22.58 9.27 C 22.58 9.27 22.58 9.27 22.58 9.27" fill="none" stroke="#f8cecc" stroke-linejoin="round" stroke-linecap="round" stroke-miterlimit="10" transform="rotate(-5,16.75,17)" pointer-events="all"/><path d="M 22.42 9.86 M 22.91 8.89 C 22.91 8.89 22.91 8.89 22.91 8.89 M 22.91 8.89 C 22.91 8.89 22.91 8.89 22.91 8.89 M 22.91 8.89 C 22.93 8.9 22.96 8.93 22.99 8.95 M 22.92 8.89 C 22.93 8.91 22.96 8.93 22.99 8.96 M 22.99 8.96 C 21.39 9.94 25.11 7.49 24.38 9.87 M 24.48 7.98 C 24.71 8.35 23.91 8.29 25.08 7.41 M 23.48 9.39 C 25 11.37 25.85 9.45 23.3 10.01 M 24.26 8.43 C 25.7 7.99 23.74 10.19 25.97 11.46 M 24.33 10.24 C 23.23 10.44 24.14 11.61 26.36 10.62 M 23.15 11.13 C 24.92 8.53 23.56 8.31 26.55 11.04 M 24.73 10.7 C 24.75 10.74 24.78 10.77 24.83 10.83 M 24.75 10.71 C 24.77 10.75 24.82 10.79 24.86 10.85 M 24.85 10.84 C 24.85 10.84 24.85 10.83 24.85 10.83 M 24.85 10.84 C 24.85 10.84 24.85 10.83 24.85 10.83 M 24.85 10.83 C 25.86 9.11 24.11 10.15 25.35 9.2 M 25.23 9.35 C 23 11.13 24.06 8.67 26.75 11.25 M 25.03 11.07 C 25.11 11.12 25.22 11.26 25.22 11.41 M 25.02 11.02 C 25.07 11.09 25.13 11.16 25.27 11.38 M 25.1 11.56 C 26.55 9.68 26.09 8.41 27.45 5.9 M 25.13 11.29 C 26.02 9.39 27.05 7.55 27.89 5.7 M 27.93 5.91 C 27.7 5.99 27.61 6.02 27.23 6.1 M 27.91 5.86 C 27.64 5.94 27.44 6.08 27.22 6.16 M 27.51 6.09 C 26.29 6.58 24.54 7.7 22.79 8.62 M 27.07 6.31 C 25.83 6.89 24.83 7.34 22.2 8.51 M 22.39 8.45 C 22.44 8.54 22.53 8.58 22.73 8.72 M 22.35 8.49 C 22.47 8.57 22.55 8.63 22.72 8.75 M 22.71 8.74 C 21.22 9.97 22.75 10.41 24.23 9.1 M 24.65 9.76 C 22.44 10.93 22.27 7.58 21.87 9.97 M 22.91 8.89 C 22.91 8.89 22.91 8.89 22.91 8.89 M 22.91 8.89 C 22.91 8.89 22.91 8.89 22.91 8.89" fill="none" stroke="#b85450" stroke-linejoin="round" stroke-linecap="round" stroke-miterlimit="10" transform="rotate(-5,16.75,17)" pointer-events="all"/><path d="M 26.46 15.29 C 26.46 15.29 26.46 15.29 26.46 15.29 M 26.46 15.29 C 26.46 15.29 26.46 15.29 26.46 15.29 M 27.58 19.95 C 28.49 19.25 28.99 17.58 30.42 15.93 M 27.65 20.12 C 27.99 19.3 28.87 18.83 31 16.39" fill="none" stroke="#f8cecc" stroke-linejoin="round" stroke-linecap="round" stroke-miterlimit="10" transform="rotate(-5,16.75,17)" pointer-events="all"/><path d="M 25.85 17.63 M 26.88 19.13 C 28.38 17.9 30.4 18.09 32.4 16.49 M 27.05 19.2 C 28.35 18.68 30.17 17.67 32.28 16.72 M 32.76 17.55 C 29.98 16.7 28.23 15.97 26.23 15.37 M 32.34 16.96 C 31.14 16.69 29.69 15.81 26.87 14.81 M 26.72 14.95 C 26.78 15.15 26.8 15.25 26.82 15.38 M 26.77 14.96 C 26.78 15.09 26.79 15.24 26.8 15.41 M 26.82 15.39 C 26.06 13.68 26.96 14.35 25.52 14.84 M 27.41 13.61 C 26.47 13.39 29.05 16.74 25.08 15.85 M 26.85 15.64 C 26.84 15.64 26.83 15.63 26.82 15.63 M 26.85 15.64 C 26.84 15.64 26.83 15.63 26.82 15.63 M 26.86 15.67 C 26.85 15.8 26.8 15.99 26.82 16.07 M 26.84 15.63 C 26.81 15.75 26.83 15.85 26.87 16.11 M 26.86 16.09 C 28.61 17.26 25.79 18.6 27.18 17.77 M 26.93 14.27 C 25.57 18.1 27.82 15.86 28.64 14.79 M 26.91 17 C 28.55 16.06 27.92 17.46 27.45 16.58 M 26.03 16.03 C 27.57 19.54 25.78 15.57 25.84 17.3 M 26.89 17.95 C 26.83 18.02 26.82 18.14 26.82 18.37 M 26.85 17.89 C 26.83 18.07 26.85 18.21 26.84 18.39 M 26.82 18.37 C 26.83 18.37 26.84 18.36 26.85 18.36 M 26.82 18.37 C 26.83 18.37 26.84 18.36 26.85 18.36 M 26.85 18.36 C 27.31 17.72 26.28 19.38 27.92 20.19 M 25.59 19.47 C 28.3 17.87 25.51 18.71 25.86 19.41 M 26.85 18.57 C 26.81 18.7 26.8 18.79 26.77 19.02 M 26.81 18.61 C 26.81 18.74 26.77 18.85 26.76 19.05 M 26.75 19.04 C 26.75 19.04 26.75 19.04 26.75 19.04 M 26.75 19.04 C 26.75 19.04 26.75 19.04 26.75 19.04" fill="none" stroke="#b85450" stroke-linejoin="round" stroke-linecap="round" stroke-miterlimit="10" transform="rotate(-5,16.75,17)" pointer-events="all"/><path d="M 14.42 27.34 C 14.42 27.34 14.42 27.34 14.42 27.34 M 14.42 27.34 C 14.42 27.34 14.42 27.34 14.42 27.34 M 16.18 31.24 C 17.09 30.55 17.59 28.88 19.03 27.23 M 16.26 31.41 C 16.6 30.6 17.47 30.13 19.6 27.68" fill="none" stroke="#f8cecc" stroke-linejoin="round" stroke-linecap="round" stroke-miterlimit="10" transform="rotate(-5,16.75,17)" pointer-events="all"/><path d="M 17.21 25.69 M 18.11 27.1 C 18.11 27.09 18.12 27.08 18.12 27.07 M 18.11 27.1 C 18.11 27.09 18.12 27.08 18.12 27.07 M 18.14 27.11 C 17.92 27.11 17.78 27.13 17.62 27.14 M 18.11 27.07 C 18.01 27.1 17.89 27.08 17.67 27.1 M 17.66 27.11 C 19.02 25.69 16.78 27.38 18.17 28.22 M 19.28 27.02 C 16.81 28.38 15.69 28.18 15.33 27.21 M 16.75 27.16 C 16.83 25.54 15.23 25.2 17.41 27.4 M 14.97 28.58 C 15.56 25.1 16.28 25.74 14.31 26.19 M 15.84 27.1 C 15.65 27.14 15.56 27.08 15.38 27.12 M 15.83 27.1 C 15.7 27.11 15.62 27.1 15.39 27.07 M 15.38 27.07 C 15.38 27.08 15.39 27.09 15.39 27.1 M 15.38 27.07 C 15.38 27.08 15.39 27.09 15.39 27.1 M 15.39 27.1 C 13.65 27.29 14.44 25.09 16.64 27.26 M 15.9 29.07 C 17.28 28.09 13.93 29.27 15.44 27.96 M 15.09 27.05 C 15.03 27.07 14.86 27.04 14.68 27.03 M 15.12 27.06 C 15.02 27.05 14.94 27.06 14.7 26.98 M 14.73 27.04 C 14.73 27.09 14.77 27.21 14.85 27.41 M 14.7 26.99 C 14.74 27.15 14.82 27.27 14.87 27.43 M 15.26 27.53 C 15.4 29.44 16.19 30.71 16.44 33.2 M 14.74 27.56 C 15.55 29.19 15.95 30.85 16.64 32.66 M 16.53 32.58 C 17.69 30.32 18.49 28.41 19 27.39 M 16.53 32.96 C 17.55 31.4 17.63 29.58 18.73 27.07 M 18.79 27.03 C 18.67 26.99 18.56 27.05 18.36 27.05 M 18.8 27 C 18.65 27.04 18.55 27.06 18.38 27.08 M 18.36 27.07 C 17.99 28.95 17.69 25.99 17.21 28.04 M 19.51 26.25 C 17.05 27.9 17.31 28.52 17.97 28.59 M 18.11 27.1 C 18.11 27.1 18.11 27.1 18.11 27.1 M 18.11 27.1 C 18.11 27.1 18.11 27.1 18.11 27.1" fill="none" stroke="#b85450" stroke-linejoin="round" stroke-linecap="round" stroke-miterlimit="10" transform="rotate(-5,16.75,17)" pointer-events="all"/><path d="M 22.63 25.21 C 22.63 25.21 22.63 25.21 22.63 25.21 M 22.63 25.21 C 22.63 25.21 22.63 25.21 22.63 25.21 M 26.33 26.99 C 26.7 26.71 26.9 26.04 27.47 25.38 M 26.36 27.06 C 26.5 26.73 26.85 26.54 27.7 25.56" fill="none" stroke="#f8cecc" stroke-linejoin="round" stroke-linecap="round" stroke-miterlimit="10" transform="rotate(-5,16.75,17)" pointer-events="all"/><path d="M 24.11 21.56 M 25.01 22.97 C 26 23.46 25.2 23.08 24.62 24.87 M 23.29 24.13 C 23.05 22.62 24.11 24.27 25.83 22.79 M 24.86 23.16 C 24.85 23.15 24.85 23.15 24.85 23.14 M 24.86 23.16 C 24.86 23.15 24.85 23.15 24.85 23.14 M 24.89 23.18 C 24.77 23.25 24.68 23.35 24.58 23.53 M 24.87 23.14 C 24.77 23.22 24.71 23.31 24.55 23.5 M 24.56 23.49 C 24.63 22.26 22.97 22.3 25.08 24.87 M 22.78 24.91 C 23.36 21.82 24.02 22.84 21.98 23.66 M 23.51 24.58 C 21.78 24.93 22.82 23.12 23.53 23.3 M 25.43 25.61 C 25.58 23.89 25.05 26.63 23.05 25.28 M 22.94 25.08 C 21.27 25.83 24.54 26.14 22.01 24.3 M 23.51 24.8 C 23.62 27.07 24.85 23.22 20.96 24.86 M 22.7 25.23 C 22.68 25.34 22.57 25.38 22.35 25.51 M 22.74 25.22 C 22.68 25.29 22.57 25.35 22.38 25.47 M 22.63 26.02 C 24.47 26 26.58 27.22 27.34 28.58 M 22.51 25.38 C 23.59 25.78 24.87 26.33 28.06 28.1 M 27.74 28.3 C 27.84 26.4 26.03 25.14 24.82 22.66 M 27.77 28.03 C 26.79 26.12 25.94 24.29 25.26 22.46 M 25.28 22.64 C 25.18 22.74 25.16 22.8 25 22.93 M 25.27 22.62 C 25.16 22.73 25.09 22.88 25 22.97 M 25.01 22.97 C 25.01 22.97 25.01 22.97 25.01 22.97 M 25.01 22.97 C 25.01 22.97 25.01 22.97 25.01 22.97" fill="none" stroke="#b85450" stroke-linejoin="round" stroke-linecap="round" stroke-miterlimit="10" transform="rotate(-5,16.75,17)" pointer-events="all"/><path d="M 8.56 22.25 C 8.56 22.25 8.56 22.25 8.56 22.25 M 8.56 22.25 C 8.56 22.25 8.56 22.25 8.56 22.25" fill="none" stroke="#f8cecc" stroke-linejoin="round" stroke-linecap="round" stroke-miterlimit="10" transform="rotate(-5,16.75,17)" pointer-events="all"/><path d="M 10.07 26.06 M 10.56 25.09 C 10.57 25.08 10.57 25.08 10.58 25.08 M 10.56 25.09 C 10.56 25.09 10.57 25.09 10.58 25.08 M 10.59 25.09 C 10.48 24.96 10.4 24.93 10.22 24.75 M 10.6 25.09 C 10.48 25.02 10.4 24.9 10.21 24.77 M 10.23 24.79 C 8 25.25 11.13 22.21 9.86 24 M 11.72 23.81 C 11.32 23.66 9.93 23.01 10.56 21.54 M 9 23.56 C 8.88 23.45 8.79 23.38 8.69 23.21 M 8.98 23.52 C 8.88 23.44 8.82 23.37 8.66 23.18 M 8.67 23.17 C 8.66 23.18 8.66 23.18 8.66 23.19 M 8.67 23.17 C 8.67 23.17 8.67 23.18 8.66 23.19 M 8.66 23.19 C 10.57 22.36 10.2 24.52 8.58 23.14 M 7.93 22.25 C 10.59 24.2 9.2 22.71 6.64 23.77 M 8.52 23.01 C 8.39 22.88 8.39 22.84 8.19 22.61 M 8.48 22.95 C 8.39 22.82 8.28 22.7 8.23 22.6 M 8.23 22.6 C 8.12 22.78 8.14 22.92 8.07 23.05 M 8.23 22.6 C 8.18 22.73 8.09 22.91 8.06 23 M 7.7 23.3 C 7.18 24.47 6.15 26.15 5.48 28.28 M 7.98 22.81 C 7.09 25.17 6.35 26.95 5.51 28.03 M 5.82 28.12 C 6.75 27.2 8.05 26.39 11.47 25.99 M 5.69 28.07 C 6.86 27.57 8.7 26.61 11.3 25.59 M 11.13 25.5 C 11.04 25.43 10.96 25.4 10.8 25.25 M 11.14 25.54 C 11.01 25.42 10.87 25.34 10.77 25.27 M 10.78 25.26 C 11.98 24.72 9.49 25.31 9.72 25.79 M 9.31 26.65 C 8.62 25.18 10.18 25.69 12.07 26.87 M 10.56 25.09 C 10.56 25.09 10.56 25.09 10.56 25.09 M 10.56 25.09 C 10.56 25.09 10.56 25.09 10.56 25.09" fill="none" stroke="#b85450" stroke-linejoin="round" stroke-linecap="round" stroke-miterlimit="10" transform="rotate(-5,16.75,17)" pointer-events="all"/></g></svg>