<?xml version="1.0" encoding="UTF-8"?>
<!DOCTYPE svg PUBLIC "-//W3C//DTD SVG 1.1//EN" "http://www.w3.org/Graphics/SVG/1.1/DTD/svg11.dtd">
<svg xmlns="http://www.w3.org/2000/svg" xmlns:xlink="http://www.w3.org/1999/xlink" version="1.1" width="18px" height="188px" viewBox="-0.5 -0.5 18 188"><defs/><g><path d="M 8.28 14.37 L 8.01 171.63" fill="none" stroke="none" pointer-events="stroke"/><path d="M 8.29 9.12 L 11.78 16.12 L 8.28 14.37 L 4.78 16.11 Z" fill="none" stroke="none" pointer-events="all"/><path d="M 8 176.88 L 4.51 169.88 L 8.01 171.63 L 11.51 169.89 Z" fill="none" stroke="none" pointer-events="all"/><path d="M 6.74 14.99 M 8.12 13.69 C 7.86 45.67 9.32 78.4 8.07 172.68 M 8.17 14.62 C 9.35 52.33 8.02 91.39 8.12 171.19" fill="none" stroke="#000000" stroke-linejoin="round" stroke-linecap="round" stroke-miterlimit="10" pointer-events="stroke"/><path d="M 8.27 9.14 C 8.27 9.14 8.27 9.14 8.27 9.14 M 8.27 9.14 C 8.27 9.14 8.27 9.14 8.27 9.14 M 8.6 14.75 C 8.93 14.2 9.32 13.71 10.11 13.31 M 8.58 14.8 C 9.07 14.25 9.61 13.83 9.94 13.34" fill="none" stroke="#000000" stroke-linejoin="round" stroke-linecap="round" stroke-miterlimit="10" pointer-events="all"/><path d="M 8.01 8.75 M 7.7 9.08 C 9.52 11.43 10.6 13.12 11.28 16.67 M 8.6 8.75 C 9.14 11.55 10.57 13.17 11.4 16.33 M 11.65 15.87 C 10.88 15.93 9.5 14.79 8.44 14.33 M 11.77 16.23 C 10.62 15.34 9.39 14.89 8.43 14.55 M 8.09 14.68 C 7.18 14.54 6.43 15.05 4.99 16.43 M 8.11 14.28 C 7.21 14.83 5.92 15.62 4.74 16.07 M 5.15 15.91 C 5.78 14.31 6.64 11.78 9.04 8.45 M 5.04 16.06 C 6.02 13.56 7.24 11.79 8.29 9.13" fill="none" stroke="#000000" stroke-linejoin="round" stroke-linecap="round" stroke-miterlimit="10" pointer-events="all"/><path d="M 4.36 170.05 C 4.36 170.05 4.36 170.05 4.36 170.05 M 4.36 170.05 C 4.36 170.05 4.36 170.05 4.36 170.05 M 6.66 173.39 C 6.99 172.85 7.38 172.35 8.17 171.96 M 6.64 173.45 C 7.13 172.89 7.67 172.47 8 171.98" fill="none" stroke="#000000" stroke-linejoin="round" stroke-linecap="round" stroke-miterlimit="10" pointer-events="all"/><path d="M 7.72 176.51 M 7.41 176.84 C 7.25 175.21 6.34 172.9 4.01 170.43 M 8.31 176.51 C 6.75 175.05 6.05 172.4 4.13 170.09 M 4.38 169.63 C 5.92 170.79 6.87 170.81 8.17 171.59 M 4.5 169.99 C 5.7 170.29 6.81 171.01 8.16 171.81 M 7.82 171.94 C 8.83 170.91 10.01 170.45 11.72 170.21 M 7.84 171.54 C 9.44 170.79 10.67 170.34 11.47 169.85 M 11.88 169.69 C 10.1 172.86 8.56 175.1 8.75 176.21 M 11.77 169.84 C 10.43 171.82 9.38 174.58 8 176.89" fill="none" stroke="#000000" stroke-linejoin="round" stroke-linecap="round" stroke-miterlimit="10" pointer-events="all"/></g></svg>