<?xml version="1.0" encoding="UTF-8"?>
<!DOCTYPE svg PUBLIC "-//W3C//DTD SVG 1.1//EN" "http://www.w3.org/Graphics/SVG/1.1/DTD/svg11.dtd">
<svg xmlns="http://www.w3.org/2000/svg" xmlns:xlink="http://www.w3.org/1999/xlink" version="1.1" width="186px" height="19px" viewBox="-0.5 -0.5 186 19"><defs/><g><path d="M 14.37 8.05 L 169.63 9.24" fill="none" stroke="none" pointer-events="stroke"/><path d="M 9.12 8.01 L 16.14 4.56 L 14.37 8.05 L 16.09 11.56 Z" fill="none" stroke="none" pointer-events="all"/><path d="M 174.88 9.28 L 167.86 12.73 L 169.63 9.24 L 167.91 5.73 Z" fill="none" stroke="none" pointer-events="all"/><path d="M 12.83 9.01 M 15.89 6.54 C 66.32 8.55 114.25 11.41 170.12 7.83 M 13.69 8.11 C 74.75 10.08 135.47 11.2 169.91 9.34" fill="none" stroke="#000000" stroke-linejoin="round" stroke-linecap="round" stroke-miterlimit="10" pointer-events="stroke"/><path d="M 9.34 7.76 C 9.34 7.76 9.34 7.76 9.34 7.76 M 9.34 7.76 C 9.34 7.76 9.34 7.76 9.34 7.76 M 12.9 9.61 C 13.6 8.95 13.68 8.55 14.39 8.27 M 13.06 9.67 C 13.38 9.3 13.65 8.97 14.23 8.12" fill="none" stroke="#000000" stroke-linejoin="round" stroke-linecap="round" stroke-miterlimit="10" pointer-events="all"/><path d="M 9.16 6.16 M 9.71 8.68 C 11.5 6.33 13.4 6.74 15.45 4.14 M 9.01 8.13 C 10.36 7.24 12.31 6.77 16.1 4.66 M 15.87 4.41 C 15.52 5.35 15.11 6.09 14.39 7.86 M 16.17 4.74 C 15.65 5.66 14.69 7.05 14.56 7.98 M 14.22 8.15 C 14.54 8.67 14.89 9.39 16.01 11.3 M 14.23 7.9 C 14.83 9.52 15.67 10.67 15.93 11.43 M 16.21 12.02 C 13.3 10.86 10.93 8.87 8.64 7.84 M 16.08 11.47 C 13.36 10.17 10.47 8.56 9.2 8.12" fill="none" stroke="#000000" stroke-linejoin="round" stroke-linecap="round" stroke-miterlimit="10" pointer-events="all"/><path d="M 168.19 5.4 C 168.19 5.4 168.19 5.4 168.19 5.4 M 168.19 5.4 C 168.19 5.4 168.19 5.4 168.19 5.4 M 169.73 9.51 C 170.79 8.52 170.9 7.91 171.97 7.5 M 169.97 9.59 C 170.46 9.04 170.85 8.54 171.72 7.27" fill="none" stroke="#000000" stroke-linejoin="round" stroke-linecap="round" stroke-miterlimit="10" pointer-events="all"/><path d="M 174.92 7.43 M 175.47 9.95 C 173.23 9.45 171.12 11.83 167.17 12.31 M 174.77 9.4 C 173.07 9.87 171.97 10.91 167.82 12.83 M 167.59 12.58 C 168.02 11.95 168.42 11.11 169.65 9.05 M 167.89 12.91 C 168.67 11.3 169 10.13 169.82 9.17 M 169.48 9.34 C 169 8.27 168.57 7.39 167.83 5.47 M 169.49 9.09 C 168.9 8.14 168.49 6.75 167.75 5.6 M 168.03 6.19 C 170.56 7.96 173.7 8.77 174.4 9.11 M 167.9 5.64 C 170.5 7.12 172.92 8.21 174.96 9.39" fill="none" stroke="#000000" stroke-linejoin="round" stroke-linecap="round" stroke-miterlimit="10" pointer-events="all"/></g></svg>