<?xml version="1.0" encoding="UTF-8"?>
<!DOCTYPE svg PUBLIC "-//W3C//DTD SVG 1.1//EN" "http://www.w3.org/Graphics/SVG/1.1/DTD/svg11.dtd">
<svg xmlns="http://www.w3.org/2000/svg" xmlns:xlink="http://www.w3.org/1999/xlink" version="1.1" width="77px" height="11px" viewBox="-0.5 -0.5 77 11"><defs/><g><rect x="0" y="0" width="76" height="10" fill="none" stroke="none" pointer-events="all"/><path d="M 0.07 -0.08 C 0.07 -0.08 0.07 -0.08 0.07 -0.08 M 0.07 -0.08 C 0.07 -0.08 0.07 -0.08 0.07 -0.08 M 0.4 6.95 C 2.24 4.96 3.08 2.56 5.22 1 M -0.45 6.66 C 1.37 4.2 3.71 2.25 4.91 0.12 M 1.87 9.79 C 3.89 7.53 7.87 3.6 9.75 -0.63 M 0.51 11.64 C 3.5 7.24 5.85 4.47 10.78 0.3 M 7.74 9.44 C 10.2 8.49 10.4 5.37 16.44 -0.84 M 6.98 10.52 C 8.81 7.75 10.9 5.44 15.06 0.01 M 12 9.7 C 15.48 5.76 17.44 2.07 19.96 -1.35 M 11.17 10.58 C 13.87 8.28 16.99 5.81 21.14 -0.3 M 18.38 10.65 C 19.59 8.56 20.93 6.41 26.77 -0.31 M 17.19 10.63 C 19.61 7.33 22.09 5.9 26.42 0.12 M 21.89 10.41 C 25.01 6.64 26.59 5.63 32.09 -1 M 21.8 10.57 C 24.44 7.73 27.61 5.1 31.88 -0.6 M 28.47 9.4 C 31.14 6.76 34.63 3.51 35.91 1.54 M 27.36 10.47 C 30.59 7.91 32.71 5.02 37.27 -0.32 M 33.88 10.42 C 35.12 7.83 36.13 7.06 43.17 0.14 M 32.27 10.83 C 35.42 8.27 36.28 7.07 42.33 -0.27 M 37.85 11.19 C 39.23 9.26 43.51 5.44 47.84 -0.55 M 38.38 10.24 C 41.09 7.45 42.64 4.79 47.64 0.28 M 43.06 10.26 C 45.23 7.99 50.52 2.46 53.45 -0.73 M 42.72 11.45 C 47.17 6.02 50.53 1.83 52.87 -0.39 M 49.38 10.79 C 52.6 6.77 54.56 3.72 56.95 1.19 M 49.27 10.25 C 50.65 8.52 53.18 6.02 57.81 0.1 M 55.23 12.49 C 56.44 8.55 57.8 6.43 63.44 0.15 M 53.54 10.4 C 56.49 6.92 60.36 4.55 63.34 -0.39 M 60.55 11.89 C 62.49 5.97 67.51 1.98 67.67 -0.34 M 59.99 10.95 C 62.54 7.03 64.65 4.81 68.3 -0.47 M 65.95 9.64 C 68.02 6.1 70.91 0.91 73.85 1.02 M 65.38 11 C 68.97 7.15 71.36 2.03 74.62 0.39 M 69.25 10.26 C 71.16 9.54 73.06 6.35 78.98 2.21 M 70.08 10.13 C 73.08 6.9 75.93 4.18 78.51 1.33" fill="none" stroke="#d5e8d4" stroke-linejoin="round" stroke-linecap="round" stroke-miterlimit="10" pointer-events="all"/><path d="M 0.83 0.87 C 15.11 0.27 32.34 -1.25 76.19 0.87 M -0.03 0.65 C 21.87 0.4 42.4 -0.23 76.96 -0.56 M 75.89 -0.33 C 75.62 2.81 75.16 5.04 76.95 9.62 M 75.92 -0.02 C 76.29 2.45 76.24 5.15 76.1 9.65 M 76.76 8.83 C 54.9 7.99 35.19 9.45 1 8.44 M 75.71 9.37 C 56.16 10.49 36.22 10.5 0.48 10.41 M 0.88 9.97 C -0.03 5.98 -0.2 3.53 0.8 -0.91 M -0.26 9.79 C -0.17 6.34 -0.36 2.92 0.17 -0.13" fill="none" stroke="#82b366" stroke-linejoin="round" stroke-linecap="round" stroke-miterlimit="10" pointer-events="all"/></g></svg>