<?xml version="1.0" encoding="UTF-8"?>
<!DOCTYPE svg PUBLIC "-//W3C//DTD SVG 1.1//EN" "http://www.w3.org/Graphics/SVG/1.1/DTD/svg11.dtd">
<svg xmlns="http://www.w3.org/2000/svg" xmlns:xlink="http://www.w3.org/1999/xlink" version="1.1" width="47px" height="152px" viewBox="-0.5 -0.5 47 152"><defs/><g><path d="M -52.5 67.5 C -52.5 59.22 -18.92 52.5 22.5 52.5 C 42.39 52.5 61.47 54.08 75.53 56.89 C 89.6 59.71 97.5 63.52 97.5 67.5 L 97.5 82.5 C 97.5 90.78 63.92 97.5 22.5 97.5 C -18.92 97.5 -52.5 90.78 -52.5 82.5 Z" fill="none" stroke="none" transform="rotate(-90,22.5,75)" pointer-events="all"/><path d="M 97.5 67.5 C 97.5 75.78 63.92 82.5 22.5 82.5 C -18.92 82.5 -52.5 75.78 -52.5 67.5" fill="none" stroke="none" transform="rotate(-90,22.5,75)" pointer-events="all"/><path d="M -50.95 64.45 C -50.95 64.45 -50.95 64.45 -50.95 64.45 M -50.95 64.45 C -50.95 64.45 -50.95 64.45 -50.95 64.45 M -50.62 69.23 C -48.51 67.2 -46.22 66 -41.63 61.8 M -49.76 69.71 C -48.24 67.3 -45.45 64.13 -42.88 61.24 M -49.64 75.6 C -46.72 72.74 -43.19 70.32 -36.77 61.08 M -50.88 76.49 C -45.3 69.29 -39.94 64.33 -36.8 59.08 M -51.81 84.98 C -45.84 77.74 -42.52 71.3 -27.89 56.92 M -51.01 84.23 C -47.17 76.07 -39.67 69.54 -28.93 57.33 M -48.03 87.86 C -41.82 80.64 -37.16 73.36 -22.35 57.64 M -49.57 86.26 C -43.14 80.82 -36.97 72.96 -22.16 57.4 M -45.25 90.25 C -35.55 78.05 -23.98 63.44 -17.28 56.77 M -47.31 88.97 C -39.77 82.3 -34.46 74.59 -17.6 57.17 M -42.82 90.5 C -31.94 77.14 -21.07 66.89 -10.17 57.21 M -41.82 90.81 C -32.51 80.04 -22.42 69.72 -12.01 56.52 M -40.29 93.07 C -25.17 79.8 -14.58 67.86 -6.89 55.47 M -39.22 92.02 C -26.09 77.26 -13.11 62.82 -5.74 55.44 M -35.05 92.79 C -21.84 81.3 -12.5 70.72 0.19 55.7 M -33.66 94.68 C -26.98 86.01 -18.86 76.47 -0.73 55.97 M -30.28 95.62 C -19.88 81.85 -12.47 74.8 4.81 57.16 M -29.15 93.41 C -20.87 84.53 -12.86 75.45 4.25 55.48 M -25.71 93.38 C -16.68 87.63 -11.11 80.8 10.68 53.95 M -24.24 95.95 C -13.04 81.98 -0.73 69.12 9.57 54.36 M -20.44 94 C -11.97 88.18 -4.32 77.27 16.78 54.33 M -20.62 95.27 C -11.96 87.04 -6.07 78.22 16.21 55.14 M -16.28 97.52 C -2.03 81.57 7.89 69.26 22.61 54.88 M -14.43 95.5 C -4.65 85.37 5.07 74.44 23.04 52.6 M -10.55 96.63 C 0.36 82.09 12.18 68.24 26.81 54.86 M -10.86 96.27 C 0.95 83.6 12.84 68.8 27.63 53.9 M -4.82 97.11 C 7.12 83.64 21.28 65.82 34.91 54.83 M -4.83 97.05 C 9.96 79.07 23.92 62.15 34.16 53.19 M 0.37 97.1 C 9.63 87.59 14.52 79.89 38.8 54.77 M 0.46 98.37 C 9.16 87.37 16.62 77.44 38.93 53.52 M 5.39 98.88 C 17.92 81.91 33.98 67.12 43.84 53.99 M 5.54 97.36 C 17.87 84.23 29.95 69.1 43.63 52.67 M 8.79 99.58 C 17 88.82 27.71 77.62 47.47 52.94 M 9.99 98.39 C 18.45 89.01 25.96 78.88 48.12 54.82 M 13.88 96.97 C 22.76 85.91 32.94 76.14 52.49 55.93 M 15.27 98.74 C 25.63 85.85 37.82 73.43 51.77 55.14 M 21.98 99.66 C 34.27 81.56 47.75 67.86 58.94 54.88 M 19.97 98.67 C 33.22 83.83 44.94 68.83 57.49 55.44 M 26.33 97.65 C 36.04 86.97 46.85 74.91 61.38 56.58 M 23.93 99.85 C 37.37 86.29 49.3 72.09 63.14 55.27 M 29.32 100.53 C 42.36 82.37 56.02 67.31 68.15 55.21 M 29.55 99.39 C 39.84 88.44 48.55 77.64 66.91 56.33 M 37.8 99.03 C 46.95 85.45 57.66 75.33 72.55 56.77 M 35.27 99.36 C 49.17 82.53 63.82 65.32 72.63 56.8 M 40.95 98.49 C 51.11 90.14 57.87 78.32 77.51 59.18 M 41.51 98.03 C 51.42 88.05 60.91 76.47 76.55 59.25 M 46.21 99.13 C 61.37 80.28 72.88 65.02 82.1 56.94 M 46.74 98.06 C 59.14 83.88 72.03 67.18 82 59.25 M 52.53 98.75 C 64.17 86.26 71.33 73.18 85.53 57.93 M 52.89 97.12 C 62.41 88.42 71.54 77.11 85.49 60.02 M 59.6 95.57 C 68.08 83.53 83.07 70.38 88.32 61.66 M 58.67 96.51 C 68.48 86.19 78.43 74.53 90.02 62.51 M 66.45 93.37 C 75.93 85.69 81.91 75.97 93.56 61.98 M 66.32 96.27 C 74.59 85.45 83.25 74.58 94.47 62.05 M 72.08 93.6 C 77.71 82.85 87.34 77.08 95.58 67.13 M 72.33 95.09 C 77.77 88.05 83.17 80.6 96.35 66.23 M 78.62 91.3 C 86.88 85.8 95.54 73.28 99.06 67.71 M 78.75 92.15 C 84.32 84.05 91.84 75.42 99.13 68.78 M 85.96 92.87 C 89.33 86.46 89.92 83.21 99.11 73.44 M 83.96 90.77 C 90.72 84.55 95.78 78.6 98.33 76.19 M 89.78 90.95 C 92.89 87.84 94.53 86.96 97.3 83.6 M 90.38 91.04 C 92.24 89.19 93.81 87.36 97.57 82.63" fill="none" stroke="#dae8fc" stroke-linejoin="round" stroke-linecap="round" stroke-miterlimit="10" transform="rotate(-90,22.5,75)" pointer-events="all"/><path d="M -54.42 66.25 M -52.5 67.5 C -51.92 57.96 -16.93 51.11 23.45 52 M -53.54 66.88 C -52.73 61.35 -17.56 53.09 20.46 51.58 M 22.5 52.5 C 62.18 52.43 96.16 58.91 99.09 68.98 M 23.26 53.45 C 63.72 53.86 96.85 59.48 98.93 67.55 M 97.53 67.26 C 97.86 69.65 98.61 72.87 98.49 81.52 M 98.16 67.25 C 98.11 72.45 97.93 76.59 97.25 82.83 M 97.5 82.5 C 97.83 90.4 65.34 98.07 24.33 97.38 M 96.17 81.56 C 97.92 90.72 65.28 97.72 23.51 96.42 M 22.5 97.5 C -19.76 96.37 -51.11 90.48 -53.15 83.66 M 22.05 97.68 C -20.13 96.68 -51.15 90.06 -52.32 81 M -51.65 82.87 C -53.89 76.24 -51.52 70.2 -53.11 66.89 M -53.23 81.9 C -51.97 77.34 -52 73.81 -52.52 66.76" fill="none" stroke="#6c8ebf" stroke-linejoin="round" stroke-linecap="round" stroke-miterlimit="10" transform="rotate(-90,22.5,75)" pointer-events="all"/><path d="M 95.99 65.67 M 97.5 67.5 C 97.17 75.28 64.53 82.8 24.06 82.42 M 98.38 67.33 C 96.02 73.87 63.08 83.39 24.8 84.22 M 22.5 82.5 C -17.09 83.99 -54.47 77.05 -50.85 67.84 M 21.45 83.65 C -19.14 81.78 -52.65 76.11 -52.42 66" fill="none" stroke="#6c8ebf" stroke-linejoin="round" stroke-linecap="round" stroke-miterlimit="10" transform="rotate(-90,22.5,75)" pointer-events="all"/></g></svg>