<?xml version="1.0" encoding="UTF-8"?>
<!DOCTYPE svg PUBLIC "-//W3C//DTD SVG 1.1//EN" "http://www.w3.org/Graphics/SVG/1.1/DTD/svg11.dtd">
<svg xmlns="http://www.w3.org/2000/svg" xmlns:xlink="http://www.w3.org/1999/xlink" version="1.1" width="21px" height="191px" viewBox="-0.5 -0.5 21 191"><defs/><g><ellipse cx="10" cy="95" rx="10" ry="95" fill="none" stroke="none" pointer-events="all"/><path d="M 9.91 5.16 C 9.91 5.16 9.91 5.16 9.91 5.16 M 9.91 5.16 C 9.91 5.16 9.91 5.16 9.91 5.16 M 7.99 13.37 C 9.11 12.84 10.84 10.14 13.02 8.56 M 7.88 14.05 C 9.35 11.76 10.74 10.23 12.68 7.82 M 7.12 19.97 C 8.29 18.5 11.15 15.96 14.08 12.16 M 7.55 20.25 C 9.47 17.61 11.43 14.99 13.93 12.63 M 5.48 27.72 C 8.42 24.28 13.58 18.75 17.07 15.53 M 5.93 27.65 C 9.39 24.34 11.29 21.42 16.05 17 M 5.4 33.75 C 9.6 29.66 12.83 24.26 15.43 20.04 M 6.08 34.39 C 9.56 30.24 13.1 24.67 16.83 22 M 7.08 39.76 C 10.17 34.97 11.52 33.9 17.24 27.11 M 4.89 40.9 C 8.61 36.13 12.22 32.45 18.61 27.13 M 4.84 46.23 C 8.95 43.35 16.02 36.64 19.01 30.9 M 5.8 46.69 C 8.45 42.55 13.04 38.72 17.4 31.51 M 3.14 52.2 C 9.54 49.78 13.25 44.28 19.36 35.34 M 4.13 54 C 9.92 49.32 14.09 43.71 18.86 37.5 M 3.82 61.85 C 9.12 57.24 12.92 49.65 21.22 44.21 M 5.29 60.35 C 9.3 54.48 12.44 49.6 19.06 42.75 M 2.95 68.39 C 8.31 63.24 12.36 59.53 20.31 48.44 M 3.86 67.29 C 8.82 61.47 14.01 55.26 21.41 47.77 M 2.24 71.69 C 6.36 68.95 10.58 64.1 21.15 51.79 M 3.39 71.95 C 9.86 65.78 14.66 59.74 20.25 52.58 M 2.31 77.97 C 7.73 77.05 10.8 71.21 20.98 59.28 M 3.28 79.76 C 6.97 73.65 11.13 69.69 21.32 59.15 M 2.71 84.72 C 9.63 80.09 14.02 72.09 20.48 63.94 M 3.24 85.34 C 11.16 76.64 16.63 70.36 21.98 65.05 M 4.58 91.4 C 9.63 86.55 14.36 77.2 23 72.41 M 3.53 92.16 C 9.22 85.76 14.34 78.84 21.01 71.1 M 1.91 96.61 C 10.74 89.5 17.61 81.13 22.59 77.69 M 2.74 97.68 C 8.35 90.27 14.37 84.59 22.14 77 M 4.22 104.82 C 11.02 96.57 13.82 91.84 23.32 81.33 M 4 105.02 C 7.68 98.35 11.6 94.74 21.92 81.56 M 4.53 111.25 C 9.12 101.62 13.67 97.52 22.57 86.81 M 3.51 109.87 C 9.27 102.54 16.24 95.86 22.54 89.03 M 5.32 116.86 C 11.22 108.27 14.26 101.06 23.66 95.78 M 3.97 116.36 C 7.85 111.57 13.04 104.97 20.97 95.29 M 3.26 121.01 C 9.13 115.79 16.42 105.2 23.19 102 M 3.88 121.81 C 8.89 117.6 12.59 112.15 21.87 100.76 M 3.05 127.87 C 11.23 119.55 16.67 113.41 23.02 108.23 M 2.94 127.99 C 8.56 122.59 13.6 117.43 22.07 107.27 M 4.2 133.44 C 8.15 126.92 13.88 123.78 19.58 113.96 M 3.3 134.18 C 7.8 128.95 12.17 125.03 21.41 114.79 M 4.92 138.16 C 10.62 133.9 11.01 129.36 19.17 121.09 M 5 138.72 C 9.57 133.32 15.71 125.9 20.58 121.01 M 4.8 145.37 C 9.15 140.87 11.93 134.2 18.61 126.35 M 5.24 145.45 C 8.83 140.24 13.76 134.61 19.32 128.79 M 6.14 149.02 C 7.42 147.98 8.96 145.97 17.89 137.51 M 5.14 150.38 C 9.62 144.44 14.33 139.76 17.59 136.3 M 3.9 156.82 C 7.27 152.53 13.03 147.02 18.79 143.54 M 4.3 158.84 C 9.96 152.82 15.24 145.34 17.69 142.16 M 4.34 163.93 C 9.69 160.61 11.92 155.47 18.22 151 M 4.91 164.06 C 8.04 161.59 9.92 158.22 16.26 149.88 M 5.07 167.22 C 10.4 162.66 16.17 158.32 17 155.84 M 6.28 169.17 C 8.75 166.1 10.93 163 16.23 156.22 M 6.57 172.95 C 8.12 170.5 11.32 166.61 17.33 162.33 M 6.62 173.36 C 9.83 170.23 13.77 166.06 17.19 161.33 M 7.96 179.47 C 11 174.33 16.11 168.81 16.67 167.85 M 7.7 179.63 C 9.89 175.24 13.97 171.34 16.87 167.89 M 7.56 183.74 C 9.83 182.24 11.43 179.2 15.13 177.19 M 7.94 184.34 C 10.15 182.23 12.38 179.79 15.02 176.11" fill="none" stroke="#0050ef" stroke-linejoin="round" stroke-linecap="round" stroke-miterlimit="10" pointer-events="all"/><path d="M 10.14 5.62 C 11.52 5.5 13.18 11.77 14.65 19.37 C 16.13 26.97 18.01 38.88 18.98 51.22 C 19.94 63.57 20.62 79.34 20.45 93.45 C 20.27 107.56 18.62 123.61 17.95 135.89 C 17.28 148.17 17.36 159.01 16.43 167.13 C 15.49 175.25 14.09 182.24 12.33 184.61 C 10.58 186.98 7.56 185.99 5.91 181.35 C 4.27 176.72 3.35 167.08 2.47 156.81 C 1.58 146.53 0.76 133.02 0.6 119.71 C 0.44 106.39 1.06 90.44 1.5 76.92 C 1.94 63.41 2.44 49.42 3.24 38.62 C 4.04 27.82 5.16 17.74 6.3 12.12 C 7.45 6.51 9.29 5.99 10.1 4.94 C 10.92 3.88 11.06 5.21 11.2 5.79 C 11.33 6.38 10.8 7.02 10.92 8.45 M 13.1 10.13 C 14.45 12.75 16.02 20.99 17.23 30.7 C 18.45 40.41 19.78 55.28 20.38 68.4 C 20.99 81.51 21.52 95.96 20.86 109.4 C 20.21 122.84 17.43 137.58 16.45 149.04 C 15.48 160.51 16.02 172.04 15 178.17 C 13.97 184.3 12.05 186.38 10.32 185.83 C 8.59 185.27 5.96 181.66 4.62 174.86 C 3.28 168.06 3.19 156.9 2.28 145.02 C 1.37 133.14 -0.54 117.5 -0.82 103.59 C -1.11 89.68 -0.32 74.69 0.58 61.57 C 1.49 48.44 3.32 33.81 4.61 24.82 C 5.9 15.84 7.02 10.75 8.32 7.65 C 9.61 4.55 11.8 5.94 12.37 6.23 C 12.95 6.51 11.8 8.75 11.77 9.34 C 11.73 9.94 12.02 8.28 12.15 9.8" fill="none" stroke="#001dbc" stroke-linejoin="round" stroke-linecap="round" stroke-miterlimit="10" pointer-events="all"/></g></svg>