<?xml version="1.0" encoding="UTF-8"?>
<!DOCTYPE svg PUBLIC "-//W3C//DTD SVG 1.1//EN" "http://www.w3.org/Graphics/SVG/1.1/DTD/svg11.dtd">
<svg xmlns="http://www.w3.org/2000/svg" xmlns:xlink="http://www.w3.org/1999/xlink" version="1.1" width="314px" height="723px" viewBox="-0.5 -0.5 314 723"><defs/><g><path d="M -203.97 205.8 L 514.92 205.25 L 514.9 516.74 L -202.88 515.98" fill="#ffffff" stroke="none" transform="rotate(90,156,361)" pointer-events="all"/><path d="M -204.26 205.81 C -48.22 205.3 108 205.18 516.39 205.5 M -203.84 205.9 C -44.63 204.12 115.16 204.15 516.01 205.76 M 516.79 207.03 C 518.43 304.41 518.29 404.23 514.96 516.98 M 516.01 206.19 C 517.21 272.05 517.57 339.02 515.59 515.42 M 516.23 515.48 C 248.81 516.76 -17.11 516.51 -203.98 515.78 M 515.87 516.28 C 344.81 517.38 174.08 517.45 -204.19 515.85 M -202.87 516.47 C -204.94 398.71 -203.32 281.78 -204.99 206.28 M -203.36 515.61 C -205.89 393.43 -204.61 270.05 -203.72 205.42" fill="none" stroke="#000000" stroke-width="3" stroke-linejoin="round" stroke-linecap="round" stroke-miterlimit="10" transform="rotate(90,156,361)" pointer-events="all"/></g></svg>