<?xml version="1.0" encoding="UTF-8"?>
<!DOCTYPE svg PUBLIC "-//W3C//DTD SVG 1.1//EN" "http://www.w3.org/Graphics/SVG/1.1/DTD/svg11.dtd">
<svg xmlns="http://www.w3.org/2000/svg" xmlns:xlink="http://www.w3.org/1999/xlink" version="1.1" width="723px" height="313px" viewBox="-0.5 -0.5 723 313"><defs/><g><path d="M 2.39 -0.83 L 719.65 0.34 L 720.92 312.65 L 2.8 310.21" fill="#ffffff" stroke="none" pointer-events="all"/><path d="M 0.51 1.22 C 168.19 3.42 333.91 3.54 720.48 0.67 M 1.28 0.71 C 202.31 -1.46 403.3 -1.64 721.36 0.91 M 720.44 2.01 C 718.75 64.88 718.36 131.05 721.59 309.87 M 720.32 0.81 C 721.97 85.83 722.28 169.83 721.01 310.81 M 721.27 310.6 C 489 310.05 255.75 310.49 0.83 310.59 M 721.3 310.77 C 514.76 309.92 308.64 309.27 1.39 310.83 M -0.16 310.57 C 2.29 198.82 0.79 88.85 1.93 1.2 M 0.89 311.16 C 0.35 242.37 -0.3 171.79 1.15 0.35" fill="none" stroke="#000000" stroke-width="3" stroke-linejoin="round" stroke-linecap="round" stroke-miterlimit="10" pointer-events="all"/></g></svg>