<?xml version="1.0" encoding="UTF-8"?>
<!DOCTYPE svg PUBLIC "-//W3C//DTD SVG 1.1//EN" "http://www.w3.org/Graphics/SVG/1.1/DTD/svg11.dtd">
<svg xmlns="http://www.w3.org/2000/svg" xmlns:xlink="http://www.w3.org/1999/xlink" version="1.1" width="311px" height="721px" viewBox="-0.5 -0.5 311 721"><defs/><g><path d="M -204.79 203.97 L 514.55 205.82 L 513.81 513.84 L -205.29 515.46" fill="#ffffff" stroke="none" transform="rotate(90,155,360)" pointer-events="all"/><path d="M -205.32 204.82 C 40.13 204.71 285.08 204.88 514.56 204.46 M -204.86 204.67 C 47.01 204.03 298.74 204.47 515.23 204.94 M 513.63 204.34 C 513.97 270.46 513.86 335.09 514.39 515.36 M 515.21 204.7 C 516.56 298.51 515.82 391.97 515.62 514.3 M 515.12 514.66 C 325.38 515.87 137.32 516.16 -205.38 514.65 M 515.21 515.04 C 324.24 511.95 133.59 512.34 -205.21 515.14 M -205.4 514.64 C -202.64 434.65 -204.34 354.76 -204.45 204.38 M -204.51 514.98 C -203.43 420.43 -202.91 324.65 -205.32 205.05" fill="none" stroke="#000000" stroke-linejoin="round" stroke-linecap="round" stroke-miterlimit="10" transform="rotate(90,155,360)" pointer-events="all"/></g></svg>