<svg height="311" viewBox="-.5 -.5 721 311" width="721" xmlns="http://www.w3.org/2000/svg"><g pointer-events="all"><path d="m1.39-1.83 717.26 1.17 1.27 312.31-718.12-2.44" fill="#fff"/><path d="m-.49.22c167.68 2.2 333.4 2.32 719.97-.55m-719.2.04c201.03-2.17 402.02-2.35 720.08.2m-.92 1.1c-1.69 62.87-2.08 129.04 1.15 307.86m-1.27-309.06c1.65 85.02 1.96 169.02.69 310m.26-.21c-232.27-.55-465.52-.11-720.44-.01m720.47.18c-206.54-.85-412.66-1.5-719.91.06m-1.55-.26c2.45-111.75.95-221.72 2.09-309.37m-1.04 309.96c-.54-68.79-1.19-139.37.26-310.81" fill="none" stroke="#000" stroke-linecap="round" stroke-linejoin="round" stroke-miterlimit="10"/></g></svg>