<?xml version="1.0" encoding="UTF-8"?>
<!DOCTYPE svg PUBLIC "-//W3C//DTD SVG 1.1//EN" "http://www.w3.org/Graphics/SVG/1.1/DTD/svg11.dtd">
<svg xmlns="http://www.w3.org/2000/svg" xmlns:xlink="http://www.w3.org/1999/xlink" version="1.1" width="250px" height="234px" viewBox="-0.5 -0.5 250 234"><defs/><g><path d="M 32 178 L 58 156" fill="none" stroke="none" pointer-events="stroke"/><path d="M 33.12 176.33 M 30.32 179.34 C 41.69 169.08 50.04 164.59 56.45 157.53 M 32.9 178.57 C 41.05 171.3 47.99 164.48 58.61 155.58" fill="none" stroke="#000000" stroke-width="7" stroke-linejoin="round" stroke-linecap="round" stroke-miterlimit="10" pointer-events="stroke"/><path d="M 48 198 L 79 174" fill="none" stroke="none" pointer-events="stroke"/><path d="M 49.12 196.67 M 48.01 198.5 C 54.43 190.73 61.73 185.62 77.88 173.07 M 48.34 198.38 C 56.34 191.47 64.43 185.89 79.79 174.12" fill="none" stroke="#000000" stroke-width="7" stroke-linejoin="round" stroke-linecap="round" stroke-miterlimit="10" pointer-events="stroke"/><path d="M 85 229 L 86 174" fill="none" stroke="none" pointer-events="stroke"/><path d="M 86.12 228.01 M 86.69 228.67 C 85.79 207.67 85.46 186.31 85.31 174.61 M 84.78 229.19 C 84.7 218.81 86.29 206.81 86.96 174.66" fill="none" stroke="#000000" stroke-width="7" stroke-linejoin="round" stroke-linecap="round" stroke-miterlimit="10" pointer-events="stroke"/><path d="M 165 229 L 164 173" fill="none" stroke="none" pointer-events="stroke"/><path d="M 166.12 228.35 M 164.37 227.83 C 165.77 212.02 164.55 196.87 163.74 171.16 M 164.22 229.01 C 165.05 209.83 165.42 190.12 163.14 172.2" fill="none" stroke="#000000" stroke-width="7" stroke-linejoin="round" stroke-linecap="round" stroke-miterlimit="10" pointer-events="stroke"/><path d="M 163 228 L 145 202" fill="none" stroke="none" pointer-events="stroke"/><path d="M 164.12 227.69 M 164.05 229.99 C 158.12 222.21 157.15 215.98 145.16 201.7 M 163.66 227.82 C 157.1 219.88 151.95 212.54 144.31 201.74" fill="none" stroke="#000000" stroke-width="7" stroke-linejoin="round" stroke-linecap="round" stroke-miterlimit="10" pointer-events="stroke"/><path d="M 125 226 L 111 202" fill="none" stroke="none" pointer-events="stroke"/><path d="M 126.12 226.03 M 123.73 227.15 C 120.86 217.92 114.82 211.35 111.59 203.24 M 125.1 225.63 C 122.06 220.97 118.19 214.08 110.49 202.28" fill="none" stroke="#000000" stroke-width="7" stroke-linejoin="round" stroke-linecap="round" stroke-miterlimit="10" pointer-events="stroke"/><path d="M 85 229 L 110 202" fill="none" stroke="none" pointer-events="stroke"/><path d="M 86.12 229.37 M 85.41 229.32 C 93.39 222.45 98.05 215.16 111.02 200.79 M 84.54 228.45 C 93.67 218.7 103.77 207.76 109.66 202.81" fill="none" stroke="#000000" stroke-width="7" stroke-linejoin="round" stroke-linecap="round" stroke-miterlimit="10" pointer-events="stroke"/><path d="M 126 224 L 143 204" fill="none" stroke="none" pointer-events="stroke"/><path d="M 127.12 224.71 M 124.09 223.48 C 131.52 217.12 139.98 207.32 144.44 204.33 M 126.98 223.26 C 132.17 216.86 137.63 212.19 142.84 203.35" fill="none" stroke="#000000" stroke-width="7" stroke-linejoin="round" stroke-linecap="round" stroke-miterlimit="10" pointer-events="stroke"/><path d="M 93 178.05 L 80.85 171.66 Q 72 167 65.26 159.62 L 57.74 151.38 Q 51 144 50.23 134.03 L 47.77 101.97 Q 47 92 53.44 84.35 L 72.56 61.65 Q 79 54 88.21 50.1 L 96.6 46.55 Q 105 43 115 43 L 125 43" fill="none" stroke="#000000" stroke-width="7" stroke-miterlimit="10" pointer-events="stroke"/><path d="M 154.92 178.05 L 162.96 175.53 Q 171 173 178.84 166.79 L 187.16 160.21 Q 195 154 197.11 144.22 L 203.89 112.78 Q 206 103 201.26 94.2 L 189.74 72.8 Q 185 64 176.68 58.45 L 163.32 49.55 Q 155 44 145.01 43.67 L 125 43" fill="none" stroke="#000000" stroke-width="7" stroke-miterlimit="10" pointer-events="stroke"/><path d="M 85 109 L 105 89" fill="none" stroke="none" pointer-events="stroke"/><path d="M 83.63 107.66 M 84.99 110.61 C 93.15 101.46 95.94 97.45 105.19 89.66 M 84.38 108.99 C 92.5 102.4 98.59 95.78 105.33 88.34" fill="none" stroke="#000000" stroke-width="7" stroke-linejoin="round" stroke-linecap="round" stroke-miterlimit="10" pointer-events="stroke"/><path d="M 85 89 L 105 109" fill="none" stroke="none" pointer-events="stroke"/><path d="M 83.63 88 M 86.67 89.77 C 88.74 92.93 93.7 98.14 105.62 107.2 M 85.82 88.8 C 90.21 95.27 96.5 99.04 105.51 108.88" fill="none" stroke="#000000" stroke-width="7" stroke-linejoin="round" stroke-linecap="round" stroke-miterlimit="10" pointer-events="stroke"/><path d="M 145 109 L 165 89" fill="none" stroke="none" pointer-events="stroke"/><path d="M 143.63 108.34 M 144.35 108.94 C 152.67 101.39 159.8 92.82 166.05 88.75 M 145.26 108.62 C 148.26 105.06 152.74 99.73 165.68 89.42" fill="none" stroke="#000000" stroke-width="7" stroke-linejoin="round" stroke-linecap="round" stroke-miterlimit="10" pointer-events="stroke"/><path d="M 145 89 L 165 109" fill="none" stroke="none" pointer-events="stroke"/><path d="M 143.63 88.68 M 146.03 88.1 C 148.61 94.48 157.91 100.76 166.47 110.29 M 144.7 88.43 C 152.25 95.38 158.93 103.9 165.86 109.95" fill="none" stroke="#000000" stroke-width="7" stroke-linejoin="round" stroke-linecap="round" stroke-miterlimit="10" pointer-events="stroke"/><path d="M 177 56 L 199 37" fill="none" stroke="none" pointer-events="stroke"/><path d="M 175.63 56.02 M 175.72 54.26 C 185.38 48.32 193.65 39.58 200.9 35.83 M 176.14 55.24 C 182.62 51.01 190.09 45.26 198.03 36.49" fill="none" stroke="#000000" stroke-width="7" stroke-linejoin="round" stroke-linecap="round" stroke-miterlimit="10" pointer-events="stroke"/><path d="M 194 78 L 215 59" fill="none" stroke="none" pointer-events="stroke"/><path d="M 192.63 78.36 M 194.4 79.43 C 201.47 72.22 207.44 67.11 213.33 59.38 M 194.58 77.06 C 199.15 73.49 204.46 69.33 214.21 59.03" fill="none" stroke="#000000" stroke-width="7" stroke-linejoin="round" stroke-linecap="round" stroke-miterlimit="10" pointer-events="stroke"/><path d="M 171 173 L 197 197" fill="none" stroke="none" pointer-events="stroke"/><path d="M 169.63 173.7 M 169.08 173.59 C 175.64 179.41 184.89 184.22 195.76 198.92 M 171.02 173.87 C 180.2 181.24 191.77 191.41 196.38 197.57" fill="none" stroke="#000000" stroke-width="7" stroke-linejoin="round" stroke-linecap="round" stroke-miterlimit="10" pointer-events="stroke"/><path d="M 192 159 L 220 184" fill="none" stroke="none" pointer-events="stroke"/><path d="M 190.63 160.04 M 191.76 158.75 C 201.79 168.52 210.65 174.69 219.18 183.47 M 191.45 159.69 C 201.54 167.64 209.63 175.28 219.56 183.11" fill="none" stroke="#000000" stroke-width="7" stroke-linejoin="round" stroke-linecap="round" stroke-miterlimit="10" pointer-events="stroke"/><path d="M 35 51 L 58 75" fill="none" stroke="none" pointer-events="stroke"/><path d="M 33.63 51.52 M 35.72 52.34 C 38.99 54.76 45.37 59.58 58.58 76.42 M 34.12 51.59 C 41.59 57.52 48.21 64.82 57.41 75.95" fill="none" stroke="#000000" stroke-width="7" stroke-linejoin="round" stroke-linecap="round" stroke-miterlimit="10" pointer-events="stroke"/><path d="M 55 32 L 77 54" fill="none" stroke="none" pointer-events="stroke"/><path d="M 53.63 32.86 M 53.4 32.51 C 63.2 38.38 67.8 47.55 78 52.96 M 55.56 32.4 C 59.23 36.12 63.66 42.12 76.59 53.49" fill="none" stroke="#000000" stroke-width="7" stroke-linejoin="round" stroke-linecap="round" stroke-miterlimit="10" pointer-events="stroke"/><path d="M 32 28 L 24 28 Q 16 28 9.5 35.5 L 6.25 39.25 Q 3 43 8 48 L 10.5 50.5 Q 13 53 18 58 L 20.5 60.5 Q 23 63 28 58 L 33 53" fill="none" stroke="none" pointer-events="stroke"/><path d="M 30.63 29.2 M 32.03 27.87 C 29.38 27.76 27.9 27.82 24.57 28.2 M 32 28.09 C 29.3 28.15 25.95 28.02 23.9 28.01 M 24 28 C 16.97 26.68 13.95 32.42 11.47 35.86 M 22.81 26.79 C 17.88 27.25 15.86 30.02 9.38 33.76 M 9.6 35.91 C 8.62 36.52 7.22 37.71 6.49 39.74 M 9.44 35.48 C 8.9 36.52 8.02 36.9 6.27 39.22 M 6.25 39.25 C 3.38 42.89 6.53 43.13 6.02 47.7 M 5.25 37.42 C 3.12 43.74 5.48 46.52 10.01 49.87 M 7.74 47.74 C 9 48.68 9.27 49.93 10.85 50.17 M 7.89 48.04 C 9.09 48.91 10.05 50.03 10.56 50.39 M 10.5 50.5 C 11.39 51.29 13.01 55.63 19.78 57.9 M 10.07 50.98 C 13.5 51.71 15.18 54.93 18.79 60.25 M 17.78 57.68 C 18.8 58.53 19.12 58.84 20.34 60.2 M 17.91 58.07 C 18.86 58.72 19.79 59.86 20.61 60.58 M 20.5 60.5 C 21.57 63.11 23.84 61.52 28.79 58.34 M 21.42 60.95 C 20.81 62.3 25.59 60.21 26.2 57.62 M 27.35 57.38 C 29.2 56.43 29.99 54.86 33.24 53.18 M 28.08 57.66 C 29.63 55.83 31.56 53.94 32.99 53.33" fill="none" stroke="#000000" stroke-width="7" stroke-linejoin="round" stroke-linecap="round" stroke-miterlimit="10" pointer-events="stroke"/><path d="M 33 28 L 35.42 12.87 Q 37 3 46.82 4.87 L 52.41 5.94 Q 58 7 60.5 10 L 61.75 11.5 Q 63 13 63 17 L 63 19 Q 63 21 60 26.5 L 57 32" fill="none" stroke="none" pointer-events="stroke"/><path d="M 31.63 29.54 M 34.35 27.11 C 33.84 22.13 35.46 18.33 36.84 11.38 M 32.57 28.02 C 33.37 23.02 34.29 18.51 35.37 13.3 M 35.42 12.87 C 35.03 8.07 39.62 5.34 47.24 4.77 M 34.59 11.05 C 38.71 6.48 40.68 3.61 48 4.7 M 46.38 5.01 C 48.2 4.93 49.36 5 52.42 5.87 M 46.93 4.83 C 48.58 5.45 50.94 5.75 52.45 6.15 M 52.41 5.94 C 55.03 5.78 60.58 8.55 60.35 8.22 M 53.15 7.57 C 57.15 7.79 60.19 7.01 60.06 8.74 M 60.67 10.17 C 60.98 10.51 60.91 10.52 61.62 11.46 M 60.46 10.09 C 61.01 10.56 61.46 11.26 61.73 11.42 M 61.75 11.5 C 61.78 14.13 62.39 15.36 61.28 15.13 M 62.43 10.11 C 64.77 11.86 62.64 15.6 64.18 18.54 M 63.1 17.05 C 63.08 17.87 63.05 18.32 63.13 19.16 M 62.99 17.07 C 62.94 17.69 63.01 18.51 62.94 18.93 M 63 19 C 63.33 21.92 61.56 22.38 61.17 27.35 M 62.67 17.64 C 64.71 18.28 60.58 23.57 58.07 25.04 M 59.43 26.76 C 59.91 28.31 58.27 29.51 56.42 31.41 M 60.12 26.81 C 59.14 28.38 57.65 30.62 57.21 32.07" fill="none" stroke="#000000" stroke-width="7" stroke-linejoin="round" stroke-linecap="round" stroke-miterlimit="10" pointer-events="stroke"/><path d="M 200 35 L 201.81 19.93 Q 203 10 213 10 L 218 10 Q 223 10 223 20 L 223 31" fill="none" stroke="none" pointer-events="stroke"/><path d="M 198.63 36.88 M 199.58 36.51 C 201.35 30.57 202.42 26.55 200.51 19.62 M 200.67 34.88 C 200.85 31.82 200.98 27.05 201.89 19.25 M 201.81 19.93 C 201.41 14.19 204.91 11.5 211.88 9.44 M 201.34 21.51 C 203.27 14.44 205.12 10.44 210.88 11.4 M 213.13 9.82 C 214.54 9.86 217.16 9.58 217.77 10.38 M 212.75 9.94 C 214.55 10.1 215.9 9.86 218.05 9.9 M 218 10 C 219.82 11.11 224.62 11.97 224.67 20.75 M 216.48 11.08 C 219.73 10.29 224.9 14.1 224.72 20.21 M 223.59 20.55 C 222.17 23.84 221.97 26.77 222.64 31.58 M 222.86 19.81 C 222.77 21.97 223.42 24.95 222.59 31.5" fill="none" stroke="#000000" stroke-width="7" stroke-linejoin="round" stroke-linecap="round" stroke-miterlimit="10" pointer-events="stroke"/><path d="M 219 56 L 226 58 Q 233 60 238.14 51.43 L 241.57 45.71 Q 245 40 235.81 36.06 L 224 31" fill="none" stroke="none" pointer-events="stroke"/><path d="M 217.63 54.22 M 219.41 56.42 C 219.97 56.52 221.6 56.39 225.53 58.41 M 219.12 55.87 C 221.66 56.79 224.74 57.28 226.1 57.87 M 226 58 C 229.72 59.31 236.52 58.44 239.48 50.4 M 225.89 58.97 C 229.76 61.4 236.49 58.05 237.32 49.81 M 237.66 50.8 C 239.59 49.5 240.15 47.18 240.95 45.48 M 238.02 51.33 C 239.23 49.97 239.84 48.58 241.66 45.86 M 241.57 45.71 C 241.93 41 243.43 39.41 235.3 35.34 M 241.78 46.24 C 244.22 41.34 239.78 36.61 235.09 37.75 M 236.03 36.21 C 232.28 33.74 228.65 32.8 224.02 30.05 M 235.78 36.3 C 232.7 34.52 230.67 34.41 224.46 31.44" fill="none" stroke="#000000" stroke-width="7" stroke-linejoin="round" stroke-linecap="round" stroke-miterlimit="10" pointer-events="stroke"/><path d="M 199 200 L 194 205 Q 189 210 197.14 215.81 L 203.57 220.41 Q 210 225 214.96 216.32 L 222 204" fill="none" stroke="none" pointer-events="stroke"/><path d="M 197.63 198.56 M 198.58 200.11 C 197.4 201.79 195.86 203.64 193.7 204.53 M 198.91 199.81 C 197.6 201.4 195.3 203.68 194.16 205.06 M 194 205 C 189.97 207.41 192.75 213.02 196.93 214.32 M 194.25 205.36 C 192.78 206.75 191.87 213.3 197.62 215.76 M 197.39 216.17 C 198.56 216.93 201 217.34 204.04 220.85 M 197.25 215.65 C 198.33 216.76 200.14 217.66 203.69 220.14 M 203.57 220.41 C 209.52 224.55 213.03 220.91 216.28 218.13 M 205.52 220.39 C 205.6 222.06 210.03 221.79 216.39 214.88 M 214.69 215.94 C 217.21 212.63 218.56 207.13 222.52 203.99 M 215.07 215.67 C 217.01 213.06 217.46 210.09 222.13 204.32" fill="none" stroke="#000000" stroke-width="7" stroke-linejoin="round" stroke-linecap="round" stroke-miterlimit="10" pointer-events="stroke"/><path d="M 220 186 L 228.5 182.5 Q 237 179 239.17 188.76 L 241.08 197.38 Q 243 206 233.09 204.65 L 221 203" fill="none" stroke="none" pointer-events="stroke"/><path d="M 218.63 184.9 M 220.22 185.76 C 222.85 185.43 224.97 183.99 228.3 182.6 M 219.63 185.67 C 222.36 185.21 224.54 184.32 228.79 182.83 M 228.5 182.5 C 233.72 178.34 237.99 183.13 237.42 186.81 M 229.11 182.25 C 234.7 179.52 236.27 184.08 240.95 190.28 M 238.59 188.64 C 239.13 192.06 240.72 194.3 241.19 196.89 M 239.57 188.55 C 240.07 191.81 240.34 195.47 241.24 197.46 M 241.08 197.38 C 243.62 202.19 240.95 206.44 232.23 204.99 M 240.77 196.81 C 242.08 200.87 238.62 206.99 232.08 204.68 M 232.41 203.85 C 230.07 203.83 225.39 203.71 221.87 203.88 M 233.31 204.52 C 230.4 203.72 227.55 203.29 220.78 203.13" fill="none" stroke="#000000" stroke-width="7" stroke-linejoin="round" stroke-linecap="round" stroke-miterlimit="10" pointer-events="stroke"/><path d="M 28 199 L 25.71 212.15 Q 24 222 33.64 219.34 L 43.36 216.66 Q 53 214 50.5 206.5 L 48 199" fill="none" stroke="none" pointer-events="stroke"/><path d="M 26.63 198.24 M 26.77 198.1 C 26.57 204.42 25.6 209.83 25.71 213.33 M 28.43 198.4 C 26.88 201.78 26.97 205.18 26.25 211.65 M 25.71 212.15 C 24.38 219.99 26.71 221.78 34.35 220.92 M 26.67 211.29 C 23.53 219.01 28.74 223.4 32.12 217.84 M 34.01 218.61 C 37.03 218.81 38.79 216.78 43.01 217 M 33.41 219.06 C 36.3 218.14 39.91 217.51 43.58 216.17 M 43.36 216.66 C 50.64 215.94 53.3 210.47 51.47 205.36 M 44.78 215.54 C 51.48 216.38 51.63 210.1 51.64 208 M 49.78 207.26 C 50.01 204.4 47.88 200.99 47.25 198.57 M 50.72 206.7 C 49.85 204.29 49.08 202.51 47.65 198.99" fill="none" stroke="#000000" stroke-width="7" stroke-linejoin="round" stroke-linecap="round" stroke-miterlimit="10" pointer-events="stroke"/><path d="M 29 197 L 16.65 193.63 Q 7 191 6 185.5 L 5.5 182.75 Q 5 180 10.5 173 L 13.25 169.5 Q 16 166 23 170.5 L 30 175" fill="none" stroke="none" pointer-events="stroke"/><path d="M 27.63 196.58 M 28.9 198.16 C 25.74 196.9 21.92 195.29 16.92 193.19 M 29.05 197.58 C 24.54 195.04 20.17 194.59 17.28 193.5 M 16.65 193.63 C 10.27 192.25 5.39 189.62 5.16 186.62 M 17.97 192.16 C 12.2 193.11 6.58 187.32 5.78 185.57 M 5.83 185.69 C 5.86 185.04 5.99 184.05 5.27 182.54 M 6.02 185.41 C 5.83 184.64 5.83 183.87 5.57 182.73 M 5.5 182.75 C 5.61 179.95 7.84 178.72 9.29 174.39 M 4.66 181.08 C 4.24 181.56 6.84 178.02 9.2 171.37 M 10.82 173.26 C 11.65 172.04 11.62 171.16 12.98 169.58 M 10.67 172.82 C 11.02 172.34 11.99 171.08 13.38 169.44 M 13.25 169.5 C 14.13 167.84 20.04 168.91 24.23 170.06 M 12.63 168.91 C 13.18 165.42 17.29 165.59 21.93 172.34 M 22.46 169.92 C 26.02 172.02 27.55 174.54 29.37 175.66 M 23.07 170.8 C 24.41 171.81 26.37 172.86 30.08 175.23" fill="none" stroke="#000000" stroke-width="7" stroke-linejoin="round" stroke-linecap="round" stroke-miterlimit="10" pointer-events="stroke"/></g></svg>