<?xml version="1.0" encoding="UTF-8"?>
<!DOCTYPE svg PUBLIC "-//W3C//DTD SVG 1.1//EN" "http://www.w3.org/Graphics/SVG/1.1/DTD/svg11.dtd">
<svg xmlns="http://www.w3.org/2000/svg" xmlns:xlink="http://www.w3.org/1999/xlink" version="1.1" width="247px" height="231px" viewBox="-0.5 -0.5 247 231"><defs/><g><path d="M 31 177 L 57 155" fill="none" stroke="none" pointer-events="stroke"/><path d="M 29.94 176.73 M 29.02 175.86 C 38.91 168 51.16 162.43 56.65 156.21 M 31.55 177.54 C 36.21 172.95 41.01 167.86 57.22 154.97" fill="none" stroke="#000000" stroke-width="4" stroke-linejoin="round" stroke-linecap="round" stroke-miterlimit="10" pointer-events="stroke"/><path d="M 47 197 L 78 173" fill="none" stroke="none" pointer-events="stroke"/><path d="M 45.94 197.07 M 46.7 195.02 C 55.84 189.62 63.22 183.35 78.07 171.75 M 46.99 197.36 C 58.68 188.56 68.29 180.13 78.4 173.5" fill="none" stroke="#000000" stroke-width="4" stroke-linejoin="round" stroke-linecap="round" stroke-miterlimit="10" pointer-events="stroke"/><path d="M 84 228 L 85 173" fill="none" stroke="none" pointer-events="stroke"/><path d="M 83.32 228.24 M 83.28 226.16 C 84.47 207.98 86.92 183.92 83.63 172.36 M 84 228.94 C 84.63 209.76 84.41 193.14 85.71 172.78" fill="none" stroke="#000000" stroke-width="4" stroke-linejoin="round" stroke-linecap="round" stroke-miterlimit="10" pointer-events="stroke"/><path d="M 164 228 L 163 172" fill="none" stroke="none" pointer-events="stroke"/><path d="M 163.32 228.58 M 164.96 229.32 C 164.43 212.33 161.96 194.47 162.05 172.9 M 163.44 228.75 C 162.93 213.86 163.47 198.61 163.89 172.31" fill="none" stroke="#000000" stroke-width="4" stroke-linejoin="round" stroke-linecap="round" stroke-miterlimit="10" pointer-events="stroke"/><path d="M 162 227 L 144 201" fill="none" stroke="none" pointer-events="stroke"/><path d="M 161.32 227.92 M 160.64 227.49 C 156.53 222.78 154.11 214.23 143.48 199.45 M 162.88 227.56 C 158.46 221.47 154.84 216.15 143.06 201.85" fill="none" stroke="#000000" stroke-width="4" stroke-linejoin="round" stroke-linecap="round" stroke-miterlimit="10" pointer-events="stroke"/><path d="M 124 225 L 110 201" fill="none" stroke="none" pointer-events="stroke"/><path d="M 123.32 226.26 M 124.32 224.65 C 119.33 218.54 115.88 209.67 109.91 200.99 M 124.32 225.38 C 118.29 215.88 114.84 208.05 109.24 200.39" fill="none" stroke="#000000" stroke-width="4" stroke-linejoin="round" stroke-linecap="round" stroke-miterlimit="10" pointer-events="stroke"/><path d="M 84 228 L 109 201" fill="none" stroke="none" pointer-events="stroke"/><path d="M 83.32 229.6 M 82 226.81 C 92.36 219.23 96.1 213.61 109.33 202.53 M 83.76 228.19 C 92.08 220.42 98.23 211.58 108.41 200.93" fill="none" stroke="#000000" stroke-width="4" stroke-linejoin="round" stroke-linecap="round" stroke-miterlimit="10" pointer-events="stroke"/><path d="M 125 223 L 142 203" fill="none" stroke="none" pointer-events="stroke"/><path d="M 124.32 224.94 M 124.68 224.98 C 130.38 213.62 137.82 205.56 142.76 202.08 M 124.2 223 C 128.71 218 132.88 212.87 141.59 203.47" fill="none" stroke="#000000" stroke-width="4" stroke-linejoin="round" stroke-linecap="round" stroke-miterlimit="10" pointer-events="stroke"/><path d="M 92 177.05 L 79.85 170.66 Q 71 166 64.26 158.62 L 56.74 150.38 Q 50 143 49.23 133.03 L 46.77 100.97 Q 46 91 52.44 83.35 L 71.56 60.65 Q 78 53 87.21 49.1 L 95.6 45.55 Q 104 42 114 42 L 124 42" fill="none" stroke="#000000" stroke-width="4" stroke-miterlimit="10" pointer-events="stroke"/><path d="M 153.92 177.05 L 161.96 174.53 Q 170 172 177.84 165.79 L 186.16 159.21 Q 194 153 196.11 143.22 L 202.89 111.78 Q 205 102 200.26 93.2 L 188.74 71.8 Q 184 63 175.68 57.45 L 162.32 48.55 Q 154 43 144.01 42.67 L 124 42" fill="none" stroke="#000000" stroke-width="4" stroke-miterlimit="10" pointer-events="stroke"/><path d="M 84 108 L 104 88" fill="none" stroke="none" pointer-events="stroke"/><path d="M 82.94 106.37 M 83.3 106.2 C 90.68 104.25 96.03 96.55 105.94 87.04 M 84.79 107.29 C 88.05 103.07 92.83 97.81 103.52 87.81" fill="none" stroke="#000000" stroke-width="4" stroke-linejoin="round" stroke-linecap="round" stroke-miterlimit="10" pointer-events="stroke"/><path d="M 84 88 L 104 108" fill="none" stroke="none" pointer-events="stroke"/><path d="M 82.94 86.71 M 84.98 89.37 C 86.51 90.52 94.04 94.82 102.37 108.58 M 84.23 87.1 C 91.98 96.28 98.95 103.75 103.7 108.35" fill="none" stroke="#000000" stroke-width="4" stroke-linejoin="round" stroke-linecap="round" stroke-miterlimit="10" pointer-events="stroke"/><path d="M 144 108 L 164 88" fill="none" stroke="none" pointer-events="stroke"/><path d="M 142.94 107.05 M 142.66 108.53 C 150.2 99.79 155.9 95.52 162.79 86.12 M 143.67 108.92 C 150.21 101.73 157.38 95.76 163.87 88.89" fill="none" stroke="#000000" stroke-width="4" stroke-linejoin="round" stroke-linecap="round" stroke-miterlimit="10" pointer-events="stroke"/><path d="M 144 88 L 164 108" fill="none" stroke="none" pointer-events="stroke"/><path d="M 142.94 87.39 M 144.34 87.69 C 149.98 91.67 153.84 97.04 163.22 107.67 M 143.11 88.73 C 150.02 92.79 155.38 99 164.05 107.43" fill="none" stroke="#000000" stroke-width="4" stroke-linejoin="round" stroke-linecap="round" stroke-miterlimit="10" pointer-events="stroke"/><path d="M 176 55 L 198 36" fill="none" stroke="none" pointer-events="stroke"/><path d="M 174.94 55.41 M 177.38 56.18 C 182.05 50.46 184.85 45.27 198.5 36.3 M 175.43 55.17 C 182.33 48.32 188.87 43.22 198.57 35.04" fill="none" stroke="#000000" stroke-width="4" stroke-linejoin="round" stroke-linecap="round" stroke-miterlimit="10" pointer-events="stroke"/><path d="M 193 77 L 214 58" fill="none" stroke="none" pointer-events="stroke"/><path d="M 191.95 76.9 M 191.34 75.77 C 199.59 73.82 202.01 66.46 215.9 56.25 M 192.1 77.07 C 197.93 72.68 202.46 67.74 214.42 58.88" fill="none" stroke="#000000" stroke-width="4" stroke-linejoin="round" stroke-linecap="round" stroke-miterlimit="10" pointer-events="stroke"/><path d="M 170 172 L 196 196" fill="none" stroke="none" pointer-events="stroke"/><path d="M 168.95 172.24 M 170.02 173.94 C 178.46 182.57 189.04 191.15 194.32 195.8 M 170.54 171.89 C 179.29 180.96 190.09 190.39 196.6 195.42" fill="none" stroke="#000000" stroke-width="4" stroke-linejoin="round" stroke-linecap="round" stroke-miterlimit="10" pointer-events="stroke"/><path d="M 191 158 L 219 183" fill="none" stroke="none" pointer-events="stroke"/><path d="M 189.95 158.58 M 192.7 159.1 C 199.28 163.35 208.15 172.44 217.75 184.34 M 190.98 157.7 C 200.15 167.38 209.47 174.28 219.77 182.96" fill="none" stroke="#000000" stroke-width="4" stroke-linejoin="round" stroke-linecap="round" stroke-miterlimit="10" pointer-events="stroke"/><path d="M 34 50 L 57 74" fill="none" stroke="none" pointer-events="stroke"/><path d="M 32.95 50.92 M 33.38 50.26 C 40.27 53.54 45.6 58.55 56.18 72.88 M 33.42 49.51 C 39.38 56.59 47.07 62.32 57.95 74.5" fill="none" stroke="#000000" stroke-width="4" stroke-linejoin="round" stroke-linecap="round" stroke-miterlimit="10" pointer-events="stroke"/><path d="M 54 31 L 76 53" fill="none" stroke="none" pointer-events="stroke"/><path d="M 52.95 32.26 M 55.06 30.43 C 60.46 37.14 67.99 46.48 75.6 53.43 M 54.86 30.33 C 59.03 35.21 62.53 39.65 75.12 52.04" fill="none" stroke="#000000" stroke-width="4" stroke-linejoin="round" stroke-linecap="round" stroke-miterlimit="10" pointer-events="stroke"/><path d="M 31 27 L 23 27 Q 15 27 8.5 34.5 L 5.25 38.25 Q 2 42 7 47 L 9.5 49.5 Q 12 52 17 57 L 19.5 59.5 Q 22 62 27 57 L 32 52" fill="none" stroke="none" pointer-events="stroke"/><path d="M 29.95 25.28 M 30.24 27.37 C 28.3 26.75 25.71 26.88 23.35 27.42 M 30.67 27.31 C 28.86 26.61 27.21 27.1 22.86 27.26 M 23 27 C 18.35 27.09 11.53 28.74 9.18 32.68 M 21.69 27.2 C 15.59 27.9 11.35 28.52 6.6 35.36 M 8.11 34.58 C 7.2 35.66 5.57 37.25 5.32 37.88 M 8.67 34.35 C 7.41 35.7 6.07 37.38 5.28 38.17 M 5.25 38.25 C 2.3 39.41 2.07 44.47 8.86 47.97 M 3.64 38.1 C 2.57 40.93 4.8 42.13 7.12 48.39 M 7.22 46.69 C 7.75 48.29 9.06 48.76 9.37 49.24 M 7.1 47.14 C 7.61 47.73 8.47 48.47 9.38 49.5 M 9.5 49.5 C 12.18 50.39 13.87 53.47 16.6 58.95 M 9.11 49 C 12.48 51.27 13.36 53.38 16.91 55.71 M 16.74 56.85 C 17.84 58.09 18.77 59 19.49 59.66 M 16.95 57.08 C 17.9 57.71 18.4 58.47 19.37 59.36 M 19.5 59.5 C 19.33 61.26 23.3 58.89 26.51 55.41 M 17.88 60.02 C 19.9 62.35 21.83 59.03 26.19 58.34 M 26.94 56.57 C 28.5 55.17 30.34 53.81 31.94 51.6 M 26.9 57.27 C 27.94 56.11 28.77 55.04 31.95 52.25" fill="none" stroke="#000000" stroke-width="4" stroke-linejoin="round" stroke-linecap="round" stroke-miterlimit="10" pointer-events="stroke"/><path d="M 32 27 L 34.42 11.87 Q 36 2 45.82 3.87 L 51.41 4.94 Q 57 6 59.5 9 L 60.75 10.5 Q 62 12 62 16 L 62 18 Q 62 20 59 25.5 L 56 31" fill="none" stroke="none" pointer-events="stroke"/><path d="M 30.95 25.62 M 31.84 27.06 C 32.9 23.5 32.82 19.04 35.43 10.8 M 32.47 27.45 C 33.52 21.4 34.53 15.32 34.28 11.25 M 34.42 11.87 C 36.41 4.48 41.2 1.65 44.95 5.59 M 33.47 11.46 C 36.42 7.13 40.78 2.1 45.22 1.71 M 45.95 3.62 C 47.05 4.06 49.33 4.5 51.22 5.03 M 45.62 3.68 C 47.42 4.43 49.6 4.36 51.46 5.1 M 51.41 4.94 C 53.94 6.29 56.11 5.89 59.19 8.5 M 51.54 4.24 C 56.6 4.97 59.51 7.23 61.77 7.26 M 59.55 9.15 C 59.83 9.47 60.32 9.83 60.75 10.5 M 59.58 8.95 C 59.79 9.44 60.2 9.92 60.82 10.48 M 60.75 10.5 C 62.57 13.23 63.25 13.2 62.1 16.19 M 61.48 12.13 C 63.75 11.42 60.82 14.05 62.3 14 M 62.08 16.15 C 61.86 16.48 61.93 17.37 61.81 18.02 M 62.01 16.08 C 61.99 16.67 62.07 17.45 62.01 18.01 M 62 18 C 61.09 20.07 61.03 23.74 58.88 24.42 M 63.12 16.72 C 63.8 18.33 61.41 22.39 58.06 25.77 M 58.95 25.92 C 58.46 26.74 57.07 29.04 56.41 31.15 M 58.96 25.71 C 57.58 27.87 56.47 29.51 56.17 31" fill="none" stroke="#000000" stroke-width="4" stroke-linejoin="round" stroke-linecap="round" stroke-miterlimit="10" pointer-events="stroke"/><path d="M 199 34 L 200.81 18.93 Q 202 9 212 9 L 217 9 Q 222 9 222 19 L 222 30" fill="none" stroke="none" pointer-events="stroke"/><path d="M 197.95 32.96 M 200.11 33.42 C 198.13 28.88 200.99 24.24 202.13 19.04 M 199.04 34.3 C 199.43 28.72 199.59 23.91 200.81 18.72 M 200.81 18.93 C 202.79 10.6 206.49 7.82 213.59 10.26 M 200.22 17.91 C 200.97 10.49 205.22 8.94 212.7 8.41 M 211.63 9.49 C 213.41 8.95 214.02 8.97 216.6 8.52 M 211.98 8.81 C 213.39 9.22 214.58 9.2 217.06 8.85 M 217 9 C 218.73 7.63 220.16 13.31 223.51 17.02 M 218.86 7.75 C 219.17 7.48 224.21 14.32 221.83 18.73 M 221.88 19.4 C 222.01 20.52 222.26 23.48 222.37 30.8 M 222.53 19.11 C 222.34 22.29 222.33 25.95 222.12 29.74" fill="none" stroke="#000000" stroke-width="4" stroke-linejoin="round" stroke-linecap="round" stroke-miterlimit="10" pointer-events="stroke"/><path d="M 218 55 L 225 57 Q 232 59 237.14 50.43 L 240.57 44.71 Q 244 39 234.81 35.06 L 223 30" fill="none" stroke="none" pointer-events="stroke"/><path d="M 216.95 53.44 M 217.43 55.3 C 221.3 56.5 223.2 57 224.68 56.31 M 217.9 55.11 C 219.82 55.93 222.06 56.29 224.95 56.84 M 225 57 C 228.37 56.79 233.94 54.35 236.77 49.49 M 224.32 58.57 C 231.17 58.81 234.87 57.04 238.85 52.25 M 237.05 50.38 C 238.55 47.96 239.09 46.17 241.09 45.17 M 237.09 50.25 C 237.79 49.04 238.68 47.78 240.39 44.79 M 240.57 44.71 C 244.28 39.2 240.41 36.5 236.46 36.69 M 240.63 43.4 C 243.78 39.08 241.28 36.94 236.07 34.96 M 234.71 34.93 C 231.29 34.1 230.03 33.88 222.93 31.02 M 234.4 34.96 C 231.03 33.21 226.73 32.33 223.26 30.25" fill="none" stroke="#000000" stroke-width="4" stroke-linejoin="round" stroke-linecap="round" stroke-miterlimit="10" pointer-events="stroke"/><path d="M 198 199 L 193 204 Q 188 209 196.14 214.81 L 202.57 219.41 Q 209 224 213.96 215.32 L 221 203" fill="none" stroke="none" pointer-events="stroke"/><path d="M 196.95 197.78 M 198.04 199 C 196.25 199.91 195.3 201.91 192.84 203.87 M 197.7 199.04 C 197.12 200.16 196.03 201.26 193.01 204.04 M 193 204 C 188.62 208.89 190.17 212.94 194.22 213.41 M 192.67 204.96 C 189.59 208.75 190.25 212.3 194.55 213.6 M 196.84 214.28 C 197.73 215.69 200.23 217.13 202.81 219.09 M 196.33 214.56 C 198.62 216.07 200.33 218.14 202.38 219.05 M 202.57 219.41 C 207.87 222.75 210 222.01 213.43 215.48 M 204.36 217.55 C 205.15 224.39 211.54 222.11 212.78 216.69 M 213.33 214.63 C 215.67 210.32 218.87 208.72 221.41 202.32 M 213.65 215.71 C 216.12 211.02 219.1 206.48 220.91 203.11" fill="none" stroke="#000000" stroke-width="4" stroke-linejoin="round" stroke-linecap="round" stroke-miterlimit="10" pointer-events="stroke"/><path d="M 219 185 L 227.5 181.5 Q 236 178 238.17 187.76 L 240.08 196.38 Q 242 205 232.09 203.65 L 220 202" fill="none" stroke="none" pointer-events="stroke"/><path d="M 217.95 184.12 M 219.82 184.61 C 221.17 183.47 223.7 184.31 227.49 182.05 M 219.28 184.96 C 222.02 183.44 224.88 182.37 227.59 181.8 M 227.5 181.5 C 232.37 179.83 235.41 183.04 238.71 185.9 M 227.53 181.85 C 231.51 176.93 234.65 183.07 237.88 188.12 M 238.1 188.41 C 237.79 189.19 238.89 190.97 239.93 196.81 M 237.77 187.45 C 238.52 190.8 239.33 192.76 239.9 196.36 M 240.08 196.38 C 241.96 200.39 237.93 203.53 233.38 202.34 M 239.61 197.97 C 241.63 203.2 240.13 202.71 233.06 201.9 M 231.11 202.59 C 229.14 203.77 226.74 201.78 220.78 202.31 M 231.95 203.2 C 227.38 202.76 223.5 201.96 219.59 201.95" fill="none" stroke="#000000" stroke-width="4" stroke-linejoin="round" stroke-linecap="round" stroke-miterlimit="10" pointer-events="stroke"/><path d="M 27 198 L 24.71 211.15 Q 23 221 32.64 218.34 L 42.36 215.66 Q 52 213 49.5 205.5 L 47 198" fill="none" stroke="none" pointer-events="stroke"/><path d="M 25.95 197.46 M 26.65 196.88 C 24.9 201.65 24.87 207.26 24.99 210.3 M 27.03 197.82 C 26.95 202.56 25.41 205.95 24.96 210.61 M 24.71 211.15 C 23.02 217.47 28.13 221.69 31.63 220.01 M 25.1 210.89 C 24.94 216.42 27.12 222.4 33.65 220.28 M 33.59 218.49 C 36.25 217.22 38.14 216.2 41.71 215.03 M 32.5 217.94 C 35.21 218.08 37.96 217.28 42.18 216.07 M 42.36 215.66 C 48.98 214.14 50.27 211.57 48.62 206.71 M 43.63 216.7 C 51.04 214.11 53.14 210.42 48.03 205.22 M 50.16 206.09 C 48.81 202.69 47.95 199.88 47.78 198.78 M 49.49 205.49 C 48.86 202.63 48 199.9 47.31 197.88" fill="none" stroke="#000000" stroke-width="4" stroke-linejoin="round" stroke-linecap="round" stroke-miterlimit="10" pointer-events="stroke"/><path d="M 28 196 L 15.65 192.63 Q 6 190 5 184.5 L 4.5 181.75 Q 4 179 9.5 172 L 12.25 168.5 Q 15 165 22 169.5 L 29 174" fill="none" stroke="none" pointer-events="stroke"/><path d="M 26.95 195.8 M 28.74 196.95 C 24.45 194.36 21.77 193.32 16.19 192.81 M 27.67 195.71 C 24.82 195.23 21.75 194.04 16 192.45 M 15.65 192.63 C 8.92 189.73 6.81 189.54 6.45 185.71 M 16.4 191.76 C 9.01 190.52 4.96 186.31 2.71 183.41 M 4.99 184.38 C 4.83 183.79 4.87 183.01 4.75 181.83 M 5.05 184.38 C 5 183.98 4.67 183.28 4.46 181.7 M 4.5 181.75 C 3.95 178.15 4.82 175.82 10.44 171.74 M 3.5 182.24 C 3.79 179.29 3.75 178.35 10.18 173.19 M 9.71 172.16 C 10.45 171.51 10.99 170.06 11.95 168.37 M 9.54 172.15 C 10.55 170.61 11.49 169.34 12.31 168.38 M 12.25 168.5 C 14.4 167.59 18.99 168.09 23.38 170.1 M 11.13 167.72 C 16.26 165.69 15.39 166.71 23.7 171.17 M 21.27 169.86 C 25.23 171.16 27.54 173.42 29.63 173.2 M 22.2 169.36 C 23.83 171.19 26.5 172.24 28.85 173.79" fill="none" stroke="#000000" stroke-width="4" stroke-linejoin="round" stroke-linecap="round" stroke-miterlimit="10" pointer-events="stroke"/></g></svg>