<?xml version="1.0" encoding="UTF-8"?>
<!DOCTYPE svg PUBLIC "-//W3C//DTD SVG 1.1//EN" "http://www.w3.org/Graphics/SVG/1.1/DTD/svg11.dtd">
<svg xmlns="http://www.w3.org/2000/svg" xmlns:xlink="http://www.w3.org/1999/xlink" version="1.1" width="40px" height="29px" viewBox="-0.5 -0.5 40 29"><defs/><g><path d="M 20 0.5 L 30 10.5 L 20 20.5 L 10 10.5 Z" fill="none" stroke="none" pointer-events="all"/><path d="M 9.89 10.63 C 9.89 10.63 9.89 10.63 9.89 10.63 M 9.89 10.63 C 9.89 10.63 9.89 10.63 9.89 10.63 M 11.95 12.07 C 15.87 10.75 17.81 8.94 22.58 2.51 M 12.21 12.76 C 14.83 10.03 17.25 7.77 21.96 2.48 M 17.09 16.81 C 19.48 13.9 20.01 10.04 25.87 6.51 M 15.29 15.21 C 18.01 13.38 20.31 10.95 24.59 4.96 M 18.23 20.54 C 21.76 14.71 24.65 10.84 27.55 7.82 M 18.87 18.68 C 20.35 16.49 23.81 13.39 28.46 8.59" fill="none" stroke="#f8cecc" stroke-linejoin="round" stroke-linecap="round" stroke-miterlimit="10" pointer-events="all"/><path d="M 21.46 -1.14 M 20.78 1.83 C 22.05 4.04 27.07 7.94 29.25 9.15 M 20.17 -0.01 C 23.83 4.29 28.3 7.86 29.32 10.03 M 29.96 9.63 C 27.87 13.82 24.79 13.89 20.54 19.12 M 29.68 10.84 C 27.56 13.1 24.46 16.11 20.21 21.01 M 19.11 20.96 C 16.65 17.52 14.61 13.77 9.41 11.35 M 20.66 20.55 C 16.64 17.48 14.1 14.26 9.3 10.29 M 9.32 9.96 C 14.6 8.35 18.07 4.05 21.17 0.13 M 10.13 10.56 C 13.42 6.61 17.09 3.22 20.22 0.36" fill="none" stroke="#b85450" stroke-linejoin="round" stroke-linecap="round" stroke-miterlimit="10" pointer-events="all"/><rect x="0" y="7.5" width="39" height="20" fill="none" stroke="none" pointer-events="all"/><path d="M 0.08 7.41 C 0.08 7.41 0.08 7.41 0.08 7.41 M 0.08 7.41 C 0.08 7.41 0.08 7.41 0.08 7.41 M -0.35 14.17 C 1.27 11.95 3.4 9.05 5.32 7.1 M -0.05 13.96 C 2.18 11.64 3.74 9.54 5.12 7.62 M 1.1 19.14 C 2.23 14.69 8.88 11 10.81 8.84 M 0.25 20.08 C 4.09 15.06 8.34 11.1 11.51 6.78 M -0.56 25.32 C 7.01 19.05 12.53 13.82 14.14 8.61 M -0.68 24.92 C 5.01 21.27 9.1 15.09 16.14 7.61 M 0.39 28.02 C 8.44 19.2 18.54 11.07 21.54 6.11 M 2.5 28.31 C 8.21 22.7 15.14 16.11 21.87 8.08 M 7.18 28.82 C 14.11 24.45 21.31 15.7 25.31 9.6 M 6.79 30.37 C 15.01 20.7 21.76 13.46 25.58 7.64 M 13.37 27.2 C 20.46 22.03 27.54 11.87 32.14 9.19 M 13.37 29.91 C 17.57 24.45 19.68 20.68 32.59 7.07 M 16.43 27.61 C 20.53 23.65 27.04 18.73 38.71 7.43 M 18.38 28.94 C 25.11 23.2 30.16 16.11 36.74 6.78 M 24.6 29.4 C 27.61 23.28 33.53 14.48 41.78 9.7 M 23.91 28.82 C 28.04 24.74 31.46 20.56 39.7 10.46 M 30.32 30.98 C 31.93 26.9 36.51 20.19 41.05 14.72 M 28.9 29.69 C 31.83 24.09 36.35 20.13 40.2 15.7 M 33.48 28.72 C 36.53 27.82 36.6 25.32 40.31 21.7 M 33.86 29 C 36.05 27.71 37.15 26.13 40.28 21.17" fill="none" stroke="#647687" stroke-linejoin="round" stroke-linecap="round" stroke-miterlimit="10" pointer-events="all"/><path d="M -1.57 6.93 C 9.75 8.85 17.87 7.24 38.44 5.89 M -0.42 7.34 C 8.79 7.02 19.48 7.61 38.12 6.58 M 37.18 6.06 C 39.75 11.01 40.39 17.5 39.08 28.37 M 39.31 6.99 C 39.44 13.66 38.49 19.83 38.22 26.56 M 39.71 26.61 C 27.07 26.86 13.12 29.25 0.93 26.81 M 38.15 27.4 C 30.29 27.04 19.8 27.23 -0.8 28.04 M 1.2 26.92 C -1.07 22.24 0.03 15.17 1.83 8.13 M -0.01 26.73 C -0.56 23.46 0.95 18.45 -0.11 8.36" fill="none" stroke="#314354" stroke-linejoin="round" stroke-linecap="round" stroke-miterlimit="10" pointer-events="all"/></g></svg>