<?xml version="1.0" encoding="UTF-8"?>
<!DOCTYPE svg PUBLIC "-//W3C//DTD SVG 1.1//EN" "http://www.w3.org/Graphics/SVG/1.1/DTD/svg11.dtd">
<svg xmlns="http://www.w3.org/2000/svg" xmlns:xlink="http://www.w3.org/1999/xlink" version="1.1" width="41px" height="31px" viewBox="-0.5 -0.5 41 31"><defs/><g><path d="M 20 0.5 L 40 15.5 L 20 30.5 L 0 15.5 Z" fill="none" stroke="none" pointer-events="all"/><path d="M 0.3 15.15 C 0.3 15.15 0.3 15.15 0.3 15.15 M 0.3 15.15 C 0.3 15.15 0.3 15.15 0.3 15.15 M 3.16 18.51 C 5.25 14.36 9.04 12.26 16.71 5.85 M 3.42 18.45 C 6.79 13.65 9.59 10.56 14.8 4.31 M 7.73 20.78 C 11.19 14.73 14.74 9.55 23.34 3.22 M 6.58 19.51 C 11 16.15 16.32 10.03 22.15 1.61 M 9.86 22.28 C 12.76 16.5 17.54 12.81 23.33 6.45 M 9.17 22.65 C 14.22 16.54 19.73 11.88 25.98 4.96 M 14.82 26.22 C 17.54 19.05 20.52 17.45 28.75 6.16 M 12.49 24.68 C 19.24 18.18 25.46 10.79 27.89 6.9 M 14.37 28.07 C 17.66 21.56 21.33 20.59 31.01 8.67 M 15.41 27.78 C 19.13 24.05 24 19.02 32.67 8.45 M 19.62 30.11 C 26.52 23.01 32.36 17.31 33.89 10.12 M 19.82 29.6 C 24.21 24.2 30.17 17.29 35.64 12.58 M 23.44 31.51 C 26.34 29.18 26.83 23.13 35.89 14.49 M 21.49 32.72 C 28.41 26.97 33.05 20.01 37.49 13.69" fill="none" stroke="#f8cecc" stroke-linejoin="round" stroke-linecap="round" stroke-miterlimit="10" pointer-events="all"/><path d="M 18.71 2.37 M 19.06 0.6 C 26.27 5.95 28.33 6.05 41.85 14.16 M 19.13 -0.1 C 25.47 5.16 29.75 8.52 40.86 15.84 M 40.31 14.15 C 34.12 19.48 23.5 28.48 18.36 30.32 M 39.75 15.96 C 33.67 20.35 27.33 23.94 20.62 31.45 M 18.03 32.24 C 12.08 24.81 4.09 19.12 -0.17 15.66 M 20.46 31.2 C 11.41 24.11 4.8 18.48 0.6 15.9 M -1.07 15.69 C 9.27 8.11 14.46 3.99 21.64 0.84 M 0.35 16.14 C 6.73 8.89 14.55 4.11 19.34 1.04" fill="none" stroke="#b85450" stroke-linejoin="round" stroke-linecap="round" stroke-miterlimit="10" pointer-events="all"/></g></svg>