<?xml version="1.0" encoding="UTF-8"?>
<!DOCTYPE svg PUBLIC "-//W3C//DTD SVG 1.1//EN" "http://www.w3.org/Graphics/SVG/1.1/DTD/svg11.dtd">
<svg xmlns="http://www.w3.org/2000/svg" xmlns:xlink="http://www.w3.org/1999/xlink" version="1.1" width="84px" height="225px" viewBox="-0.5 -0.5 84 225"><defs/><g><path d="M -1.81 1.02 L 83.74 -1.04 L 83.43 222.12 L -0.34 222.27" fill="#ffffff" stroke="none" pointer-events="all"/><path d="M 0.49 -1.53 C 19.76 -0.53 40 1.97 84.12 -0.04 M -0.61 -0.2 C 27.52 -0.18 52.69 0.23 82.73 -0.73 M 81.53 1.64 C 84.67 55.91 85.39 107.51 82.66 224.59 M 82.7 0.12 C 85.55 47.44 84.25 93.46 83.72 224.38 M 81.77 222.57 C 52.7 224.1 23.79 224.12 -0.75 222.17 M 83.86 223.14 C 62.7 223.22 42.64 223.07 0.85 223.67 M 0.81 223 C 1.26 149.17 -0.09 75.68 -1.31 1.6 M 0.24 224.18 C 1.3 145.05 1.38 66.18 -0.78 -0.8" fill="none" stroke="#000000" stroke-linejoin="round" stroke-linecap="round" stroke-miterlimit="10" pointer-events="all"/></g></svg>