<?xml version="1.0" encoding="UTF-8"?>
<!DOCTYPE svg PUBLIC "-//W3C//DTD SVG 1.1//EN" "http://www.w3.org/Graphics/SVG/1.1/DTD/svg11.dtd">
<svg xmlns="http://www.w3.org/2000/svg" xmlns:xlink="http://www.w3.org/1999/xlink" version="1.1" width="821px" height="20px" viewBox="-0.5 -0.5 821 20"><defs/><g><path d="M 803.63 8.02 L 14.2 9.98" fill="none" stroke="none" pointer-events="stroke"/><path d="M 808.88 8 L 801.89 11.52 L 803.63 8.02 L 801.87 4.52 Z" fill="none" stroke="none" pointer-events="all"/><path d="M 8.95 10 L 15.94 6.48 L 14.2 9.98 L 15.96 13.48 Z" fill="none" stroke="none" pointer-events="all"/><path d="M 804.72 8.32 M 803.88 7.28 C 587.05 10.92 370.95 10.76 13.84 10.42 M 803.79 8.19 C 521.82 6.86 240.41 7.54 13.93 9.9" fill="none" stroke="#000000" stroke-linejoin="round" stroke-linecap="round" stroke-miterlimit="10" pointer-events="stroke"/><path d="M 801.81 4.59 C 801.81 4.59 801.81 4.59 801.81 4.59 M 801.81 4.59 C 801.81 4.59 801.81 4.59 801.81 4.59 M 804.15 7.85 C 804.57 7.7 804.9 7.43 805.45 6.41 M 804.11 8.05 C 804.49 7.61 804.67 7.43 805.55 6.48" fill="none" stroke="#000000" stroke-linejoin="round" stroke-linecap="round" stroke-miterlimit="10" pointer-events="all"/><path d="M 809.48 6.62 M 809.32 8.34 C 806.37 9.01 804.1 11.22 801.76 11.89 M 808.66 8.16 C 807.09 8.85 805.42 9.55 801.6 11.33 M 802.02 11.22 C 802.39 10.99 802.96 10.45 803.48 8.29 M 801.81 11.7 C 802.61 10.41 802.93 9.27 803.65 8.16 M 803.88 8.05 C 803.41 7.3 802.65 5.93 802.02 4.36 M 803.48 7.83 C 802.98 6.89 802.68 5.85 801.69 4.7 M 801.91 5.21 C 804.62 5.17 806.64 7.32 808.86 7.41 M 801.58 4.46 C 803.96 5.51 806.12 6.75 808.72 7.89" fill="none" stroke="#000000" stroke-linejoin="round" stroke-linecap="round" stroke-miterlimit="10" pointer-events="all"/><path d="M 9.11 9.82 C 9.11 9.82 9.11 9.82 9.11 9.82 M 9.11 9.82 C 9.11 9.82 9.11 9.82 9.11 9.82 M 12.77 11.56 C 13.18 11.42 13.51 11.15 14.06 10.13 M 12.73 11.77 C 13.11 11.33 13.28 11.15 14.16 10.2" fill="none" stroke="#000000" stroke-linejoin="round" stroke-linecap="round" stroke-miterlimit="10" pointer-events="all"/><path d="M 9.55 8.62 M 9.39 10.34 C 11.37 8.41 14.1 8.1 15.81 6.85 M 8.73 10.16 C 10.25 9.17 11.67 8.3 15.65 6.29 M 16.07 6.18 C 15.7 7.33 15.57 8.19 14.05 10.25 M 15.86 6.66 C 15.47 7.62 14.66 8.75 14.22 10.12 M 14.45 10.01 C 15.05 11.37 15.35 12.09 16.11 13.32 M 14.05 9.79 C 14.62 10.85 15.33 11.81 15.78 13.66 M 16 14.17 C 14.01 11.7 11.39 11.54 8.93 9.41 M 15.67 13.42 C 13.51 12.36 11.19 11.38 8.79 9.89" fill="none" stroke="#000000" stroke-linejoin="round" stroke-linecap="round" stroke-miterlimit="10" pointer-events="all"/></g></svg>