<?xml version="1.0" encoding="UTF-8"?>
<!DOCTYPE svg PUBLIC "-//W3C//DTD SVG 1.1//EN" "http://www.w3.org/Graphics/SVG/1.1/DTD/svg11.dtd">
<svg xmlns="http://www.w3.org/2000/svg" xmlns:xlink="http://www.w3.org/1999/xlink" version="1.1" width="232px" height="19px" viewBox="-0.5 -0.5 232 19"><defs/><g><path d="M 214.8 8.01 L 14.37 8.16" fill="none" stroke="none" pointer-events="stroke"/><path d="M 220.05 8 L 213.05 11.51 L 214.8 8.01 L 213.05 4.51 Z" fill="none" stroke="none" pointer-events="all"/><path d="M 9.12 8.17 L 16.12 4.66 L 14.37 8.16 L 16.12 11.66 Z" fill="none" stroke="none" pointer-events="all"/><path d="M 215.89 8.65 M 213.27 9.19 C 136.78 9.58 58.34 9.96 13.95 6.93 M 214.66 8.23 C 155 10.02 94.54 8.67 13.92 8.47" fill="none" stroke="#000000" stroke-linejoin="round" stroke-linecap="round" stroke-miterlimit="10" pointer-events="stroke"/><path d="M 213.34 4.17 C 213.34 4.17 213.34 4.17 213.34 4.17 M 213.34 4.17 C 213.34 4.17 213.34 4.17 213.34 4.17 M 214.96 8.15 C 215.54 7.72 216.17 7.45 216.88 6.13 M 215.16 8.45 C 215.58 7.62 216.12 7.03 217.03 5.97" fill="none" stroke="#000000" stroke-linejoin="round" stroke-linecap="round" stroke-miterlimit="10" pointer-events="all"/><path d="M 220.97 9.14 M 220.11 7.48 C 217.65 9.42 215.2 10.19 212.73 10.91 M 220.19 7.88 C 217.4 8.77 215.78 10.66 213.1 11.22 M 213.03 11.3 C 213.21 10.29 214.15 9.14 214.51 8.13 M 213.01 11.37 C 213.54 10.3 214.45 9.03 214.86 7.89 M 215.09 7.83 C 214.58 6.79 213.66 6.27 212.9 4.55 M 214.68 8.15 C 214.27 6.84 213.82 5.88 213.14 4.61 M 212.84 4.3 C 216.28 5.45 217.83 7.34 220.37 7.92 M 213.27 4.4 C 215.33 6.13 218.35 6.82 219.96 7.99" fill="none" stroke="#000000" stroke-linejoin="round" stroke-linecap="round" stroke-miterlimit="10" pointer-events="all"/><path d="M 9.12 8.17 C 9.12 8.17 9.12 8.17 9.12 8.17 M 9.12 8.17 C 9.12 8.17 9.12 8.17 9.12 8.17 M 12.73 9.94 C 13.12 9.65 13.54 9.47 14.02 8.59 M 12.87 10.14 C 13.15 9.58 13.51 9.19 14.11 8.48" fill="none" stroke="#000000" stroke-linejoin="round" stroke-linecap="round" stroke-miterlimit="10" pointer-events="all"/><path d="M 10.04 9.31 M 9.18 7.65 C 11.68 7.16 14.22 5.43 15.8 4.06 M 9.26 8.05 C 11.12 6.63 14.16 6.18 16.17 4.37 M 16.1 4.45 C 15.25 5.5 15.17 6.41 14.08 8.28 M 16.08 4.52 C 15.38 5.93 15.04 7.16 14.43 8.04 M 14.66 7.98 C 15.04 8.68 15 9.91 15.97 11.7 M 14.25 8.3 C 14.82 9.04 15.38 10.12 16.21 11.76 M 15.91 11.45 C 13.96 9.95 10.12 9.15 9.44 8.09 M 16.34 11.55 C 13.18 10.53 10.92 8.59 9.03 8.16" fill="none" stroke="#000000" stroke-linejoin="round" stroke-linecap="round" stroke-miterlimit="10" pointer-events="all"/></g></svg>