<?xml version="1.0" encoding="UTF-8"?>
<!DOCTYPE svg PUBLIC "-//W3C//DTD SVG 1.1//EN" "http://www.w3.org/Graphics/SVG/1.1/DTD/svg11.dtd">
<svg xmlns="http://www.w3.org/2000/svg" xmlns:xlink="http://www.w3.org/1999/xlink" version="1.1" width="428px" height="18px" viewBox="-0.5 -0.5 428 18"><defs/><g><path d="M 410.63 8 L 14.2 8" fill="none" stroke="none" pointer-events="stroke"/><path d="M 415.88 8 L 408.88 11.5 L 410.63 8 L 408.88 4.5 Z" fill="none" stroke="none" pointer-events="all"/><path d="M 8.95 8 L 15.95 4.5 L 14.2 8 L 15.95 11.5 Z" fill="none" stroke="none" pointer-events="all"/><path d="M 411.72 7.62 M 411.35 7.9 C 318.47 7.57 224.35 6.41 13.2 6.86 M 410.36 8.46 C 302.96 10.71 196.72 10.09 14.76 8.42" fill="none" stroke="#000000" stroke-linejoin="round" stroke-linecap="round" stroke-miterlimit="10" pointer-events="stroke"/><path d="M 408.78 4.62 C 408.78 4.62 408.78 4.62 408.78 4.62 M 408.78 4.62 C 408.78 4.62 408.78 4.62 408.78 4.62 M 411.22 7.82 C 411.52 7.21 412.33 6.87 412.54 6.61 M 411.23 8.04 C 411.51 7.52 411.76 7.27 412.44 6.44" fill="none" stroke="#000000" stroke-linejoin="round" stroke-linecap="round" stroke-miterlimit="10" pointer-events="all"/><path d="M 415.86 9.57 M 415.51 8.49 C 413.06 9.6 411.15 9.99 409.13 12.24 M 415.73 7.96 C 413 9.36 409.98 10.63 408.69 11.53 M 408.51 11.79 C 409.56 10.86 409.74 10.03 410.77 7.79 M 408.71 11.55 C 409.15 10.58 409.86 9.72 410.58 7.86 M 410.78 7.67 C 409.64 6.75 409.23 5.25 408.83 4.71 M 410.8 7.93 C 410.28 6.92 409.51 6.09 408.96 4.47 M 409.42 3.88 C 410.6 5.88 411.97 5.4 415.19 7.96 M 409.14 4.52 C 410.44 5.3 411.65 6.09 415.57 7.69" fill="none" stroke="#000000" stroke-linejoin="round" stroke-linecap="round" stroke-miterlimit="10" pointer-events="all"/><path d="M 8.86 8.1 C 8.86 8.1 8.86 8.1 8.86 8.1 M 8.86 8.1 C 8.86 8.1 8.86 8.1 8.86 8.1 M 12.65 9.71 C 13.11 8.79 14.32 8.28 14.64 7.89 M 12.66 10.03 C 13.09 9.26 13.47 8.89 14.48 7.63" fill="none" stroke="#000000" stroke-linejoin="round" stroke-linecap="round" stroke-miterlimit="10" pointer-events="all"/><path d="M 8.93 9.57 M 8.58 8.49 C 11.18 6.97 14.31 4.84 16.2 5.24 M 8.8 7.96 C 11.65 6.68 14.21 5.16 15.76 4.53 M 15.58 4.79 C 15.9 5.33 15.33 5.99 14.34 7.79 M 15.78 4.55 C 15.36 5.37 15.17 6.32 14.15 7.86 M 14.35 7.67 C 14.63 9.54 15.59 10.79 15.9 11.71 M 14.37 7.93 C 14.81 8.88 15.02 10.01 16.03 11.47 M 16.49 10.88 C 14.5 11.42 12.74 9.37 8.26 7.96 M 16.21 11.52 C 14.63 10.89 12.97 10.24 8.64 7.69" fill="none" stroke="#000000" stroke-linejoin="round" stroke-linecap="round" stroke-miterlimit="10" pointer-events="all"/></g></svg>