<?xml version="1.0" encoding="UTF-8"?>
<!DOCTYPE svg PUBLIC "-//W3C//DTD SVG 1.1//EN" "http://www.w3.org/Graphics/SVG/1.1/DTD/svg11.dtd">
<svg xmlns="http://www.w3.org/2000/svg" xmlns:xlink="http://www.w3.org/1999/xlink" version="1.1" width="202px" height="95px" viewBox="-0.5 -0.5 202 95"><defs/><g><path d="M 3 89 L 3 1" fill="none" stroke="none" pointer-events="stroke"/><path d="M 4.5 89.66 M 1.45 90.67 C 1.83 69.99 4.44 52.46 1.73 2.9 M 2.38 89.94 C 3.04 65.36 1.93 40.58 2.42 1.36" fill="none" stroke="#000000" stroke-width="2" stroke-linejoin="round" stroke-linecap="round" stroke-miterlimit="10" pointer-events="stroke"/><path d="M 36 91 L 1 91" fill="none" stroke="none" pointer-events="stroke"/><path d="M 34.38 91.42 M 35.85 90.21 C 25.66 91.09 15.33 90 0.15 89.1 M 36.85 91.55 C 23.83 91.23 12.37 91.01 0.09 90.52" fill="none" stroke="#000000" stroke-width="2" stroke-linejoin="round" stroke-linecap="round" stroke-miterlimit="10" pointer-events="stroke"/><path d="M 26 49 L 7 49" fill="none" stroke="none" pointer-events="stroke"/><path d="M 24.38 49.76 M 27.46 47.46 C 23.08 49.19 18.58 50.17 6.6 48.66 M 26.27 49.34 C 19.62 48.3 14.14 48.57 6.3 49.06" fill="none" stroke="#000000" stroke-width="2" stroke-linejoin="round" stroke-linecap="round" stroke-miterlimit="10" pointer-events="stroke"/><path d="M 33 2 L 6 2" fill="none" stroke="none" pointer-events="stroke"/><path d="M 31.38 3.1 M 32.21 3.54 C 22.7 2.32 17.07 1.48 6.01 3.19 M 32.72 2.17 C 26.86 2.83 19.92 1.62 5.44 2.6" fill="none" stroke="#000000" stroke-width="2" stroke-linejoin="round" stroke-linecap="round" stroke-miterlimit="10" pointer-events="stroke"/><path d="M 179 93 L 179 5" fill="none" stroke="none" pointer-events="stroke"/><path d="M 177.38 94.78 M 177.57 92.86 C 179.97 62.07 178.58 29.52 179.86 5.28 M 179.6 92.8 C 179.26 63.8 179.32 37.35 178.79 4.67" fill="none" stroke="#000000" stroke-width="2" stroke-linejoin="round" stroke-linecap="round" stroke-miterlimit="10" pointer-events="stroke"/><path d="M 200 1 L 151 1" fill="none" stroke="none" pointer-events="stroke"/><path d="M 198.38 -0.88 M 200.25 0.03 C 184.84 2.2 173.33 -0.27 152.29 2.82 M 200.04 0.62 C 186.51 1.67 174.96 1.99 150.96 1.21" fill="none" stroke="#000000" stroke-width="2" stroke-linejoin="round" stroke-linecap="round" stroke-miterlimit="10" pointer-events="stroke"/><path d="M 126 93 L 126 5" fill="none" stroke="none" pointer-events="stroke"/><path d="M 124.38 91.46 M 127.93 91.19 C 126.86 76.65 125 58.37 127.72 4.36 M 125.48 92.43 C 125.82 74.29 124.55 56.86 126.14 5.75" fill="none" stroke="#000000" stroke-width="2" stroke-linejoin="round" stroke-linecap="round" stroke-miterlimit="10" pointer-events="stroke"/><path d="M 102 93 L 62 1" fill="none" stroke="none" pointer-events="stroke"/><path d="M 100.38 92.14 M 103.3 93.52 C 91.21 68.74 83.12 46.16 60.57 -0.55 M 102.36 92.06 C 91.4 66.23 79.04 39.05 62.49 0.83" fill="none" stroke="#000000" stroke-width="2" stroke-linejoin="round" stroke-linecap="round" stroke-miterlimit="10" pointer-events="stroke"/><path d="M 52 91 L 92 1" fill="none" stroke="none" pointer-events="stroke"/><path d="M 50.38 90.48 M 50.98 90.68 C 67.51 56.69 83.54 25.9 91 0.99 M 51.8 91.87 C 61.39 69.02 71.6 48.05 92.66 1.37" fill="none" stroke="#000000" stroke-width="2" stroke-linejoin="round" stroke-linecap="round" stroke-miterlimit="10" pointer-events="stroke"/></g></svg>