<?xml version="1.0" encoding="UTF-8"?>
<!DOCTYPE svg PUBLIC "-//W3C//DTD SVG 1.1//EN" "http://www.w3.org/Graphics/SVG/1.1/DTD/svg11.dtd">
<svg xmlns="http://www.w3.org/2000/svg" xmlns:xlink="http://www.w3.org/1999/xlink" version="1.1" width="202px" height="95px" viewBox="-0.5 -0.5 202 95"><defs/><g><path d="M 3 89 L 3 1" fill="none" stroke="none" pointer-events="stroke"/><path d="M 1.38 88.3 M 4.62 89.43 C 4.29 60.49 4.36 30.24 3.82 0.49 M 3.91 89.58 C 3.83 59.86 3.22 30.88 3.69 1.75" fill="none" stroke="#000000" stroke-width="2" stroke-linejoin="round" stroke-linecap="round" stroke-miterlimit="10" pointer-events="stroke"/><path d="M 36 91 L 1 91" fill="none" stroke="none" pointer-events="stroke"/><path d="M 34.38 90.64 M 35.3 90.6 C 26.27 91.61 17.33 92.57 2.25 92.03 M 36.35 91.4 C 26.32 90.19 17.49 90.76 1.86 90.28" fill="none" stroke="#000000" stroke-width="2" stroke-linejoin="round" stroke-linecap="round" stroke-miterlimit="10" pointer-events="stroke"/><path d="M 26 49 L 7 49" fill="none" stroke="none" pointer-events="stroke"/><path d="M 24.38 48.98 M 26.93 47.82 C 19.41 50.22 11.99 49.34 8.59 47.65 M 25.8 49.2 C 22.81 49.25 16.86 48.37 6.08 48.83" fill="none" stroke="#000000" stroke-width="2" stroke-linejoin="round" stroke-linecap="round" stroke-miterlimit="10" pointer-events="stroke"/><path d="M 33 2 L 6 2" fill="none" stroke="none" pointer-events="stroke"/><path d="M 31.38 2.32 M 31.66 3.92 C 27.06 3.47 18.57 0.67 4.1 2.12 M 32.23 2.03 C 23.35 1.81 13.03 1.39 5.21 2.36" fill="none" stroke="#000000" stroke-width="2" stroke-linejoin="round" stroke-linecap="round" stroke-miterlimit="10" pointer-events="stroke"/><path d="M 179 93 L 179 5" fill="none" stroke="none" pointer-events="stroke"/><path d="M 177.38 94 M 177.02 93.25 C 180.24 65.73 179.15 33.96 177.95 4.21 M 179.1 92.65 C 179.47 71.48 179.53 50.45 178.56 4.44" fill="none" stroke="#000000" stroke-width="2" stroke-linejoin="round" stroke-linecap="round" stroke-miterlimit="10" pointer-events="stroke"/><path d="M 200 1 L 151 1" fill="none" stroke="none" pointer-events="stroke"/><path d="M 198.38 2.34 M 199.7 0.41 C 185.89 -0.45 176.2 3.12 150.38 1.75 M 199.54 0.47 C 180.25 0.6 162.59 1.71 150.74 0.98" fill="none" stroke="#000000" stroke-width="2" stroke-linejoin="round" stroke-linecap="round" stroke-miterlimit="10" pointer-events="stroke"/><path d="M 126 93 L 126 5" fill="none" stroke="none" pointer-events="stroke"/><path d="M 124.38 94.68 M 127.38 91.57 C 125.36 58.7 123.81 27.62 125.81 3.3 M 126.98 92.28 C 126.03 64.37 124.75 34.76 125.91 5.51" fill="none" stroke="#000000" stroke-width="2" stroke-linejoin="round" stroke-linecap="round" stroke-miterlimit="10" pointer-events="stroke"/><path d="M 102 93 L 62 1" fill="none" stroke="none" pointer-events="stroke"/><path d="M 100.38 94.5 M 102.03 92.33 C 89.97 62.64 77.5 30 63.63 2.79 M 102.09 94 C 91.92 71.84 84.31 52.46 61.94 1.89" fill="none" stroke="#000000" stroke-width="2" stroke-linejoin="round" stroke-linecap="round" stroke-miterlimit="10" pointer-events="stroke"/><path d="M 52 91 L 92 1" fill="none" stroke="none" pointer-events="stroke"/><path d="M 50.38 92.84 M 53.71 89.49 C 60.01 68.76 71.2 46.1 90.06 0.34 M 51.53 91.81 C 66.43 58.27 79.88 24.96 92.11 0.43" fill="none" stroke="#000000" stroke-width="2" stroke-linejoin="round" stroke-linecap="round" stroke-miterlimit="10" pointer-events="stroke"/></g></svg>