<?xml version="1.0" encoding="UTF-8"?>
<!DOCTYPE svg PUBLIC "-//W3C//DTD SVG 1.1//EN" "http://www.w3.org/Graphics/SVG/1.1/DTD/svg11.dtd">
<svg xmlns="http://www.w3.org/2000/svg" xmlns:xlink="http://www.w3.org/1999/xlink" version="1.1" width="202px" height="95px" viewBox="-0.5 -0.5 202 95"><defs/><g><path d="M 3 89 L 3 1" fill="none" stroke="none" pointer-events="stroke"/><path d="M 4.16 87.75 M 1.41 87.73 C 0.56 58.22 2.3 28.39 1.99 2.5 M 2.59 88.4 C 3.6 68.97 3.36 50.3 2.1 0.68" fill="none" stroke="#000000" stroke-width="2" stroke-linejoin="round" stroke-linecap="round" stroke-miterlimit="10" pointer-events="stroke"/><path d="M 36 91 L 1 91" fill="none" stroke="none" pointer-events="stroke"/><path d="M 37.16 90.09 M 36.09 92.89 C 26.5 90.67 18.78 89.19 0.42 90.04 M 35.03 90.21 C 22.7 91.61 11.02 90.96 0.28 91.22" fill="none" stroke="#000000" stroke-width="2" stroke-linejoin="round" stroke-linecap="round" stroke-miterlimit="10" pointer-events="stroke"/><path d="M 26 49 L 7 49" fill="none" stroke="none" pointer-events="stroke"/><path d="M 27.16 48.43 M 27.68 50 C 19.82 48.86 9.94 49.47 6.86 49.56 M 26.45 48.07 C 20.68 49.15 15.23 49.02 6.48 49.72" fill="none" stroke="#000000" stroke-width="2" stroke-linejoin="round" stroke-linecap="round" stroke-miterlimit="10" pointer-events="stroke"/><path d="M 33 2 L 6 2" fill="none" stroke="none" pointer-events="stroke"/><path d="M 34.16 1.77 M 32.45 2.22 C 23.4 2.48 16.23 1.24 6.28 0.13 M 32.91 2.84 C 25.86 1.27 18.83 1.64 5.63 1.3" fill="none" stroke="#000000" stroke-width="2" stroke-linejoin="round" stroke-linecap="round" stroke-miterlimit="10" pointer-events="stroke"/><path d="M 179 93 L 179 5" fill="none" stroke="none" pointer-events="stroke"/><path d="M 180.5 94.94 M 180.01 93.37 C 177.81 72.5 178.29 50.65 178.31 6.55 M 178.86 93.44 C 179.06 64.6 179.28 34.95 179.02 5.05" fill="none" stroke="#000000" stroke-width="2" stroke-linejoin="round" stroke-linecap="round" stroke-miterlimit="10" pointer-events="stroke"/><path d="M 200 1 L 151 1" fill="none" stroke="none" pointer-events="stroke"/><path d="M 201.5 -0.72 M 198.69 0.53 C 181.89 3.09 164.05 1.24 150.74 0.09 M 199.3 1.25 C 186 0.62 174.41 2.08 151.2 1.59" fill="none" stroke="#000000" stroke-width="2" stroke-linejoin="round" stroke-linecap="round" stroke-miterlimit="10" pointer-events="stroke"/><path d="M 126 93 L 126 5" fill="none" stroke="none" pointer-events="stroke"/><path d="M 127.5 91.96 M 124.05 94.86 C 124.88 72.76 124.65 56.73 126.59 3.18 M 126.18 92.88 C 126.16 61.74 126.37 31.01 126.55 4.67" fill="none" stroke="#000000" stroke-width="2" stroke-linejoin="round" stroke-linecap="round" stroke-miterlimit="10" pointer-events="stroke"/><path d="M 102 93 L 62 1" fill="none" stroke="none" pointer-events="stroke"/><path d="M 103.5 92.3 M 101.73 94.02 C 89.66 60.86 76.01 31.04 63.02 0.72 M 101.62 92.69 C 91.05 64.85 78.69 38.44 62.72 1.21" fill="none" stroke="#000000" stroke-width="2" stroke-linejoin="round" stroke-linecap="round" stroke-miterlimit="10" pointer-events="stroke"/><path d="M 52 91 L 92 1" fill="none" stroke="none" pointer-events="stroke"/><path d="M 53.5 90.64 M 53.41 91.18 C 62.99 66.91 72.3 47.06 93.45 2.27 M 51.06 90.5 C 61.35 69.98 71.87 47.79 92.9 1.75" fill="none" stroke="#000000" stroke-width="2" stroke-linejoin="round" stroke-linecap="round" stroke-miterlimit="10" pointer-events="stroke"/></g></svg>