<?xml version="1.0" encoding="UTF-8"?>
<!DOCTYPE svg PUBLIC "-//W3C//DTD SVG 1.1//EN" "http://www.w3.org/Graphics/SVG/1.1/DTD/svg11.dtd">
<svg xmlns="http://www.w3.org/2000/svg" xmlns:xlink="http://www.w3.org/1999/xlink" version="1.1" width="152px" height="66px" viewBox="-0.5 -0.5 152 66"><defs/><g><path d="M 32 1 L 62 1" fill="none" stroke="none" pointer-events="stroke"/><path d="M 31.82 0.78 M 32.92 -0.27 C 40.6 0.56 46.05 -0.93 60.92 -0.45 M 31.55 1.84 C 42.81 0.2 53.24 1.32 61.88 0.86" fill="none" stroke="#000000" stroke-width="2" stroke-linejoin="round" stroke-linecap="round" stroke-miterlimit="10" pointer-events="stroke"/><path d="M 32 31 L 62 31" fill="none" stroke="none" pointer-events="stroke"/><path d="M 31.82 31.12 M 30.6 32.89 C 41.65 30.98 54.48 31.62 61.35 31.09 M 32.99 31.66 C 40.19 31.66 50.25 31.29 62.05 31.4" fill="none" stroke="#000000" stroke-width="2" stroke-linejoin="round" stroke-linecap="round" stroke-miterlimit="10" pointer-events="stroke"/><path d="M 32 58 L 62 58" fill="none" stroke="none" pointer-events="stroke"/><path d="M 31.82 58.46 M 32.28 59.05 C 40.7 57.81 46.9 56.57 61.78 59.63 M 32.43 58.47 C 39.57 58.13 45.26 58.27 62.23 58.94" fill="none" stroke="#000000" stroke-width="2" stroke-linejoin="round" stroke-linecap="round" stroke-miterlimit="10" pointer-events="stroke"/><path d="M 92 4 L 122 4" fill="none" stroke="none" pointer-events="stroke"/><path d="M 91.82 4.8 M 93.96 4.22 C 105.75 4.23 115.32 5.12 122.21 3.18 M 91.87 4.28 C 102.95 2.99 114.27 3.64 122.4 3.48" fill="none" stroke="#000000" stroke-width="2" stroke-linejoin="round" stroke-linecap="round" stroke-miterlimit="10" pointer-events="stroke"/><path d="M 92 31 L 122 31" fill="none" stroke="none" pointer-events="stroke"/><path d="M 91.82 32.14 M 91.64 30.38 C 100.79 31.66 111.74 30.67 122.63 31.72 M 91.31 31.1 C 102.33 31.46 111.28 30.61 122.58 31.02" fill="none" stroke="#000000" stroke-width="2" stroke-linejoin="round" stroke-linecap="round" stroke-miterlimit="10" pointer-events="stroke"/><path d="M 92 58 L 122 58" fill="none" stroke="none" pointer-events="stroke"/><path d="M 91.82 59.48 M 93.32 56.54 C 99.84 59.08 108.16 60.21 123.06 56.27 M 92.75 57.91 C 99.72 57.92 108.29 57.59 122.75 58.56" fill="none" stroke="#000000" stroke-width="2" stroke-linejoin="round" stroke-linecap="round" stroke-miterlimit="10" pointer-events="stroke"/><path d="M 62 4 L 92 34" fill="none" stroke="none" pointer-events="stroke"/><path d="M 61.82 5.82 M 61 5.71 C 71.11 15.72 82.81 25.79 93.49 33.81 M 62.19 3.73 C 69 11 75.2 15.39 92.93 33.09" fill="none" stroke="#000000" stroke-width="2" stroke-linejoin="round" stroke-linecap="round" stroke-miterlimit="10" pointer-events="stroke"/><path d="M 64 30 L 92 56.5" fill="none" stroke="none" pointer-events="stroke"/><path d="M 63.82 28.16 M 64.68 30.87 C 71.42 38.78 79.93 43.59 93.91 57.85 M 63.63 29.54 C 73.78 39.53 82.91 49.5 91.1 56.13" fill="none" stroke="#000000" stroke-width="2" stroke-linejoin="round" stroke-linecap="round" stroke-miterlimit="10" pointer-events="stroke"/><path d="M 77 43 L 62 64" fill="none" stroke="none" pointer-events="stroke"/><path d="M 76.82 41.5 M 75.36 43.03 C 74.86 48.83 72.26 52.55 60.34 62.9 M 76.07 42.35 C 71.73 48.47 67.99 55.83 61.28 64.17" fill="none" stroke="#000000" stroke-width="2" stroke-linejoin="round" stroke-linecap="round" stroke-miterlimit="10" pointer-events="stroke"/><path d="M 97 4 L 82 25" fill="none" stroke="none" pointer-events="stroke"/><path d="M 96.82 2.84 M 97.04 3.2 C 90.38 12.55 85.74 16.91 80.77 25.44 M 97.51 3.17 C 93.75 9.71 90.19 14.38 81.45 25.71" fill="none" stroke="#000000" stroke-width="2" stroke-linejoin="round" stroke-linecap="round" stroke-miterlimit="10" pointer-events="stroke"/><path d="M 122 1 L 150 27.5" fill="none" stroke="none" pointer-events="stroke"/><path d="M 120.33 1.12 M 123.24 -0.55 C 128.93 11.14 137.84 16.92 150.39 28.42 M 121.78 0.42 C 129.63 9.49 139.09 16.4 150.02 27.81" fill="none" stroke="#000000" stroke-width="2" stroke-linejoin="round" stroke-linecap="round" stroke-miterlimit="10" pointer-events="stroke"/><path d="M 123 58 L 150 31" fill="none" stroke="none" pointer-events="stroke"/><path d="M 121.33 58.46 M 121.92 59.62 C 128.97 49.84 135.18 47.6 150.81 29.46 M 122.22 57.23 C 129.7 51.35 136.66 44.18 150.2 31.85" fill="none" stroke="#000000" stroke-width="2" stroke-linejoin="round" stroke-linecap="round" stroke-miterlimit="10" pointer-events="stroke"/><path d="M 2 31 L 30 57.5" fill="none" stroke="none" pointer-events="stroke"/><path d="M 0.33 31.8 M 2.6 31.78 C 12.64 38.48 22.22 49.58 31.24 57.51 M 2.66 30.05 C 12.41 40.12 22.95 50.33 30.37 56.89" fill="none" stroke="#000000" stroke-width="2" stroke-linejoin="round" stroke-linecap="round" stroke-miterlimit="10" pointer-events="stroke"/><path d="M 1 32 L 28 5" fill="none" stroke="none" pointer-events="stroke"/><path d="M -0.67 33.14 M -0.72 31.94 C 6.71 23.57 13.55 16.47 29.67 6.55 M 1.1 32.86 C 10.56 23.36 18.51 14.88 28.55 4.92" fill="none" stroke="#000000" stroke-width="2" stroke-linejoin="round" stroke-linecap="round" stroke-miterlimit="10" pointer-events="stroke"/></g></svg>