<?xml version="1.0" encoding="UTF-8"?>
<!DOCTYPE svg PUBLIC "-//W3C//DTD SVG 1.1//EN" "http://www.w3.org/Graphics/SVG/1.1/DTD/svg11.dtd">
<svg xmlns="http://www.w3.org/2000/svg" xmlns:xlink="http://www.w3.org/1999/xlink" version="1.1" width="152px" height="66px" viewBox="-0.5 -0.5 152 66"><defs/><g><path d="M 32 1 L 62 1" fill="none" stroke="none" pointer-events="stroke"/><path d="M 30.33 -0.84 M 31.32 2.43 C 37.78 0.42 47.54 2.86 60.95 -0.82 M 32.42 1.3 C 42.48 1.08 54.31 1.06 61.07 0.54" fill="none" stroke="#000000" stroke-width="2" stroke-linejoin="round" stroke-linecap="round" stroke-miterlimit="10" pointer-events="stroke"/><path d="M 32 31 L 62 31" fill="none" stroke="none" pointer-events="stroke"/><path d="M 30.33 29.5 M 33 31.6 C 42.83 30.85 51.96 31.41 61.38 30.72 M 31.85 31.12 C 41.86 30.55 49.32 31.04 61.25 31.08" fill="none" stroke="#000000" stroke-width="2" stroke-linejoin="round" stroke-linecap="round" stroke-miterlimit="10" pointer-events="stroke"/><path d="M 32 58 L 62 58" fill="none" stroke="none" pointer-events="stroke"/><path d="M 30.33 56.84 M 30.68 57.76 C 41.87 58.27 48.38 56.96 61.8 59.27 M 31.29 57.93 C 39.24 58.41 46.33 57.41 61.42 58.62" fill="none" stroke="#000000" stroke-width="2" stroke-linejoin="round" stroke-linecap="round" stroke-miterlimit="10" pointer-events="stroke"/><path d="M 92 4 L 122 4" fill="none" stroke="none" pointer-events="stroke"/><path d="M 90.33 3.18 M 92.36 2.92 C 102.92 4.1 116.81 4.91 122.23 2.81 M 92.73 3.74 C 104.63 3.88 115.34 3.38 121.6 3.15" fill="none" stroke="#000000" stroke-width="2" stroke-linejoin="round" stroke-linecap="round" stroke-miterlimit="10" pointer-events="stroke"/><path d="M 92 31 L 122 31" fill="none" stroke="none" pointer-events="stroke"/><path d="M 90.34 29.67 M 93.33 31.51 C 97.98 29.46 106.1 32.96 123.62 31.77 M 92.4 30.65 C 103.02 30.3 111.56 31 121.45 32" fill="none" stroke="#000000" stroke-width="2" stroke-linejoin="round" stroke-linecap="round" stroke-miterlimit="10" pointer-events="stroke"/><path d="M 92 58 L 122 58" fill="none" stroke="none" pointer-events="stroke"/><path d="M 90.34 57.01 M 91.01 57.68 C 103.02 56.28 114.52 57.91 120.05 56.31 M 91.84 57.46 C 100.4 58.17 108.57 57.37 121.62 57.53" fill="none" stroke="#000000" stroke-width="2" stroke-linejoin="round" stroke-linecap="round" stroke-miterlimit="10" pointer-events="stroke"/><path d="M 62 4 L 92 34" fill="none" stroke="none" pointer-events="stroke"/><path d="M 60.34 3.35 M 62.69 2.84 C 71.87 10.91 76.74 18.87 90.48 33.85 M 61.28 3.27 C 67.71 10.41 75.51 16.91 91.8 34.07" fill="none" stroke="#000000" stroke-width="2" stroke-linejoin="round" stroke-linecap="round" stroke-miterlimit="10" pointer-events="stroke"/><path d="M 64 30 L 92 56.5" fill="none" stroke="none" pointer-events="stroke"/><path d="M 62.34 29.69 M 62.37 28 C 74.53 39.56 85.99 51.87 90.91 57.9 M 64.72 29.09 C 74.45 40.86 85.14 48.87 91.97 57.11" fill="none" stroke="#000000" stroke-width="2" stroke-linejoin="round" stroke-linecap="round" stroke-miterlimit="10" pointer-events="stroke"/><path d="M 77 43 L 62 64" fill="none" stroke="none" pointer-events="stroke"/><path d="M 75.34 43.03 M 77.05 44.17 C 73.07 48.79 68.56 55.38 61.33 62.94 M 77.16 43.9 C 71.58 49.77 68.58 57.06 62.15 63.15" fill="none" stroke="#000000" stroke-width="2" stroke-linejoin="round" stroke-linecap="round" stroke-miterlimit="10" pointer-events="stroke"/><path d="M 97 4 L 82 25" fill="none" stroke="none" pointer-events="stroke"/><path d="M 95.34 4.37 M 98.73 4.33 C 91.59 8.61 88.04 15.65 81.76 25.48 M 96.6 4.71 C 93.6 8.71 88.78 15.31 82.32 24.69" fill="none" stroke="#000000" stroke-width="2" stroke-linejoin="round" stroke-linecap="round" stroke-miterlimit="10" pointer-events="stroke"/><path d="M 122 1 L 150 27.5" fill="none" stroke="none" pointer-events="stroke"/><path d="M 120.34 1.71 M 121.41 0.49 C 131.3 10.21 140.96 19.84 150.19 25.53 M 121.04 1.53 C 132.29 12.44 143.8 22.75 150.5 27.73" fill="none" stroke="#000000" stroke-width="2" stroke-linejoin="round" stroke-linecap="round" stroke-miterlimit="10" pointer-events="stroke"/><path d="M 123 58 L 150 31" fill="none" stroke="none" pointer-events="stroke"/><path d="M 121.34 59.05 M 124.09 56.66 C 131.36 50.8 138.28 41.74 150.61 30.57 M 123.48 58.34 C 132.8 48.53 141.71 39.56 150.67 31.76" fill="none" stroke="#000000" stroke-width="2" stroke-linejoin="round" stroke-linecap="round" stroke-miterlimit="10" pointer-events="stroke"/><path d="M 2 31 L 30 57.5" fill="none" stroke="none" pointer-events="stroke"/><path d="M 0.34 32.39 M 0.77 32.82 C 11.54 42.11 25.87 53.07 31.04 58.61 M 1.92 31.15 C 9.46 37.76 18.46 46.08 30.85 56.8" fill="none" stroke="#000000" stroke-width="2" stroke-linejoin="round" stroke-linecap="round" stroke-miterlimit="10" pointer-events="stroke"/><path d="M 1 32 L 28 5" fill="none" stroke="none" pointer-events="stroke"/><path d="M -0.66 33.73 M 1.45 32.98 C 9.64 23.98 17.19 14.07 29.47 3.66 M 0.36 31.97 C 7.71 25.95 14.23 19.06 27.02 4.84" fill="none" stroke="#000000" stroke-width="2" stroke-linejoin="round" stroke-linecap="round" stroke-miterlimit="10" pointer-events="stroke"/></g></svg>