<?xml version="1.0" encoding="UTF-8"?>
<!DOCTYPE svg PUBLIC "-//W3C//DTD SVG 1.1//EN" "http://www.w3.org/Graphics/SVG/1.1/DTD/svg11.dtd">
<svg xmlns="http://www.w3.org/2000/svg" xmlns:xlink="http://www.w3.org/1999/xlink" version="1.1" width="152px" height="66px" viewBox="-0.5 -0.5 152 66"><defs/><g><path d="M 32 1 L 62 1" fill="none" stroke="none" pointer-events="stroke"/><path d="M 30.34 2.55 M 31.1 2.73 C 41.51 -0.34 47.61 -0.91 61.29 -0.84 M 32.46 0.68 C 41.23 1.97 51.88 0.95 61.05 1.22" fill="none" stroke="#000000" stroke-width="2" stroke-linejoin="round" stroke-linecap="round" stroke-miterlimit="10" pointer-events="stroke"/><path d="M 32 31 L 62 31" fill="none" stroke="none" pointer-events="stroke"/><path d="M 30.34 32.89 M 32.78 31.9 C 36.55 30.09 44.04 31.63 61.72 30.7 M 31.9 30.5 C 40.61 31.43 46.89 30.92 61.22 31.76" fill="none" stroke="#000000" stroke-width="2" stroke-linejoin="round" stroke-linecap="round" stroke-miterlimit="10" pointer-events="stroke"/><path d="M 32 58 L 62 58" fill="none" stroke="none" pointer-events="stroke"/><path d="M 30.34 56.23 M 30.46 58.06 C 41.6 57.51 52.46 57.18 62.14 59.24 M 31.34 57.31 C 37.99 57.3 43.9 57.3 61.4 57.3" fill="none" stroke="#000000" stroke-width="2" stroke-linejoin="round" stroke-linecap="round" stroke-miterlimit="10" pointer-events="stroke"/><path d="M 92 4 L 122 4" fill="none" stroke="none" pointer-events="stroke"/><path d="M 90.34 2.57 M 92.14 3.22 C 100.65 3.94 104.88 5.73 122.57 2.79 M 92.78 3.12 C 103.37 4.76 112.91 3.27 121.57 3.84" fill="none" stroke="#000000" stroke-width="2" stroke-linejoin="round" stroke-linecap="round" stroke-miterlimit="10" pointer-events="stroke"/><path d="M 92 31 L 122 31" fill="none" stroke="none" pointer-events="stroke"/><path d="M 90.34 29.91 M 93.82 29.39 C 101.7 30.76 113.3 30.68 123 31.33 M 92.22 31.94 C 100.76 31.23 109.92 32.24 121.75 31.37" fill="none" stroke="#000000" stroke-width="2" stroke-linejoin="round" stroke-linecap="round" stroke-miterlimit="10" pointer-events="stroke"/><path d="M 92 58 L 122 58" fill="none" stroke="none" pointer-events="stroke"/><path d="M 90.34 57.25 M 91.5 59.55 C 100.75 58.19 109.73 56.22 123.43 59.87 M 91.66 58.75 C 98.14 57.09 106.93 58.62 121.92 58.91" fill="none" stroke="#000000" stroke-width="2" stroke-linejoin="round" stroke-linecap="round" stroke-miterlimit="10" pointer-events="stroke"/><path d="M 62 4 L 92 34" fill="none" stroke="none" pointer-events="stroke"/><path d="M 60.34 3.59 M 63.18 4.71 C 70.02 10.71 76.38 16.96 93.85 33.42 M 61.1 4.57 C 73.64 15.96 84.06 27.4 92.1 33.45" fill="none" stroke="#000000" stroke-width="2" stroke-linejoin="round" stroke-linecap="round" stroke-miterlimit="10" pointer-events="stroke"/><path d="M 64 30 L 92 56.5" fill="none" stroke="none" pointer-events="stroke"/><path d="M 62.34 29.93 M 62.86 29.88 C 72.25 39.59 81.33 46.44 90.28 57.46 M 64.54 30.38 C 72.45 38.01 81.85 47.12 92.27 56.49" fill="none" stroke="#000000" stroke-width="2" stroke-linejoin="round" stroke-linecap="round" stroke-miterlimit="10" pointer-events="stroke"/><path d="M 77 43 L 62 64" fill="none" stroke="none" pointer-events="stroke"/><path d="M 75.34 43.27 M 77.54 42.04 C 73.84 49.23 69.98 54.75 60.71 62.5 M 76.98 43.19 C 73.1 49.52 68.78 54.16 62.45 64.53" fill="none" stroke="#000000" stroke-width="2" stroke-linejoin="round" stroke-linecap="round" stroke-miterlimit="10" pointer-events="stroke"/><path d="M 97 4 L 82 25" fill="none" stroke="none" pointer-events="stroke"/><path d="M 95.34 3.75 M 98.51 4.63 C 92.71 8.92 87.03 14.09 82.1 25.46 M 96.65 4.09 C 94.12 8.8 89.88 13.59 82.3 25.37" fill="none" stroke="#000000" stroke-width="2" stroke-linejoin="round" stroke-linecap="round" stroke-miterlimit="10" pointer-events="stroke"/><path d="M 122 1 L 150 27.5" fill="none" stroke="none" pointer-events="stroke"/><path d="M 120.34 1.09 M 121.19 0.79 C 129.7 5.62 133.99 12.4 150.53 25.5 M 121.09 0.91 C 131.12 10.28 141.53 20.56 150.47 28.41" fill="none" stroke="#000000" stroke-width="2" stroke-linejoin="round" stroke-linecap="round" stroke-miterlimit="10" pointer-events="stroke"/><path d="M 123 58 L 150 31" fill="none" stroke="none" pointer-events="stroke"/><path d="M 121.34 58.43 M 123.87 56.96 C 131.07 48.56 142.17 38.99 150.96 30.55 M 123.53 57.72 C 131.66 50.48 139.51 41.57 150.65 30.45" fill="none" stroke="#000000" stroke-width="2" stroke-linejoin="round" stroke-linecap="round" stroke-miterlimit="10" pointer-events="stroke"/><path d="M 2 31 L 30 57.5" fill="none" stroke="none" pointer-events="stroke"/><path d="M 0.34 31.77 M 0.55 29.12 C 9.41 37.52 14.37 45.62 31.38 58.59 M 1.97 30.54 C 8.3 37.61 16.19 43.89 30.82 57.48" fill="none" stroke="#000000" stroke-width="2" stroke-linejoin="round" stroke-linecap="round" stroke-miterlimit="10" pointer-events="stroke"/><path d="M 1 32 L 28 5" fill="none" stroke="none" pointer-events="stroke"/><path d="M -0.66 33.11 M 1.23 33.28 C 8.81 22.29 20.54 11.87 29.81 3.63 M 0.41 31.35 C 11.97 20.49 22.82 10.27 29 5.52" fill="none" stroke="#000000" stroke-width="2" stroke-linejoin="round" stroke-linecap="round" stroke-miterlimit="10" pointer-events="stroke"/></g></svg>