<?xml version="1.0" encoding="UTF-8"?>
<!DOCTYPE svg PUBLIC "-//W3C//DTD SVG 1.1//EN" "http://www.w3.org/Graphics/SVG/1.1/DTD/svg11.dtd">
<svg xmlns="http://www.w3.org/2000/svg" xmlns:xlink="http://www.w3.org/1999/xlink" version="1.1" width="152px" height="66px" viewBox="-0.5 -0.5 152 66"><defs/><g><path d="M 32 1 L 62 1" fill="none" stroke="none" pointer-events="stroke"/><path d="M 30.34 2.79 M 31.59 0.61 C 39.23 1.57 42.82 1.4 60.66 2.72 M 32.28 1.98 C 40.96 0.9 48.24 0.19 61.35 0.6" fill="none" stroke="#000000" stroke-width="2" stroke-linejoin="round" stroke-linecap="round" stroke-miterlimit="10" pointer-events="stroke"/><path d="M 32 31 L 62 31" fill="none" stroke="none" pointer-events="stroke"/><path d="M 30.34 29.13 M 33.27 29.77 C 40.28 32 51.24 29.95 61.09 30.26 M 31.72 31.79 C 38.35 31.76 45.25 31.57 61.52 31.14" fill="none" stroke="#000000" stroke-width="2" stroke-linejoin="round" stroke-linecap="round" stroke-miterlimit="10" pointer-events="stroke"/><path d="M 32 58 L 62 58" fill="none" stroke="none" pointer-events="stroke"/><path d="M 30.34 56.47 M 30.95 59.94 C 39.32 59.42 47.66 59.5 61.52 58.81 M 31.16 58.6 C 43.73 58.23 54.26 58.54 61.7 58.68" fill="none" stroke="#000000" stroke-width="2" stroke-linejoin="round" stroke-linecap="round" stroke-miterlimit="10" pointer-events="stroke"/><path d="M 92 4 L 122 4" fill="none" stroke="none" pointer-events="stroke"/><path d="M 90.34 2.81 M 92.63 5.1 C 104.37 5.25 116.09 3.45 121.94 2.35 M 92.6 4.42 C 101.11 3.69 111.27 4.51 121.87 3.21" fill="none" stroke="#000000" stroke-width="2" stroke-linejoin="round" stroke-linecap="round" stroke-miterlimit="10" pointer-events="stroke"/><path d="M 92 31 L 122 31" fill="none" stroke="none" pointer-events="stroke"/><path d="M 90.34 29.3 M 93.59 29.69 C 99.42 30.6 105.38 31.5 123.34 31.31 M 92.27 31.32 C 99.5 32.11 107.48 32.13 121.72 30.06" fill="none" stroke="#000000" stroke-width="2" stroke-linejoin="round" stroke-linecap="round" stroke-miterlimit="10" pointer-events="stroke"/><path d="M 92 58 L 122 58" fill="none" stroke="none" pointer-events="stroke"/><path d="M 90.34 56.64 M 91.27 59.85 C 100.47 57.43 113.8 56.45 123.77 59.85 M 91.71 58.13 C 104.88 57.98 116.49 58.5 121.9 57.59" fill="none" stroke="#000000" stroke-width="2" stroke-linejoin="round" stroke-linecap="round" stroke-miterlimit="10" pointer-events="stroke"/><path d="M 62 4 L 92 34" fill="none" stroke="none" pointer-events="stroke"/><path d="M 60.34 2.98 M 62.95 5.01 C 69.58 11.6 76.28 20.49 90.19 33.39 M 61.15 3.95 C 72.39 13.67 81.63 24.93 92.07 34.13" fill="none" stroke="#000000" stroke-width="2" stroke-linejoin="round" stroke-linecap="round" stroke-miterlimit="10" pointer-events="stroke"/><path d="M 64 30 L 92 56.5" fill="none" stroke="none" pointer-events="stroke"/><path d="M 62.34 29.32 M 62.63 30.18 C 75.71 40.3 85.03 49.6 90.62 57.44 M 64.59 29.76 C 71.28 37.85 79.58 44.93 92.25 57.17" fill="none" stroke="#000000" stroke-width="2" stroke-linejoin="round" stroke-linecap="round" stroke-miterlimit="10" pointer-events="stroke"/><path d="M 77 43 L 62 64" fill="none" stroke="none" pointer-events="stroke"/><path d="M 75.34 42.66 M 77.31 42.34 C 70.97 49.54 68.97 57.2 61.05 62.48 M 77.03 42.57 C 73.62 47.61 69.88 52.44 62.42 63.21" fill="none" stroke="#000000" stroke-width="2" stroke-linejoin="round" stroke-linecap="round" stroke-miterlimit="10" pointer-events="stroke"/><path d="M 97 4 L 82 25" fill="none" stroke="none" pointer-events="stroke"/><path d="M 95.34 4 M 98.99 2.5 C 93.91 9.35 88.87 13.46 81.47 25.02 M 96.47 3.39 C 90.63 10.76 86.08 19.09 82.6 24.75" fill="none" stroke="#000000" stroke-width="2" stroke-linejoin="round" stroke-linecap="round" stroke-miterlimit="10" pointer-events="stroke"/><path d="M 122 1 L 150 27.5" fill="none" stroke="none" pointer-events="stroke"/><path d="M 120.34 1.34 M 121.67 2.67 C 133.01 10.95 140.53 17.57 149.9 29.07 M 122.91 0.2 C 131.12 9.43 140.24 16.81 150.77 27.79" fill="none" stroke="#000000" stroke-width="2" stroke-linejoin="round" stroke-linecap="round" stroke-miterlimit="10" pointer-events="stroke"/><path d="M 123 58 L 150 31" fill="none" stroke="none" pointer-events="stroke"/><path d="M 121.34 58.68 M 124.35 58.83 C 129.16 52.35 137.95 45.1 150.33 30.11 M 123.35 57.01 C 129.36 50.63 135.97 43.27 150.95 31.82" fill="none" stroke="#000000" stroke-width="2" stroke-linejoin="round" stroke-linecap="round" stroke-miterlimit="10" pointer-events="stroke"/><path d="M 2 31 L 30 57.5" fill="none" stroke="none" pointer-events="stroke"/><path d="M 0.34 32.02 M 1.03 30.99 C 13.25 42.29 25.44 50.23 30.76 58.15 M 1.79 31.83 C 13.9 42.61 24.1 53.3 29.12 56.86" fill="none" stroke="#000000" stroke-width="2" stroke-linejoin="round" stroke-linecap="round" stroke-miterlimit="10" pointer-events="stroke"/><path d="M 1 32 L 28 5" fill="none" stroke="none" pointer-events="stroke"/><path d="M -0.66 33.36 M 1.72 31.16 C 10.9 25.54 16.32 17.43 29.18 3.2 M 0.23 32.64 C 9.67 22.64 19.28 13.97 27.3 4.9" fill="none" stroke="#000000" stroke-width="2" stroke-linejoin="round" stroke-linecap="round" stroke-miterlimit="10" pointer-events="stroke"/></g></svg>