<?xml version="1.0" encoding="UTF-8"?>
<!DOCTYPE svg PUBLIC "-//W3C//DTD SVG 1.1//EN" "http://www.w3.org/Graphics/SVG/1.1/DTD/svg11.dtd">
<svg xmlns="http://www.w3.org/2000/svg" xmlns:xlink="http://www.w3.org/1999/xlink" version="1.1" width="628px" height="125px" viewBox="-0.5 -0.5 628 125"><defs/><g><path d="M 611 61.53 L 600.24 48.06 Q 594 40.25 598.43 31.29 L 601.72 24.64 Q 605 18 615 18 L 625 18" fill="none" stroke="none" pointer-events="stroke"/><path d="M 611.7 63.27 M 611.11 62.74 C 605.89 56.19 604.84 53.17 601.53 47.13 M 610.4 62.25 C 607.05 57.78 604.09 53.51 599.5 48.51 M 600.24 48.06 C 597.16 43.39 597.15 36.27 597.98 33.09 M 600.77 48.09 C 596.57 44.69 594.14 39.56 599.97 32.86 M 598.84 30.71 C 599.41 29.84 600.61 29 601.6 24.63 M 598.09 31.47 C 599.05 29.77 599.72 28.33 602.09 24.98 M 601.72 24.64 C 602.01 22.04 609.91 17.76 616.12 16.46 M 600.52 23.54 C 605.4 21.02 607.55 17.54 614.71 16.36 M 614.29 17.19 C 617.61 18.6 620.96 18.56 624.49 17.3 M 614.9 17.67 C 618.34 17.67 621.62 17.98 624.94 18.35" fill="none" stroke="#000000" stroke-linejoin="round" stroke-linecap="round" stroke-miterlimit="10" pointer-events="stroke"/><path d="M 597 107 L 614 107 Q 624 107 624 97 L 624 83.14 Q 624 73.14 617.06 65.94 L 610 58.63" fill="none" stroke="none" pointer-events="stroke"/><path d="M 597.7 108.22 M 597.93 106.14 C 605.13 107.91 609.73 108.27 613.06 107.75 M 597.82 107.63 C 600.26 106.8 605.65 107.47 614.84 107.31 M 614 107 C 619.26 107.72 624.74 102.06 625.59 96.61 M 614.43 105.62 C 618.69 106.54 623.93 102.32 621.95 96.38 M 622.82 97.24 C 624.22 91.31 625.07 88.03 623.19 82.65 M 624.68 97.48 C 623.41 92.46 624.06 86.06 624.17 82.97 M 624 83.14 C 625.13 77.96 620.58 72.34 618.31 64 M 624.99 81.97 C 622.98 76.97 623.64 72.15 618.2 64.47 M 616.37 66.68 C 615.07 62.91 611.37 60.54 609.09 57.99 M 617.16 66.44 C 614.23 63.08 612.3 61.13 610.03 58.41" fill="none" stroke="#000000" stroke-linejoin="round" stroke-linecap="round" stroke-miterlimit="10" pointer-events="stroke"/><path d="M 562 60.53 L 551.24 47.06 Q 545 39.25 549.43 30.29 L 552.72 23.64 Q 556 17 566 17 L 576 17" fill="none" stroke="none" pointer-events="stroke"/><path d="M 562.7 62.43 M 562.39 61.66 C 560.28 59.02 555.62 53.18 551.02 47.03 M 561.87 60.85 C 557.66 56.2 554.32 51.64 550.67 46.58 M 551.24 47.06 C 546.17 40.77 545.67 38.24 547.93 28.97 M 552.39 48.46 C 546.55 43.27 547.77 35.84 549.98 28.21 M 548.84 31.02 C 550.72 28.77 550.24 28.05 553.07 23.22 M 549.52 30.49 C 550.62 28.62 551.1 26.39 552.85 23.44 M 552.72 23.64 C 555.22 20.67 557.98 18.76 566.9 16.12 M 553.18 25.37 C 553.23 18.01 557.77 17.33 566.85 18.47 M 566.6 16.96 C 568.63 16.88 572.24 16.99 575.79 17.83 M 566.3 17.2 C 570 16.56 573.92 17.42 576.49 16.55" fill="none" stroke="#000000" stroke-linejoin="round" stroke-linecap="round" stroke-miterlimit="10" pointer-events="stroke"/><path d="M 548 106 L 565 106 Q 575 106 575 96 L 575 82.14 Q 575 72.14 568.06 64.94 L 561 57.63" fill="none" stroke="none" pointer-events="stroke"/><path d="M 548.7 104.24 M 546.41 106.41 C 552.33 107.52 559.07 106.49 565.15 107.28 M 547.39 106.15 C 552.83 105.6 557.02 105.87 564.59 105.98 M 565 106 C 571.01 104.01 573.43 104.43 575.96 94.22 M 566.51 106.79 C 569.56 103.76 574.68 102.71 576.85 95.5 M 575.32 96.54 C 575.24 91.34 575.71 87.74 574.99 82.59 M 575.61 96.31 C 574.58 92.97 575.16 90.02 575.28 82.36 M 575 82.14 C 574.9 74.91 571.21 69.59 566.78 66.59 M 573.2 83.32 C 575.3 73.42 571.67 71.82 566.47 63.29 M 568.3 64.51 C 565.56 62.03 563.4 61.23 561.14 57.18 M 568.47 64.49 C 565.43 61.71 562.68 58.86 561.22 58.07" fill="none" stroke="#000000" stroke-linejoin="round" stroke-linecap="round" stroke-miterlimit="10" pointer-events="stroke"/><path d="M 497 105 L 497 17" fill="none" stroke="none" pointer-events="stroke"/><path d="M 497.7 103.92 M 498.49 103.8 C 497.42 69.85 498.07 39.33 498.03 17.6 M 497.17 104.81 C 497.43 73.49 497.63 41.47 496.86 16.05" fill="none" stroke="#000000" stroke-linejoin="round" stroke-linecap="round" stroke-miterlimit="10" pointer-events="stroke"/><path d="M 530 107 L 495 107" fill="none" stroke="none" pointer-events="stroke"/><path d="M 530.7 106.26 M 529.17 108.97 C 518.05 105.94 507.91 107.1 496.46 105.14 M 529.61 106.62 C 519.07 106.4 508.12 108.24 495.04 106.59" fill="none" stroke="#000000" stroke-linejoin="round" stroke-linecap="round" stroke-miterlimit="10" pointer-events="stroke"/><path d="M 520 65 L 501 65" fill="none" stroke="none" pointer-events="stroke"/><path d="M 520.7 64.6 M 520.81 66.07 C 515.83 64.04 511.78 63.35 502.79 64.7 M 519.09 64.46 C 515.99 65.34 510.31 65.67 501.2 65.12" fill="none" stroke="#000000" stroke-linejoin="round" stroke-linecap="round" stroke-miterlimit="10" pointer-events="stroke"/><path d="M 527 18 L 500 18" fill="none" stroke="none" pointer-events="stroke"/><path d="M 527.7 17.94 M 525.53 18.29 C 519.25 17.14 509.95 18.54 498.31 19.23 M 527.49 17.25 C 516.31 17.42 506.09 18.27 500.39 18.67" fill="none" stroke="#000000" stroke-linejoin="round" stroke-linecap="round" stroke-miterlimit="10" pointer-events="stroke"/><path d="M 443 106 L 443 18" fill="none" stroke="none" pointer-events="stroke"/><path d="M 443.7 105.77 M 444.18 107.05 C 441.61 80.3 444.19 51.39 443.13 18.73 M 442.59 106.96 C 444.43 81.66 443.3 57.69 443.41 17.05" fill="none" stroke="#000000" stroke-linejoin="round" stroke-linecap="round" stroke-miterlimit="10" pointer-events="stroke"/><path d="M 476 108 L 441 108" fill="none" stroke="none" pointer-events="stroke"/><path d="M 476.7 108.11 M 474.86 108.21 C 468.04 109.44 458.39 105.78 441.56 106.27 M 475.03 108.78 C 468.03 107.35 460.46 108.42 441.59 107.59" fill="none" stroke="#000000" stroke-linejoin="round" stroke-linecap="round" stroke-miterlimit="10" pointer-events="stroke"/><path d="M 618 0 L 0 0" fill="none" stroke="none" pointer-events="stroke"/><path d="M 618.7 0.45 M 618.22 -0.25 C 403.1 2.76 186.85 2.14 0.39 -0.07 M 618.19 0.24 C 392.75 -2.12 166.97 -2.29 0.31 0.05" fill="none" stroke="#000000" stroke-linejoin="round" stroke-linecap="round" stroke-miterlimit="10" pointer-events="stroke"/><path d="M 352 107 L 352 19" fill="none" stroke="none" pointer-events="stroke"/><path d="M 352.7 108.13 M 351.9 108.7 C 352.62 71.24 354.26 39.7 353.84 17.9 M 351.35 107.22 C 350.54 84.04 350.74 62.51 351.11 18.2" fill="none" stroke="#000000" stroke-linejoin="round" stroke-linecap="round" stroke-miterlimit="10" pointer-events="stroke"/><path d="M 403 109 L 403 21" fill="none" stroke="none" pointer-events="stroke"/><path d="M 403.7 110.47 M 404.58 109.86 C 405.57 80.53 402.97 54.12 401.27 21.44 M 403.79 109.03 C 402.32 74.68 401.85 39.07 402.29 20.74" fill="none" stroke="#000000" stroke-linejoin="round" stroke-linecap="round" stroke-miterlimit="10" pointer-events="stroke"/><path d="M 376 51 L 352 24" fill="none" stroke="none" pointer-events="stroke"/><path d="M 376.7 52.81 M 375.26 51.03 C 369.57 44 365.23 40.75 350.7 25.99 M 376.23 50.85 C 367.31 41.55 360.07 32.05 351.46 24.28" fill="none" stroke="#000000" stroke-linejoin="round" stroke-linecap="round" stroke-miterlimit="10" pointer-events="stroke"/><path d="M 376 50 L 397 22" fill="none" stroke="none" pointer-events="stroke"/><path d="M 376.7 48.15 M 376.94 49.19 C 384.03 39.46 392.32 30.73 396.12 21.53 M 375.67 49.66 C 382.31 43.16 388.41 33.42 396.64 22.82" fill="none" stroke="#000000" stroke-linejoin="round" stroke-linecap="round" stroke-miterlimit="10" pointer-events="stroke"/><path d="M 299 109 L 281.55 74.9 Q 277 66 281.03 56.85 L 299 16" fill="none" stroke="none" pointer-events="stroke"/><path d="M 299.7 107.83 M 299.3 110.51 C 291.46 95.38 285.11 83.38 281.53 73.52 M 299.55 108.29 C 292.96 95.84 285.42 84.45 281.54 74.79 M 281.55 74.9 C 279.13 69.64 280.29 60.96 280.87 57.93 M 280.35 73.14 C 277.9 69.34 278.06 61.67 280.39 54.75 M 281.51 57.74 C 286.88 43.08 290.68 30.79 299.94 14.75 M 281.29 56.27 C 284.21 46.67 289.89 37.61 299.5 16" fill="none" stroke="#000000" stroke-linejoin="round" stroke-linecap="round" stroke-miterlimit="10" pointer-events="stroke"/><path d="M 305 110 L 319.96 76.15 Q 324 67 320.57 57.61 L 305 15" fill="none" stroke="none" pointer-events="stroke"/><path d="M 305.71 108.31 M 306.27 109.1 C 307.68 103.81 310.55 95.82 321.33 76.72 M 305.22 109.19 C 310.11 100.06 315.04 87.66 319.8 75.89 M 319.96 76.15 C 320.78 70.9 323.87 65.27 322.44 56.5 M 318.66 76.98 C 324.16 68.12 323.83 63.55 320.93 57.92 M 322.26 56.41 C 316.41 44.9 314.32 35.54 305.1 13.05 M 320.72 57.23 C 315.51 41.85 308.58 26.51 304.75 15.84" fill="none" stroke="#000000" stroke-linejoin="round" stroke-linecap="round" stroke-miterlimit="10" pointer-events="stroke"/><path d="M 209 106 L 209 18" fill="none" stroke="none" pointer-events="stroke"/><path d="M 209.71 104.99 M 209.63 107.43 C 207.88 79.95 210.75 55.84 207.23 17.66 M 208.09 106.82 C 208.88 87.34 207.74 70.8 209.19 18.81" fill="none" stroke="#000000" stroke-linejoin="round" stroke-linecap="round" stroke-miterlimit="10" pointer-events="stroke"/><path d="M 248 108 L 248 20" fill="none" stroke="none" pointer-events="stroke"/><path d="M 248.71 107.33 M 246.31 108.59 C 247.06 71.64 245.7 39.06 246.65 21.2 M 248.53 108.63 C 248.42 77.99 248.61 47.35 248.36 19.35" fill="none" stroke="#000000" stroke-linejoin="round" stroke-linecap="round" stroke-miterlimit="10" pointer-events="stroke"/><path d="M 242 72 L 211 58" fill="none" stroke="none" pointer-events="stroke"/><path d="M 242.71 71.67 M 241.99 71.76 C 233.16 66.32 221.72 62.38 210.08 56.75 M 241.97 72.44 C 233.82 67.91 224.37 64.22 211.54 57.89" fill="none" stroke="#000000" stroke-linejoin="round" stroke-linecap="round" stroke-miterlimit="10" pointer-events="stroke"/><path d="M 161 108 L 161 20" fill="none" stroke="none" pointer-events="stroke"/><path d="M 161.71 108.35 M 160.35 106.08 C 160.13 75.9 162.07 45.14 160.93 21.83 M 161.85 108.07 C 161.75 75.12 159.94 41.41 161.89 20.97" fill="none" stroke="#000000" stroke-linejoin="round" stroke-linecap="round" stroke-miterlimit="10" pointer-events="stroke"/><path d="M 182 16 L 133 16" fill="none" stroke="none" pointer-events="stroke"/><path d="M 182.71 16.69 M 183.03 17.25 C 169.68 15.74 153.75 14.61 133.36 15.38 M 182.29 15.88 C 166.35 15.73 150.23 15.63 132.06 15.5" fill="none" stroke="#000000" stroke-linejoin="round" stroke-linecap="round" stroke-miterlimit="10" pointer-events="stroke"/><path d="M 64 107 L 95 14" fill="none" stroke="none" pointer-events="stroke"/><path d="M 64.71 108.37 M 64.39 106.57 C 74.89 77.84 86 47.31 96.21 12.46 M 63.17 106.51 C 71.25 88.11 77.82 69.91 94.41 14.58" fill="none" stroke="#000000" stroke-linejoin="round" stroke-linecap="round" stroke-miterlimit="10" pointer-events="stroke"/><path d="M 116 109 L 97 15" fill="none" stroke="none" pointer-events="stroke"/><path d="M 116.71 109.85 M 117.35 110.16 C 108.42 72.81 101.59 40.35 95.61 15.42 M 116.84 108.41 C 108.41 75.09 101.18 41.79 96.26 15.42" fill="none" stroke="#000000" stroke-linejoin="round" stroke-linecap="round" stroke-miterlimit="10" pointer-events="stroke"/><path d="M 109 86 L 78 72" fill="none" stroke="none" pointer-events="stroke"/><path d="M 109.71 87.19 M 108.03 86.33 C 101.48 80.18 92.51 76.12 77.04 73.96 M 109.28 85.23 C 98.99 82.43 90.6 76.87 77.44 72.96" fill="none" stroke="#000000" stroke-linejoin="round" stroke-linecap="round" stroke-miterlimit="10" pointer-events="stroke"/><path d="M 13 107 L 13 14" fill="none" stroke="none" pointer-events="stroke"/><path d="M 13.71 108.87 M 11.39 105.65 C 12.4 75.69 11.8 45.6 12.89 15.05 M 12.16 107.85 C 12.31 70.26 13.84 36.1 12.79 14.04" fill="none" stroke="#000000" stroke-linejoin="round" stroke-linecap="round" stroke-miterlimit="10" pointer-events="stroke"/><path d="M 58 15.06 L 14 15.06" fill="none" stroke="none" pointer-events="stroke"/><path d="M 58.71 13.27 M 58.07 16.88 C 48.82 14.13 37.17 16.43 14.32 13.65 M 58.6 15.73 C 43.98 15.34 28.4 15.48 13.96 15.64" fill="none" stroke="#000000" stroke-linejoin="round" stroke-linecap="round" stroke-miterlimit="10" pointer-events="stroke"/><path d="M 41 54.16 L 12 54.16" fill="none" stroke="none" pointer-events="stroke"/><path d="M 41.71 52.71 M 42.75 55.14 C 29.46 53.4 17.78 53.82 12.74 54.3 M 41.04 54.64 C 32.63 53.47 24.96 54.12 12.14 53.27" fill="none" stroke="#000000" stroke-linejoin="round" stroke-linecap="round" stroke-miterlimit="10" pointer-events="stroke"/><path d="M 626 123 L 8 123" fill="none" stroke="none" pointer-events="stroke"/><path d="M 626.71 121.89 M 625.77 123.06 C 449.32 124.41 271.91 123.82 8.47 123.67 M 625.79 123.12 C 493.75 124.54 361.08 124.2 8.13 122.86" fill="none" stroke="#000000" stroke-linejoin="round" stroke-linecap="round" stroke-miterlimit="10" pointer-events="stroke"/></g></svg>