<?xml version="1.0" encoding="UTF-8"?>
<!DOCTYPE svg PUBLIC "-//W3C//DTD SVG 1.1//EN" "http://www.w3.org/Graphics/SVG/1.1/DTD/svg11.dtd">
<svg xmlns="http://www.w3.org/2000/svg" xmlns:xlink="http://www.w3.org/1999/xlink" version="1.1" width="628px" height="125px" viewBox="-0.5 -0.5 628 125"><defs/><g><path d="M 611 61.53 L 600.24 48.06 Q 594 40.25 598.43 31.29 L 601.72 24.64 Q 605 18 615 18 L 625 18" fill="none" stroke="none" pointer-events="stroke"/><path d="M 612.38 59.72 M 610.58 61.09 C 605.89 55.8 604.12 53.22 598.67 47.17 M 610.32 60.87 C 609.18 57.85 605.23 54.59 600.49 47.28 M 600.24 48.06 C 594.48 43.42 595.11 36.58 597.4 29.93 M 598.83 48.68 C 593.94 40.71 596.77 36.72 597.08 32.41 M 599.05 31.21 C 600.27 28.35 600.54 25.58 602.45 24.4 M 598.5 31.36 C 599.74 28.91 600.5 26.61 601.95 25 M 601.72 24.64 C 603.99 21.3 609.13 17.6 614.83 17.47 M 601.71 24.68 C 603.24 20.91 607.09 20.2 614.39 18.12 M 614.38 18.62 C 617.62 17.92 619.12 18.51 625.39 18.61 M 614.67 17.64 C 618.06 17.92 621.65 17.65 624.93 17.89" fill="none" stroke="#000000" stroke-linejoin="round" stroke-linecap="round" stroke-miterlimit="10" pointer-events="stroke"/><path d="M 597 107 L 614 107 Q 624 107 624 97 L 624 83.14 Q 624 73.14 617.06 65.94 L 610 58.63" fill="none" stroke="none" pointer-events="stroke"/><path d="M 598.38 105.53 M 598.01 105.86 C 601.44 106.42 607.74 106.89 612.82 107.43 M 597.56 106.19 C 603.72 106.08 610.33 106.64 614.39 106.69 M 614 107 C 619.31 106.67 622.87 102.78 625.43 95.18 M 612.95 107.01 C 621.55 105.8 623.67 103.59 623.95 95.1 M 623.81 96.03 C 624.13 92.22 624.92 87.3 624.71 83.93 M 624.57 97.08 C 623.47 92.54 623.96 87.93 624.47 83.02 M 624 83.14 C 623.67 75.55 622.36 72.43 618.71 67.93 M 625.73 82.63 C 625.31 76.32 620.98 70.09 618.61 67.53 M 616.06 66.18 C 615.35 62.72 611.85 61.88 610.74 57.96 M 616.83 65.93 C 614.41 63.36 612.28 60.77 609.65 58.39" fill="none" stroke="#000000" stroke-linejoin="round" stroke-linecap="round" stroke-miterlimit="10" pointer-events="stroke"/><path d="M 562 60.53 L 551.24 47.06 Q 545 39.25 549.43 30.29 L 552.72 23.64 Q 556 17 566 17 L 576 17" fill="none" stroke="none" pointer-events="stroke"/><path d="M 563.38 58.88 M 561.86 60.02 C 560.28 58.42 558.35 53 551.61 47.07 M 561.79 61.18 C 559.8 56.28 555.45 52.71 551.66 47.08 M 551.24 47.06 C 547.49 40.79 547.64 34.56 551.35 29.82 M 550.45 49.05 C 548.51 43.89 545.8 37.6 551.68 32.37 M 549.05 30.04 C 550.1 27.29 551.66 26.12 552.44 22.98 M 549.19 30.38 C 549.91 29.08 550.56 27.32 552.71 23.46 M 552.72 23.64 C 553.19 19.94 561.2 18.61 565.61 17.13 M 554.38 22.52 C 555.67 17.91 557.3 15.38 566.54 15.63 M 566.68 16.38 C 568.64 16.2 570.39 16.94 576.69 17.14 M 566.07 17.17 C 569.72 16.82 572.95 17.08 576.48 17.08" fill="none" stroke="#000000" stroke-linejoin="round" stroke-linecap="round" stroke-miterlimit="10" pointer-events="stroke"/><path d="M 548 106 L 565 106 Q 575 106 575 96 L 575 82.14 Q 575 72.14 568.06 64.94 L 561 57.63" fill="none" stroke="none" pointer-events="stroke"/><path d="M 549.38 104.69 M 549.29 104.79 C 552.68 107.25 559.09 106.82 565.73 107.32 M 547.32 106.49 C 551.99 106.6 555.82 105.63 565.56 106.47 M 565 106 C 572.33 104.04 575.39 100.75 575.38 95.06 M 564.57 107.38 C 571.52 104.38 572.71 104.47 573.95 95.05 M 575.72 94.71 C 575.85 91.15 576.37 89.25 573.81 82.15 M 574.98 96.1 C 575.32 91.19 575.21 86.44 575.03 82.4 M 575 82.14 C 576.88 74.18 574.43 69.44 569.49 63.6 M 574.39 80.47 C 573.14 73.32 571.2 69.88 566.15 65.04 M 568.39 65.96 C 566.16 62.82 562.65 59.99 560.02 58.51 M 568.23 64.46 C 565.37 61.92 563.22 59.6 561.22 57.59" fill="none" stroke="#000000" stroke-linejoin="round" stroke-linecap="round" stroke-miterlimit="10" pointer-events="stroke"/><path d="M 497 105 L 497 17" fill="none" stroke="none" pointer-events="stroke"/><path d="M 498.38 104.37 M 497.88 105.9 C 497.71 68.39 497.7 37.4 498.71 17.64 M 497.08 105.2 C 496.52 76.45 497.07 48.43 496.01 16.63" fill="none" stroke="#000000" stroke-linejoin="round" stroke-linecap="round" stroke-miterlimit="10" pointer-events="stroke"/><path d="M 530 107 L 495 107" fill="none" stroke="none" pointer-events="stroke"/><path d="M 531.38 106.71 M 528.56 107.06 C 517.71 105.06 506.44 106.92 493.14 105.18 M 529.52 107.01 C 520.24 107.8 511.01 108.18 494.19 107.17" fill="none" stroke="#000000" stroke-linejoin="round" stroke-linecap="round" stroke-miterlimit="10" pointer-events="stroke"/><path d="M 520 65 L 501 65" fill="none" stroke="none" pointer-events="stroke"/><path d="M 521.38 65.05 M 520.23 64.26 C 515.7 63.84 510.78 63.82 499.64 64.74 M 520.91 64.84 C 516.55 64.82 511.93 65.67 500.39 65.68" fill="none" stroke="#000000" stroke-linejoin="round" stroke-linecap="round" stroke-miterlimit="10" pointer-events="stroke"/><path d="M 527 18 L 500 18" fill="none" stroke="none" pointer-events="stroke"/><path d="M 528.38 18.39 M 528.92 16.39 C 519.02 16.94 508.71 19.05 498.99 19.27 M 527.4 17.64 C 517.16 16.84 508.35 18.25 499.54 17.25" fill="none" stroke="#000000" stroke-linejoin="round" stroke-linecap="round" stroke-miterlimit="10" pointer-events="stroke"/><path d="M 443 106 L 443 18" fill="none" stroke="none" pointer-events="stroke"/><path d="M 444.38 107.07 M 444.28 106.71 C 443.67 70.63 442.49 38.12 442.85 18.35 M 442.28 105.27 C 442.17 85.08 443.38 65 442.89 18.33" fill="none" stroke="#000000" stroke-linejoin="round" stroke-linecap="round" stroke-miterlimit="10" pointer-events="stroke"/><path d="M 476 108 L 441 108" fill="none" stroke="none" pointer-events="stroke"/><path d="M 477.38 109.41 M 474.96 107.88 C 466.87 107.91 454.38 108.38 441.27 109.9 M 476.72 107.08 C 463.61 109.13 449 108.06 441.06 108.86" fill="none" stroke="#000000" stroke-linejoin="round" stroke-linecap="round" stroke-miterlimit="10" pointer-events="stroke"/><path d="M 618 0 L 0 0" fill="none" stroke="none" pointer-events="stroke"/><path d="M 619.38 0.9 M 617.97 0.59 C 394.82 -1.68 169.98 -2.02 0.67 -0.06 M 618.15 0.39 C 416.9 1.85 215.48 1.9 -0.04 0.28" fill="none" stroke="#000000" stroke-linejoin="round" stroke-linecap="round" stroke-miterlimit="10" pointer-events="stroke"/><path d="M 352 107 L 352 19" fill="none" stroke="none" pointer-events="stroke"/><path d="M 353.39 108.58 M 351.29 106.79 C 352.91 87.39 353.9 72.96 350.52 17.94 M 351.26 107.61 C 353.4 89 351.95 69.47 352.26 18.78" fill="none" stroke="#000000" stroke-linejoin="round" stroke-linecap="round" stroke-miterlimit="10" pointer-events="stroke"/><path d="M 403 109 L 403 21" fill="none" stroke="none" pointer-events="stroke"/><path d="M 404.39 110.92 M 403.97 107.96 C 404.1 79.07 400.85 52.19 401.95 21.48 M 403.7 109.43 C 403.18 77.65 403.06 46.02 403.44 21.32" fill="none" stroke="#000000" stroke-linejoin="round" stroke-linecap="round" stroke-miterlimit="10" pointer-events="stroke"/><path d="M 376 51 L 352 24" fill="none" stroke="none" pointer-events="stroke"/><path d="M 377.39 49.26 M 374.65 49.12 C 369.43 43.43 364.11 36.52 351.38 22.03 M 376.14 51.24 C 367.84 42.05 361.88 34.15 352.61 24.86" fill="none" stroke="#000000" stroke-linejoin="round" stroke-linecap="round" stroke-miterlimit="10" pointer-events="stroke"/><path d="M 376 50 L 397 22" fill="none" stroke="none" pointer-events="stroke"/><path d="M 377.39 48.6 M 376.33 51.28 C 384.5 38.76 392.42 30.37 396.8 21.57 M 375.58 50.05 C 381.07 43.84 386.69 35.74 397.79 21.4" fill="none" stroke="#000000" stroke-linejoin="round" stroke-linecap="round" stroke-miterlimit="10" pointer-events="stroke"/><path d="M 299 109 L 281.55 74.9 Q 277 66 281.03 56.85 L 299 16" fill="none" stroke="none" pointer-events="stroke"/><path d="M 300.39 108.28 M 298.69 108.61 C 294.91 101.52 291.16 96.59 282.21 73.56 M 299.46 108.68 C 293.85 98.63 287.34 87.13 280.69 75.37 M 281.55 74.9 C 280.45 69.67 278.26 61.28 280.29 58.77 M 282.41 73.73 C 279.86 69.96 276.08 63.43 282.09 58.91 M 282.09 55.1 C 287.85 43.48 291.03 34.45 298.24 14.12 M 280.38 55.97 C 287.16 41.18 294.3 26.7 299.13 16.06" fill="none" stroke="#000000" stroke-linejoin="round" stroke-linecap="round" stroke-miterlimit="10" pointer-events="stroke"/><path d="M 305 110 L 319.96 76.15 Q 324 67 320.57 57.61 L 305 15" fill="none" stroke="none" pointer-events="stroke"/><path d="M 306.39 109.62 M 306.37 108.77 C 310.95 98.73 315.39 87.9 321.04 76.35 M 304.9 109.49 C 308.6 100.83 313.2 91.85 319.27 75.16 M 319.96 76.15 C 320.84 69.85 322 61.99 322.28 59.07 M 321.18 74.37 C 322.42 71.99 323.58 64.81 318.33 56.64 M 319.69 58.67 C 317.6 47.45 316.15 40.81 303.29 14.91 M 320.55 56.65 C 316.4 43.21 309.95 31.5 305.19 15.92" fill="none" stroke="#000000" stroke-linejoin="round" stroke-linecap="round" stroke-miterlimit="10" pointer-events="stroke"/><path d="M 209 106 L 209 18" fill="none" stroke="none" pointer-events="stroke"/><path d="M 210.39 105.44 M 209.01 105.52 C 206.41 78.5 208.63 53.91 207.91 17.7 M 208.01 105.21 C 209.74 74.7 208.95 42.55 208.34 17.39" fill="none" stroke="#000000" stroke-linejoin="round" stroke-linecap="round" stroke-miterlimit="10" pointer-events="stroke"/><path d="M 248 108 L 248 20" fill="none" stroke="none" pointer-events="stroke"/><path d="M 249.39 107.78 M 249.69 106.69 C 247.35 87.78 249.33 72.33 247.33 21.24 M 248.45 107.02 C 247.52 80.95 248.06 54.31 247.51 19.93" fill="none" stroke="#000000" stroke-linejoin="round" stroke-linecap="round" stroke-miterlimit="10" pointer-events="stroke"/><path d="M 242 72 L 211 58" fill="none" stroke="none" pointer-events="stroke"/><path d="M 243.39 72.12 M 241.37 73.85 C 232.9 65.94 220.39 62.52 210.76 56.79 M 241.89 72.84 C 234.73 67.87 226.83 65.28 210.69 58.47" fill="none" stroke="#000000" stroke-linejoin="round" stroke-linecap="round" stroke-miterlimit="10" pointer-events="stroke"/><path d="M 161 108 L 161 20" fill="none" stroke="none" pointer-events="stroke"/><path d="M 162.39 108.8 M 159.73 108.18 C 160.42 74.44 161.7 43.21 161.61 21.87 M 161.76 108.46 C 160.85 78.08 159.39 48.37 161.04 19.55" fill="none" stroke="#000000" stroke-linejoin="round" stroke-linecap="round" stroke-miterlimit="10" pointer-events="stroke"/><path d="M 182 16 L 133 16" fill="none" stroke="none" pointer-events="stroke"/><path d="M 183.39 17.14 M 182.41 15.34 C 169.16 15.59 151.91 15.17 134.04 15.42 M 182.2 16.28 C 168.07 17.09 154.22 15.53 133.21 16.08" fill="none" stroke="#000000" stroke-linejoin="round" stroke-linecap="round" stroke-miterlimit="10" pointer-events="stroke"/><path d="M 64 107 L 95 14" fill="none" stroke="none" pointer-events="stroke"/><path d="M 65.39 108.82 M 63.78 108.67 C 73.74 76.24 84.62 45.16 96.89 12.5 M 63.08 106.91 C 75.3 72.15 87.2 39.53 95.56 13.16" fill="none" stroke="#000000" stroke-linejoin="round" stroke-linecap="round" stroke-miterlimit="10" pointer-events="stroke"/><path d="M 116 109 L 97 15" fill="none" stroke="none" pointer-events="stroke"/><path d="M 117.39 107.16 M 117.46 109.83 C 112.61 85.63 104.16 59.84 95.32 15.05 M 116.52 108.72 C 108.81 80.61 104.81 51.48 97.74 14.7" fill="none" stroke="#000000" stroke-linejoin="round" stroke-linecap="round" stroke-miterlimit="10" pointer-events="stroke"/><path d="M 109 86 L 78 72" fill="none" stroke="none" pointer-events="stroke"/><path d="M 110.39 84.5 M 108.14 85.99 C 96.68 81.36 85.24 76.21 76.75 73.59 M 108.96 85.53 C 101.2 82.19 92.57 79.13 78.91 72.24" fill="none" stroke="#000000" stroke-linejoin="round" stroke-linecap="round" stroke-miterlimit="10" pointer-events="stroke"/><path d="M 13 107 L 13 14" fill="none" stroke="none" pointer-events="stroke"/><path d="M 14.39 105.32 M 14.78 107.75 C 12.7 74.17 11.45 43.54 13.57 15.09 M 12.07 106.25 C 11.37 75.41 13.24 43.44 13.94 14.62" fill="none" stroke="#000000" stroke-linejoin="round" stroke-linecap="round" stroke-miterlimit="10" pointer-events="stroke"/><path d="M 58 15.06 L 14 15.06" fill="none" stroke="none" pointer-events="stroke"/><path d="M 59.39 13.72 M 57.46 14.97 C 48.36 13.97 35.47 16.98 15 13.69 M 58.51 14.12 C 45.5 14.71 31.99 15.4 13.11 14.22" fill="none" stroke="#000000" stroke-linejoin="round" stroke-linecap="round" stroke-miterlimit="10" pointer-events="stroke"/><path d="M 41 54.16 L 12 54.16" fill="none" stroke="none" pointer-events="stroke"/><path d="M 42.39 53.16 M 42.14 53.23 C 29.2 53.2 20.48 54.33 13.42 54.34 M 40.95 55.04 C 33.56 53.47 27.37 54.67 11.29 53.85" fill="none" stroke="#000000" stroke-linejoin="round" stroke-linecap="round" stroke-miterlimit="10" pointer-events="stroke"/><path d="M 626 123 L 8 123" fill="none" stroke="none" pointer-events="stroke"/><path d="M 627.39 122.34 M 625.53 122.29 C 441.04 124.91 255.04 124.61 8.74 123.69 M 625.75 123.28 C 394.3 123.57 162.39 123.45 7.79 123.09" fill="none" stroke="#000000" stroke-linejoin="round" stroke-linecap="round" stroke-miterlimit="10" pointer-events="stroke"/></g></svg>