<?xml version="1.0" encoding="UTF-8"?>
<!DOCTYPE svg PUBLIC "-//W3C//DTD SVG 1.1//EN" "http://www.w3.org/Graphics/SVG/1.1/DTD/svg11.dtd">
<svg xmlns="http://www.w3.org/2000/svg" xmlns:xlink="http://www.w3.org/1999/xlink" version="1.1" width="628px" height="125px" viewBox="-0.5 -0.5 628 125"><defs/><g><path d="M 611 61.53 L 600.24 48.06 Q 594 40.25 598.43 31.29 L 601.72 24.64 Q 605 18 615 18 L 625 18" fill="none" stroke="none" pointer-events="stroke"/><path d="M 611.71 61.1 M 609.96 60.21 C 606.96 57.34 605.37 51.9 598.54 48.72 M 611.31 61.46 C 608.45 56.74 605.37 52.84 600.81 48.69 M 600.24 48.06 C 595.98 44.56 594.47 38.49 600.1 32.11 M 600.95 49.12 C 595.93 40.82 593.25 36.55 598.9 33.15 M 599.1 31.49 C 599.95 28.77 600.51 26.98 601.41 24.54 M 598.72 31.45 C 599.29 29.68 599.96 27.52 601.7 24.73 M 601.72 24.64 C 603.81 22.16 606.9 18.05 616.5 19.36 M 602.07 24.07 C 604.69 22.25 609.86 17.53 613.1 17.93 M 615.72 17.86 C 617.96 18.33 622.88 18.06 625.05 17.13 M 615.19 18.39 C 618.23 18 622.4 18.33 624.9 17.98" fill="none" stroke="#000000" stroke-linejoin="round" stroke-linecap="round" stroke-miterlimit="10" pointer-events="stroke"/><path d="M 597 107 L 614 107 Q 624 107 624 97 L 624 83.14 Q 624 73.14 617.06 65.94 L 610 58.63" fill="none" stroke="none" pointer-events="stroke"/><path d="M 597.71 106.91 M 597.4 108.39 C 601.9 107.65 604.4 108.42 612.69 105.56 M 596.82 106.78 C 601.01 107.39 604.75 106.27 614.71 106.38 M 614 107 C 620.81 107.8 622.22 104.69 624.12 97.35 M 615.07 107.45 C 618.94 105.91 624.76 103.41 625.77 95.83 M 623.91 96.55 C 624.08 93.11 623.14 90.15 622.76 84.19 M 623.6 97.24 C 624.37 94.07 623.91 91.24 624.01 82.51 M 624 83.14 C 623.49 76.4 620.13 68.87 616.39 65.82 M 622.08 82.02 C 622.16 77.66 623.76 72.02 617.31 67.34 M 617.43 65.41 C 615.03 63.64 614.36 62.52 610.41 58.49 M 617.36 65.68 C 614.87 63.07 611.62 60.8 609.62 58.49" fill="none" stroke="#000000" stroke-linejoin="round" stroke-linecap="round" stroke-miterlimit="10" pointer-events="stroke"/><path d="M 562 60.53 L 551.24 47.06 Q 545 39.25 549.43 30.29 L 552.72 23.64 Q 556 17 566 17 L 576 17" fill="none" stroke="none" pointer-events="stroke"/><path d="M 562.71 60.27 M 561.24 59.14 C 561.35 56.51 556.15 55.14 551.48 48.62 M 562.78 60.06 C 559.06 55.17 553.88 50.97 551.99 46.76 M 551.24 47.06 C 548.99 41.93 546.99 36.46 550.04 31.99 M 552.57 45.5 C 545.9 44 546.89 37.43 548.91 28.5 M 549.11 30.31 C 549.65 27.7 551.5 26.03 552.88 23.12 M 549.41 30.46 C 550.73 28.53 551.21 26.31 552.47 23.93 M 552.72 23.64 C 553.01 20.79 558.97 15.06 567.28 15.02 M 550.74 21.9 C 557.12 19.25 560.08 17.31 565.24 15.44 M 566.03 17.63 C 568.98 16.61 574.16 16.49 576.36 17.66 M 565.59 16.92 C 569.89 16.7 573.7 16.56 576.45 17.17" fill="none" stroke="#000000" stroke-linejoin="round" stroke-linecap="round" stroke-miterlimit="10" pointer-events="stroke"/><path d="M 548 106 L 565 106 Q 575 106 575 96 L 575 82.14 Q 575 72.14 568.06 64.94 L 561 57.63" fill="none" stroke="none" pointer-events="stroke"/><path d="M 548.71 106.08 M 548.68 107.32 C 553.15 105.09 559.15 104.96 565.6 105.45 M 548.29 105.37 C 552.69 106.2 557.04 105.26 564.18 106.16 M 565 106 C 569.83 105.18 574.75 102.66 574.07 97.24 M 566.69 107.83 C 573.51 104.49 573.79 104.29 575.78 95.79 M 575.82 95.22 C 575.52 92.04 574.32 89.32 574.64 82.41 M 575.41 96.27 C 574.83 92.71 575.17 88.35 574.56 81.89 M 575 82.14 C 576.7 75.03 572.2 69.88 567.17 65.49 M 574.75 83.85 C 574.59 74.66 573.98 71.81 569.46 64.86 M 567.72 65.19 C 565.84 63.88 565.16 60.76 561.72 57.01 M 567.74 65.22 C 566.23 63.23 565.38 61.67 561.18 57.69" fill="none" stroke="#000000" stroke-linejoin="round" stroke-linecap="round" stroke-miterlimit="10" pointer-events="stroke"/><path d="M 497 105 L 497 17" fill="none" stroke="none" pointer-events="stroke"/><path d="M 497.71 105.76 M 497.16 104.87 C 494.77 71.68 494.7 38.88 498.56 15.44 M 496.22 105.89 C 497.74 73.62 497.93 41.29 496.39 16.26" fill="none" stroke="#000000" stroke-linejoin="round" stroke-linecap="round" stroke-miterlimit="10" pointer-events="stroke"/><path d="M 530 107 L 495 107" fill="none" stroke="none" pointer-events="stroke"/><path d="M 530.71 108.1 M 531.84 106.04 C 519.41 106.53 508.81 104.75 496.98 106.98 M 530.66 107.71 C 518.34 107.25 509.03 107.67 494.56 106.8" fill="none" stroke="#000000" stroke-linejoin="round" stroke-linecap="round" stroke-miterlimit="10" pointer-events="stroke"/><path d="M 520 65 L 501 65" fill="none" stroke="none" pointer-events="stroke"/><path d="M 520.71 66.44 M 519.55 63.29 C 517.01 65.23 512.43 65.55 499.49 66.45 M 520.09 65.49 C 515.45 64.32 509.56 65.2 500.75 65.32" fill="none" stroke="#000000" stroke-linejoin="round" stroke-linecap="round" stroke-miterlimit="10" pointer-events="stroke"/><path d="M 527 18 L 500 18" fill="none" stroke="none" pointer-events="stroke"/><path d="M 527.71 19.78 M 528.2 19.36 C 516.55 18.41 510.74 16.87 498.84 17.07 M 526.54 18.33 C 515.66 18.85 505.16 18.29 499.91 18.88" fill="none" stroke="#000000" stroke-linejoin="round" stroke-linecap="round" stroke-miterlimit="10" pointer-events="stroke"/><path d="M 443 106 L 443 18" fill="none" stroke="none" pointer-events="stroke"/><path d="M 443.71 104.46 M 443.56 105.69 C 444.73 73.91 443.49 39.6 442.69 16.16 M 443.42 105.96 C 443.39 80.24 444.24 55.86 443.27 17.95" fill="none" stroke="#000000" stroke-linejoin="round" stroke-linecap="round" stroke-miterlimit="10" pointer-events="stroke"/><path d="M 476 108 L 441 108" fill="none" stroke="none" pointer-events="stroke"/><path d="M 477.37 106.72 M 475.58 109.23 C 466.35 107.98 460.03 107.96 441.71 108.47 M 475.89 108.09 C 462.92 107.89 450.44 108.93 441.21 107.96" fill="none" stroke="#000000" stroke-linejoin="round" stroke-linecap="round" stroke-miterlimit="10" pointer-events="stroke"/><path d="M 618 0 L 0 0" fill="none" stroke="none" pointer-events="stroke"/><path d="M 619.37 -0.94 M 618.5 0.16 C 389.85 2.09 160.77 1.33 0.46 -0.8 M 617.73 -0.04 C 422.49 -2.38 228.12 -1.76 0.15 0.2" fill="none" stroke="#000000" stroke-linejoin="round" stroke-linecap="round" stroke-miterlimit="10" pointer-events="stroke"/><path d="M 352 107 L 352 19" fill="none" stroke="none" pointer-events="stroke"/><path d="M 353.37 106.74 M 352.62 105.72 C 351.56 89.55 353.27 69.42 354 20.1 M 352.21 106.53 C 351.08 88.87 351.64 71.65 352.73 18.57" fill="none" stroke="#000000" stroke-linejoin="round" stroke-linecap="round" stroke-miterlimit="10" pointer-events="stroke"/><path d="M 403 109 L 403 21" fill="none" stroke="none" pointer-events="stroke"/><path d="M 404.37 109.08 M 401.3 110.89 C 404.51 81.24 401.98 52.64 401.42 19.64 M 402.65 108.34 C 402.86 79.52 402.75 48.21 403.91 21.11" fill="none" stroke="#000000" stroke-linejoin="round" stroke-linecap="round" stroke-miterlimit="10" pointer-events="stroke"/><path d="M 376 51 L 352 24" fill="none" stroke="none" pointer-events="stroke"/><path d="M 377.37 51.42 M 375.98 52.05 C 368.08 45.98 363.3 37.8 350.85 24.18 M 375.09 50.15 C 368.24 43.41 362.54 35.2 351.08 24.65" fill="none" stroke="#000000" stroke-linejoin="round" stroke-linecap="round" stroke-miterlimit="10" pointer-events="stroke"/><path d="M 376 50 L 397 22" fill="none" stroke="none" pointer-events="stroke"/><path d="M 377.37 50.76 M 377.66 50.21 C 383.47 41.43 392.26 27.76 396.28 23.73 M 376.53 50.97 C 381.57 43.01 384.99 36.61 396.26 21.19" fill="none" stroke="#000000" stroke-linejoin="round" stroke-linecap="round" stroke-miterlimit="10" pointer-events="stroke"/><path d="M 299 109 L 281.55 74.9 Q 277 66 281.03 56.85 L 299 16" fill="none" stroke="none" pointer-events="stroke"/><path d="M 300.37 110.44 M 300.02 107.54 C 293.58 100.03 290.43 93.78 281.68 75.71 M 298.41 109.6 C 294.14 98.04 287.81 88.3 281.16 75.17 M 281.55 74.9 C 277.63 68.5 276.94 63.05 282.17 55.76 M 282.23 76.7 C 280.51 69.23 276.97 61.85 283.16 58.61 M 281.37 57 C 285.49 48.19 289.7 39.5 298.75 14.37 M 280.68 56.03 C 286.77 44.23 293.59 30.56 298.17 16.74" fill="none" stroke="#000000" stroke-linejoin="round" stroke-linecap="round" stroke-miterlimit="10" pointer-events="stroke"/><path d="M 305 110 L 319.96 76.15 Q 324 67 320.57 57.61 L 305 15" fill="none" stroke="none" pointer-events="stroke"/><path d="M 306.37 111.78 M 303.7 111.7 C 309.86 97.34 315.13 89.19 320.52 74.51 M 305.85 110.41 C 308.56 100.39 313.02 93.16 319.74 76.95 M 319.96 76.15 C 322.02 68.68 324.68 63.76 320.17 56.05 M 321 77.34 C 323.07 71.25 324.47 63.23 319.4 56.35 M 318.97 56.58 C 314.7 43.55 309.74 28.86 303.8 15.16 M 320.85 56.71 C 316.42 46.5 310.9 33.67 304.23 14.6" fill="none" stroke="#000000" stroke-linejoin="round" stroke-linecap="round" stroke-miterlimit="10" pointer-events="stroke"/><path d="M 209 106 L 209 18" fill="none" stroke="none" pointer-events="stroke"/><path d="M 210.38 107.6 M 210.34 104.45 C 210.82 80.66 209.75 54.36 207.38 19.86 M 208.95 106.12 C 209.42 74.58 208.64 42.74 208.81 17.18" fill="none" stroke="#000000" stroke-linejoin="round" stroke-linecap="round" stroke-miterlimit="10" pointer-events="stroke"/><path d="M 248 108 L 248 20" fill="none" stroke="none" pointer-events="stroke"/><path d="M 249.38 109.94 M 247.02 109.62 C 246 89.95 248.7 68.78 246.81 19.4 M 247.39 107.94 C 247.2 82.82 247.75 56.49 247.98 19.72" fill="none" stroke="#000000" stroke-linejoin="round" stroke-linecap="round" stroke-miterlimit="10" pointer-events="stroke"/><path d="M 242 72 L 211 58" fill="none" stroke="none" pointer-events="stroke"/><path d="M 243.38 70.28 M 242.7 72.78 C 231.53 68.56 219.51 63.97 210.23 58.94 M 242.83 71.75 C 235.58 69.14 228.02 66.11 211.16 58.26" fill="none" stroke="#000000" stroke-linejoin="round" stroke-linecap="round" stroke-miterlimit="10" pointer-events="stroke"/><path d="M 161 108 L 161 20" fill="none" stroke="none" pointer-events="stroke"/><path d="M 162.38 106.96 M 161.06 107.11 C 159.07 76.61 161.07 39.66 161.09 20.03 M 160.71 107.38 C 160.29 79.96 160.85 50.55 161.51 19.34" fill="none" stroke="#000000" stroke-linejoin="round" stroke-linecap="round" stroke-miterlimit="10" pointer-events="stroke"/><path d="M 182 16 L 133 16" fill="none" stroke="none" pointer-events="stroke"/><path d="M 183.38 15.3 M 183.74 14.27 C 167.69 14.27 150.8 16.78 133.52 17.57 M 181.15 15.19 C 168.93 16.3 155.6 16.16 133.68 15.88" fill="none" stroke="#000000" stroke-linejoin="round" stroke-linecap="round" stroke-miterlimit="10" pointer-events="stroke"/><path d="M 64 107 L 95 14" fill="none" stroke="none" pointer-events="stroke"/><path d="M 65.38 106.99 M 65.1 107.6 C 74.47 74.45 86.29 45.63 96.37 14.66 M 64.03 107.82 C 74.63 74.55 86.22 40.29 94.03 14.95" fill="none" stroke="#000000" stroke-linejoin="round" stroke-linecap="round" stroke-miterlimit="10" pointer-events="stroke"/><path d="M 116 109 L 97 15" fill="none" stroke="none" pointer-events="stroke"/><path d="M 117.38 109.33 M 114.79 108.76 C 111.11 83.7 107.23 60.15 98.8 13.2 M 115.47 109.63 C 110.52 80.63 104.72 51.87 96.21 14.49" fill="none" stroke="#000000" stroke-linejoin="round" stroke-linecap="round" stroke-miterlimit="10" pointer-events="stroke"/><path d="M 109 86 L 78 72" fill="none" stroke="none" pointer-events="stroke"/><path d="M 110.38 85.81 M 108.75 87.35 C 99.85 82.42 90.3 77.71 77.19 72.16 M 108.14 86.54 C 100.47 81.66 93.96 78.75 77.06 71.33" fill="none" stroke="#000000" stroke-linejoin="round" stroke-linecap="round" stroke-miterlimit="10" pointer-events="stroke"/><path d="M 13 107 L 13 14" fill="none" stroke="none" pointer-events="stroke"/><path d="M 14.38 107.49 M 12.11 106.68 C 11.34 76.3 10.8 43.92 13.05 13.25 M 13.02 107.16 C 12.87 75.34 12.76 43.73 12.41 14.41" fill="none" stroke="#000000" stroke-linejoin="round" stroke-linecap="round" stroke-miterlimit="10" pointer-events="stroke"/><path d="M 58 15.06 L 14 15.06" fill="none" stroke="none" pointer-events="stroke"/><path d="M 59.38 15.89 M 58.79 13.9 C 46.94 16.66 34.44 14.6 14.47 15.85 M 57.46 15.04 C 46.32 15.89 33.27 16 13.59 16.01" fill="none" stroke="#000000" stroke-linejoin="round" stroke-linecap="round" stroke-miterlimit="10" pointer-events="stroke"/><path d="M 41 54.16 L 12 54.16" fill="none" stroke="none" pointer-events="stroke"/><path d="M 42.38 55.33 M 39.47 52.16 C 27.89 51.93 19.66 52 12.9 52.49 M 41.9 53.95 C 34.23 54.01 28.35 54.62 11.76 53.65" fill="none" stroke="#000000" stroke-linejoin="round" stroke-linecap="round" stroke-miterlimit="10" pointer-events="stroke"/><path d="M 626 123 L 8 123" fill="none" stroke="none" pointer-events="stroke"/><path d="M 627.38 124.51 M 626.06 123.47 C 436.07 123.74 245.83 124.62 8.53 122.95 M 626.13 122.84 C 400.69 124.28 175.03 124.73 7.97 123.01" fill="none" stroke="#000000" stroke-linejoin="round" stroke-linecap="round" stroke-miterlimit="10" pointer-events="stroke"/></g></svg>