<?xml version="1.0" encoding="UTF-8"?>
<!DOCTYPE svg PUBLIC "-//W3C//DTD SVG 1.1//EN" "http://www.w3.org/Graphics/SVG/1.1/DTD/svg11.dtd">
<svg xmlns="http://www.w3.org/2000/svg" xmlns:xlink="http://www.w3.org/1999/xlink" version="1.1" width="628px" height="125px" viewBox="-0.5 -0.5 628 125"><defs/><g><path d="M 611 61.53 L 600.24 48.06 Q 594 40.25 598.43 31.29 L 601.72 24.64 Q 605 18 615 18 L 625 18" fill="none" stroke="none" pointer-events="stroke"/><path d="M 611.7 62.68 M 612.69 61.84 C 608.89 58.72 605.48 54.2 601.71 49.63 M 611.04 61.3 C 607.63 56.5 602.43 51.86 600.81 48.58 M 600.24 48.06 C 595.89 44.73 593.63 36.02 599.1 30.24 M 599.48 46.64 C 595.08 42.08 594.11 36.28 597.87 29.85 M 598.83 30.67 C 599.47 29.95 600.22 27.75 601.24 25.34 M 598.32 31.11 C 599.16 29.41 599.56 27.95 602.06 24.35 M 601.72 24.64 C 605.11 20.6 606.43 16.66 616.62 18.93 M 600.28 23.83 C 605.88 20.27 610.49 16.91 613.14 17.12 M 615.7 17.43 C 617.16 17.61 620.37 18.33 625.68 18.28 M 615.2 17.52 C 618.49 18.57 622.41 17.97 624.87 17.68" fill="none" stroke="#000000" stroke-linejoin="round" stroke-linecap="round" stroke-miterlimit="10" pointer-events="stroke"/><path d="M 597 107 L 614 107 Q 624 107 624 97 L 624 83.14 Q 624 73.14 617.06 65.94 L 610 58.63" fill="none" stroke="none" pointer-events="stroke"/><path d="M 597.7 108.49 M 596.69 106.6 C 599.16 108.2 605.49 105.92 612.41 106.46 M 596.56 106.61 C 602.74 106.56 608.63 107.64 614.71 106.27 M 614 107 C 620.72 107.98 625.38 102.22 623.13 95.48 M 613.6 108.97 C 622.69 107.16 625.62 103.14 624.74 97.14 M 623.4 97.79 C 623.64 92.62 623.5 86.23 625.23 82.91 M 624.24 96.61 C 624.64 92.27 623.94 86.68 624.67 83.2 M 624 83.14 C 624.8 74.85 623.66 71.48 616.51 65.4 M 624.29 81.78 C 623.35 75.68 619.78 71.41 617.35 66.54 M 617.4 64.97 C 615 65.11 613.28 63.26 609.01 57.63 M 617.37 65.82 C 614.02 63.57 611.4 60.31 609.6 58.18" fill="none" stroke="#000000" stroke-linejoin="round" stroke-linecap="round" stroke-miterlimit="10" pointer-events="stroke"/><path d="M 562 60.53 L 551.24 47.06 Q 545 39.25 549.43 30.29 L 552.72 23.64 Q 556 17 566 17 L 576 17" fill="none" stroke="none" pointer-events="stroke"/><path d="M 562.7 61 M 560.79 58.84 C 557.69 57.7 555.11 53.51 551.97 45.97 M 561.28 60.62 C 559.24 56.18 556.11 51.84 551.51 46.65 M 551.24 47.06 C 546.38 41.54 546.17 35.44 549.19 30.16 M 549.76 46.86 C 549.23 43.79 548.34 34.36 550.87 30.31 M 549.79 30.55 C 550.34 27.66 551.72 24.7 552.95 23.01 M 549.6 30.17 C 550.62 27.95 551.36 25.59 553.01 23.46 M 552.72 23.64 C 552.93 19.63 557.68 15.49 567.97 16.88 M 551.8 23.93 C 552.93 20.97 560.4 17 564.43 17.78 M 565.42 17.2 C 569.33 16.05 571.01 16.77 575.99 17.82 M 566 16.81 C 569.76 16.66 572.89 16.85 576.41 16.91" fill="none" stroke="#000000" stroke-linejoin="round" stroke-linecap="round" stroke-miterlimit="10" pointer-events="stroke"/><path d="M 548 106 L 565 106 Q 575 106 575 96 L 575 82.14 Q 575 72.14 568.06 64.94 L 561 57.63" fill="none" stroke="none" pointer-events="stroke"/><path d="M 548.7 106.81 M 548.23 107.02 C 553.82 106.56 559.86 107.47 566.08 106.23 M 548.51 105.93 C 552.12 106.93 555.98 105.45 565.41 106.06 M 565 106 C 571.22 104.78 573.92 101.64 573.22 95.41 M 563.88 105.19 C 572.24 104.28 575.25 101.22 573.14 97.59 M 574.32 95.67 C 576.19 91.86 573.53 86.6 574.77 82.2 M 574.37 95.72 C 574.51 91.65 575.24 88.38 575.59 82.4 M 575 82.14 C 576.61 73.88 570.91 70.32 567.86 63.35 M 575.82 81.88 C 575 76.38 574.3 71.5 568.64 67.19 M 567.11 64.75 C 565.98 62.42 561.61 59.23 561.34 57.17 M 568.17 65.11 C 565.56 61.8 563.48 59.48 561.15 57.42" fill="none" stroke="#000000" stroke-linejoin="round" stroke-linecap="round" stroke-miterlimit="10" pointer-events="stroke"/><path d="M 497 105 L 497 17" fill="none" stroke="none" pointer-events="stroke"/><path d="M 497.69 104.63 M 495.91 104.79 C 498.22 78.69 496.34 50.58 498.74 15.6 M 496.74 105.95 C 497.76 70.56 497.3 37.25 496.76 16.53" fill="none" stroke="#000000" stroke-linejoin="round" stroke-linecap="round" stroke-miterlimit="10" pointer-events="stroke"/><path d="M 530 107 L 495 107" fill="none" stroke="none" pointer-events="stroke"/><path d="M 530.69 106.97 M 530.59 105.96 C 519.84 109 513.43 106.88 493.17 107.15 M 529.18 107.76 C 518.13 107.83 507.54 106.86 494.93 107.07" fill="none" stroke="#000000" stroke-linejoin="round" stroke-linecap="round" stroke-miterlimit="10" pointer-events="stroke"/><path d="M 520 65 L 501 65" fill="none" stroke="none" pointer-events="stroke"/><path d="M 520.69 65.65 M 519.95 66.22 C 515.69 63.35 507.96 65.37 500.07 64.27 M 520.05 65.37 C 515.72 63.99 511.22 64.04 501.27 64.19" fill="none" stroke="#000000" stroke-linejoin="round" stroke-linecap="round" stroke-miterlimit="10" pointer-events="stroke"/><path d="M 527 18 L 500 18" fill="none" stroke="none" pointer-events="stroke"/><path d="M 527.69 18.13 M 527.91 16.87 C 518.96 18.32 510.51 19.15 500.42 19.19 M 526.72 18.29 C 516.85 18.73 507.9 17.98 500.14 18.99" fill="none" stroke="#000000" stroke-linejoin="round" stroke-linecap="round" stroke-miterlimit="10" pointer-events="stroke"/><path d="M 443 106 L 443 18" fill="none" stroke="none" pointer-events="stroke"/><path d="M 443.69 104.95 M 442.55 107.47 C 444.33 82.72 442.92 57.92 443.89 17.52 M 443.86 105.32 C 444.21 80.67 443.08 53.94 442.41 18.46" fill="none" stroke="#000000" stroke-linejoin="round" stroke-linecap="round" stroke-miterlimit="10" pointer-events="stroke"/><path d="M 476 108 L 441 108" fill="none" stroke="none" pointer-events="stroke"/><path d="M 476.69 107.29 M 477.23 108.63 C 461.37 109.12 449.85 106.76 442.32 109.06 M 476.3 107.13 C 466.98 108.15 458.74 108.17 440.58 108.99" fill="none" stroke="#000000" stroke-linejoin="round" stroke-linecap="round" stroke-miterlimit="10" pointer-events="stroke"/><path d="M 618 0 L 0 0" fill="none" stroke="none" pointer-events="stroke"/><path d="M 618.7 -0.81 M 618.01 -0.26 C 491.45 -2.1 363.51 -2.13 0.1 -0.37 M 618.27 0.24 C 461.87 0.56 306.3 0.49 -0.12 -0.07" fill="none" stroke="#000000" stroke-linejoin="round" stroke-linecap="round" stroke-miterlimit="10" pointer-events="stroke"/><path d="M 352 107 L 352 19" fill="none" stroke="none" pointer-events="stroke"/><path d="M 352.69 108.59 M 352.83 107.81 C 351.32 72.18 350.84 36.42 351.18 20.34 M 351.1 107.06 C 352.34 78.29 351.88 49.12 352.71 19.3" fill="none" stroke="#000000" stroke-linejoin="round" stroke-linecap="round" stroke-miterlimit="10" pointer-events="stroke"/><path d="M 403 109 L 403 21" fill="none" stroke="none" pointer-events="stroke"/><path d="M 403.69 110.93 M 401.51 108.98 C 404.26 81.46 403.55 54.85 402.61 19.89 M 403.54 108.88 C 402.12 84.53 402.99 60.88 403.88 21.84" fill="none" stroke="#000000" stroke-linejoin="round" stroke-linecap="round" stroke-miterlimit="10" pointer-events="stroke"/><path d="M 376 51 L 352 24" fill="none" stroke="none" pointer-events="stroke"/><path d="M 376.69 49.27 M 376.19 50.14 C 369.36 44.9 366.76 37.8 352.03 24.43 M 375.98 50.69 C 371 45.75 366.13 40.52 351.06 23.38" fill="none" stroke="#000000" stroke-linejoin="round" stroke-linecap="round" stroke-miterlimit="10" pointer-events="stroke"/><path d="M 376 50 L 397 22" fill="none" stroke="none" pointer-events="stroke"/><path d="M 376.69 48.61 M 377.87 48.3 C 384.1 40.69 390.4 28.11 397.46 23.97 M 375.42 49.51 C 382.52 39.83 391.52 30.89 396.23 21.92" fill="none" stroke="#000000" stroke-linejoin="round" stroke-linecap="round" stroke-miterlimit="10" pointer-events="stroke"/><path d="M 299 109 L 281.55 74.9 Q 277 66 281.03 56.85 L 299 16" fill="none" stroke="none" pointer-events="stroke"/><path d="M 299.69 110.77 M 297.18 109.06 C 293.95 102.93 290.84 93.33 282.91 76.74 M 298.99 109.35 C 294.11 100.49 290.93 92.33 282.23 74.82 M 281.55 74.9 C 280.04 70.21 276.37 61.66 281.7 58.2 M 280.31 76.22 C 279.95 69.76 277.05 63.25 279.95 57.75 M 280.99 58.8 C 286.16 41.09 294.82 28.06 299.71 16.04 M 280.74 57.03 C 288.99 41.72 295.11 24.58 298.68 16.42" fill="none" stroke="#000000" stroke-linejoin="round" stroke-linecap="round" stroke-miterlimit="10" pointer-events="stroke"/><path d="M 305 110 L 319.96 76.15 Q 324 67 320.57 57.61 L 305 15" fill="none" stroke="none" pointer-events="stroke"/><path d="M 305.69 108.11 M 304.86 109.22 C 310.81 96.27 316.69 84.78 321.75 75.54 M 304.43 110.16 C 310.75 97.86 316.59 85.42 320.82 76.61 M 319.96 76.15 C 324.43 70.39 324.11 62.37 319.7 58.5 M 319.08 76.86 C 322.51 71.78 324.55 64.63 320.79 55.48 M 318.59 58.37 C 317.79 44.89 311.71 34.14 304.76 16.83 M 320.91 57.71 C 314.49 43.3 310.1 28.89 304.74 14.28" fill="none" stroke="#000000" stroke-linejoin="round" stroke-linecap="round" stroke-miterlimit="10" pointer-events="stroke"/><path d="M 209 106 L 209 18" fill="none" stroke="none" pointer-events="stroke"/><path d="M 209.69 106.75 M 210.14 104.57 C 207.89 83.33 209.48 59.56 209.08 19.21 M 208.67 106.91 C 208.33 87.72 209.21 70.1 209.16 18.31" fill="none" stroke="#000000" stroke-linejoin="round" stroke-linecap="round" stroke-miterlimit="10" pointer-events="stroke"/><path d="M 248 108 L 248 20" fill="none" stroke="none" pointer-events="stroke"/><path d="M 248.69 109.09 M 246.82 109.73 C 248.83 75.01 250.19 38.78 248.5 18.76 M 247.11 108.72 C 248.11 78.37 246.32 46.66 248.33 20.85" fill="none" stroke="#000000" stroke-linejoin="round" stroke-linecap="round" stroke-miterlimit="10" pointer-events="stroke"/><path d="M 242 72 L 211 58" fill="none" stroke="none" pointer-events="stroke"/><path d="M 242.69 73.43 M 242.5 72.9 C 233.85 69.31 221.4 65.07 211.93 58.3 M 242.55 72.54 C 233.07 67.82 223.64 63.02 211.51 57.38" fill="none" stroke="#000000" stroke-linejoin="round" stroke-linecap="round" stroke-miterlimit="10" pointer-events="stroke"/><path d="M 161 108 L 161 20" fill="none" stroke="none" pointer-events="stroke"/><path d="M 161.69 107.39 M 159.42 109.92 C 161.88 73.78 160.41 39.06 159.37 19.04 M 160.92 107.65 C 161.22 88.34 162.77 68.28 160.46 20.16" fill="none" stroke="#000000" stroke-linejoin="round" stroke-linecap="round" stroke-miterlimit="10" pointer-events="stroke"/><path d="M 182 16 L 133 16" fill="none" stroke="none" pointer-events="stroke"/><path d="M 182.69 15.73 M 182.1 17.08 C 165.23 15.69 152.46 17.16 131.8 16.58 M 181.36 15.47 C 164.19 15.37 144.77 16.08 132.63 16.69" fill="none" stroke="#000000" stroke-linejoin="round" stroke-linecap="round" stroke-miterlimit="10" pointer-events="stroke"/><path d="M 64 107 L 95 14" fill="none" stroke="none" pointer-events="stroke"/><path d="M 63.76 107.02 M 63.25 107.56 C 72.81 78.62 83.3 48.52 94.68 12.91 M 63.41 107.33 C 73.98 77.5 84.69 48.42 95.61 14.15" fill="none" stroke="#000000" stroke-linejoin="round" stroke-linecap="round" stroke-miterlimit="10" pointer-events="stroke"/><path d="M 116 109 L 97 15" fill="none" stroke="none" pointer-events="stroke"/><path d="M 115.76 109.36 M 116.93 108.72 C 110.32 84.36 105.97 63.55 97.11 15.46 M 116.85 109.15 C 111.88 83.75 105.06 60.2 97.78 15.69" fill="none" stroke="#000000" stroke-linejoin="round" stroke-linecap="round" stroke-miterlimit="10" pointer-events="stroke"/><path d="M 109 86 L 78 72" fill="none" stroke="none" pointer-events="stroke"/><path d="M 109.69 85.04 M 109.74 84.75 C 100.06 81.89 90.55 79.38 79.94 73.5 M 109.48 85.84 C 100.32 81.49 91.63 77.17 77.28 71.62" fill="none" stroke="#000000" stroke-linejoin="round" stroke-linecap="round" stroke-miterlimit="10" pointer-events="stroke"/><path d="M 13 107 L 13 14" fill="none" stroke="none" pointer-events="stroke"/><path d="M 12.76 108.64 M 12.49 105.42 C 13.74 80.87 11.87 55.8 13.69 14.11 M 12.33 106.64 C 13.92 76.83 13.41 48.4 12.38 14.38" fill="none" stroke="#000000" stroke-linejoin="round" stroke-linecap="round" stroke-miterlimit="10" pointer-events="stroke"/><path d="M 58 15.06 L 14 15.06" fill="none" stroke="none" pointer-events="stroke"/><path d="M 57.76 17.04 M 59.17 16.64 C 50.81 15.24 39.87 14.38 15.12 16.71 M 58.77 14.51 C 45.86 15.54 35.25 15.06 13.56 15.98" fill="none" stroke="#000000" stroke-linejoin="round" stroke-linecap="round" stroke-miterlimit="10" pointer-events="stroke"/><path d="M 41 54.16 L 12 54.16" fill="none" stroke="none" pointer-events="stroke"/><path d="M 40.76 52.48 M 39.85 54.9 C 30.77 54.48 23.13 55.73 13.55 53.36 M 41.21 53.43 C 35.49 53.69 29.76 53.71 11.73 53.62" fill="none" stroke="#000000" stroke-linejoin="round" stroke-linecap="round" stroke-miterlimit="10" pointer-events="stroke"/><path d="M 626 123 L 8 123" fill="none" stroke="none" pointer-events="stroke"/><path d="M 626.7 124.06 M 626.31 122.63 C 444.35 123.24 262.7 123.83 8.26 122.94 M 626.17 122.68 C 500.15 125.26 373.72 125.49 8.31 122.78" fill="none" stroke="#000000" stroke-linejoin="round" stroke-linecap="round" stroke-miterlimit="10" pointer-events="stroke"/></g></svg>