<?xml version="1.0" encoding="UTF-8"?>
<!DOCTYPE svg PUBLIC "-//W3C//DTD SVG 1.1//EN" "http://www.w3.org/Graphics/SVG/1.1/DTD/svg11.dtd">
<svg xmlns="http://www.w3.org/2000/svg" xmlns:xlink="http://www.w3.org/1999/xlink" version="1.1" width="367px" height="81px" viewBox="-0.5 -0.5 367 81"><defs/><g><path d="M 113 38.23 L 103.07 28.28 Q 96 21.2 101.26 12.69 L 104.13 8.05 Q 107 3.4 117 3.4 L 127 3.4" fill="none" stroke="none" pointer-events="stroke"/><path d="M 112.43 38.07 M 114.1 39.22 C 108.15 34.05 105.63 30.73 103.17 28.41 M 112.78 38.25 C 110.8 35.8 108.89 33.48 102.38 28.2 M 103.07 28.28 C 98.02 22.4 96.43 19.93 100.6 13.15 M 104.19 29.63 C 99.03 25.35 95.76 16.3 102.96 10.78 M 101.24 12.33 C 102.09 10.4 103.97 8.51 103.84 8.33 M 101.35 12.85 C 101.93 11.21 102.83 9.74 103.87 8.01 M 104.13 8.05 C 104.39 6.83 111.64 3.27 115.34 3.38 M 102.88 7.3 C 106.85 7.13 109.93 1.45 116.06 5.2 M 116.33 2.95 C 120.55 4.33 121.48 2.85 127.98 3.94 M 116.7 3.55 C 120.33 3.11 124.21 3.17 127.42 3.05" fill="none" stroke="#000000" stroke-width="2" stroke-linejoin="round" stroke-linecap="round" stroke-miterlimit="10" pointer-events="stroke"/><path d="M 99 74.6 L 105.5 76.6 Q 112 78.6 119 76.6 L 122.5 75.6 Q 126 74.6 126 64.6 L 126 56.06 Q 126 47.51 119 41.71 L 112 35.9" fill="none" stroke="none" pointer-events="stroke"/><path d="M 98.43 74.78 M 98.74 74.79 C 100.78 75.02 103.12 75.13 105.69 77.19 M 98.71 74.55 C 101.7 75.62 103.99 75.79 105.23 76.75 M 105.5 76.6 C 109.75 79.88 116.24 79.29 120.79 76.6 M 106.98 77.34 C 108.93 76.07 115.32 76.33 117.4 76.27 M 119.36 76.87 C 120.4 76.03 121.25 75.62 122.86 75.38 M 119.18 76.69 C 119.95 76.29 120.88 75.91 122.34 75.73 M 122.5 75.6 C 126.77 74.8 127.19 73.22 126.16 63.11 M 122.99 74.31 C 123.01 76.26 126.14 71.07 127.21 63.27 M 126.82 63.89 C 125.38 61.48 125.36 57.91 125.42 55.44 M 125.83 64.18 C 125.61 61.29 125.79 58.36 126.13 55.66 M 126 56.06 C 124.33 51.68 122.4 46.76 120.91 41.86 M 127.33 54.45 C 126.66 51.13 125.28 45.87 118.21 41.67 M 118.15 42.31 C 117.98 41.44 116.15 39.55 111.18 35.36 M 119.41 42.04 C 116.71 39.9 114.17 37.65 111.88 35.78" fill="none" stroke="#000000" stroke-width="2" stroke-linejoin="round" stroke-linecap="round" stroke-miterlimit="10" pointer-events="stroke"/><path d="M 165 77 L 165 6.6" fill="none" stroke="none" pointer-events="stroke"/><path d="M 164.43 77.86 M 163.6 75.89 C 163.35 53.9 164.25 29.62 166.42 7.41 M 165.01 76.47 C 164.09 58.56 164.52 42.17 164.55 6.11" fill="none" stroke="#000000" stroke-width="2" stroke-linejoin="round" stroke-linecap="round" stroke-miterlimit="10" pointer-events="stroke"/><path d="M 186 3.4 L 137 3.4" fill="none" stroke="none" pointer-events="stroke"/><path d="M 185.43 3.74 M 185.57 3.88 C 165.96 5.01 147.38 2.56 135.82 2.16 M 185.68 2.77 C 175.13 4.26 166.99 2.83 136.4 2.75" fill="none" stroke="#000000" stroke-width="2" stroke-linejoin="round" stroke-linecap="round" stroke-miterlimit="10" pointer-events="stroke"/><path d="M 191 75.4 L 222 1" fill="none" stroke="none" pointer-events="stroke"/><path d="M 190.43 76.42 M 189.93 74.21 C 198.34 57.84 204.31 43.64 221.67 2.85 M 191.56 76.4 C 198.79 52.85 208.16 32.97 221.75 1.42" fill="none" stroke="#000000" stroke-width="2" stroke-linejoin="round" stroke-linecap="round" stroke-miterlimit="10" pointer-events="stroke"/><path d="M 243 77 L 224 1.8" fill="none" stroke="none" pointer-events="stroke"/><path d="M 242.43 78.36 M 243.61 78.97 C 235.17 50.51 231.87 25.22 224.1 1.19 M 243 77.81 C 238.26 60.03 233.62 42.7 223.92 2.76" fill="none" stroke="#000000" stroke-width="2" stroke-linejoin="round" stroke-linecap="round" stroke-miterlimit="10" pointer-events="stroke"/><path d="M 236 58.6 L 205 47.4" fill="none" stroke="none" pointer-events="stroke"/><path d="M 235.43 60.3 M 234.29 59.74 C 228.2 54.54 219.11 53.72 205.52 48.34 M 235.44 59.22 C 223.86 53.88 213.33 50.29 205.1 46.9" fill="none" stroke="#000000" stroke-width="2" stroke-linejoin="round" stroke-linecap="round" stroke-miterlimit="10" pointer-events="stroke"/><path d="M 335 78 L 335 7.6" fill="none" stroke="none" pointer-events="stroke"/><path d="M 334.43 76.38 M 336.65 77.46 C 333.67 56.75 336.03 38.19 336.38 7.62 M 335.32 78.25 C 334.63 59.77 334.39 41.01 335.45 8.18" fill="none" stroke="#000000" stroke-width="2" stroke-linejoin="round" stroke-linecap="round" stroke-miterlimit="10" pointer-events="stroke"/><path d="M 356 4.4 L 307 4.4" fill="none" stroke="none" pointer-events="stroke"/><path d="M 355.43 3.12 M 355.33 3.03 C 345.79 4.08 333.32 4.49 308.81 5.97 M 355.76 4.47 C 346.63 3.4 335.71 3.53 307.62 3.52" fill="none" stroke="#000000" stroke-width="2" stroke-linejoin="round" stroke-linecap="round" stroke-miterlimit="10" pointer-events="stroke"/><path d="M 264 78 L 264 4" fill="none" stroke="none" pointer-events="stroke"/><path d="M 263.43 77.4 M 262.69 78.95 C 262.76 59.39 264.43 41.04 262.66 4.66 M 264.64 77.69 C 264.11 56.38 263.87 34.01 264.97 4.19" fill="none" stroke="#000000" stroke-width="2" stroke-linejoin="round" stroke-linecap="round" stroke-miterlimit="10" pointer-events="stroke"/><path d="M 265 3.6 L 276.03 4.44 Q 286 5.2 289.36 14.62 L 292.68 23.91 Q 296 33.2 286.34 35.78 L 266 41.2" fill="none" stroke="none" pointer-events="stroke"/><path d="M 264.43 2.48 M 264.81 2.79 C 267.76 3.02 271.39 5.13 276.06 3.67 M 265.17 3.38 C 268.06 3.45 270.21 3.84 276.48 4.46 M 276.03 4.44 C 284.37 5.33 286.69 10.17 290.24 13.13 M 277.27 3.66 C 282.5 4.23 286.66 9.13 290.28 13.41 M 288.85 14.75 C 289.61 17.8 291.03 21.6 293.61 24.44 M 289.22 14.63 C 289.91 16.73 290.56 18.6 292.79 23.81 M 292.68 23.91 C 294.38 31.13 291.25 34.62 286.84 37.31 M 292.66 24.45 C 295.97 30.67 290.55 33.93 286.53 37.17 M 284.41 35.78 C 277.41 35.7 269.7 39.43 266.72 40.07 M 286.93 35.89 C 281.07 37.6 273.47 39.21 266.76 41.41" fill="none" stroke="#000000" stroke-width="2" stroke-linejoin="round" stroke-linecap="round" stroke-miterlimit="10" pointer-events="stroke"/><path d="M 296 78 L 280 39.6" fill="none" stroke="none" pointer-events="stroke"/><path d="M 295.43 77.22 M 297.34 79.71 C 292.99 68.15 289.72 61.06 280.48 39.75 M 295.74 77.41 C 290.04 63.9 284.32 48.02 281 40.17" fill="none" stroke="#000000" stroke-width="2" stroke-linejoin="round" stroke-linecap="round" stroke-miterlimit="10" pointer-events="stroke"/><path d="M 0 78 L 0 1" fill="none" stroke="none" pointer-events="stroke"/><path d="M -0.57 77.9 M 0.7 78.03 C -1.05 56.85 -1.22 38.28 1.34 0.24 M 0.62 77.04 C 0.18 58.2 -0.73 37.28 -0.65 0.65" fill="none" stroke="#000000" stroke-width="2" stroke-linejoin="round" stroke-linecap="round" stroke-miterlimit="10" pointer-events="stroke"/><path d="M 1.25 0.58 L 17.52 1.62 Q 27.5 2.25 31.44 11.44 L 36.06 22.19 Q 40 31.38 30.24 33.55 L 2.5 39.71" fill="none" stroke="none" pointer-events="stroke"/><path d="M 0.68 0.82 M -0.07 -0.08 C 8.07 0.64 13.98 0.91 18.96 2.26 M 1.3 1.27 C 3.96 0.9 7.77 1.43 17.13 1.77 M 17.52 1.62 C 22.87 2.82 29.31 6.31 30.15 12.1 M 16.19 2.4 C 22.29 0.49 31.1 3.35 32.96 11.92 M 30.97 11.16 C 33.21 14.78 34.23 17.3 34.95 22.31 M 31.58 11.26 C 31.96 13.45 33.99 16.51 36.32 21.73 M 36.06 22.19 C 40.54 29.28 38.73 32.99 30.03 33.19 M 34.98 20.53 C 38.47 30.08 36.69 29.81 29.86 31.62 M 29.41 34.47 C 25.84 34.86 17.34 37.9 1.99 40.42 M 29.63 34.51 C 19.67 35.43 11.12 38.35 3.11 38.98" fill="none" stroke="#000000" stroke-width="2" stroke-linejoin="round" stroke-linecap="round" stroke-miterlimit="10" pointer-events="stroke"/><path d="M 40 78 L 20 38.04" fill="none" stroke="none" pointer-events="stroke"/><path d="M 39.43 78.58 M 40.06 76.36 C 32.36 65.66 29.64 55.47 18.19 36.37 M 39.5 78.66 C 32.85 63.21 25.48 49.86 19.7 38.77" fill="none" stroke="#000000" stroke-width="2" stroke-linejoin="round" stroke-linecap="round" stroke-miterlimit="10" pointer-events="stroke"/><path d="M 52 75.36 L 52 3" fill="none" stroke="none" pointer-events="stroke"/><path d="M 51.43 76.62 M 51.42 76.04 C 52.94 50.65 51.83 23.93 51.04 4.41 M 52.38 75.65 C 52.94 57.77 53.36 40.11 52.05 2.8" fill="none" stroke="#000000" stroke-width="2" stroke-linejoin="round" stroke-linecap="round" stroke-miterlimit="10" pointer-events="stroke"/><path d="M 85 77 L 50 77" fill="none" stroke="none" pointer-events="stroke"/><path d="M 84.43 78.6 M 86.1 76.85 C 74.2 77.16 67.59 77.5 49.47 75.96 M 84.82 77.1 C 70.9 76.09 57.16 76.5 50.22 77.34" fill="none" stroke="#000000" stroke-width="2" stroke-linejoin="round" stroke-linecap="round" stroke-miterlimit="10" pointer-events="stroke"/><path d="M 75 42.47 L 56 42.47" fill="none" stroke="none" pointer-events="stroke"/><path d="M 74.43 44.41 M 73.84 41.53 C 67.59 43.3 58.78 41.83 55.9 42.95 M 74.3 42.39 C 69.22 43.08 62.1 42.05 56.38 43.31" fill="none" stroke="#000000" stroke-width="2" stroke-linejoin="round" stroke-linecap="round" stroke-miterlimit="10" pointer-events="stroke"/><path d="M 82 3.82 L 55 3.82" fill="none" stroke="none" pointer-events="stroke"/><path d="M 81.43 5.25 M 81.74 4.42 C 75.35 2.29 70.4 3.44 56.29 2.28 M 82.93 3.64 C 74.87 3.84 67.76 3.96 55.25 4.54" fill="none" stroke="#000000" stroke-width="2" stroke-linejoin="round" stroke-linecap="round" stroke-miterlimit="10" pointer-events="stroke"/></g></svg>