<?xml version="1.0" encoding="UTF-8"?>
<!DOCTYPE svg PUBLIC "-//W3C//DTD SVG 1.1//EN" "http://www.w3.org/Graphics/SVG/1.1/DTD/svg11.dtd">
<svg xmlns="http://www.w3.org/2000/svg" xmlns:xlink="http://www.w3.org/1999/xlink" version="1.1" width="367px" height="81px" viewBox="-0.5 -0.5 367 81"><defs/><g><path d="M 113 38.23 L 103.07 28.28 Q 96 21.2 101.26 12.69 L 104.13 8.05 Q 107 3.4 117 3.4 L 127 3.4" fill="none" stroke="none" pointer-events="stroke"/><path d="M 112.43 37.02 M 111.92 39.11 C 110.83 34.88 107.99 32.92 102.37 28.72 M 113.48 37.58 C 110.93 36.27 108.26 33.87 103.74 28.89 M 103.07 28.28 C 96.82 24.41 98.38 16.86 100.11 10.99 M 104.88 30.17 C 98.22 23.58 95.96 16.91 101.68 11.34 M 100.96 12.35 C 102.35 10.99 102.7 9.97 104.33 7.94 M 101.21 12.46 C 102.06 11.27 103.14 9.67 104.19 7.99 M 104.13 8.05 C 107.25 3.44 108.53 4.88 117.34 5.4 M 104.88 9.39 C 107.29 3.36 108.69 4.99 119.05 5.68 M 117.35 3.93 C 121.55 3.15 123.69 3.25 127.47 4.4 M 116.79 3.9 C 119.67 3.92 121.6 3.6 126.98 3.41" fill="none" stroke="#000000" stroke-width="2" stroke-linejoin="round" stroke-linecap="round" stroke-miterlimit="10" pointer-events="stroke"/><path d="M 99 74.6 L 105.5 76.6 Q 112 78.6 119 76.6 L 122.5 75.6 Q 126 74.6 126 64.6 L 126 56.06 Q 126 47.51 119 41.71 L 112 35.9" fill="none" stroke="none" pointer-events="stroke"/><path d="M 98.43 73.73 M 99.05 74.74 C 100.09 75.04 101.64 75.43 105.31 75.98 M 99.04 74.9 C 101.49 75.47 104.43 76.48 105.2 76.4 M 105.5 76.6 C 108.55 77.88 114.19 76.22 120.31 78.44 M 103.67 77.88 C 108.12 78.89 115.53 76.95 120.72 76.82 M 119.17 76.88 C 119.71 76.22 120.84 76.18 122.46 75.85 M 119.08 76.43 C 120.02 76.3 120.69 76.17 122.55 75.71 M 122.5 75.6 C 125.63 75.41 124.08 70.83 124.17 65.12 M 120.98 76.39 C 123.46 77.1 124.9 70.01 125.61 63.76 M 125.99 64.73 C 125.22 62.89 125.23 59.64 126.7 55.83 M 125.91 64.47 C 125.94 62.69 126.09 60.25 125.75 55.97 M 126 56.06 C 126.06 51.83 122.15 44.6 117.67 41.47 M 124.94 56.54 C 126.01 48.08 123.4 45.19 117.12 40.93 M 119.54 41.22 C 116.29 39.27 114.06 38.69 111.27 36.65 M 118.94 42.05 C 117.46 40.36 115.3 38.35 112.17 36.21" fill="none" stroke="#000000" stroke-width="2" stroke-linejoin="round" stroke-linecap="round" stroke-miterlimit="10" pointer-events="stroke"/><path d="M 165 77 L 165 6.6" fill="none" stroke="none" pointer-events="stroke"/><path d="M 164.44 76.81 M 164.5 75.74 C 166.38 58.38 166.03 39.18 165.28 7.86 M 164 77.52 C 164.98 57.75 164.73 37.64 164.47 7.09" fill="none" stroke="#000000" stroke-width="2" stroke-linejoin="round" stroke-linecap="round" stroke-miterlimit="10" pointer-events="stroke"/><path d="M 186 3.4 L 137 3.4" fill="none" stroke="none" pointer-events="stroke"/><path d="M 185.44 3.55 M 187.19 5.31 C 165.84 3.77 146.01 1.9 137.71 2.2 M 186.44 3.73 C 174.1 3.59 164.2 3.78 136.65 2.43" fill="none" stroke="#000000" stroke-width="2" stroke-linejoin="round" stroke-linecap="round" stroke-miterlimit="10" pointer-events="stroke"/><path d="M 191 75.4 L 222 1" fill="none" stroke="none" pointer-events="stroke"/><path d="M 190.44 75.37 M 190.83 74.06 C 201.84 48.02 211.03 20.25 220.53 -0.7 M 190.55 75.44 C 200.56 52.22 210.14 28.51 221.67 0.41" fill="none" stroke="#000000" stroke-width="2" stroke-linejoin="round" stroke-linecap="round" stroke-miterlimit="10" pointer-events="stroke"/><path d="M 243 77 L 224 1.8" fill="none" stroke="none" pointer-events="stroke"/><path d="M 242.44 77.31 M 244.51 78.82 C 239.26 55.43 231.77 35.48 222.96 1.65 M 243.99 76.86 C 236.6 56.91 232.74 37.73 223.85 1.75" fill="none" stroke="#000000" stroke-width="2" stroke-linejoin="round" stroke-linecap="round" stroke-miterlimit="10" pointer-events="stroke"/><path d="M 236 58.6 L 205 47.4" fill="none" stroke="none" pointer-events="stroke"/><path d="M 235.44 59.25 M 235.19 59.58 C 222.76 53.74 211.95 48.46 204.38 48.79 M 236.43 58.27 C 230.03 57.34 224.14 53.97 205.02 47.88" fill="none" stroke="#000000" stroke-width="2" stroke-linejoin="round" stroke-linecap="round" stroke-miterlimit="10" pointer-events="stroke"/><path d="M 335 78 L 335 7.6" fill="none" stroke="none" pointer-events="stroke"/><path d="M 334.44 79.33 M 333.55 77.31 C 336.69 61.23 333.81 43.75 335.24 8.08 M 334.31 77.3 C 335.51 56.96 334.59 36.48 335.37 7.16" fill="none" stroke="#000000" stroke-width="2" stroke-linejoin="round" stroke-linecap="round" stroke-miterlimit="10" pointer-events="stroke"/><path d="M 356 4.4 L 307 4.4" fill="none" stroke="none" pointer-events="stroke"/><path d="M 355.44 6.07 M 356.23 2.87 C 337.75 5.06 320.98 6.61 307.67 2.42 M 356.75 3.51 C 344.09 5.14 333.09 3.57 307.55 4.5" fill="none" stroke="#000000" stroke-width="2" stroke-linejoin="round" stroke-linecap="round" stroke-miterlimit="10" pointer-events="stroke"/><path d="M 264 78 L 264 4" fill="none" stroke="none" pointer-events="stroke"/><path d="M 263.44 76.35 M 263.59 78.8 C 261.78 64.08 262.2 47 265.52 5.11 M 263.63 78.74 C 262.99 53.47 264.08 31.29 264.9 3.18" fill="none" stroke="#000000" stroke-width="2" stroke-linejoin="round" stroke-linecap="round" stroke-miterlimit="10" pointer-events="stroke"/><path d="M 265 3.6 L 276.03 4.44 Q 286 5.2 289.36 14.62 L 292.68 23.91 Q 296 33.2 286.34 35.78 L 266 41.2" fill="none" stroke="none" pointer-events="stroke"/><path d="M 264.44 2.29 M 265.7 3.58 C 268.4 4.44 272.05 4.67 277.11 3.69 M 264.48 3.91 C 268.31 4 270.33 4.2 275.52 4.28 M 276.03 4.44 C 281.91 6.25 288.81 7.51 290.18 12.7 M 274.41 4.99 C 282.58 5.7 288.59 9.25 289.29 13.12 M 288.77 15.23 C 289.88 17.82 290.58 18.94 292.48 22.98 M 289.33 14.77 C 289.98 16.4 290.43 18.76 292.77 23.78 M 292.68 23.91 C 293.81 30.06 294.71 32.47 286.53 34.24 M 294.19 22.05 C 296.31 30.96 291.72 32.77 285.65 34.36 M 285.69 33.91 C 278.69 38.34 268.27 39.11 267.17 42.31 M 286.92 35.65 C 281.81 36.66 278.6 38.51 265.16 41.04" fill="none" stroke="#000000" stroke-width="2" stroke-linejoin="round" stroke-linecap="round" stroke-miterlimit="10" pointer-events="stroke"/><path d="M 296 78 L 280 39.6" fill="none" stroke="none" pointer-events="stroke"/><path d="M 295.44 77.03 M 294.95 77.13 C 293.48 70.28 289.57 59.06 278.37 39.79 M 296.5 78.37 C 292.7 69.58 289.16 62.15 279.25 39.85" fill="none" stroke="#000000" stroke-width="2" stroke-linejoin="round" stroke-linecap="round" stroke-miterlimit="10" pointer-events="stroke"/><path d="M 0 78 L 0 1" fill="none" stroke="none" pointer-events="stroke"/><path d="M -0.56 76.85 M 1.6 77.88 C -2.02 61.71 0.56 44.58 0.2 0.69 M -0.39 78.08 C 1.06 55.21 -0.52 32.38 -0.73 1.63" fill="none" stroke="#000000" stroke-width="2" stroke-linejoin="round" stroke-linecap="round" stroke-miterlimit="10" pointer-events="stroke"/><path d="M 1.25 0.58 L 17.52 1.62 Q 27.5 2.25 31.44 11.44 L 36.06 22.19 Q 40 31.38 30.24 33.55 L 2.5 39.71" fill="none" stroke="none" pointer-events="stroke"/><path d="M 0.69 -0.23 M 0.66 -0.2 C 6.37 0.9 10.36 2.04 18.03 2.63 M 0.48 0.5 C 5.12 0.43 8.85 1.24 17.07 0.94 M 17.52 1.62 C 25.67 0.82 27.26 7.24 29.66 9.94 M 16.88 2.94 C 26.08 3.31 26.7 3.96 31.68 12.47 M 30.36 11.19 C 32.65 16.18 33.81 18.35 36.01 21.48 M 31.28 11.59 C 33.01 15.5 35.21 20.2 35.83 21.69 M 36.06 22.19 C 39.4 29.89 35.62 30.61 32.04 35.2 M 36.98 22.62 C 38.91 26.32 35.44 33.35 28.25 32.11 M 31.47 32.44 C 22.14 36.74 14.41 35.66 0.97 41.34 M 29.81 33.19 C 22.93 34.5 16.98 36.09 2.22 39.71" fill="none" stroke="#000000" stroke-width="2" stroke-linejoin="round" stroke-linecap="round" stroke-miterlimit="10" pointer-events="stroke"/><path d="M 40 78 L 20 38.04" fill="none" stroke="none" pointer-events="stroke"/><path d="M 39.44 77.53 M 40.96 76.21 C 36.5 68.21 29.66 57.41 21.05 36.82 M 40.49 77.71 C 31.15 63.49 24.53 47.29 19.62 37.75" fill="none" stroke="#000000" stroke-width="2" stroke-linejoin="round" stroke-linecap="round" stroke-miterlimit="10" pointer-events="stroke"/><path d="M 52 75.36 L 52 3" fill="none" stroke="none" pointer-events="stroke"/><path d="M 51.44 75.58 M 52.32 75.89 C 51.96 55.24 53.61 33.71 53.9 4.87 M 51.37 74.7 C 51.82 54.9 53.57 35.48 51.97 3.79" fill="none" stroke="#000000" stroke-width="2" stroke-linejoin="round" stroke-linecap="round" stroke-miterlimit="10" pointer-events="stroke"/><path d="M 85 77 L 50 77" fill="none" stroke="none" pointer-events="stroke"/><path d="M 84.44 77.56 M 87 76.7 C 79.18 78.02 69.28 75.5 48.33 76.41 M 85.81 76.15 C 77.77 77.67 69.34 76.39 50.15 76.32" fill="none" stroke="#000000" stroke-width="2" stroke-linejoin="round" stroke-linecap="round" stroke-miterlimit="10" pointer-events="stroke"/><path d="M 75 42.47 L 56 42.47" fill="none" stroke="none" pointer-events="stroke"/><path d="M 74.44 43.37 M 74.7 41.39 C 67.73 43.61 62.6 43.23 54.82 43.38 M 75.24 43.39 C 67.6 42.15 61.19 43.31 56.31 42.34" fill="none" stroke="#000000" stroke-width="2" stroke-linejoin="round" stroke-linecap="round" stroke-miterlimit="10" pointer-events="stroke"/><path d="M 82 3.82 L 55 3.82" fill="none" stroke="none" pointer-events="stroke"/><path d="M 81.44 5.06 M 83.36 1.84 C 75.64 5.65 69.85 3.37 54.19 2.32 M 81.69 4.6 C 74.32 4.53 65.95 4.26 55.5 4.22" fill="none" stroke="#000000" stroke-width="2" stroke-linejoin="round" stroke-linecap="round" stroke-miterlimit="10" pointer-events="stroke"/></g></svg>