<?xml version="1.0" encoding="UTF-8"?>
<!DOCTYPE svg PUBLIC "-//W3C//DTD SVG 1.1//EN" "http://www.w3.org/Graphics/SVG/1.1/DTD/svg11.dtd">
<svg xmlns="http://www.w3.org/2000/svg" xmlns:xlink="http://www.w3.org/1999/xlink" version="1.1" width="367px" height="81px" viewBox="-0.5 -0.5 367 81"><defs/><g><path d="M 113 37.65 L 103.07 27.7 Q 96 20.62 101.26 12.11 L 104.13 7.47 Q 107 2.82 117 2.82 L 127 2.82" fill="none" stroke="none" pointer-events="stroke"/><path d="M 112.44 39.39 M 112.55 38.42 C 110.7 35.33 107.54 31.93 104.38 28.46 M 112.77 37.73 C 109.85 34.96 107.82 32.48 103.69 27.6 M 103.07 27.7 C 99.63 21.83 96.34 17.21 99.63 12.25 M 101.57 26.13 C 97.41 21.22 96.16 16.95 100.41 11.31 M 101.77 11.78 C 101.52 11 102.52 9.76 103.73 6.97 M 101.07 12.03 C 102.28 10.76 103 9.58 103.95 7.38 M 104.13 7.47 C 106.11 3.47 109.42 1.92 115.35 2.83 M 102.87 6.89 C 107.74 3.62 112.04 3.35 117.45 0.99 M 116.38 2.34 C 120.54 3.39 123.91 3.06 126.96 2.27 M 116.88 2.66 C 121.01 2.95 123.98 3.26 126.54 3.2" fill="none" stroke="#000000" stroke-width="2" stroke-linejoin="round" stroke-linecap="round" stroke-miterlimit="10" pointer-events="stroke"/><path d="M 99 74.02 L 105.5 76.02 Q 112 78.02 119 76.02 L 122.5 75.02 Q 126 74.02 126 64.02 L 126 55.48 Q 126 46.93 119 41.13 L 112 35.32" fill="none" stroke="none" pointer-events="stroke"/><path d="M 98.44 72.1 M 99.36 74.11 C 102.05 75.02 104.12 76.08 104.92 75.55 M 98.7 74 C 100.67 74.2 101.58 74.98 105.18 76.15 M 105.5 76.02 C 111.35 79.3 116.15 76.57 119.82 75.7 M 104.36 77.84 C 111.91 76.53 115.73 76.98 119.45 76.79 M 118.98 76.31 C 120.46 75.62 121.12 75.03 122.79 75.01 M 118.99 75.95 C 119.73 75.73 120.87 75.5 122.39 75.12 M 122.5 75.02 C 124.49 75.44 124.97 71.87 126.18 62.56 M 122.98 73.89 C 123.9 72.76 128.25 72.97 124 63.66 M 125.16 63.28 C 126.77 62 126.8 60.79 126.26 55.64 M 125.99 64.19 C 126.09 60.95 126.23 57.29 126.23 55.7 M 126 55.48 C 127.8 51.4 121.89 45.85 118.43 40.5 M 126.55 54.06 C 125.36 49.04 121.53 43.93 120.64 39.61 M 119.12 41.37 C 117.82 39.63 114.76 37.89 111.36 35.53 M 119.39 41.48 C 117.41 40.23 115.64 38.46 111.55 35.15" fill="none" stroke="#000000" stroke-width="2" stroke-linejoin="round" stroke-linecap="round" stroke-miterlimit="10" pointer-events="stroke"/><path d="M 165 76.42 L 165 6.02" fill="none" stroke="none" pointer-events="stroke"/><path d="M 164.44 75.18 M 165.41 75.01 C 165.4 62.29 163.81 44.17 164.14 7.73 M 164.99 75.98 C 165.86 54.36 164.93 32.54 164.4 5.49" fill="none" stroke="#000000" stroke-width="2" stroke-linejoin="round" stroke-linecap="round" stroke-miterlimit="10" pointer-events="stroke"/><path d="M 186 2.82 L 137 2.82" fill="none" stroke="none" pointer-events="stroke"/><path d="M 185.44 1.92 M 184.09 4.57 C 167.61 4.16 153.26 3.44 136.57 2.08 M 185.43 2.2 C 173.56 3.77 161.59 2.25 136.58 2.83" fill="none" stroke="#000000" stroke-width="2" stroke-linejoin="round" stroke-linecap="round" stroke-miterlimit="10" pointer-events="stroke"/><path d="M 191 74.82 L 222 0.42" fill="none" stroke="none" pointer-events="stroke"/><path d="M 190.44 74.6 M 192.45 74.9 C 203.2 48.41 212.62 19.83 222.42 -1.24 M 191.31 73.82 C 202.33 48.92 211.92 25.19 221.93 -0.49" fill="none" stroke="#000000" stroke-width="2" stroke-linejoin="round" stroke-linecap="round" stroke-miterlimit="10" pointer-events="stroke"/><path d="M 243 76.42 L 224 1.22" fill="none" stroke="none" pointer-events="stroke"/><path d="M 242.44 76.54 M 242.13 75.66 C 235.69 52.29 231.51 31.52 224.85 1.11 M 242.75 77.24 C 237.29 55.85 232.33 34.63 224.1 0.85" fill="none" stroke="#000000" stroke-width="2" stroke-linejoin="round" stroke-linecap="round" stroke-miterlimit="10" pointer-events="stroke"/><path d="M 236 58.02 L 205 46.82" fill="none" stroke="none" pointer-events="stroke"/><path d="M 234.04 56.24 M 235.11 57.42 C 229.58 55.2 220.34 51.21 205.65 44.89 M 235.24 58.64 C 224.73 54.29 211.93 49.29 204.11 46.59" fill="none" stroke="#000000" stroke-width="2" stroke-linejoin="round" stroke-linecap="round" stroke-miterlimit="10" pointer-events="stroke"/><path d="M 335 77.42 L 335 7.02" fill="none" stroke="none" pointer-events="stroke"/><path d="M 333.04 76.32 M 333.47 79.15 C 335.85 57.18 334.05 35.48 336.51 8.18 M 335.12 77.67 C 335.29 58.23 334.8 39.99 334.46 7.86" fill="none" stroke="#000000" stroke-width="2" stroke-linejoin="round" stroke-linecap="round" stroke-miterlimit="10" pointer-events="stroke"/><path d="M 356 3.82 L 307 3.82" fill="none" stroke="none" pointer-events="stroke"/><path d="M 354.04 3.06 M 356.15 4.71 C 347.29 4.88 334.67 2.12 308.93 2.52 M 355.56 3.89 C 345.54 4.73 336.32 3.47 306.63 3.2" fill="none" stroke="#000000" stroke-width="2" stroke-linejoin="round" stroke-linecap="round" stroke-miterlimit="10" pointer-events="stroke"/><path d="M 264 77.42 L 264 3.42" fill="none" stroke="none" pointer-events="stroke"/><path d="M 262.04 77.34 M 263.51 76.64 C 264.97 59.83 262.48 38.33 262.79 5.21 M 264.44 77.11 C 264.24 54.83 263.75 34.99 263.98 3.88" fill="none" stroke="#000000" stroke-width="2" stroke-linejoin="round" stroke-linecap="round" stroke-miterlimit="10" pointer-events="stroke"/><path d="M 265 3.02 L 276.03 3.86 Q 286 4.62 289.36 14.04 L 292.68 23.33 Q 296 32.62 286.34 35.2 L 266 40.62" fill="none" stroke="none" pointer-events="stroke"/><path d="M 263.04 3.28 M 265.66 2.12 C 268.15 4.16 273.01 4.26 275.6 3.49 M 264.93 2.75 C 268.07 3.29 270.02 3.63 276.12 4.41 M 276.03 3.86 C 281.65 3.41 287.19 6.85 287.72 15.88 M 277.01 5.38 C 283.92 4.13 286.34 7.59 288.84 12.77 M 289.9 14.08 C 290.49 17.15 291.03 20.03 292.95 24.29 M 289.84 14.33 C 289.9 17.02 290.98 19.24 292.95 23.49 M 292.68 23.33 C 293.98 31.27 292.21 33.51 287.77 34.84 M 291.91 22.92 C 294.66 30.69 293.34 33.76 286.09 35.81 M 285.13 35.89 C 282.42 36.84 277.46 36.6 265.08 41.95 M 287.11 34.76 C 279.32 38.11 271.73 38.95 265.66 40.99" fill="none" stroke="#000000" stroke-width="2" stroke-linejoin="round" stroke-linecap="round" stroke-miterlimit="10" pointer-events="stroke"/><path d="M 296 77.42 L 280 39.02" fill="none" stroke="none" pointer-events="stroke"/><path d="M 294.04 78.02 M 294.87 78.96 C 290.67 68 286.95 54.32 279.64 39.9 M 295.31 76.74 C 289.87 62.37 284 48.62 280.33 38.55" fill="none" stroke="#000000" stroke-width="2" stroke-linejoin="round" stroke-linecap="round" stroke-miterlimit="10" pointer-events="stroke"/><path d="M 0 77.42 L 0 0.42" fill="none" stroke="none" pointer-events="stroke"/><path d="M -1.96 78.7 M -1.77 77.29 C -1.04 49.9 -0.47 25.87 0.5 0.38 M 0.19 78.37 C -0.48 57.04 0.36 36.46 0.68 1.03" fill="none" stroke="#000000" stroke-width="2" stroke-linejoin="round" stroke-linecap="round" stroke-miterlimit="10" pointer-events="stroke"/><path d="M 1.25 0 L 17.52 1.04 Q 27.5 1.67 31.44 10.86 L 36.06 21.61 Q 40 30.8 30.24 32.97 L 2.5 39.13" fill="none" stroke="none" pointer-events="stroke"/><path d="M -0.71 0.76 M 0.59 1.19 C 6.02 0.75 15.06 1.69 19.06 2.61 M 1.14 0.69 C 4.76 -0.34 8.39 0.68 17.95 1.41 M 17.52 1.04 C 25.42 1.98 29.63 6.59 31.2 9.12 M 19.48 -0.67 C 22.81 1.75 29.05 6.91 31.23 12.11 M 31.71 9.94 C 32.32 13.39 34.79 17.81 36.56 20.8 M 31.89 11.18 C 32.24 14.19 34.31 16.55 36.04 21.45 M 36.06 21.61 C 39.57 27.1 37.12 31.65 29.27 31.8 M 34.7 23.48 C 37.26 26.05 37.06 29.74 28.69 33.56 M 30.91 34.42 C 21.46 36.38 10.9 35.4 2.88 40.98 M 30.01 32.3 C 24.77 34.83 18.75 36.3 2.73 39.65" fill="none" stroke="#000000" stroke-width="2" stroke-linejoin="round" stroke-linecap="round" stroke-miterlimit="10" pointer-events="stroke"/><path d="M 40 77.42 L 20 37.46" fill="none" stroke="none" pointer-events="stroke"/><path d="M 38.04 78.52 M 40.88 78.04 C 33.45 65.84 26.57 52.5 18.32 36.92 M 39.3 78.08 C 31.62 63.63 25.98 48.83 20.71 38.45" fill="none" stroke="#000000" stroke-width="2" stroke-linejoin="round" stroke-linecap="round" stroke-miterlimit="10" pointer-events="stroke"/><path d="M 52 74.78 L 52 2.42" fill="none" stroke="none" pointer-events="stroke"/><path d="M 50.04 76.56 M 52.24 73.73 C 51.14 51.09 53.87 25.21 51.17 0.97 M 52.18 75.07 C 51.59 56.22 51.77 39.09 51.06 2.49" fill="none" stroke="#000000" stroke-width="2" stroke-linejoin="round" stroke-linecap="round" stroke-miterlimit="10" pointer-events="stroke"/><path d="M 85 76.42 L 50 76.42" fill="none" stroke="none" pointer-events="stroke"/><path d="M 83.04 74.54 M 86.92 74.53 C 75.69 77.86 64.93 75.01 49.6 76.51 M 84.62 76.52 C 71.83 76.49 57.79 75.51 49.23 77.03" fill="none" stroke="#000000" stroke-width="2" stroke-linejoin="round" stroke-linecap="round" stroke-miterlimit="10" pointer-events="stroke"/><path d="M 75 41.89 L 56 41.89" fill="none" stroke="none" pointer-events="stroke"/><path d="M 73.04 40.35 M 74.62 43.1 C 69.01 43.43 60.05 42.75 56.03 43.45 M 74.11 41.81 C 68.21 41.58 62.74 41.13 55.44 41.08" fill="none" stroke="#000000" stroke-width="2" stroke-linejoin="round" stroke-linecap="round" stroke-miterlimit="10" pointer-events="stroke"/><path d="M 82 3.24 L 55 3.24" fill="none" stroke="none" pointer-events="stroke"/><path d="M 80.04 2.04 M 83.28 3.68 C 72.59 1.49 66.39 2.89 55.45 2.42 M 82.5 2.97 C 75.16 4 67.96 4.03 54.58 2.92" fill="none" stroke="#000000" stroke-width="2" stroke-linejoin="round" stroke-linecap="round" stroke-miterlimit="10" pointer-events="stroke"/></g></svg>