<?xml version="1.0" encoding="UTF-8"?>
<!DOCTYPE svg PUBLIC "-//W3C//DTD SVG 1.1//EN" "http://www.w3.org/Graphics/SVG/1.1/DTD/svg11.dtd">
<svg xmlns="http://www.w3.org/2000/svg" xmlns:xlink="http://www.w3.org/1999/xlink" version="1.1" width="367px" height="81px" viewBox="-0.5 -0.5 367 81"><defs/><g><path d="M 113 37.65 L 103.07 27.7 Q 96 20.62 101.26 12.11 L 104.13 7.47 Q 107 2.82 117 2.82 L 127 2.82" fill="none" stroke="none" pointer-events="stroke"/><path d="M 114.71 38.12 M 112.95 36.86 C 110.4 34.49 107.65 32.41 103.16 27.25 M 112.77 37.79 C 109.47 33.34 105.97 30.46 102.62 27.45 M 103.07 27.7 C 99.73 24.95 96.52 19.46 103.24 11.8 M 102.63 28.25 C 98.62 22.9 98.98 17.97 101.58 13.15 M 101 12.58 C 101.54 11.47 103.1 10.37 104.61 7.83 M 101.31 12.33 C 101.98 11.16 102.46 10.06 104.27 7.51 M 104.13 7.47 C 107.44 2.38 109.57 3.19 117.57 1.5 M 102.7 8.27 C 107.45 3.04 112.54 3.42 117.32 4.68 M 116.99 2.02 C 118.83 2.23 121.02 2.36 127.28 3.62 M 116.93 2.57 C 120.11 2.57 122.89 2.24 126.8 2.92" fill="none" stroke="#000000" stroke-width="2" stroke-linejoin="round" stroke-linecap="round" stroke-miterlimit="10" pointer-events="stroke"/><path d="M 99 74.02 L 105.5 76.02 Q 112 78.02 119 76.02 L 122.5 75.02 Q 126 74.02 126 64.02 L 126 55.48 Q 126 46.93 119 41.13 L 112 35.32" fill="none" stroke="none" pointer-events="stroke"/><path d="M 100.71 74.83 M 99.55 73.36 C 101.18 74.5 101.37 74.79 105.69 76.33 M 98.7 74.02 C 100.94 74.87 102.94 75.43 105.34 76.08 M 105.5 76.02 C 111.46 78.42 116.33 78.82 119.44 75.25 M 105.42 75.97 C 108.52 78.22 113.95 78 120.62 74.03 M 119.2 76.12 C 120.46 76.04 121.54 75.6 122.65 74.85 M 119.15 76.15 C 120.14 75.61 121.68 75.41 122.61 75.2 M 122.5 75.02 C 125.82 74.35 125.11 69.14 124.39 65.23 M 122.81 75.27 C 123.61 72.17 124.15 68.44 123.87 62.75 M 125.68 64.71 C 126.08 61.88 125.89 58.43 126.54 55.08 M 126.03 64.11 C 125.74 61.08 126.12 58.12 125.6 55.47 M 126 55.48 C 127.68 51.09 121.89 46.87 120.56 39.76 M 124.65 56.83 C 128 50.93 121.55 47.25 117.65 39.15 M 119.38 40.88 C 116.98 39.66 113.35 36.76 111.81 34.56 M 118.92 41.57 C 115.97 39.32 113.75 36.97 112.39 35.59" fill="none" stroke="#000000" stroke-width="2" stroke-linejoin="round" stroke-linecap="round" stroke-miterlimit="10" pointer-events="stroke"/><path d="M 165 76.42 L 165 6.02" fill="none" stroke="none" pointer-events="stroke"/><path d="M 166.71 77.91 M 165.98 76.79 C 166.13 58.1 165.88 38.95 166.41 6.01 M 164.99 76.06 C 164.94 62.69 165.32 46.79 164.88 5.28" fill="none" stroke="#000000" stroke-width="2" stroke-linejoin="round" stroke-linecap="round" stroke-miterlimit="10" pointer-events="stroke"/><path d="M 186 2.82 L 137 2.82" fill="none" stroke="none" pointer-events="stroke"/><path d="M 187.71 4.65 M 184.66 2.35 C 165.26 3.92 149.71 1.8 138.83 4.35 M 185.43 2.28 C 169.51 2.61 151.98 1.92 137.06 2.62" fill="none" stroke="#000000" stroke-width="2" stroke-linejoin="round" stroke-linecap="round" stroke-miterlimit="10" pointer-events="stroke"/><path d="M 191 74.82 L 222 0.42" fill="none" stroke="none" pointer-events="stroke"/><path d="M 192.71 73.33 M 189.02 76.68 C 199.37 59.34 205.53 40.39 220.69 1.04 M 191.31 73.9 C 198.82 57.88 204.58 38.48 222.41 1.29" fill="none" stroke="#000000" stroke-width="2" stroke-linejoin="round" stroke-linecap="round" stroke-miterlimit="10" pointer-events="stroke"/><path d="M 243 76.42 L 224 1.22" fill="none" stroke="none" pointer-events="stroke"/><path d="M 244.71 75.27 M 242.7 77.44 C 235.48 51.97 231.64 25.92 223.11 -0.62 M 242.75 77.32 C 236.51 47.86 228.97 20.01 224.58 0.63" fill="none" stroke="#000000" stroke-width="2" stroke-linejoin="round" stroke-linecap="round" stroke-miterlimit="10" pointer-events="stroke"/><path d="M 236 58.02 L 205 46.82" fill="none" stroke="none" pointer-events="stroke"/><path d="M 236.88 58.49 M 234.56 57.12 C 225.66 51.71 211.33 50.71 204.12 45.24 M 236.44 57.07 C 223.12 53.13 211.42 48.69 206 46.94" fill="none" stroke="#000000" stroke-width="2" stroke-linejoin="round" stroke-linecap="round" stroke-miterlimit="10" pointer-events="stroke"/><path d="M 335 77.42 L 335 7.02" fill="none" stroke="none" pointer-events="stroke"/><path d="M 335.88 78.57 M 336.92 78.85 C 336.37 59.9 337.69 43.24 334.97 8.52 M 334.32 78.1 C 334.41 57.76 335.42 39.33 334.35 6.22" fill="none" stroke="#000000" stroke-width="2" stroke-linejoin="round" stroke-linecap="round" stroke-miterlimit="10" pointer-events="stroke"/><path d="M 356 3.82 L 307 3.82" fill="none" stroke="none" pointer-events="stroke"/><path d="M 356.88 5.31 M 355.6 4.41 C 336.88 2.81 320.74 4.56 307.4 2.87 M 356.76 4.31 C 345.63 5.06 335.29 4.5 306.52 3.56" fill="none" stroke="#000000" stroke-width="2" stroke-linejoin="round" stroke-linecap="round" stroke-miterlimit="10" pointer-events="stroke"/><path d="M 264 77.42 L 264 3.42" fill="none" stroke="none" pointer-events="stroke"/><path d="M 264.88 75.59 M 262.96 76.34 C 265.52 47.98 266.14 20.96 265.26 1.55 M 263.64 77.54 C 263.9 54.32 262.91 32.25 263.87 4.23" fill="none" stroke="#000000" stroke-width="2" stroke-linejoin="round" stroke-linecap="round" stroke-miterlimit="10" pointer-events="stroke"/><path d="M 265 3.02 L 276.03 3.86 Q 286 4.62 289.36 14.04 L 292.68 23.33 Q 296 32.62 286.34 35.2 L 266 40.62" fill="none" stroke="none" pointer-events="stroke"/><path d="M 265.88 1.53 M 265.36 1.96 C 267.59 3.16 271.25 3.49 276.96 3.68 M 264.49 2.98 C 267.49 3.55 270.42 3.19 276.06 3.5 M 276.03 3.86 C 283 4.6 287.23 6.82 291.28 13.87 M 274.68 3.04 C 282.04 5.17 288.03 5.76 287.93 13.37 M 290.26 13.06 C 289.91 16.09 290.58 17.66 293.03 24.11 M 289.47 13.84 C 290.89 17.29 291.14 20.44 292.41 23.38 M 292.68 23.33 C 296.75 29.53 294.3 33 285.96 36.51 M 292.43 23.51 C 296.44 28.44 290.93 32.58 285.98 34.8 M 284.99 35.74 C 278.86 38.65 271.37 38.61 267.5 40.07 M 286.83 36.09 C 278.03 36.99 271.32 39.41 265.25 39.73" fill="none" stroke="#000000" stroke-width="2" stroke-linejoin="round" stroke-linecap="round" stroke-miterlimit="10" pointer-events="stroke"/><path d="M 296 77.42 L 280 39.02" fill="none" stroke="none" pointer-events="stroke"/><path d="M 296.88 76.27 M 294.32 78.66 C 292.09 68.58 288.52 57.88 278.11 40.24 M 296.52 77.16 C 290.6 62.27 284.03 46.74 280.22 38.91" fill="none" stroke="#000000" stroke-width="2" stroke-linejoin="round" stroke-linecap="round" stroke-miterlimit="10" pointer-events="stroke"/><path d="M 0 77.42 L 0 0.42" fill="none" stroke="none" pointer-events="stroke"/><path d="M 0.88 76.77 M 0.33 77.74 C -0.03 57.86 -1.71 38.73 0.79 0.23 M 0.5 76.51 C -0.4 47.94 0.61 19.64 0.6 -0.23" fill="none" stroke="#000000" stroke-width="2" stroke-linejoin="round" stroke-linecap="round" stroke-miterlimit="10" pointer-events="stroke"/><path d="M 1.25 0 L 17.52 1.04 Q 27.5 1.67 31.44 10.86 L 36.06 21.61 Q 40 30.8 30.24 32.97 L 2.5 39.13" fill="none" stroke="none" pointer-events="stroke"/><path d="M 2.13 -0.31 M -0.37 -0.42 C 8.16 -0.39 12.45 1.14 18.51 2.14 M 1.2 0.73 C 7.1 0.45 10.84 1.35 18.15 0.95 M 17.52 1.04 C 23.27 1.37 28.14 6.14 31.68 10.18 M 17.87 -0.23 C 22.39 0.07 27.51 5.99 32.91 11.27 M 32.21 12.02 C 33.54 15.18 34.66 20.36 35.56 22.67 M 31.02 10.5 C 32.76 13.14 33.4 15.96 36.64 21.16 M 36.06 21.61 C 37.52 29.33 34.97 31.3 31.11 34.53 M 34.69 22.98 C 38.4 26.7 35.74 32.08 28.29 30.89 M 29.32 32.74 C 23.5 34.32 13.24 36.52 2.69 38.02 M 30.13 33.06 C 23.94 34.08 17.5 35.67 3.25 39.93" fill="none" stroke="#000000" stroke-width="2" stroke-linejoin="round" stroke-linecap="round" stroke-miterlimit="10" pointer-events="stroke"/><path d="M 40 77.42 L 20 37.46" fill="none" stroke="none" pointer-events="stroke"/><path d="M 40.88 77.45 M 39.69 76.07 C 32.86 65.61 29.12 53.98 21.64 36.35 M 39.38 78.13 C 34.47 66.64 29.02 57.6 20.95 37.88" fill="none" stroke="#000000" stroke-width="2" stroke-linejoin="round" stroke-linecap="round" stroke-miterlimit="10" pointer-events="stroke"/><path d="M 52 74.78 L 52 2.42" fill="none" stroke="none" pointer-events="stroke"/><path d="M 52.88 73.37 M 52.6 76.28 C 53.91 61.69 52.26 45.44 52.6 3.23 M 51.7 74.57 C 52.2 55.04 52.9 34.18 52.73 1.95" fill="none" stroke="#000000" stroke-width="2" stroke-linejoin="round" stroke-linecap="round" stroke-miterlimit="10" pointer-events="stroke"/><path d="M 85 76.42 L 50 76.42" fill="none" stroke="none" pointer-events="stroke"/><path d="M 85.88 75.35 M 83.28 77.08 C 72.99 78.31 63.88 74.7 51.03 74.77 M 84.14 76.03 C 78.09 75.79 70.38 75.55 50.91 76.49" fill="none" stroke="#000000" stroke-width="2" stroke-linejoin="round" stroke-linecap="round" stroke-miterlimit="10" pointer-events="stroke"/><path d="M 75 41.89 L 56 41.89" fill="none" stroke="none" pointer-events="stroke"/><path d="M 75.88 41.16 M 74.96 41.72 C 71.05 43.76 64.45 42.35 57.38 41.79 M 75.55 41.34 C 67.99 42.81 60.47 41.17 55.13 42.47" fill="none" stroke="#000000" stroke-width="2" stroke-linejoin="round" stroke-linecap="round" stroke-miterlimit="10" pointer-events="stroke"/><path d="M 82 3.24 L 55 3.24" fill="none" stroke="none" pointer-events="stroke"/><path d="M 82.88 2.85 M 83.64 2.23 C 70.35 1.35 62.23 1.98 56.88 4.68 M 82.02 2.48 C 74.7 3.3 65.1 4.08 54.26 2.39" fill="none" stroke="#000000" stroke-width="2" stroke-linejoin="round" stroke-linecap="round" stroke-miterlimit="10" pointer-events="stroke"/></g></svg>