<?xml version="1.0" encoding="UTF-8"?>
<!DOCTYPE svg PUBLIC "-//W3C//DTD SVG 1.1//EN" "http://www.w3.org/Graphics/SVG/1.1/DTD/svg11.dtd">
<svg xmlns="http://www.w3.org/2000/svg" xmlns:xlink="http://www.w3.org/1999/xlink" version="1.1" width="272px" height="81px" viewBox="-0.5 -0.5 272 81"><defs/><g><path d="M 18 37.23 L 8.07 27.28 Q 1 20.2 6.26 11.69 L 9.13 7.05 Q 12 2.4 22 2.4 L 32 2.4" fill="none" stroke="none" pointer-events="stroke"/><path d="M 17.69 36.55 M 17.58 36.74 C 15.07 33.8 11.23 31.47 8.48 27.21 M 18.68 36.76 C 15.15 34.57 12.01 32.35 7.99 26.87 M 8.07 27.28 C 4.86 20.86 1.32 15.72 7.07 12.43 M 8.25 28.39 C 5.36 21.53 4.63 16.07 6.72 13.5 M 6.26 11.46 C 6.48 10.92 7.61 9.58 9.54 7.14 M 6.19 11.45 C 7.22 10.48 7.63 9.58 9.13 6.97 M 9.13 7.05 C 10.69 4.61 14.3 3.57 23.61 1.23 M 9.95 8 C 9.03 3.22 16.42 0.5 23.59 0.59 M 22.95 1.63 C 26.35 3.16 29.07 2.58 32.63 2.67 M 22.12 2.14 C 24.19 2.31 25.92 2.36 31.59 1.94" fill="none" stroke="#000000" stroke-width="2" stroke-linejoin="round" stroke-linecap="round" stroke-miterlimit="10" pointer-events="stroke"/><path d="M 4 73.6 L 10.5 75.6 Q 17 77.6 24 75.6 L 27.5 74.6 Q 31 73.6 31 63.6 L 31 55.06 Q 31 46.51 24 40.71 L 17 34.9" fill="none" stroke="none" pointer-events="stroke"/><path d="M 3.69 73.26 M 4.37 73.08 C 5.22 74.29 8.16 74.8 10.84 76.09 M 4.14 73.31 C 5.75 73.81 6.73 74.66 10.52 75.58 M 10.5 75.6 C 16.59 78.33 21.13 75.08 23.27 75.88 M 11.04 76.1 C 15.26 76.84 19.6 76.1 25.76 74.38 M 23.64 75.96 C 25.47 75.52 26.29 74.96 27.6 74.26 M 24.07 75.43 C 25.35 75.1 26.9 74.74 27.51 74.7 M 27.5 74.6 C 29.07 72.58 29.84 69.52 30.43 64.96 M 26.06 75 C 29.8 72.36 32.63 70.13 30.15 63.26 M 31.51 64.32 C 31.88 61.22 30.76 59.2 31.83 54.21 M 31.19 63.68 C 30.91 61.66 31.33 59.94 31.27 55.42 M 31 55.06 C 31.35 47.36 27.96 44.7 25.88 39.03 M 31.44 53.99 C 30.29 49.69 26.84 45.01 24.27 41.77 M 24.2 40.85 C 22.94 39.85 20.02 37.28 17.86 34.76 M 23.61 40.75 C 21.56 38.29 18.87 36.62 17 34.56" fill="none" stroke="#000000" stroke-width="2" stroke-linejoin="round" stroke-linecap="round" stroke-miterlimit="10" pointer-events="stroke"/><path d="M 79 76 L 79 5.6" fill="none" stroke="none" pointer-events="stroke"/><path d="M 78.69 76.34 M 79.44 76.79 C 80 54.52 78.89 32.23 80.86 6.14 M 78.29 76.77 C 78.44 54.45 79.84 33.37 79.41 4.63" fill="none" stroke="#000000" stroke-width="2" stroke-linejoin="round" stroke-linecap="round" stroke-miterlimit="10" pointer-events="stroke"/><path d="M 100 2.4 L 51 2.4" fill="none" stroke="none" pointer-events="stroke"/><path d="M 99.69 3.08 M 98.12 2.36 C 86.95 3.8 77.91 2.04 49.29 0.48 M 100.73 2.98 C 88.17 1.12 76.84 1.87 51.58 1.97" fill="none" stroke="#000000" stroke-width="2" stroke-linejoin="round" stroke-linecap="round" stroke-miterlimit="10" pointer-events="stroke"/><path d="M 105 74.4 L 136 0" fill="none" stroke="none" pointer-events="stroke"/><path d="M 104.69 74.9 M 105.77 75.11 C 110.68 58.42 118.3 42.25 136.11 1.58 M 104.83 74.7 C 114.72 48.66 126.62 23.89 136.61 -0.05" fill="none" stroke="#000000" stroke-width="2" stroke-linejoin="round" stroke-linecap="round" stroke-miterlimit="10" pointer-events="stroke"/><path d="M 157 76 L 138 0.8" fill="none" stroke="none" pointer-events="stroke"/><path d="M 156.69 76.84 M 155.45 75.87 C 152.03 51.24 142.9 27.99 138.53 -0.08 M 156.27 76.11 C 151.67 55.61 145.04 33.35 138.78 1.28" fill="none" stroke="#000000" stroke-width="2" stroke-linejoin="round" stroke-linecap="round" stroke-miterlimit="10" pointer-events="stroke"/><path d="M 150 57.6 L 119 46.4" fill="none" stroke="none" pointer-events="stroke"/><path d="M 149.69 58.78 M 150.13 56.64 C 141.09 54.63 134.31 51.18 119.96 47.06 M 150.71 57.52 C 142.32 54.89 135.4 51.83 119.96 45.42" fill="none" stroke="#000000" stroke-width="2" stroke-linejoin="round" stroke-linecap="round" stroke-miterlimit="10" pointer-events="stroke"/><path d="M 249 77 L 249 6.6" fill="none" stroke="none" pointer-events="stroke"/><path d="M 248.69 78.86 M 248.49 78.36 C 250.32 57.37 250.67 36.8 250.82 6.35 M 248.59 76.55 C 248.98 55.66 249.7 32.21 248.31 6.7" fill="none" stroke="#000000" stroke-width="2" stroke-linejoin="round" stroke-linecap="round" stroke-miterlimit="10" pointer-events="stroke"/><path d="M 270 3.4 L 221 3.4" fill="none" stroke="none" pointer-events="stroke"/><path d="M 269.69 1.6 M 271.17 3.93 C 258.86 4.11 248.88 1.78 219.24 4.69 M 269.03 2.77 C 258.16 3.64 245.73 4.64 220.48 4.04" fill="none" stroke="#000000" stroke-width="2" stroke-linejoin="round" stroke-linecap="round" stroke-miterlimit="10" pointer-events="stroke"/><path d="M 178 77 L 178 3" fill="none" stroke="none" pointer-events="stroke"/><path d="M 177.69 75.88 M 178.53 75.85 C 179.41 60.05 179.06 39.73 177.1 3.38 M 177.91 77.99 C 178.48 52.09 177.2 26.86 177.83 2.71" fill="none" stroke="#000000" stroke-width="2" stroke-linejoin="round" stroke-linecap="round" stroke-miterlimit="10" pointer-events="stroke"/><path d="M 179 2.6 L 190.03 3.44 Q 200 4.2 203.36 13.62 L 206.68 22.91 Q 210 32.2 200.34 34.78 L 180 40.2" fill="none" stroke="none" pointer-events="stroke"/><path d="M 178.69 1.82 M 178.01 1.5 C 182.64 3.73 186.36 4.06 189.77 4.5 M 178.64 3.05 C 182.09 2.54 185.26 3.07 190.04 3.58 M 190.03 3.44 C 194.95 2.71 200.75 6.36 202.14 14.15 M 190.78 3.22 C 198.72 3.65 201.66 8.4 203.33 15.29 M 203.31 14.42 C 205.11 17.46 206.02 20.88 206.86 22.35 M 203.29 13.75 C 204.95 16.46 205.97 19.78 206.68 22.75 M 206.68 22.91 C 210.25 27.23 205.47 31.15 201.8 34.08 M 208.27 24.66 C 207.05 30.82 208.45 32.88 199.19 33.87 M 200.88 34.31 C 192.7 35.72 183.86 39.09 181.48 39.87 M 199.58 35.14 C 192.75 37.19 185.06 38.6 180.37 41.1" fill="none" stroke="#000000" stroke-width="2" stroke-linejoin="round" stroke-linecap="round" stroke-miterlimit="10" pointer-events="stroke"/><path d="M 210 77 L 194 38.6" fill="none" stroke="none" pointer-events="stroke"/><path d="M 209.69 76.56 M 209.89 78.18 C 206.34 67.78 200.93 54.92 193.95 38.07 M 210.79 77.62 C 207.67 69.07 203.42 59.36 194.18 39.39" fill="none" stroke="#000000" stroke-width="2" stroke-linejoin="round" stroke-linecap="round" stroke-miterlimit="10" pointer-events="stroke"/></g></svg>