<?xml version="1.0" encoding="UTF-8"?>
<!DOCTYPE svg PUBLIC "-//W3C//DTD SVG 1.1//EN" "http://www.w3.org/Graphics/SVG/1.1/DTD/svg11.dtd">
<svg xmlns="http://www.w3.org/2000/svg" xmlns:xlink="http://www.w3.org/1999/xlink" version="1.1" width="962px" height="602px" viewBox="-0.5 -0.5 962 602"><defs/><g><rect x="0" y="0" width="960" height="600" fill="none" stroke="none" pointer-events="all"/><path d="M 0.79 -0.36 C 340.33 -0.38 680.11 0.16 959.63 0.11 M -0.37 0 C 286.05 2.21 572.44 2.17 960.12 0.35 M 959.56 -0.31 C 961.76 160.23 962.42 320.42 959.39 600.69 M 960.02 -0.32 C 957.86 202.05 958.32 404.65 959.79 600.35 M 960.01 600.31 C 612.58 602.32 266.02 602.84 0.06 600.36 M 960.11 600.25 C 734.04 598.25 509.05 597.87 0.37 599.96 M 0.57 600.75 C -2.67 360.77 -2.45 122.5 -0.41 -0.31 M -0.18 599.79 C 0.2 365.95 0.23 132.31 0.1 0.02" fill="none" stroke="#000000" stroke-linejoin="round" stroke-linecap="round" stroke-miterlimit="10" pointer-events="all"/></g></svg>