<?xml version="1.0" encoding="UTF-8"?>
<!DOCTYPE svg PUBLIC "-//W3C//DTD SVG 1.1//EN" "http://www.w3.org/Graphics/SVG/1.1/DTD/svg11.dtd">
<svg xmlns="http://www.w3.org/2000/svg" xmlns:xlink="http://www.w3.org/1999/xlink" version="1.1" width="21px" height="57px" viewBox="-0.5 -0.5 21 57"><defs/><g><ellipse cx="7.5" cy="7.5" rx="7.5" ry="7.5" fill="transparent" stroke="none" pointer-events="all"/><path d="M 10.56 0.64 C 12.05 1.26 14.22 3.69 14.98 5.16 C 15.74 6.62 15.57 7.93 15.12 9.43 C 14.67 10.94 13.8 13.44 12.28 14.18 C 10.77 14.93 7.68 14.12 6.03 13.9 C 4.38 13.69 3.44 13.78 2.38 12.9 C 1.31 12.03 -0.35 10.4 -0.36 8.67 C -0.37 6.93 1.34 4 2.33 2.5 C 3.33 1 4.08 -0.28 5.61 -0.36 C 7.15 -0.44 10.47 1.39 11.53 2 C 12.6 2.62 11.96 3.36 11.99 3.34 M 7.17 0.9 C 8.49 1.26 12.06 1.89 13.21 2.73 C 14.35 3.57 14.22 4.22 14.05 5.96 C 13.88 7.71 13.1 11.95 12.19 13.21 C 11.29 14.47 9.96 13.26 8.64 13.5 C 7.31 13.74 5.6 15.38 4.25 14.65 C 2.91 13.92 1.21 10.7 0.55 9.12 C -0.11 7.54 -0.03 6.63 0.29 5.17 C 0.6 3.71 0.84 1.26 2.44 0.36 C 4.04 -0.54 8.73 -0.03 9.89 -0.24 C 11.04 -0.44 9.72 -0.9 9.38 -0.86" fill="none" stroke="#000000" stroke-linejoin="round" stroke-linecap="round" stroke-miterlimit="10" pointer-events="all"/><path d="M 8 20 L 7.5 15" fill="none" stroke="none" pointer-events="stroke"/><path d="M 6.5 19.39 M 8.42 19.99 C 8.08 18.05 7.35 16.16 7.96 15.31 M 8.14 19.98 C 7.66 18.53 7.42 16.86 7.38 15.08" fill="none" stroke="#000000" stroke-linejoin="round" stroke-linecap="round" stroke-miterlimit="10" pointer-events="stroke"/><path d="M 8 36 L 8 20" fill="none" stroke="none" pointer-events="stroke"/><path d="M 6.5 35.73 M 7.49 35.29 C 6.89 31.25 8.17 28.16 6.6 19.02 M 8.01 35.8 C 8.55 31.59 7.77 27.56 7.77 20.69" fill="none" stroke="#000000" stroke-linejoin="round" stroke-linecap="round" stroke-miterlimit="10" pointer-events="stroke"/><path d="M 15 46 L 8 37" fill="none" stroke="none" pointer-events="stroke"/><path d="M 13.5 46.07 M 15.59 45.02 C 13.58 44.15 12.86 42.29 7.25 37.18 M 14.69 45.75 C 13.35 43.52 12.08 42.09 7.94 36.66" fill="none" stroke="#000000" stroke-linejoin="round" stroke-linecap="round" stroke-miterlimit="10" pointer-events="stroke"/><path d="M 4 46 L 7 37" fill="none" stroke="none" pointer-events="stroke"/><path d="M 2.5 46.41 M 3.39 46.68 C 5.63 43.19 5.27 39.36 6.58 37.88 M 4.42 45.7 C 5.4 42.96 6.32 39.46 7.03 36.97" fill="none" stroke="#000000" stroke-linejoin="round" stroke-linecap="round" stroke-miterlimit="10" pointer-events="stroke"/><path d="M 14 26 L 9 20" fill="none" stroke="none" pointer-events="stroke"/><path d="M 12.5 26.75 M 14.16 26.23 C 12.29 24.78 11.37 23.4 8.82 19.77 M 14.13 25.68 C 12.42 24.03 11.34 22.19 9.09 20.19" fill="none" stroke="#000000" stroke-linejoin="round" stroke-linecap="round" stroke-miterlimit="10" pointer-events="stroke"/><path d="M 3 27 L 8 21" fill="none" stroke="none" pointer-events="stroke"/><path d="M 1.5 27.23 M 3.53 26.29 C 3.97 24.64 5.37 24.03 8.36 21.53 M 3 26.64 C 4.11 25.91 5.48 24.05 8.03 21.13" fill="none" stroke="#000000" stroke-linejoin="round" stroke-linecap="round" stroke-miterlimit="10" pointer-events="stroke"/><path d="M 1 55 L 4 46" fill="none" stroke="none" pointer-events="stroke"/><path d="M -0.5 55.57 M 0.55 55.64 C 1.58 52.5 2.01 51.09 4.64 45.48 M 0.73 55.43 C 2.51 51.56 3.53 47.83 4.12 46.41" fill="none" stroke="#000000" stroke-linejoin="round" stroke-linecap="round" stroke-miterlimit="10" pointer-events="stroke"/><path d="M 18 55 L 15 46" fill="none" stroke="none" pointer-events="stroke"/><path d="M 16.5 55.91 M 18.35 55.24 C 17.63 51.56 16.28 48.17 15.85 46.21 M 18.42 55.34 C 16.87 51.73 16.36 48.76 15.21 45.71" fill="none" stroke="#000000" stroke-linejoin="round" stroke-linecap="round" stroke-miterlimit="10" pointer-events="stroke"/><path d="M 19 32 L 14 26" fill="none" stroke="none" pointer-events="stroke"/><path d="M 17.5 33.25 M 18.38 31.87 C 17.27 30.2 17.17 29.2 13.3 26.78 M 19.12 32.21 C 18.05 30.57 16.03 28.35 14.24 25.98" fill="none" stroke="#000000" stroke-linejoin="round" stroke-linecap="round" stroke-miterlimit="10" pointer-events="stroke"/><path d="M 1 34 L 3 27" fill="none" stroke="none" pointer-events="stroke"/><path d="M -0.5 35.59 M 1.03 33.58 C 1.93 31.23 2.27 28.4 2.5 26.83 M 0.91 34.13 C 1.49 32.42 1.82 31.27 3.29 27.17" fill="none" stroke="#000000" stroke-linejoin="round" stroke-linecap="round" stroke-miterlimit="10" pointer-events="stroke"/></g></svg>