<?xml version="1.0" encoding="UTF-8"?>
<!DOCTYPE svg PUBLIC "-//W3C//DTD SVG 1.1//EN" "http://www.w3.org/Graphics/SVG/1.1/DTD/svg11.dtd">
<svg xmlns="http://www.w3.org/2000/svg" xmlns:xlink="http://www.w3.org/1999/xlink" version="1.1" width="24px" height="57px" viewBox="-0.5 -0.5 24 57"><defs/><g><path d="M 5 18 L 0 12" fill="none" stroke="none" pointer-events="stroke"/><path d="M 5.84 19.71 M 5.67 18.21 C 2.73 15.66 0.94 13.75 -0.07 12.61 M 4.67 17.71 C 3.88 16.38 2.23 15.18 -0.22 11.68" fill="none" stroke="#000000" stroke-linejoin="round" stroke-linecap="round" stroke-miterlimit="10" pointer-events="stroke"/><ellipse cx="11.5" cy="7.5" rx="7.5" ry="7.5" fill="transparent" stroke="none" pointer-events="all"/><path d="M 13.25 0.52 C 14.88 0.68 16.74 1.5 17.74 2.63 C 18.75 3.75 19.2 5.81 19.28 7.26 C 19.35 8.71 19.44 10 18.2 11.31 C 16.96 12.63 13.78 14.85 11.84 15.16 C 9.9 15.47 7.99 14.08 6.55 13.17 C 5.12 12.27 3.55 11.17 3.25 9.72 C 2.95 8.27 4.04 5.92 4.76 4.47 C 5.48 3.01 6.04 1.45 7.6 1 C 9.16 0.55 12.66 1.73 14.1 1.76 C 15.55 1.79 16.29 1.2 16.29 1.19 M 13.16 2.08 C 14.67 2.33 15.82 0.95 16.56 2.16 C 17.31 3.37 17.53 7.43 17.64 9.33 C 17.75 11.22 17.96 12.69 17.23 13.52 C 16.49 14.34 15.21 14.28 13.24 14.29 C 11.28 14.29 7.22 14.13 5.46 13.52 C 3.7 12.91 2.61 12.38 2.68 10.62 C 2.75 8.85 4.69 4.58 5.88 2.91 C 7.07 1.23 8.4 1.17 9.84 0.55 C 11.28 -0.06 13.68 -0.91 14.52 -0.8 C 15.36 -0.68 14.98 0.73 14.88 1.27" fill="none" stroke="#000000" stroke-linejoin="round" stroke-linecap="round" stroke-miterlimit="10" pointer-events="all"/><path d="M 12 20 L 11.5 15" fill="none" stroke="none" pointer-events="stroke"/><path d="M 12.84 21.53 M 12.09 20.32 C 11.84 18.75 11.39 16.45 11.91 15.26 M 12.07 20.25 C 11.66 18.35 11.42 16.75 11.36 14.89" fill="none" stroke="#000000" stroke-linejoin="round" stroke-linecap="round" stroke-miterlimit="10" pointer-events="stroke"/><path d="M 12 36 L 12 20" fill="none" stroke="none" pointer-events="stroke"/><path d="M 12.84 37.87 M 10.43 36.35 C 13.27 30.3 12.23 25.94 10.45 18.88 M 11.77 36.64 C 12.61 31.04 11.85 27.22 11.71 20.09" fill="none" stroke="#000000" stroke-linejoin="round" stroke-linecap="round" stroke-miterlimit="10" pointer-events="stroke"/><path d="M 19 46 L 12 37" fill="none" stroke="none" pointer-events="stroke"/><path d="M 19.84 44.21 M 18.84 45.78 C 15.78 41.65 14.47 39.31 11.14 37.08 M 18.51 46.35 C 17.22 44.36 15.79 42 11.89 37.37" fill="none" stroke="#000000" stroke-linejoin="round" stroke-linecap="round" stroke-miterlimit="10" pointer-events="stroke"/><path d="M 8 46 L 11 37" fill="none" stroke="none" pointer-events="stroke"/><path d="M 8.84 44.55 M 8.66 45.42 C 9.07 42.66 9.15 39.95 10.49 37.8 M 8.28 46.2 C 9.51 42.63 10.51 39.26 10.99 36.61" fill="none" stroke="#000000" stroke-linejoin="round" stroke-linecap="round" stroke-miterlimit="10" pointer-events="stroke"/><path d="M 20 19 L 13 20" fill="none" stroke="none" pointer-events="stroke"/><path d="M 20.84 17.89 M 19.68 19.68 C 19.05 18.95 16.74 19.98 12.77 19.73 M 20.01 19.08 C 17.7 19.11 15.82 19.63 13.06 19.9" fill="none" stroke="#000000" stroke-linejoin="round" stroke-linecap="round" stroke-miterlimit="10" pointer-events="stroke"/><path d="M 5 18 L 12 21" fill="none" stroke="none" pointer-events="stroke"/><path d="M 5.84 17.23 M 5.29 18.42 C 7.14 18.75 10.25 19.94 11.91 21.29 M 4.8 18.02 C 7.22 19.07 8.46 19.51 12.13 21.1" fill="none" stroke="#000000" stroke-linejoin="round" stroke-linecap="round" stroke-miterlimit="10" pointer-events="stroke"/><path d="M 5 55 L 8 46" fill="none" stroke="none" pointer-events="stroke"/><path d="M 5.84 54.57 M 4.26 55.12 C 6.08 52.38 5.71 49.25 8.1 45.2 M 5.43 54.94 C 5.55 53.05 6.04 50.99 8.24 46.38" fill="none" stroke="#000000" stroke-linejoin="round" stroke-linecap="round" stroke-miterlimit="10" pointer-events="stroke"/><path d="M 22 55 L 19 46" fill="none" stroke="none" pointer-events="stroke"/><path d="M 22.84 54.91 M 22.06 54.73 C 19.94 51.41 19.39 48.2 19.3 45.93 M 22.16 54.85 C 20.59 51.42 20.04 48.31 19.32 45.69" fill="none" stroke="#000000" stroke-linejoin="round" stroke-linecap="round" stroke-miterlimit="10" pointer-events="stroke"/><path d="M 20 18 L 22 11" fill="none" stroke="none" pointer-events="stroke"/><path d="M 20.84 18.26 M 20.66 17.49 C 20.5 15.86 21.5 13.24 22.38 11.51 M 19.92 17.81 C 20.69 16.09 21.41 14.25 22.31 10.95" fill="none" stroke="#000000" stroke-linejoin="round" stroke-linecap="round" stroke-miterlimit="10" pointer-events="stroke"/></g></svg>