<?xml version="1.0" encoding="UTF-8"?>
<!DOCTYPE svg PUBLIC "-//W3C//DTD SVG 1.1//EN" "http://www.w3.org/Graphics/SVG/1.1/DTD/svg11.dtd">
<svg xmlns="http://www.w3.org/2000/svg" xmlns:xlink="http://www.w3.org/1999/xlink" version="1.1" width="24px" height="57px" viewBox="-0.5 -0.5 24 57"><defs/><g><path d="M 5 18 L 0 12" fill="none" stroke="none" pointer-events="stroke"/><path d="M 5.77 18.68 M 5.65 18.7 C 3.13 16.2 1.12 13.14 0.77 12.06 M 5.35 17.76 C 3.64 16.07 2.17 14.59 0.3 12.04" fill="none" stroke="#000000" stroke-linejoin="round" stroke-linecap="round" stroke-miterlimit="10" pointer-events="stroke"/><ellipse cx="11.5" cy="7.5" rx="7.5" ry="7.5" fill="transparent" stroke="none" pointer-events="all"/><path d="M 14.33 1.38 C 15.92 1.83 17.08 2.34 17.97 3.67 C 18.86 5 19.73 7.86 19.66 9.34 C 19.58 10.82 18.76 11.7 17.52 12.55 C 16.27 13.4 13.78 14.38 12.17 14.42 C 10.56 14.46 9.21 13.77 7.85 12.77 C 6.49 11.77 4.67 9.94 4.01 8.43 C 3.35 6.92 3.13 4.88 3.88 3.71 C 4.63 2.54 6.64 1.91 8.5 1.41 C 10.37 0.9 14.05 0.77 15.06 0.68 C 16.06 0.59 14.6 0.75 14.56 0.87 M 7.83 -0.21 C 9.17 -0.83 11.89 1.27 13.56 1.78 C 15.22 2.29 17.03 1.67 17.81 2.83 C 18.59 4 18.46 6.88 18.26 8.78 C 18.05 10.67 17.56 13.17 16.58 14.22 C 15.61 15.28 14.02 15.21 12.42 15.11 C 10.82 15.01 8.26 14.64 6.99 13.62 C 5.71 12.6 5.14 10.57 4.77 8.97 C 4.4 7.37 4.11 5.39 4.74 4.02 C 5.37 2.66 8.03 1.4 8.57 0.76 C 9.11 0.13 8 0.06 7.98 0.22" fill="none" stroke="#000000" stroke-linejoin="round" stroke-linecap="round" stroke-miterlimit="10" pointer-events="all"/><path d="M 12 20 L 11.5 15" fill="none" stroke="none" pointer-events="stroke"/><path d="M 12.76 18.82 M 12.24 19.51 C 11.45 18.9 11.98 16.53 11.9 14.85 M 11.79 20.2 C 11.99 18.17 11.61 16.97 11.42 15.13" fill="none" stroke="#000000" stroke-linejoin="round" stroke-linecap="round" stroke-miterlimit="10" pointer-events="stroke"/><path d="M 12 36 L 12 20" fill="none" stroke="none" pointer-events="stroke"/><path d="M 12.76 34.3 M 13.53 35.72 C 10.59 30.09 11.86 23.93 11.18 21.09 M 12.66 36.55 C 12.44 32.05 12.81 26.78 11.63 20.27" fill="none" stroke="#000000" stroke-linejoin="round" stroke-linecap="round" stroke-miterlimit="10" pointer-events="stroke"/><path d="M 19 46 L 12 37" fill="none" stroke="none" pointer-events="stroke"/><path d="M 19.77 44.64 M 18.76 45.32 C 16.93 43.53 15.77 41.92 11.66 36.37 M 19.15 46.29 C 17.23 43.98 15.58 41.68 11.84 37.5" fill="none" stroke="#000000" stroke-linejoin="round" stroke-linecap="round" stroke-miterlimit="10" pointer-events="stroke"/><path d="M 8 46 L 11 37" fill="none" stroke="none" pointer-events="stroke"/><path d="M 8.77 44.98 M 8.6 46.94 C 9.64 42.57 9.47 38.85 10.92 37.21 M 7.86 46.15 C 9.36 42.3 10.04 39.96 10.95 36.72" fill="none" stroke="#000000" stroke-linejoin="round" stroke-linecap="round" stroke-miterlimit="10" pointer-events="stroke"/><path d="M 20 19 L 13 20" fill="none" stroke="none" pointer-events="stroke"/><path d="M 20.77 18.32 M 19.63 19.4 C 17.28 19.45 15.37 18.99 13.09 20.7 M 19.7 19.05 C 17.79 19.36 15.82 19.82 13.02 19.99" fill="none" stroke="#000000" stroke-linejoin="round" stroke-linecap="round" stroke-miterlimit="10" pointer-events="stroke"/><path d="M 6 19 L 12 21" fill="none" stroke="none" pointer-events="stroke"/><path d="M 6.77 18.66 M 6.2 19.09 C 7.43 19.7 9.06 20.15 12.21 20.85 M 6.18 18.98 C 7.75 19.33 9.17 20.13 12.08 21.16" fill="none" stroke="#000000" stroke-linejoin="round" stroke-linecap="round" stroke-miterlimit="10" pointer-events="stroke"/><path d="M 5 55 L 8 46" fill="none" stroke="none" pointer-events="stroke"/><path d="M 5.77 55 M 4.2 54.75 C 6.83 52.29 8.1 48.15 8.52 46.51 M 5.01 54.89 C 6.19 51.87 6.95 48.09 8.2 45.54" fill="none" stroke="#000000" stroke-linejoin="round" stroke-linecap="round" stroke-miterlimit="10" pointer-events="stroke"/><path d="M 22 55 L 19 46" fill="none" stroke="none" pointer-events="stroke"/><path d="M 22.77 55.34 M 21.99 54.35 C 20.58 53.13 19.83 50.71 19.73 45.34 M 21.74 54.8 C 20.54 52.04 19.76 49.01 19.28 45.8" fill="none" stroke="#000000" stroke-linejoin="round" stroke-linecap="round" stroke-miterlimit="10" pointer-events="stroke"/><path d="M 20 18 L 22 11" fill="none" stroke="none" pointer-events="stroke"/><path d="M 20.77 19.02 M 19.76 18.35 C 21.32 16.45 21.85 12.92 21.41 11.62 M 20.12 17.71 C 20.11 16.66 20.96 14.74 22.34 11.24" fill="none" stroke="#000000" stroke-linejoin="round" stroke-linecap="round" stroke-miterlimit="10" pointer-events="stroke"/></g></svg>