<?xml version="1.0" encoding="UTF-8"?>
<!DOCTYPE svg PUBLIC "-//W3C//DTD SVG 1.1//EN" "http://www.w3.org/Graphics/SVG/1.1/DTD/svg11.dtd">
<svg xmlns="http://www.w3.org/2000/svg" xmlns:xlink="http://www.w3.org/1999/xlink" version="1.1" width="24px" height="57px" viewBox="-0.5 -0.5 24 57"><defs/><g><path d="M 5 18 L 0 12" fill="none" stroke="none" pointer-events="stroke"/><path d="M 5.84 17.26 M 4.54 17.91 C 3.69 17.25 2.36 14.57 -0.14 11.88 M 5.06 17.83 C 4.32 16.66 2.92 15.92 -0.05 11.87" fill="none" stroke="#000000" stroke-linejoin="round" stroke-linecap="round" stroke-miterlimit="10" pointer-events="stroke"/><ellipse cx="11.5" cy="7.5" rx="7.5" ry="7.5" fill="transparent" stroke="none" pointer-events="all"/><path d="M 14.44 -0.49 C 15.99 0.06 17.57 2.49 18.36 4.08 C 19.14 5.67 19.32 7.59 19.13 9.05 C 18.93 10.51 18.44 11.92 17.19 12.83 C 15.95 13.74 13.47 14.43 11.65 14.51 C 9.82 14.59 7.36 14.16 6.25 13.32 C 5.13 12.47 5.1 10.96 4.95 9.43 C 4.81 7.91 4.75 5.5 5.38 4.16 C 6.01 2.82 6.94 1.81 8.73 1.38 C 10.53 0.96 14.82 1.35 16.16 1.61 C 17.49 1.87 16.84 2.9 16.76 2.96 M 15.4 0.43 C 16.81 0.75 16.95 2.23 17.32 3.48 C 17.69 4.73 17.57 6.12 17.62 7.92 C 17.67 9.73 18.63 13 17.62 14.3 C 16.6 15.6 13.2 15.66 11.54 15.72 C 9.87 15.78 8.92 15.74 7.61 14.65 C 6.3 13.56 4.15 11.2 3.66 9.16 C 3.16 7.12 3.96 4.02 4.65 2.41 C 5.33 0.79 6 -0.32 7.79 -0.53 C 9.58 -0.74 14.31 0.9 15.38 1.15 C 16.46 1.4 14.53 1.16 14.26 0.97" fill="none" stroke="#000000" stroke-linejoin="round" stroke-linecap="round" stroke-miterlimit="10" pointer-events="all"/><path d="M 12 20 L 11.5 15" fill="none" stroke="none" pointer-events="stroke"/><path d="M 12.84 19.94 M 11.54 19.52 C 11.56 18.2 11.23 17.06 11.62 14.69 M 11.76 19.8 C 12.09 18.57 11.87 17.18 11.56 15.19" fill="none" stroke="#000000" stroke-linejoin="round" stroke-linecap="round" stroke-miterlimit="10" pointer-events="stroke"/><path d="M 12 36 L 12 20" fill="none" stroke="none" pointer-events="stroke"/><path d="M 12.84 36.28 M 11.89 37 C 12.3 31.73 11.51 31.05 12.73 20.25 M 12.38 35.2 C 11.97 31.75 11.21 28.61 12.32 19.42" fill="none" stroke="#000000" stroke-linejoin="round" stroke-linecap="round" stroke-miterlimit="10" pointer-events="stroke"/><path d="M 19 46 L 12 37" fill="none" stroke="none" pointer-events="stroke"/><path d="M 19.84 46.62 M 19.88 46.23 C 17.62 42.45 14.65 40.31 12.76 38.06 M 18.95 46.47 C 15.79 42.93 13.36 39.12 12.33 36.89" fill="none" stroke="#000000" stroke-linejoin="round" stroke-linecap="round" stroke-miterlimit="10" pointer-events="stroke"/><path d="M 8 46 L 11 37" fill="none" stroke="none" pointer-events="stroke"/><path d="M 8.84 46.96 M 7.63 45.8 C 8.3 43.44 10.24 40.99 11.84 36.72 M 7.69 46.3 C 9.15 43.03 9.98 40.04 11.36 37.17" fill="none" stroke="#000000" stroke-linejoin="round" stroke-linecap="round" stroke-miterlimit="10" pointer-events="stroke"/><path d="M 20 19 L 13 20" fill="none" stroke="none" pointer-events="stroke"/><path d="M 20.84 19.45 M 20.07 19.41 C 17.54 19.66 16 19.31 12.7 20.48 M 19.65 19.19 C 18.14 19.06 15.9 19.68 13.21 20.07" fill="none" stroke="#000000" stroke-linejoin="round" stroke-linecap="round" stroke-miterlimit="10" pointer-events="stroke"/><path d="M 5 18 L 12 21" fill="none" stroke="none" pointer-events="stroke"/><path d="M 5.84 18.79 M 5.71 18.12 C 6.6 19.16 8.52 19.9 11.84 20.58 M 5.18 18.13 C 6.19 18.84 7.85 19.3 12.3 21.28" fill="none" stroke="#000000" stroke-linejoin="round" stroke-linecap="round" stroke-miterlimit="10" pointer-events="stroke"/><path d="M 5 55 L 8 46" fill="none" stroke="none" pointer-events="stroke"/><path d="M 5.84 56.13 M 4.78 54.76 C 6.75 52.85 6.29 49.12 8.01 46.21 M 4.95 55.08 C 6.25 51.68 7.19 48.47 8.45 45.65" fill="none" stroke="#000000" stroke-linejoin="round" stroke-linecap="round" stroke-miterlimit="10" pointer-events="stroke"/><path d="M 22 55 L 19 46" fill="none" stroke="none" pointer-events="stroke"/><path d="M 22.84 56.47 M 22.58 54.36 C 20.84 51.79 20.42 49.79 19.21 46.94 M 21.69 54.99 C 20.81 52.77 20.4 49.36 18.59 45.91" fill="none" stroke="#000000" stroke-linejoin="round" stroke-linecap="round" stroke-miterlimit="10" pointer-events="stroke"/><path d="M 20 18 L 22 11" fill="none" stroke="none" pointer-events="stroke"/><path d="M 20.84 19.81 M 19.6 18.66 C 21 14.8 21.91 13.17 22.32 10.83 M 20.28 17.92 C 20.64 16.38 21.27 14.32 21.75 11.13" fill="none" stroke="#000000" stroke-linejoin="round" stroke-linecap="round" stroke-miterlimit="10" pointer-events="stroke"/></g></svg>